<?xml version="1.0" encoding="UTF-8"?>
<svg id="_レイヤー_2" data-name="レイヤー 2" xmlns="http://www.w3.org/2000/svg" viewBox="0 0 70.11 72.08">
  <defs>
    <style>
      .cls-1 {
        fill: #00913a;
      }
    </style>
  </defs>
  <g id="_レイヤー_1-2" data-name="レイヤー 1">
    <path class="cls-1" d="M18.99,52.79C10.09,43.81,3.13,33.79.82,26.64.22,25.24-.05,23.71,0,22.11c0-.42.04-.79.1-1.13.2-1.51.7-3.04,1.48-4.51.97-1.81,2.38-3.49,4.07-4.86,0,0,.23-.17.38-.28.51-.38.91-.67,1.09-.79l1.75-1.13c.45-.29.97-.44,1.51-.44.73,0,1.45.3,1.97.81.14.14.26.29.37.46l9.77,15.18c.51.79.58,1.78.19,2.65-.22.49-.58.9-1.03,1.19l-1.75,1.12c-.2.13-.67.39-1.22.69l-.4.22c-.43.21-.87.41-1.33.59-1.37,1.92,1.49,8.38,8.01,14.96l.15.15c6.34,6.34,12.94,9.35,14.81,7.92.18-.45.39-.89.6-1.31,0,0,.14-.25.24-.42.31-.54.55-.97.67-1.15l1.14-1.74c.3-.45.71-.8,1.2-1.01.87-.38,1.86-.3,2.65.21l15.1,9.9c.16.1.31.22.44.36.52.52.82,1.25.81,1.99,0,.54-.16,1.06-.45,1.51l-1.14,1.74c-.12.19-.42.59-.81,1.09-.11.15-.29.38-.29.38-1.38,1.68-3.07,3.07-4.88,4.02-1.36.71-2.78,1.18-4.22,1.4-1.09.26-2.42.24-3.95-.08h-.05c-6.94-1.49-17.77-8.8-27.62-18.65l-.38-.38ZM47.76,34.61c-.27-.01-.58-.2-.85-.51-.4-.46-.66-1.15-.61-1.56.39-2.99-.99-5.97-3.51-7.59-1.18-.76-2.48-1.17-3.86-1.23-.35-.01-.7,0-1.05.03-.13.01-.28.01-.43,0-.27-.01-1.19-.09-1.78-.59-.26-.22-.4-.48-.42-.81-.04-.59.14-1.08.56-1.51.7-.71,1.96-1.05,2.63-1.06.22,0,.43,0,.65,0,2.06.09,4.08.73,5.82,1.85,3.28,2.11,5.28,5.7,5.37,9.6.01.61-.17,1.98-.94,2.76-.4.41-.93.61-1.57.6h-.01ZM56.57,34.42c-.26-.29-.35-.66-.29-1.18v-1.19c-.06-6.24-3.21-11.97-8.44-15.33-2.73-1.76-5.89-2.76-9.13-2.9-.39-.02-.79-.02-1.18-.01l-1.32.04c-.09.01-.18.02-.26.02-.27-.01-.51-.11-.71-.27-.33-.28-.52-.75-.52-1.28v-.13c.01-.6.27-1.21.72-1.66.31-.31.75-.57,1.06-.62h.03s1.28-.01,1.28-.01c.36,0,.72,0,1.08.02,3.93.17,7.77,1.38,11.09,3.52,6.1,3.92,9.91,10.61,10.2,17.89.03.76.04,1.15.04,1.33v.12s0,.02,0,.02c-.05.5-.29.99-.67,1.38-.43.44-1.01.7-1.58.72h-.1c-.06,0-.11,0-.17,0-.46-.02-.86-.19-1.12-.48ZM66.63,34.7c-.32-.34-.47-.79-.43-1.33l-.04-1.29c-.27-9.59-5.23-18.41-13.26-23.58-4.31-2.77-9.28-4.34-14.37-4.56-.62-.03-1.24-.03-1.86-.02l-1.13.02c-.05,0-.1,0-.15,0-.24,0-.46-.1-.65-.28-.36-.33-.55-.86-.54-1.5,0-.6.25-1.19.67-1.62.3-.31.69-.52,1.04-.55h1.19c.53-.01,1.06,0,1.59.02,5.8.24,11.45,2.04,16.34,5.18,9.03,5.81,14.66,15.71,15.05,26.5.03.94.04,1.27.04,1.35v.04s0,.02,0,.02c-.03.51-.26,1.01-.64,1.4-.42.42-.94.66-1.53.68-.05,0-.1,0-.15,0-.45-.02-.86-.2-1.15-.5Z"/>
  </g>
</svg>