<?xml version="1.0" encoding="UTF-8"?>
<svg id="_レイヤー_2" data-name="レイヤー 2" xmlns="http://www.w3.org/2000/svg" xmlns:xlink="http://www.w3.org/1999/xlink" viewBox="0 0 120.99 123.94">
  <defs>
    <style>
      .cls-1 {
        fill: none;
      }

      .cls-2 {
        fill: #fff;
      }

      .cls-3 {
        fill: #00913a;
      }

      .cls-4 {
        clip-path: url(#clippath);
      }

      .cls-5 {
        fill: #211715;
      }
    </style>
    <clipPath id="clippath">
      <rect class="cls-1" width="120.99" height="123.94"/>
    </clipPath>
  </defs>
  <g id="_レイヤー_1-2" data-name="レイヤー 1">
    <g class="cls-4">
      <g>
        <path class="cls-1" d="M87.82,43.61c.75-.72,1.75-.99,2.61-.96,1.87.07,2.67,1.08,3.01,1.67,1.02,1.78.98,5.05.29,7.08-.49,1.43-1.28,3.63-3.21,5.2-.79.65-1.96,1.08-3.07.89"/>
        <path class="cls-1" d="M41.55,43.61c-.75-.72-1.75-.99-2.61-.96-1.87.07-2.67,1.08-3.01,1.67-1.02,1.78-.98,5.05-.29,7.08.49,1.43,1.28,3.63,3.21,5.2.79.65,1.96,1.08,3.07.89"/>
        <path class="cls-2" d="M43.17,60.28c.94,2.26,2.29,4.69,4.21,7,2.28,2.72,4.67,4.71,7.37,5.88-.08.92-.21,1.79-.37,2.74-.3,1.64-.2,3.09-2.47,3.92-.04.01-.56.25-1.31.6l.51.51c1.26,1.22,5.09,4.88,13.66,4.88,9.57,0,12.24-3.36,13.5-4.72,0,0,.32-.34.88-.94-.42-.2-.69-.33-.72-.34-2.28-.82-2.19-2.28-2.47-3.92-.18-1.04-.32-2.08-.4-3.13,5.46-2.9,9.78-10.34,10.56-12.46.38-.8,1.12-2.83,1.46-4.38-.43-3.68,2.29-14.43,1.05-16.42-.67-1.07-19.03,1.71-23.93,1.65-4.9.06-23.26-2.72-23.93-1.65-1.25,2.01,1.54,12.98,1.04,16.54.3,1.28.74,2.72,1.37,4.23Z"/>
        <path class="cls-3" d="M91.48,85.54c1.34.61,2.61,1.22,3.82,1.85-1.84-3.52-1.85-7.59-.85-11.38.94-3.55,2.76-7.23,2.44-10.88-.27-3-1.68-5.86-3.81-7.97-.51.53-1.07.86-1.68.94-1.57.2-2.74.25-3.92-1.76-.36,1.48-1.02,3.25-1.37,3.97-.16.44-.47,1.1-.91,1.91-1.7,3.09-5.31,8.26-9.65,10.56.08,1.05.22,2.08.4,3.13.29,1.64.2,3.09,2.47,3.92.12.04,4.49,2.12,6.18,2.91,1.7.64,3.09,1.17,3.09,1.17,1.31.54,2.58,1.09,3.79,1.64Z"/>
        <path class="cls-3" d="M90.57,57.2c1.84,1.32,3.29,3.23,4.05,5.36.91,2.56.67,5.03-.08,7.6s-1.79,5.14-2.19,7.85-.27,5.55.63,8.21c.68,2.02,3.9,1.15,3.21-.89-.98-2.91-.91-5.94-.13-8.89s1.96-5.54,2.37-8.47c.76-5.38-1.84-10.54-6.18-13.66-1.74-1.25-3.41,1.63-1.68,2.88h0Z"/>
        <path class="cls-5" d="M78.15,7.22c-9.59-3.85-20.26-3.43-29.46,1.31-7.32,3.77-12.67,10.17-14.62,18.24-1.38,5.69-.98,11.62.54,17.24.56,2.07,3.77,1.19,3.21-.89-2.25-8.33-1.61-17.34,3.61-24.46,4.69-6.39,13.2-10.23,20.97-10.72,5.11-.33,10.12.58,14.86,2.48.84.34,1.82-.37,2.05-1.16.27-.95-.33-1.72-1.16-2.05h0Z"/>
        <path class="cls-2" d="M95.91,45.83c.57-6.71.78-13.38-1.32-19.87s-5.95-12.66-11.87-16.21c-1.84-1.1-3.52,1.77-1.68,2.88,5.4,3.24,8.82,9.08,10.58,14.98s1.48,12.09.96,18.22c-.18,2.14,3.15,2.12,3.33,0h0Z"/>
        <path class="cls-3" d="M44.57,84.99c.73-.25,1.43-.62,2.13-.94,1.07-.49,2.14-.98,3.21-1.48.84-.39,1.68-.78,2.52-1.17.09-.04.18-.08.26-.12.07-.04.22-.1-.14.06-.43.18-.06.03.05-.01.21-.08.42-.17.63-.27.82-.4,1.57-1.05,2.01-1.86.4-.75.55-1.54.68-2.37.19-1.22.4-2.43.51-3.66.08-.87-.82-1.7-1.67-1.67-.97.04-1.58.73-1.67,1.67-.13,1.4-.38,2.91-.74,4.4-.05.21.16-.26.03-.1-.04.06-.07.13-.11.19-.19.33.15-.11-.06.07-.05.05-.13.11-.18.17.18-.21.13-.08.02-.02-.08.05-.16.1-.24.15-.03.02-.38.19-.23.12s-.12.05-.12.05c-.13.05-.28.12-.4.17-.02,0-.04.02-.05.02-.08.04-.17.08-.25.11-1.79.82-3.57,1.66-5.35,2.48-.46.21-.93.43-1.39.63-.15.07-.3.13-.44.2-.37.17.42-.16.11-.05-.82.29-1.45,1.15-1.16,2.05.26.81,1.17,1.47,2.05,1.16h0Z"/>
        <path class="cls-3" d="M73.9,73.03c.1,1.15.27,2.29.46,3.42.1.59.15,1.19.33,1.76.23.76.63,1.49,1.23,2.02.33.29.69.56,1.09.76.27.13.54.25.82.36.53.2-.39-.19-.18-.08,1.59.81,3.23,1.53,4.84,2.29.77.36,1.54.74,2.32,1.07s1.87-.36,2.05-1.16c.22-.97-.3-1.69-1.16-2.05.83.35.07.02-.12-.07-.35-.16-.69-.32-1.03-.49-.93-.44-1.87-.88-2.8-1.32-.72-.34-1.44-.68-2.17-1.02-.08-.04-.16-.07-.24-.11-.02,0-.04-.02-.06-.03-.12-.05-.28-.12-.4-.17-.05-.02-.3-.14-.05-.02-.15-.07-.29-.15-.44-.23-.05-.03-.28-.18-.09-.05.17.12.01,0-.02-.02-.05-.05-.11-.11-.16-.16-.24-.22.08.06.05.09-.02.01-.22-.37-.24-.4-.09-.14.07.14.07.16,0-.02-.09-.26-.1-.29-.04-.13-.07-.27-.1-.41-.07-.32-.11-.65-.16-.97-.07-.47-.16-.94-.23-1.41-.03-.2-.03-.23-.07-.51-.04-.32-.07-.64-.1-.96-.08-.87-.71-1.71-1.67-1.67-.83.04-1.75.74-1.67,1.67h0Z"/>
        <path class="cls-3" d="M86,55.3c-.25,1.2-.62,2.37-1.05,3.51-.16.42-.27.64-.47,1.13-.17.42.12-.24-.02.06-.05.11-.1.21-.15.32-.72,1.5-1.62,2.93-2.57,4.28-2.23,3.16-5.29,6.62-9.21,7.54-2.09.49-1.2,3.7.89,3.21,4.66-1.1,8.25-4.99,10.95-8.72,1.05-1.44,2.02-2.97,2.8-4.58.17-.35.32-.7.47-1.06.18-.43-.14.3.06-.14.13-.28.24-.57.36-.85.49-1.24.9-2.52,1.18-3.82.44-2.09-2.77-2.99-3.21-.89h0Z"/>
        <path class="cls-3" d="M40.1,56.1c2,8.77,8.6,18.33,18.08,19.76.89.13,1.79-.22,2.05-1.16.22-.79-.27-1.91-1.16-2.05-8.4-1.27-13.99-9.68-15.76-17.44-.48-2.09-3.69-1.2-3.21.89h0Z"/>
        <path class="cls-3" d="M60.15,63.57c1.49.79,3.1,1.13,4.79,1.12,1.78-.01,3.51-.39,4.92-1.49.69-.54.61-1.8,0-2.35-.73-.67-1.62-.57-2.35,0,.58-.45-.01-.02-.19.08-.14.07-.51.19.01.01-.13.04-.26.1-.39.14-.35.11-.74.13-1.08.25.18-.06.28-.03.03,0-.11.01-.21.02-.32.03-.26.02-.51.02-.77.02-.23,0-.46,0-.69-.02-.11,0-.21-.02-.32-.03-.06,0-.12-.01-.18-.02-.13-.02-.08,0,.16.02-.01.04-.92-.2-1.01-.22-.14-.04-.28-.09-.42-.14-.37-.13.35.17.02.01-.17-.08-.34-.17-.51-.26-.77-.41-1.85-.22-2.28.6-.41.77-.23,1.84.6,2.28h0Z"/>
        <path class="cls-3" d="M63.86,52.58c.2.75.39,1.52.5,2.29l-.06-.44c.01.11.02.21,0,.32l.06-.44s-.02.1-.03.14l.17-.4s-.03.06-.05.09l.26-.34s-.05.05-.07.07l.34-.26c-.06.04-.12.07-.18.1l.4-.17c-.1.04-.2.07-.31.09l.44-.06c-.1.01-.19.01-.29,0l.44.06c-.11-.02-.21-.04-.32-.06-.22-.07-.44-.08-.66-.03-.22.01-.43.08-.62.2-.35.2-.67.6-.77,1-.1.43-.08.9.17,1.28l.26.34c.21.21.45.35.73.43.29.04.57.11.87.12.48.02.91-.13,1.33-.33.53-.25.95-.75,1.09-1.33.12-.49.07-.88-.01-1.37-.12-.74-.3-1.47-.49-2.2-.11-.4-.41-.79-.77-1s-.88-.3-1.28-.17-.79.38-1,.77-.28.84-.17,1.28h0Z"/>
        <path class="cls-3" d="M52.21,45.95c-.38,1.24-.13,4.11,2.23,4.35,3.12-.02,3.28-3.48,2.23-5.11-.86-1.33-3.39-1.89-4.46.76Z"/>
        <path class="cls-3" d="M77.17,45.95c.38,1.24.13,4.11-2.22,4.35-3.12-.02-3.28-3.48-2.23-5.11.86-1.33,3.39-1.89,4.46.76Z"/>
        <path class="cls-3" d="M64.69,2.2c-7.12,0-13.9,1.43-19.84,5.17-4.65,2.93-7.86,7.95-9.59,13.33-1.79,5.58-2.51,11.5-2.43,17.38-.81,2.23-1.19,5.92-.95,7.08.96,4.69,2.83,12.52,6.1,12.95,1.4.18,2.47.24,3.53-1.17,1.45-1.93-2.14-15.19-.75-17.42.67-1.07,19.03,1.71,23.93,1.65,4.9.06,23.26-2.72,23.93-1.65,1.39,2.23-2.2,15.49-.75,17.42,1.06,1.41,2.13,1.35,3.53,1.17,3.28-.42,5.14-8.25,6.1-12.95.24-1.16-.14-4.85-.95-7.08.08-5.88-.64-11.8-2.43-17.38-1.73-5.38-4.94-10.4-9.59-13.33-5.94-3.75-12.72-5.17-19.84-5.17"/>
        <path class="cls-2" d="M82.84,33.27c1.76-.44,1.52-2.76-.03-3.28-.71-.24-1.5-.31-2.23-.42-3.3-.5-6.63-.86-9.96-1.08-6.97-.46-13.97-.03-20.88.94-.99.14-2.05.23-3.02.51-1.59.47-2.09,2.86-.19,3.33,2.08.52,2.97-2.69.89-3.21l.35.15.77,1h0c-.14.53-.29,1.07-.43,1.61-.38.39-.93.37-.27.28.31-.04.63-.12.94-.18.96-.16,1.93-.3,2.9-.42,2.75-.35,5.52-.61,8.3-.76,5.57-.29,11.15-.02,16.69.63,1.19.14,2.38.29,3.56.48.38.06.76.12,1.14.2.12.02.25.07.37.08.38.02.39.54-.46-.33l-.43-1.62h0c.26-.32.51-.65.77-.98l.35-.15c-2.08.52-1.2,3.73.89,3.21h0Z"/>
        <path class="cls-3" d="M64.69.53c-5.97.02-11.9,1.02-17.33,3.57-5.03,2.36-8.99,6.1-11.57,11.03-2.79,5.33-4,11.43-4.46,17.38-.12,1.55-.13,3.09-.18,4.64-.04,1.31-.54,2.59-.73,3.89-.31,2.11-.3,3.94.16,6.02.5,2.29,1.08,4.58,1.93,6.77.74,1.88,1.65,3.94,3.36,5.15,1.57,1.11,4.05,1.23,5.68.2,1.51-.96,1.96-2.39,1.98-4.07.04-3.48-.79-6.97-1.19-10.42-.09-.79-.17-1.59-.21-2.39-.02-.33-.03-.67-.02-1.01,0-.38.04-.67.04-.68.04-.46.18-.3-.18.06-.2.2-.34.21-.56.34.03-.02.2-.03.21-.05.01-.02.6-.06-.17.02.11-.01.23-.02.34-.02.26,0,.52-.01.78-.01,6.86.07,13.67,1.47,20.52,1.85,2.71.15,5.42-.14,8.12-.41,3.83-.38,7.65-.84,11.48-1.18,1.4-.12,2.82-.25,4.23-.26.23,0,.46.01.7.01.11,0,.23.01.34.02-.18-.02-.21-.1-.17-.02.01.02.15.03.18.04s-.47-.26-.53-.33c-.4-.41-.25-.49-.15.08-.06-.34.01.42.01.54,0,.34,0,.67-.02,1.01-.04.84-.13,1.68-.23,2.51-.22,1.87-.51,3.73-.76,5.59-.38,2.85-1.36,6.92,1.56,8.78,1.78,1.13,4.42.87,6.02-.46s2.43-3.33,3.14-5.19c.79-2.09,1.34-4.28,1.82-6.46s.46-4.15.1-6.37c-.19-1.18-.65-2.34-.68-3.53-.04-1.63-.06-3.25-.2-4.87-.25-3.15-.74-6.29-1.53-9.35-1.38-5.39-3.81-10.64-7.92-14.5s-9.83-6.13-15.34-7.14c-2.82-.52-5.68-.74-8.55-.76-2.14,0-2.15,3.32,0,3.33,5.49.02,11.05.87,16.03,3.29s8.24,5.9,10.52,10.71c2.46,5.21,3.39,11.25,3.61,16.96.05,1.37-.12,2.83.25,4.15.32,1.11.57,2.24.7,3.39.23,2.05-.08,3.36-.57,5.39s-1.05,4.17-1.96,6.09c-.63,1.33-1.32,2.7-2.86,2.68-.47,0-.57-.09-.96-.32-.11-.06-.17-.18-.23-.28.17.24.11.24.05.09,0-.02-.06-.41-.05-.17.02.28-.02-.24-.02-.23-.02-.3-.02-.6-.01-.91.03-1.57.25-3.14.47-4.69.43-3.1,1.24-6.44.9-9.58-.13-1.17-.51-2.31-1.75-2.68-.91-.27-1.99-.18-2.93-.13-6.58.29-13.09,1.48-19.66,1.82-2.55.13-5.09-.13-7.62-.38-3.62-.36-7.24-.78-10.86-1.12-1.46-.14-2.93-.27-4.4-.33-.88-.03-1.89-.11-2.75.14-2.6.76-1.8,4.95-1.57,6.91.39,3.33,1.12,6.68,1.19,10.04,0,.3,0,.6-.01.91-.03.49.04.01-.05.34s.2-.11-.06.11c-.5.43-.73.5-1.42.43-1.35-.13-2.04-1.59-2.6-2.8-.9-1.93-1.44-4.05-1.94-6.11s-.77-3.32-.51-5.4c.12-1.03.33-2.06.63-3.06.44-1.45.25-3.03.31-4.54.13-3.02.48-6.03,1.12-8.98,1.13-5.17,3.05-10.3,6.81-14.16s9.01-5.88,14.14-6.88c2.66-.52,5.37-.7,8.08-.71,2.14,0,2.15-3.34,0-3.33h0Z"/>
        <path class="cls-2" d="M115.64,123.62c-1.84-7.95-4.06-13.63-6.94-21.94-.74-2.14-2.34-5.33-3.9-7.27-3.45-4.16-9.54-7.37-17.12-10.51,0,0-7.39-2.8-8.9-3.37l-.52.56c-1.27,1.36-3.93,4.72-13.5,4.72-8.57,0-12.4-3.66-13.66-4.88l-.44-.43c-1.3.49-8.98,3.4-8.98,3.4-7.58,3.13-13.67,6.34-17.12,10.51-1.56,1.94-3.15,5.13-3.9,7.27-3.25,9.37-5.66,15.38-7.63,25.1-.33,1.61.58,3.24,2.09,3.46,3.85.55,12.6,1.49,16.55,1.71-.39,11.54-.68,20.1-.68,20.1-.47,13.93-.92,26.88-.92,31.54,0,.75.72,1.36,1.63,1.36,16.02.06,45.64-.03,65.79.02.99,0,1.78-.65,1.78-1.47,0-2.87-.35-14.89-.73-28.02,0,0-.31-10.76-.69-23.53,4.02-.24,12.58-1.16,16.37-1.7,1.51-.22,2.42-1.84,2.09-3.46-.22-1.1-.45-2.15-.69-3.16Z"/>
        <path class="cls-3" d="M77.09,79.92c-1.02,1.1-1.73,1.78-3.01,2.46-2.47,1.32-5.42,1.67-8.18,1.75-5.01.15-10.08-.95-13.62-4.37-1.54-1.49-3.9.86-2.35,2.35,4.27,4.14,10.15,5.52,15.98,5.35,5.12-.15,9.98-1.35,13.54-5.19,1.45-1.57-.9-3.93-2.35-2.35h0Z"/>
        <path class="cls-3" d="M50.63,78.74c-3.01,1.14-6.03,2.27-9.03,3.42-5.89,2.27-12.19,5.12-16.79,9.55-2.43,2.34-4.06,5.34-5.33,8.43-1.42,3.48-2.56,7.12-3.77,10.69s-2.25,6.91-3.13,10.44c-.77,3.09-2.7,7.96.83,10.09,1.22.73,2.9.71,4.28.88,1.63.2,3.26.38,4.9.56,3.13.33,6.26.67,9.4.83,2.14.11,2.14-3.22,0-3.33-5.15-.27-10.3-.87-15.42-1.53-.93-.12-1.88-.12-1.93-1.3-.03-.81.32-1.74.49-2.53.22-1,.46-2,.71-2.99.82-3.26,1.81-6.48,2.88-9.66,1.15-3.4,2.34-6.78,3.55-10.16,1-2.78,2.45-5.6,4.54-7.72,4.15-4.19,10.09-6.86,15.5-8.97,3.06-1.19,6.13-2.32,9.2-3.49,1.98-.75,1.12-3.97-.89-3.21h0Z"/>
        <path class="cls-3" d="M77.86,81.95c2.85,1.08,5.7,2.16,8.55,3.24,5.09,1.93,10.49,4.34,14.69,7.87,5.06,4.26,6.68,10.92,8.77,16.93,1.09,3.15,2.14,6.32,3.03,9.53.46,1.65.87,3.31,1.25,4.97.22.98,1.29,3.45-.03,4.06-.42.2-1.12.18-1.58.24-.69.09-1.38.17-2.07.25-1.57.19-3.15.36-4.72.52-2.78.29-5.57.58-8.36.72-2.13.11-2.15,3.44,0,3.33,5.55-.29,11.11-.94,16.62-1.69,1.54-.21,2.84-.9,3.56-2.35.86-1.73.33-3.53-.06-5.31-.81-3.65-1.81-7.25-2.96-10.81s-2.45-7.12-3.69-10.68c-1.17-3.33-2.53-6.65-4.76-9.43-1.96-2.44-4.62-4.34-7.29-5.94-3.38-2.02-7.01-3.69-10.67-5.13-3.11-1.23-6.26-2.37-9.39-3.56-2.01-.76-2.87,2.46-.89,3.21h0Z"/>
        <path class="cls-2" d="M53.88,142.69c-3.65-13.21-31.02-110.68-32.4-115.75-.63-2.33-1.62-4.63-3.45-6.28-2.82-2.54-6.53-2.51-9.93-1.34-4.02,1.38-4.77,5.38-3.99,9.16.64,3.12,36.04,97.94,41.67,113.04l8.1,1.17Z"/>
        <path class="cls-3" d="M53.88,142.69c-1.32-4.76-5.41-19.62-10.18-36.92-.14.03-.21.04-.21.04-2.9.59-6.8,1.76-10.04,2.71,5.66,15.16,10.48,28.03,12.33,33l8.1,1.17Z"/>
        <path class="cls-3" d="M55.48,142.24c-1.65-5.97-3.33-11.93-5-17.9-2.83-10.1-5.65-20.19-8.48-30.29-3.09-11.02-6.18-22.03-9.26-33.05-2.41-8.58-4.81-17.17-7.21-25.75-.67-2.38-1.33-4.77-2-7.15-1.26-4.54-3.08-9.19-8.01-10.76-3.47-1.1-8.47-.37-11.08,2.33-2.32,2.4-2.68,6.14-1.93,9.27.32,1.36.88,2.69,1.35,4.01,2.51,7.12,5.13,14.2,7.74,21.28,3.81,10.37,7.65,20.72,11.49,31.08,3.9,10.51,7.8,21.01,11.72,31.51,2.76,7.41,5.52,14.82,8.29,22.23.36.97.72,1.94,1.08,2.91.74,1.99,3.96,1.13,3.21-.89-2.24-6.01-4.48-12.02-6.72-18.04-3.65-9.79-7.29-19.58-10.93-29.37-3.92-10.55-7.83-21.1-11.73-31.66-3.06-8.29-6.12-16.59-9.12-24.9-.85-2.35-1.7-4.7-2.51-7.07s-1.52-5.13-.04-7.41c.97-1.49,2.77-2.02,4.44-2.3,1.84-.3,3.74-.09,5.34.92,2.28,1.45,3.22,4.09,3.9,6.57.5,1.81,1.01,3.63,1.52,5.44,2.15,7.69,4.3,15.37,6.45,23.05,2.97,10.6,5.94,21.21,8.91,31.81,2.91,10.39,5.83,20.78,8.74,31.18,1.98,7.07,3.96,14.15,5.93,21.22.24.87.48,1.73.72,2.6.57,2.06,3.78,1.19,3.21-.89h0Z"/>
        <path class="cls-3" d="M43.04,104.21c-3.32.69-6.58,1.69-9.83,2.65-.84.24-1.44,1.18-1.16,2.05s1.15,1.43,2.05,1.16c3.25-.95,6.51-1.96,9.83-2.65.85-.18,1.43-1.23,1.16-2.05-.29-.9-1.13-1.35-2.05-1.16h0Z"/>
        <path class="cls-2" d="M33.27,119.85c.07-.24.14-.49.22-.72.75-2.24,1.65-4.18,3.7-5.57,1.96-1.32,4.43-1.88,6.76-1.67,2.55.22,6.89,1.5,5.3,5.15.45.12.87.33,1.23.6.22.17.43.35.56.59.51.97.68,2.15-.76,3.98,1,.42,1.66,1.07,1.74,2.24.06,1.07-.61,2.61-1.81,2.79l-.59.09c.5.05.97.22,1.35.55.85.75.86,1.8.25,2.79-1.74,2.85-6.71,3.91-9.85,4.18-1.33.11-2.7.12-3.91-.34-1.36-.52-1.84-1.74-2.54-2.94-1.95-3.35-2.67-7.85-1.64-11.71Z"/>
        <path class="cls-3" d="M51.17,114.72c-.96-4.56-7.79-5.06-11.36-4.13-5.31,1.38-8.06,6.19-8.59,11.39-.26,2.59.11,5.31,1.02,7.75.79,2.11,1.99,4.93,4.06,6.07,2.23,1.23,5.16.8,7.55.39,2.11-.36,4.3-.97,6.14-2.11,2.09-1.3,4.33-3.94,2.87-6.5-1.58-2.76-5.08-1.85-7.61-1.36-2.1.4-1.21,3.61.89,3.21.61-.12,3.69-.98,3.86-.08.2,1.07-2.25,2.22-2.94,2.52-1.37.6-2.89.93-4.36,1.16s-3.72.65-4.99-.28c-.54-.4-.85-1.17-1.16-1.73-.46-.82-.89-1.63-1.2-2.53-.61-1.74-.9-3.56-.85-5.41.1-3.39,1.47-7.2,4.69-8.75,1.68-.81,3.67-1.03,5.5-.69,1.16.22,3.01.6,3.3,1.95.44,2.1,3.65,1.21,3.21-.89h0Z"/>
        <path class="cls-3" d="M44.72,119.06c.39-.1.78-.19,1.17-.27.2-.04.4-.06.59-.1-.53.09-.21.03-.08.01s.26-.03.39-.04c.53-.05,1.07-.07,1.6-.07.08,0,.15,0,.23,0,.19.02.15.01-.1-.02.08.04.24.05.33.07.07.02.14.04.21.07.17.06.14.05-.09-.04.04-.02.3.16.34.18.05.03.09.06.14.09.15.11.12.08-.08-.07,0,0,.31.28.3.28-.05.02-.22-.35-.06-.04.09.17.08.38-.04-.11.04.14.1.28.14.43.01.06.02.13.04.19-.04-.33-.05-.41-.04-.24,0,.05,0,.09,0,.14,0,.08,0,.17,0,.25,0,.36.09-.4.01-.1-.04.18-.14.38-.17.57.11-.25.13-.3.06-.14-.03.06-.06.12-.09.18-.05.09-.1.19-.15.28-.17.28-.36.54-.55.8-.24.32-.27.92-.17,1.28.11.39.4.8.77,1,.39.2.85.31,1.28.17s.71-.4,1-.77c.59-.76,1.12-1.67,1.27-2.64s.02-1.88-.4-2.8c-.49-1.06-1.61-1.77-2.69-2.12s-2.19-.25-3.25-.15c-.95.09-1.89.25-2.81.49-.84.22-1.44,1.2-1.16,2.05s1.15,1.4,2.05,1.16h0Z"/>
        <path class="cls-3" d="M45.22,124.19c.92-.27,1.92-.35,2.87-.5.08-.01.16-.03.24-.04-.24.03-.26.03-.07.01.12,0,.25-.02.37-.03.17,0,.33-.01.5,0h.12c.19.03.16.02-.08,0,.08-.03.32.07.41.1.43.14-.22-.13.04,0,.18.09.38.25.56.32-.22-.17-.26-.21-.13-.1l.06.06s.08.08.12.12c.11.13.08.08-.1-.14.04.08.1.14.14.22.21.38-.06-.26,0,.01.02.09.05.18.07.27.03.18.03.13-.01-.14,0,.06.01.12.01.18,0,.08,0,.16,0,.25,0,.28.09-.46,0-.01-.02.09-.04.18-.07.26-.02.06-.04.12-.06.17-.06.16-.04.12.07-.14-.1.14-.26.39-.32.55.05-.15.24-.28.03-.07-.04.04-.08.08-.13.12.21-.16.27-.2.17-.13-.04.02-.07.05-.11.07-.15.08-.1.06.17-.06-.11.01-.22.07-.34.09-.86.15-1.42,1.25-1.16,2.05.3.93,1.13,1.32,2.05,1.16,1.1-.19,2.04-1.09,2.5-2.07.5-1.05.7-2.22.37-3.36s-1.09-1.99-2.09-2.51c-1.29-.66-2.58-.68-3.98-.48-1.03.15-2.12.25-3.12.54-.83.25-1.44,1.18-1.16,2.05s1.15,1.43,2.05,1.16h0Z"/>
      </g>
    </g>
  </g>
</svg>