<?xml version="1.0" encoding="UTF-8"?>
<svg id="_レイヤー_2" data-name="レイヤー 2" xmlns="http://www.w3.org/2000/svg" viewBox="0 0 116.11 125.21">
  <defs>
    <style>
      .cls-1 {
        fill: #fff;
      }

      .cls-2 {
        fill: #00913a;
      }
    </style>
  </defs>
  <g id="_レイヤー_1-2" data-name="レイヤー 1">
    <g id="group">
      <path class="cls-1" d="M83.74,96.43c-.54-.18-9.31-4.29-9.49-4.35-2.77-1-2.66-2.79-3.01-4.78-.27-1.56-.46-2.95-.56-4.54,7.21-3.06,13.01-12.77,14.02-15.51.15-.46.46-1.33.74-2.36.37-.07.58-.1.58-.1,1.24-.19,2.41-.75,3.36-1.51,1.24-1,2.13-2.32,2.82-3.7,1.41-2.83,2.02-5.99,1.75-9.09-.07-.79-.2-1.59-.6-2.3-.56-1.01-1.68-1.75-2.91-1.93-1.23-.18-2.54.2-3.43,1,0,0,2.46-23.78-29.4-23.78-29.96,0-28.13,23.78-28.13,23.78-.89-.8-2.2-1.19-3.43-1s-2.35.92-2.91,1.93c-.4.71-.53,1.52-.6,2.3-.27,3.1.34,6.26,1.75,9.09.68,1.38,1.58,2.7,2.82,3.7.95.76,2.12,1.32,3.36,1.51,0,0,.41.06,1.1.17.97,3.44,2.63,7.34,5.56,10.85,2.5,3,5.3,5.29,8.34,6.74-.09,1.67-.28,3.12-.57,4.74-.35,2-.24,3.78-3.01,4.78-.18.07-8.96,4.17-9.49,4.35,0,0,4.65,15.29,25.5,15.29s25.87-15.29,25.87-15.29Z"/>
      <path class="cls-1" d="M55.43,123.94c-5.05,0-9.46,0-9.46,0,0-4.7,0-12.55.05-17.32,3.61,1.4,7.53,2.14,11.45,2.1,4.38-.05,8.72-1.07,12.62-2.89.05,4.6.05,13.1.05,18.12,0,0-7.93,0-14.7,0Z"/>
      <path class="cls-2" d="M45.7,107.74c8.15,3.1,17.06,2.71,24.97-.91,1.36-.62.18-2.63-1.17-2.01-7.35,3.37-15.64,3.54-23.18.68-1.4-.53-2.01,1.71-.62,2.24h0Z"/>
      <path class="cls-2" d="M91.52,28.34c-.11-.63-.22-1.22-.33-1.74C88.22,11.98,73.49.37,58.05,1.22c-15.44-.85-30.17,10.76-33.15,25.38-.81,3.94-.71,10.69.02,13.84,0,0,.74,2.9,1.48,5.79,1.12-.07,2.26.32,3.06,1.04,6.1-4.23,16.45-11.59,21.81-16.2-.44,2.74-2.01,7.39-.03,6.91,8.24-1.91,16.14-5.76,20.91-11.76,1.01,3.54,2.67,8.33,3.89,10.42,1.73,2.96,6.74,9.62,10.95,10.62.89-.8,2.2-1.19,3.43-1,.18.03.36.07.53.12,2.15-4.97,1.42-12.99.56-18.03Z"/>
      <path class="cls-2" d="M26.03,40.25c-.8-3.62-.7-7.63-.31-11.3s1.77-7.53,3.72-10.83c4.05-6.84,10.73-12.1,18.33-14.44,3.88-1.2,7.71-1.32,11.73-1.34s8.15.85,11.9,2.45c7.22,3.09,13.32,8.83,16.66,15.96,1.75,3.74,2.49,7.85,2.9,11.93.44,4.39.62,9.19-1.08,13.34-.57,1.38,1.68,1.99,2.24.62,1.62-3.95,1.6-8.52,1.28-12.71-.3-3.86-.84-7.84-2.15-11.5-2.85-7.98-8.94-14.66-16.43-18.57-3.76-1.97-7.86-3.24-12.09-3.68C60.58-.05,58.4,0,56.24.02s-4.26.26-6.35.7c-8.34,1.77-15.86,6.85-20.84,13.74-2.7,3.73-4.71,8.15-5.44,12.72s-.81,9.32.17,13.69c.32,1.46,2.57.84,2.24-.62h0Z"/>
      <path class="cls-2" d="M71.16,26.96c1.31,4.48,2.78,8.97,5.55,12.78,2.45,3.38,5.75,7.55,9.99,8.64,1.45.37,2.07-1.87.62-2.24-1.87-.48-3.43-1.82-4.79-3.14-1.52-1.47-2.88-3.12-4.1-4.84-2.5-3.54-3.81-7.7-5.02-11.82-.42-1.43-2.66-.82-2.24.62h0Z"/>
      <path class="cls-2" d="M71.42,25.29c-3.43,4.29-8.16,7.3-13.23,9.32-1.27.5-2.56.95-3.87,1.35-.72.22-1.45.42-2.18.61-.27.07-.81.08-1,.25-.29.02-.27.09.07.19.2.2.29.24.26.13.04-.04,0-.89,0-1,.05-.48.15-.96.24-1.44.22-1.11.5-2.21.69-3.32s-1.03-1.91-1.94-1.13c-6.79,5.82-14.24,10.92-21.58,16.01-1.22.85-.06,2.86,1.17,2.01,7.5-5.21,15.11-10.43,22.05-16.38l-1.94-1.13c-.22,1.32-.57,2.62-.8,3.93-.18,1.01-.44,2.22-.08,3.22s1.26,1.36,2.28,1.19c1.67-.28,3.35-.86,4.95-1.4,6.28-2.13,12.37-5.51,16.56-10.76.92-1.16-.71-2.81-1.64-1.64h0Z"/>
      <path class="cls-2" d="M87.82,48.08c1.31-1.1,3.5-.9,4.45.58.51.81.54,1.9.57,2.83.03,1.06-.04,2.13-.23,3.18-.69,3.79-2.71,8.26-6.9,9.01-1.47.26-.85,2.5.62,2.24,5.67-1.02,8.36-7.46,8.78-12.6.21-2.5.12-5.51-2.05-7.17s-4.91-1.37-6.88.28c-1.15.96.5,2.6,1.64,1.64h0Z"/>
      <path class="cls-2" d="M84.81,61.61c-.18,4.35-2.35,8.01-4.87,11.47-2.87,3.94-6.76,8.09-11.68,9.25-1.46.34-.84,2.58.62,2.24,5.45-1.28,9.7-5.76,12.91-10.1,2.79-3.78,5.15-8.05,5.34-12.85.06-1.5-2.26-1.49-2.32,0h0Z"/>
      <path class="cls-2" d="M30.29,46.44c-1.97-1.65-4.79-1.88-6.88-.28s-2.26,4.67-2.05,7.17c.43,5.14,3.12,11.58,8.78,12.6,1.46.26,2.09-1.98.62-2.24-4.19-.75-6.21-5.22-6.9-9.01-.18-.99-.25-2-.23-3.01.02-.94.03-2.04.5-2.88.89-1.59,3.17-1.82,4.52-.7,1.14.95,2.79-.68,1.64-1.64h0Z"/>
      <path class="cls-2" d="M29.51,61.16c1,5.71,3.15,11.17,6.91,15.63,3.86,4.57,8.96,7.96,15,8.61,1.49.16,1.47-2.17,0-2.32-5.53-.6-10.17-4.04-13.61-8.24s-5.15-9.14-6.05-14.29c-.26-1.47-2.5-.85-2.24.62h0Z"/>
      <path class="cls-2" d="M44.28,82.65c-.12,2.08-.36,4.26-.85,6.3-.31,1.29-1.17,1.69-2.35,2.23-2.2.99-4.37,2.03-6.55,3.03-.58.27-1.17.54-1.75.8-.21.09-.42.19-.63.28-.39.17.17-.06-.08.03-1.4.5-.8,2.75.62,2.24.87-.31,1.71-.75,2.55-1.14,1.36-.62,2.71-1.25,4.06-1.88.98-.45,1.96-.9,2.93-1.36.25-.12.17-.14-.06.02.48-.33,1.12-.45,1.61-.8.82-.58,1.38-1.35,1.73-2.3.32-.87.38-1.84.54-2.75.27-1.56.47-3.13.56-4.71.09-1.49-2.24-1.49-2.32,0h0Z"/>
      <path class="cls-2" d="M69.52,82.76c.09,1.41.26,2.81.49,4.21.15.9.24,1.84.47,2.73s.65,1.66,1.29,2.26c.38.35.82.65,1.28.87.26.13.65.2.88.37-.03-.02-.38-.17-.18-.08,2.21,1.08,4.47,2.07,6.7,3.1.98.45,1.96.97,2.98,1.33,1.41.51,2.02-1.74.62-2.24-.25-.09.29.13,0,0-.17-.07-.33-.15-.5-.22-.49-.22-.98-.44-1.47-.67-1.26-.58-2.52-1.16-3.78-1.75-1.01-.47-2.02-.94-3.03-1.4-.9-.41-1.97-.75-2.38-1.66-.34-.76-.38-1.66-.52-2.47-.24-1.46-.45-2.91-.54-4.39s-2.42-1.5-2.32,0h0Z"/>
      <path class="cls-2" d="M114.98,124.03c-1.06-2.19-1.96-4.45-3.17-6.57-1.08-1.87-3.06-6.35-7.1-9.93-2.14-1.9-7.39-5.74-15.41-9.47-1.83-.85-3.96-1.88-6.05-2.81-.8,2.35-2.98,4.39-5.35,5.5-2.18,1.02-4.57,1.53-6.97,1.98-.52.09-.89.53-.88,1.03.08,3.51.08,14.25.08,20.17"/>
      <path class="cls-2" d="M45.97,123.94c0-5.9,0-16.74.09-20.27,0-.5-.36-.94-.88-1.04-2.4-.44-4.79-.95-6.97-1.97-2.34-1.1-4.49-3.1-5.32-5.42-2.09.93-4.23,1.97-6.08,2.83-8.01,3.73-13.27,7.57-15.41,9.47-4.04,3.58-6.02,8.06-7.1,9.93-1.22,2.11-2.11,4.38-3.17,6.57"/>
      <path class="cls-2" d="M82.16,94.89c-1.19,3.26-4.47,4.97-7.62,5.85-.93.26-1.87.47-2.82.66-.76.15-1.56.21-2.15.77-1.04.99-.66,2.78-.65,4.05.06,5.9.04,11.81.04,17.71,0,1.5,2.32,1.5,2.32,0,0-5.86.01-11.72-.04-17.57,0-.71-.17-1.57-.03-2.26.08-.39-.07-.3.46-.33.43-.03.89-.17,1.31-.26,1.79-.38,3.55-.87,5.22-1.63,2.78-1.25,5.13-3.48,6.18-6.38.51-1.41-1.73-2.01-2.24-.62h0Z"/>
      <path class="cls-2" d="M31.71,95.4c1.17,3.24,3.88,5.47,7.01,6.73.98.39,1.99.7,3.02.96.89.22,2.1.22,2.9.61.41.2.14-.2.25.3.03.16,0,.42,0,.58,0,.55-.01,1.1-.02,1.65-.06,5.9-.05,11.8-.05,17.69,0,1.5,2.32,1.5,2.32,0,0-5.94,0-11.88.05-17.82,0-.94.21-2.13-.05-3.05-.49-1.76-2.68-1.73-4.12-2.06-3.62-.83-7.69-2.43-9.07-6.23-.51-1.4-2.75-.79-2.24.62h0Z"/>
      <path class="cls-2" d="M36.93,92.34c-3.44,1.22-6.72,2.84-10.02,4.39s-6.8,3.35-10.02,5.38c-2.03,1.28-4.03,2.66-5.87,4.21-2.44,2.05-4.38,4.62-5.98,7.37-1.84,3.16-3.35,6.46-4.92,9.76-.64,1.34,1.36,2.52,2.01,1.17,2.69-5.63,5.2-11.83,9.93-16.11,4.12-3.73,9.26-6.52,14.24-8.92,3.69-1.78,7.39-3.63,11.25-5,1.4-.5.8-2.74-.62-2.24h0Z"/>
      <path class="cls-2" d="M78.56,94.59c3.31,1.17,6.46,2.75,9.64,4.24s6.58,3.25,9.69,5.2c1.94,1.22,3.87,2.51,5.62,4,2.35,1.99,4.18,4.45,5.7,7.11,1.76,3.08,3.24,6.28,4.77,9.48.64,1.35,2.65.17,2.01-1.17-2.81-5.89-5.46-12.3-10.45-16.73-4.38-3.89-9.72-6.84-14.98-9.34-3.74-1.78-7.47-3.64-11.38-5.03-1.41-.5-2.02,1.74-.62,2.24h0Z"/>
      <g id="face">
        <path class="cls-2" d="M53.3,70.17c1.68.89,3.5,1.26,5.4,1.24s3.86-.37,5.39-1.57c.5-.39.41-1.24,0-1.64-.49-.49-1.15-.39-1.64,0,.34-.26.02-.02-.07.04-.11.07-.23.14-.34.2-.07.04-.45.2-.19.1-.16.06-.31.12-.47.17-.96.31-1.83.39-2.85.38s-1.78-.09-2.72-.37c-.17-.05-.34-.11-.51-.17-.06-.02-.11-.04-.17-.06.28.11.03.01-.02-.01-.21-.1-.42-.2-.63-.31-.55-.29-1.26-.14-1.59.42-.31.52-.14,1.3.42,1.59h0Z"/>
        <path class="cls-2" d="M58.23,57.29c.24.92.47,1.86.61,2.8l-.04-.31c.02.13.02.26.01.39l.04-.31c0,.06-.02.12-.04.17l.12-.28s-.04.07-.06.11l.18-.24s-.06.06-.09.09l.24-.18c-.07.05-.15.08-.22.12l.28-.12c-.12.05-.24.09-.37.11l.31-.04c-.12.01-.23.01-.35,0l.31.04c-.13-.02-.26-.05-.39-.07-.32-.04-.6-.06-.9.12-.24.14-.47.42-.53.69-.07.3-.05.63.12.9.15.23.4.5.69.53s.55.11.83.12c.42.02.81-.11,1.19-.28.46-.21.81-.6.93-1.1.1-.42.06-.8-.01-1.21-.15-.9-.36-1.79-.59-2.68-.15-.59-.84-1-1.43-.81s-.98.8-.81,1.43h0Z"/>
        <path class="cls-2" d="M43.18,49.44c-.47,1.52-.16,5.01,2.71,5.31,3.8-.02,4-4.25,2.72-6.23-1.05-1.63-4.13-2.3-5.44.92Z"/>
        <path class="cls-2" d="M73.62,49.44c.47,1.52.16,5.01-2.71,5.31-3.8-.02-4-4.25-2.72-6.23,1.05-1.63,4.13-2.3,5.44.92Z"/>
        <path class="cls-2" d="M68.72,66.79s.03.04.05.06l-.18-.24c.49.63.94,1.31,1.25,2.05l-.12-.28c.04.11.08.21.12.32.1.29.27.54.53.69.25.15.62.21.9.12s.55-.27.69-.53.22-.6.12-.9c-.37-1.1-1.02-2.05-1.72-2.95-.17-.22-.56-.34-.82-.34-.29,0-.63.13-.82.34s-.35.51-.34.82l.04.31c.06.2.15.37.3.51h0Z"/>
      </g>
    </g>
  </g>
</svg>