<?xml version="1.0" encoding="UTF-8"?>
<svg id="_レイヤー_2" data-name="レイヤー 2" xmlns="http://www.w3.org/2000/svg" viewBox="0 0 126.87 133.09">
  <defs>
    <style>
      .cls-1 {
        fill: #fff;
      }

      .cls-2 {
        fill: #00913a;
      }
    </style>
  </defs>
  <g id="_レイヤー_1-2" data-name="レイヤー 1">
    <g id="group">
      <path class="cls-1" d="M93.98,52.01c.94-.85,2.34-1.26,3.65-1.07s2.5.98,3.1,2.06c.42.75.56,1.61.64,2.45.29,3.3-.36,6.67-1.86,9.68-.73,1.47-1.68,2.87-3,3.94-1.01.81-2.26,1.41-3.58,1.61l-.61.09c-.29,1.1-.62,2.02-.79,2.52-1,2.71-6.39,11.8-13.29,15.7.11,1.25.28,2.51.49,3.75.36,2.04.25,3.86,3.07,4.88.14.05,4.47,2.1,6.89,3.25,0,0,3.21,15.6-24.21,15.6s-25.88-16.18-25.88-16.18c2.65-1.21,5.68-2.63,5.79-2.67,2.83-1.02,2.71-2.84,3.08-4.88.24-1.41.42-2.68.53-4.09-2.56-1.52-4.94-3.63-7.12-6.24-3.12-3.74-4.88-7.89-5.92-11.55-.73-.11-1.17-.18-1.17-.18-1.32-.2-2.56-.8-3.58-1.61-1.32-1.07-2.27-2.47-3-3.94-1.5-3.01-2.15-6.37-1.86-9.68.08-.84.21-1.7.64-2.45.6-1.08,1.79-1.86,3.1-2.06s2.71.22,3.65,1.07c0,0-9.25-29.04,30.44-29.04s30.8,29.04,30.8,29.04Z"/>
      <path class="cls-2" d="M90.02,47.67c-2.5-2.25-1.08-10.94-2.94-14.25-2.22-3.95-4.96-5.17-9.26-6.13-1.53-.39-12.61-2.26-18.88-1.95-4.85.24-9.24,1.73-13.96,3.53-6.63,2.35-9.25,13.81-9.3,18.71-.1.93-2.55,4.47-2.89,4.47-.94-.88-2.37-1.31-3.7-1.11-.2.03-.39.07-.58.13-2.92-12.99-1.51-24.33,4.27-34.22,3.76-6.44,10.49-11.86,16.88-12.61.9-.11,4.26-.82,5.02-1.18,7.58-3.57,20.08-1.84,26.24,4.43.85.82,2.1,1.66,2.88,2.01.39.18,1.66.78,2.08.89,6.17,2.55,9.98,8.46,11.92,16.29,2.03,8.2,1.74,18.51-.15,24.25-1.31-.2-2.71.22-3.65,1.07-.21-.2-1.9-1.83-2.1-2.04-.78-.83-1.27-1.53-1.85-2.3"/>
      <path class="cls-2" d="M80.04,8.37c.89.85,1.94,1.64,3.05,2.17.36.17.72.33,1.08.49.45.2.9.43,1.37.55.62.17,1.37-.21,1.52-.86s-.2-1.34-.86-1.52c-.16-.04-.31-.1-.46-.16-.09-.03-.28-.13.08.03-.05-.02-.09-.04-.14-.06-.11-.05-.21-.09-.32-.14-.34-.15-.68-.31-1.02-.47-.47-.22-.91-.5-1.34-.8-.11-.08-.23-.16-.34-.24-.07-.05-.14-.09-.2-.15.23.22.04.03-.01-.01-.23-.19-.45-.38-.66-.58-.47-.45-1.29-.5-1.74,0s-.5,1.27,0,1.74h0Z"/>
      <path class="cls-2" d="M36.91,47.58c.05-3.28.85-6.61,2.02-9.67s3.11-6.65,6.38-7.85c1.48-.54.84-2.93-.66-2.38-3.97,1.46-6.32,5.19-7.86,8.94-1.4,3.42-2.3,7.25-2.35,10.96-.02,1.59,2.44,1.59,2.47,0h0Z"/>
      <path class="cls-1" d="M52.91,26.18c.24-.87.49-1.74.82-2.58.02-.05.04-.09.06-.14-.06.13-.07.15-.03.07.04-.09.08-.17.12-.26.07-.15.14-.3.22-.44s.17-.3.26-.44c.05-.07.09-.14.14-.21.02-.03.05-.07.07-.1.06-.07.03-.04-.07.09-.03-.12.54-.57.63-.65.06-.05.13-.11.19-.16.11-.09.12-.09,0,0,.16-.12.32-.23.48-.35.34-.24.68-.46,1.04-.67.16-.1.33-.19.5-.28.09-.05.59-.26.21-.11.6-.24,1.08-.83.86-1.52-.19-.58-.88-1.12-1.52-.86-.82.33-1.57.77-2.29,1.27-.66.46-1.33.95-1.84,1.58-1.19,1.46-1.73,3.3-2.22,5.09-.17.62.21,1.37.86,1.52s1.34-.2,1.52-.86h0Z"/>
      <path class="cls-1" d="M60.01,26.24c1.59-2.13,3.62-3.58,6.02-4.68.07-.03.15-.06.4-.15s.49-.17.73-.24c.6-.18,1.21-.34,1.82-.48,1.13-.26,2.3-.49,3.46-.42,1.59.09,1.58-2.38,0-2.47-1.34-.07-2.72.2-4.03.49-1.24.28-2.48.62-3.63,1.15-1.26.58-2.5,1.27-3.61,2.11-1.29.98-2.33,2.16-3.3,3.45-.4.53-.09,1.38.44,1.69.63.37,1.29.09,1.69-.44h0Z"/>
      <path class="cls-2" d="M77.49,28.49c2.25.51,4.6,1.14,6.35,2.73,1.62,1.48,2.58,3.27,2.89,5.43s.29,4.45.55,6.67c.21,1.8.49,3.9,1.87,5.23,1.15,1.1,2.89-.64,1.74-1.74-1.23-1.18-1.19-3.65-1.3-5.22-.17-2.29-.18-4.65-.73-6.89s-2.07-4.29-3.85-5.7c-2-1.58-4.42-2.33-6.87-2.89-1.55-.35-2.21,2.03-.66,2.38h0Z"/>
      <path class="cls-2" d="M81.78,6.63c-4-3.99-9.66-5.95-15.19-6.49-2.7-.26-5.44-.15-8.1.39-2.36.48-4.42,1.54-6.75,2.06-2.57.57-5.06.86-7.51,1.97-2.83,1.28-5.4,3.18-7.6,5.36-4.62,4.57-7.67,10.64-9.33,16.88-2.04,7.64-1.79,15.62-.25,23.32.31,1.56,2.69.9,2.38-.66-2.45-12.2-1.14-26.23,7.28-36.02,2.01-2.34,4.38-4.4,7.08-5.91,2.23-1.25,4.47-1.78,6.95-2.23,2.11-.38,3.96-1.05,5.96-1.74,2.4-.82,4.94-1.14,7.47-1.1,5.67.07,11.78,1.82,15.88,5.9,1.13,1.12,2.87-.62,1.74-1.74h0Z"/>
      <path class="cls-2" d="M85.24,11.47c6.57,2.8,9.87,9.31,11.44,15.95.94,3.96,1.29,8.05,1.26,12.11-.03,3.53-.34,7.11-1.32,10.51-.44,1.53,1.94,2.18,2.38.66,1.08-3.73,1.41-7.71,1.41-11.58,0-4.27-.42-8.59-1.44-12.74-1.74-7.05-5.5-14.06-12.48-17.03-1.44-.62-2.7,1.51-1.25,2.13h0Z"/>
      <path class="cls-2" d="M39.22,101.34c1.56-.71,3.11-1.43,4.67-2.15.32-.15.8-.28,1.09-.5-.32.13-.35.15-.08.04.16-.06.31-.13.47-.19.16-.07.32-.14.47-.22.38-.2.73-.45,1.05-.74.99-.89,1.39-2.13,1.6-3.41.29-1.82.59-3.63.74-5.46.05-.67-.61-1.23-1.23-1.23-.71,0-1.18.57-1.23,1.23-.13,1.59-.4,3.16-.65,4.74-.08.53-.17,1.06-.36,1.56.08-.21-.1.2-.13.25-.06.11-.12.21-.2.31.12-.15-.14.14-.14.14-.11.11-.17.16-.23.21-.74.55-1.76.86-2.6,1.24-1.49.69-2.98,1.38-4.48,2.07-.61.28-.76,1.15-.44,1.69.36.62,1.08.72,1.69.44h0Z"/>
      <path class="cls-2" d="M77.01,89c.18,1.96.42,3.96.84,5.89.35,1.64,1.36,2.92,2.89,3.61.23.1.52.17.74.3.07.05-.39-.18-.18-.07.16.08.32.15.49.22.6.28,1.19.56,1.78.84,1.5.71,3,1.42,4.5,2.13.6.28,1.33.17,1.69-.44.31-.54.16-1.4-.44-1.69-2.33-1.1-4.63-2.3-7.01-3.3-.59-.25-1.12-.49-1.51-.92-.1-.12-.11-.13-.05-.05-.05-.07-.09-.14-.14-.21-.02-.04-.22-.45-.14-.26-.11-.27-.18-.55-.24-.83-.37-1.71-.59-3.49-.75-5.23-.06-.66-.52-1.23-1.23-1.23-.62,0-1.29.57-1.23,1.23h0Z"/>
      <path class="cls-2" d="M91.65,67.28c-.19,4.63-2.5,8.53-5.19,12.21-3.06,4.2-7.19,8.61-12.43,9.84-1.55.36-.89,2.74.66,2.38,5.8-1.36,10.33-6.13,13.74-10.75,2.97-4.02,5.48-8.57,5.69-13.68.06-1.59-2.4-1.59-2.47,0h0Z"/>
      <path class="cls-2" d="M32.79,66.81c1.06,6.07,3.35,11.89,7.36,16.64s9.54,8.47,15.96,9.16c1.58.17,1.56-2.3,0-2.47-5.89-.64-10.83-4.3-14.49-8.77s-5.48-9.73-6.44-15.21c-.27-1.56-2.65-.9-2.38.66h0Z"/>
      <path class="cls-2" d="M94.85,52.88c1.4-1.17,3.73-.96,4.74.62.55.86.58,2.02.6,3.01.03,1.13-.04,2.27-.25,3.38-.74,4.03-2.89,8.79-7.35,9.59-1.56.28-.9,2.66.66,2.38,6.03-1.08,8.89-7.94,9.35-13.4.22-2.66.12-5.86-2.18-7.63s-5.22-1.46-7.32.3c-1.22,1.02.53,2.76,1.74,1.74h0Z"/>
      <path class="cls-2" d="M33.61,51.14c-2.09-1.75-5.1-2-7.32-.3s-2.4,4.96-2.18,7.63c.45,5.47,3.32,12.32,9.35,13.4,1.55.28,2.22-2.1.66-2.38-4.46-.8-6.61-5.56-7.35-9.59-.19-1.06-.27-2.13-.25-3.2.02-1,.03-2.17.53-3.07.95-1.69,3.38-1.94,4.81-.74,1.21,1.01,2.96-.72,1.74-1.74h0Z"/>
      <path class="cls-1" d="M125.67,131.83c-2.78-5.72-6.82-13.93-12.12-18.84-.96,6.18-1.78,11.66-2.82,18.84h14.94Z"/>
      <path class="cls-1" d="M1.21,131.83c2.52-5.08,6.6-13.75,11.84-18.72.59,5.44,1.92,12.67,2.78,18.72H1.21Z"/>
      <path class="cls-2" d="M110.73,131.83c1.05-7.18,1.86-12.66,2.82-18.84-.19-.17-.38-.34-.57-.51-3.1-2.69-5.61-4.38-9.7-6.23-4.15-1.7-14.65-5.73-18.71-7.48-3.73.87-18.86,4-19.75,4.16h-3.29c-1.07-.23-18.06-3.95-19.58-4.21-4.15,1.78-14.28,5.8-18.52,7.53-4.09,1.84-6.59,3.54-9.7,6.23-.23.2-.46.41-.69.63.59,5.44,1.93,12.67,2.78,18.72h94.9Z"/>
      <path class="cls-2" d="M83.95,99.84c5.75,2.46,11.61,4.64,17.42,6.96,7.21,2.88,12.9,7.7,17.07,14.22,2.34,3.65,4.28,7.53,6.17,11.43.69,1.43,2.82.18,2.13-1.25-3.38-6.94-6.97-14.43-12.88-19.6-3.03-2.65-6.38-4.89-10.09-6.48-2.82-1.21-5.71-2.28-8.57-3.4-3.34-1.32-6.69-2.6-9.99-4.01-1.44-.62-2.7,1.51-1.25,2.13h0Z"/>
      <path class="cls-2" d="M2.27,132.46c3.22-6.5,6.42-13.63,11.83-18.64s11.99-7.31,18.63-9.98c3.29-1.33,6.59-2.64,9.85-4.04,1.46-.62.2-2.75-1.25-2.13-5.93,2.54-11.96,4.84-17.92,7.28-3.64,1.49-6.93,3.61-9.93,6.14s-5.41,5.76-7.48,9.13c-2.18,3.54-4.01,7.28-5.86,11-.7,1.42,1.42,2.67,2.13,1.25h0Z"/>
      <path class="cls-2" d="M64.82,101.7h-3.28c-.65,0-1.26.57-1.23,1.23s.54,1.23,1.23,1.23h3.28c.65,0,1.26-.57,1.23-1.23s-.54-1.23-1.23-1.23h0Z"/>
      <path class="cls-2" d="M111.92,132.16c.85-5.84,1.71-11.67,2.61-17.5.1-.66-.17-1.32-.86-1.52-.58-.17-1.42.2-1.52.86-.9,5.83-1.76,11.66-2.61,17.5-.1.66.17,1.32.86,1.52.58.17,1.42-.2,1.52-.86h0Z"/>
      <path class="cls-2" d="M11.98,114.53c.74,5.9,1.82,11.74,2.66,17.63.09.66.93,1.02,1.52.86.71-.19.96-.86.86-1.52-.81-5.66-1.86-11.29-2.57-16.97-.08-.67-.51-1.23-1.23-1.23-.6,0-1.32.57-1.23,1.23h0Z"/>
      <path class="cls-1" d="M73.72,114.19c4.53-4.51,7.5-9.96,10.85-15.41-1.22-2.35-2.85-4.74-4.92-6.65-4.04,4.09-9.19,7.61-14.12,9.84-.29.13-.62.29-.71.6-.08.27.04.55.16.8.18.38,1.4,1.92,2.92,3.77,1.99,2.43,4.48,5.41,5.82,7.05Z"/>
      <path class="cls-1" d="M52.73,114.02c-4.5-4.47-7.45-9.89-10.77-15.3,1.21-2.33,2.83-4.71,4.88-6.6,4.01,4.06,9.12,7.55,14.01,9.76.29.13.61.29.71.6.08.26-.04.54-.16.79-.18.38-1.39,1.9-2.9,3.74-1.97,2.41-4.45,5.37-5.77,7Z"/>
      <path class="cls-2" d="M74.59,115.06c3.48-3.5,6.17-7.64,8.72-11.84.64-1.05,1.27-2.11,1.91-3.16.28-.45.63-.89.55-1.45s-.49-1.12-.76-1.58c-1.22-2.12-2.71-4.1-4.5-5.78-.48-.46-1.26-.49-1.74,0-2.36,2.37-4.96,4.47-7.77,6.29-1.33.86-2.71,1.67-4.12,2.4-1.05.54-2.9.99-3.26,2.3-.28,1.01.34,1.89.91,2.65.87,1.16,1.79,2.28,2.71,3.4,1.86,2.27,3.74,4.51,5.59,6.78,1,1.23,2.74-.52,1.74-1.74-1.62-1.99-3.27-3.96-4.9-5.94-.87-1.05-1.74-2.11-2.58-3.18-.28-.36-.54-.82-.87-1.15-.04-.04-.14-.26-.17-.26-.08-.16-.12-.04-.14.36.13-.06.26-.12.39-.18,1.24-.34,2.52-1.24,3.64-1.88,1.29-.74,2.54-1.53,3.75-2.38,2.43-1.7,4.72-3.6,6.82-5.7h-1.74c1.96,1.84,3.48,4.02,4.73,6.4v-1.25c-3.24,5.28-6.26,10.74-10.66,15.17-1.12,1.13.62,2.87,1.74,1.74Z"/>
      <path class="cls-2" d="M53.6,113.15c-4.37-4.39-7.37-9.81-10.58-15.05v1.25c1.24-2.36,2.74-4.52,4.69-6.35h-1.74c2.08,2.09,4.35,3.97,6.77,5.66,1.15.81,2.34,1.57,3.56,2.27s2.48,1.56,3.77,1.96c.75.23,0,.01.27-.23-.08.08-.1.22-.19.3-.29.27-.52.7-.76,1.01-.87,1.11-1.77,2.19-2.66,3.28-1.62,1.97-3.26,3.92-4.87,5.9-.99,1.22.74,2.98,1.74,1.74,1.8-2.21,3.63-4.39,5.44-6.59.92-1.13,1.85-2.25,2.73-3.41.59-.77,1.28-1.69.98-2.73-.36-1.27-2.05-1.68-3.07-2.2-1.4-.72-2.77-1.51-4.09-2.36-2.85-1.83-5.48-3.95-7.87-6.35-.48-.48-1.26-.46-1.74,0-1.73,1.62-3.18,3.53-4.38,5.57-.27.46-.71,1.04-.82,1.57-.14.64.21,1.1.53,1.61.64,1.04,1.26,2.09,1.9,3.14,2.53,4.17,5.2,8.28,8.66,11.75,1.12,1.13,2.87-.62,1.74-1.74Z"/>
      <g id="face">
        <path class="cls-2" d="M74.65,72.65s.04.05.05.07l-.19-.25c.52.67,1,1.39,1.33,2.18l-.12-.29c.05.11.09.23.13.34.1.3.28.57.57.74.26.15.65.22.95.12s.59-.28.74-.57.23-.64.12-.95c-.39-1.16-1.08-2.17-1.83-3.13-.18-.23-.59-.36-.87-.36-.3,0-.66.13-.87.36s-.38.54-.36.87l.04.33c.06.21.16.39.32.54h0Z"/>
        <path class="cls-2" d="M57.93,76.39c1.79.95,3.72,1.34,5.74,1.32s4.11-.4,5.74-1.67c.53-.41.43-1.31,0-1.74-.52-.52-1.22-.41-1.74,0,.36-.28.02-.02-.08.04-.12.08-.24.15-.36.21-.07.04-.48.22-.2.11-.17.07-.33.13-.5.18-1.02.33-1.96.41-3.03.41s-1.9-.09-2.9-.39c-.18-.06-.36-.12-.55-.18-.06-.02-.12-.05-.18-.07.3.11.03.01-.02-.01-.23-.11-.45-.22-.67-.33-.59-.31-1.34-.15-1.69.44-.33.56-.15,1.38.44,1.69h0Z"/>
        <path class="cls-2" d="M63.19,62.68c.26.98.5,1.97.65,2.98l-.04-.33c.02.14.03.27.01.41l.04-.33c0,.06-.02.12-.05.18l.12-.29s-.04.08-.07.12l.19-.25s-.06.07-.1.1l.25-.19c-.08.05-.15.09-.24.12l.29-.12c-.13.05-.26.09-.4.12l.33-.04c-.13.01-.25.01-.37,0l.33.04c-.14-.02-.28-.05-.42-.07-.34-.05-.64-.06-.95.12-.26.15-.5.44-.57.74-.07.32-.06.67.12.95.16.25.43.53.74.57s.58.12.88.13c.45.02.86-.11,1.26-.3.49-.22.86-.64.99-1.17.11-.44.06-.85-.01-1.29-.16-.96-.38-1.91-.63-2.85-.16-.62-.89-1.07-1.52-.86s-1.04.85-.86,1.52h0Z"/>
        <path class="cls-2" d="M47.16,54.33c-.5,1.62-.17,5.33,2.89,5.65,4.05-.02,4.26-4.52,2.9-6.63-1.12-1.73-4.39-2.45-5.79.98Z"/>
        <path class="cls-2" d="M79.56,54.33c.5,1.62.17,5.33-2.89,5.65-4.05-.02-4.26-4.52-2.9-6.63,1.12-1.73,4.39-2.45,5.79.98Z"/>
      </g>
    </g>
  </g>
</svg>