<?xml version="1.0" encoding="UTF-8"?>
<svg id="_レイヤー_2" data-name="レイヤー 2" xmlns="http://www.w3.org/2000/svg" xmlns:xlink="http://www.w3.org/1999/xlink" viewBox="0 0 119.76 122.98">
  <defs>
    <style>
      .cls-1 {
        fill: none;
      }

      .cls-2 {
        fill: #fff;
      }

      .cls-3 {
        fill: #00913a;
      }

      .cls-4 {
        clip-path: url(#clippath);
      }

      .cls-5 {
        fill: #211715;
      }
    </style>
    <clipPath id="clippath">
      <rect class="cls-1" width="119.76" height="122.98"/>
    </clipPath>
  </defs>
  <g id="_レイヤー_1-2" data-name="レイヤー 1">
    <g class="cls-4">
      <g>
        <path class="cls-1" d="M87.91,44.66c.76-.73,1.78-1,2.65-.97,1.9.07,2.71,1.09,3.05,1.7,1.04,1.8.99,5.11.3,7.17-.49,1.45-1.3,3.68-3.25,5.27-.8.66-1.98,1.09-3.11.9"/>
        <path class="cls-1" d="M41.05,44.66c-.76-.73-1.78-1-2.65-.97-1.9.07-2.71,1.09-3.05,1.7-1.04,1.8-.99,5.11-.3,7.17.49,1.45,1.3,3.68,3.25,5.27.8.66,1.98,1.09,3.11.9"/>
        <path class="cls-2" d="M42.69,61.55c.95,2.29,2.31,4.75,4.27,7.09,2.31,2.76,4.73,4.77,7.46,5.96-.08.93-.21,1.81-.37,2.77-.3,1.66-.2,3.13-2.5,3.97-.04.01-.56.26-1.33.61l.52.52c1.28,1.24,5.16,4.94,13.83,4.94,9.7,0,12.39-3.4,13.68-4.78,0,0,.32-.35.89-.95-.43-.2-.7-.33-.73-.34-2.31-.83-2.22-2.31-2.5-3.97-.19-1.06-.32-2.11-.4-3.17,5.53-2.94,9.91-10.47,10.7-12.62.39-.81,1.14-2.86,1.47-4.44-.43-3.72,2.32-14.62,1.06-16.63-.68-1.08-19.27,1.73-24.24,1.67-4.96.06-23.56-2.75-24.24-1.67-1.27,2.03,1.56,13.15,1.05,16.75.31,1.29.75,2.75,1.39,4.29Z"/>
        <path class="cls-5" d="M78.12,7.81c-9.7-3.89-20.5-3.47-29.81,1.32-7.48,3.85-12.93,10.4-14.87,18.66-1.35,5.72-.94,11.66.59,17.3.57,2.09,3.82,1.2,3.25-.9-2.27-8.41-1.63-17.48,3.6-24.69,4.66-6.42,13.13-10.31,20.9-10.92,5.3-.41,10.54.51,15.46,2.48.85.34,1.84-.37,2.07-1.18.28-.96-.34-1.74-1.18-2.07h0Z"/>
        <path class="cls-2" d="M96.1,46.92c.57-6.73.79-13.42-1.27-19.93s-6.03-12.98-12.09-16.61c-1.87-1.12-3.56,1.8-1.7,2.91,5.53,3.32,9,9.32,10.78,15.37s1.44,12.12.92,18.26c-.18,2.16,3.19,2.15,3.37,0h0Z"/>
        <path class="cls-3" d="M44.1,86.58c.73-.26,1.45-.63,2.15-.95,1.08-.5,2.17-1,3.25-1.5.85-.39,1.7-.79,2.55-1.18.09-.04.18-.08.26-.12.08-.04.23-.1-.14.06-.43.19-.06.03.05-.01.21-.09.43-.17.63-.27.83-.4,1.59-1.06,2.03-1.88.41-.76.56-1.56.69-2.4.19-1.23.4-2.46.52-3.71.08-.88-.83-1.72-1.69-1.69-.98.04-1.6.74-1.69,1.69-.13,1.42-.39,2.94-.75,4.46-.05.21.17-.26.03-.1-.04.06-.08.13-.11.2-.19.33.15-.11-.06.07-.05.05-.13.12-.18.17.18-.21.13-.08.02-.02-.08.05-.16.1-.25.15-.03.02-.38.19-.23.13s-.12.05-.12.05c-.13.05-.28.12-.41.17-.02,0-.04.02-.05.02-.08.04-.17.08-.25.12-1.81.83-3.61,1.68-5.42,2.51-.47.22-.94.43-1.41.64-.15.07-.3.13-.45.2-.38.17.42-.16.11-.05-.83.29-1.47,1.17-1.18,2.07.27.82,1.18,1.49,2.07,1.18h0Z"/>
        <path class="cls-3" d="M73.81,74.47c.1,1.16.27,2.32.46,3.47.1.6.15,1.21.33,1.79.24.77.64,1.51,1.24,2.05.33.3.7.57,1.1.77.27.14.55.25.83.36.54.21-.39-.19-.19-.08,1.61.82,3.27,1.54,4.91,2.32.78.37,1.56.75,2.35,1.08s1.89-.37,2.07-1.18c.22-.99-.3-1.71-1.18-2.07.84.35.07.02-.13-.08-.35-.16-.7-.33-1.05-.49-.95-.45-1.89-.89-2.84-1.34-.73-.35-1.46-.69-2.19-1.04-.08-.04-.16-.07-.24-.11-.02,0-.04-.02-.06-.03-.12-.05-.28-.12-.41-.17-.05-.02-.31-.14-.05-.02-.15-.07-.3-.15-.44-.24-.05-.03-.29-.19-.09-.05.17.12.01,0-.02-.02-.05-.05-.11-.11-.17-.16-.25-.22.09.06.05.09-.02.01-.22-.38-.24-.41-.09-.14.07.15.07.16,0-.02-.09-.27-.1-.3-.04-.14-.07-.27-.1-.41-.07-.33-.11-.65-.16-.98-.07-.48-.16-.95-.23-1.42-.03-.2-.03-.23-.07-.52-.04-.32-.07-.65-.1-.97-.08-.88-.72-1.73-1.69-1.69-.85.04-1.77.75-1.69,1.69h0Z"/>
        <path class="cls-3" d="M86.06,56.5c-.25,1.21-.63,2.4-1.07,3.56-.16.43-.27.65-.48,1.15-.17.42.12-.25-.02.06-.05.11-.1.22-.15.32-.73,1.52-1.64,2.96-2.61,4.34-2.26,3.2-5.35,6.7-9.33,7.64-2.11.5-1.22,3.75.9,3.25,4.72-1.11,8.35-5.05,11.09-8.83,1.06-1.46,2.05-3.01,2.83-4.64.17-.35.32-.71.47-1.07.18-.43-.14.3.06-.14.13-.28.25-.57.36-.86.5-1.25.91-2.55,1.19-3.87.44-2.12-2.81-3.02-3.25-.9h0Z"/>
        <path class="cls-3" d="M39.57,57.32c2.03,8.88,8.71,18.57,18.31,20.02.9.14,1.81-.23,2.07-1.18.22-.8-.27-1.94-1.18-2.07-8.51-1.28-14.17-9.81-15.96-17.66-.48-2.12-3.74-1.22-3.25.9h0Z"/>
        <path class="cls-3" d="M59.88,64.88c1.51.8,3.14,1.14,4.85,1.13,1.8-.01,3.55-.39,4.99-1.51.7-.54.61-1.82,0-2.39-.74-.68-1.64-.58-2.39,0,.58-.45-.01-.02-.2.08-.14.07-.52.19.01.01-.13.04-.26.1-.39.14-.36.11-.75.13-1.1.25.18-.06.28-.03.03,0-.11.01-.22.02-.32.03-.26.02-.52.02-.78.02-.23,0-.47,0-.7-.03-.11,0-.21-.02-.32-.03-.06,0-.12-.01-.18-.02-.13-.02-.08,0,.16.02-.01.04-.93-.2-1.03-.23-.14-.04-.28-.09-.43-.14-.38-.13.36.17.02.01-.18-.08-.35-.17-.52-.26-.78-.41-1.87-.22-2.31.61-.41.78-.23,1.87.61,2.31h0Z"/>
        <path class="cls-3" d="M63.65,53.75c.2.76.39,1.54.51,2.32l-.06-.45c.01.11.02.21,0,.32l.06-.45s-.02.1-.04.14l.17-.4s-.03.06-.05.09l.26-.34s-.05.05-.08.07l.34-.26c-.06.04-.12.07-.18.1l.4-.17c-.1.04-.2.07-.31.09l.45-.06c-.1.01-.19.01-.29,0l.45.06c-.11-.02-.22-.04-.33-.06-.22-.07-.45-.08-.67-.03-.22.01-.43.08-.63.2-.35.2-.68.61-.78,1.01-.1.43-.08.92.17,1.3l.26.34c.21.21.46.35.74.43.29.04.58.11.88.13.48.02.92-.13,1.35-.33.54-.25.96-.76,1.11-1.34.12-.5.07-.89-.01-1.39-.13-.75-.3-1.49-.49-2.22-.11-.41-.41-.8-.78-1.01s-.89-.3-1.3-.17-.8.38-1.01.78-.29.85-.17,1.3h0Z"/>
        <path class="cls-3" d="M51.84,47.04c-.39,1.26-.14,4.16,2.25,4.41,3.16-.02,3.33-3.53,2.26-5.17-.87-1.35-3.43-1.91-4.52.77Z"/>
        <path class="cls-3" d="M77.12,47.04c.39,1.26.14,4.16-2.25,4.41-3.16-.02-3.33-3.53-2.26-5.17.87-1.35,3.43-1.91,4.52.77Z"/>
        <path class="cls-3" d="M64.48,2.72c-7.22,0-14.08,1.45-20.1,5.24-4.71,2.97-7.96,8.05-9.72,13.5-1.82,5.65-2.54,11.65-2.46,17.6-.82,2.26-1.2,5.99-.96,7.17.97,4.75,2.86,12.68,6.18,13.11,1.42.18,2.51.24,3.58-1.18,1.47-1.95-2.17-15.39-.76-17.64.68-1.08,19.27,1.73,24.24,1.67,4.96.06,23.56-2.75,24.24-1.67,1.41,2.26-2.23,15.69-.76,17.64,1.07,1.42,2.16,1.36,3.58,1.18,3.32-.43,5.21-8.36,6.18-13.11.24-1.17-.14-4.91-.96-7.17.08-5.95-.64-11.95-2.46-17.6-1.75-5.45-5.01-10.53-9.72-13.5-6.01-3.79-12.88-5.24-20.1-5.24"/>
        <path class="cls-2" d="M82.87,34.2c1.78-.44,1.54-2.79-.03-3.32-.73-.25-1.55-.32-2.31-.44-3.36-.51-6.75-.87-10.14-1.09-7.02-.45-14.06-.02-21.03.95-1.02.14-2.11.23-3.1.53-1.61.48-2.1,2.9-.18,3.37,2.11.52,3.01-2.73.9-3.25l.36.15.78,1.01h0c-.14.54-.29,1.08-.43,1.63-.36.39-.96.38-.29.29.34-.05.68-.13,1.01-.19.92-.16,1.84-.28,2.76-.4,2.86-.36,5.73-.64,8.6-.78,5.62-.29,11.25-.01,16.83.64,1.19.14,2.38.29,3.57.48.41.07.82.13,1.22.22.12.02.25.07.36.08.39.03.34.55-.48-.33l-.43-1.64h0c.26-.32.52-.66.78-1l.36-.15c-2.11.52-1.21,3.77.9,3.25h0Z"/>
        <path class="cls-3" d="M64.48,1.03c-6.04.02-12.05,1.03-17.55,3.61-5.13,2.41-9.16,6.23-11.77,11.28-2.85,5.51-4.08,11.83-4.5,17.97-.11,1.54.05,3.18-.14,4.7-.15,1.22-.59,2.42-.77,3.65-.31,2.19-.24,4.04.24,6.19.51,2.28,1.09,4.55,1.95,6.72.74,1.87,1.67,3.89,3.36,5.09,1.6,1.13,4.16,1.23,5.8.14,1.47-.98,1.92-2.37,1.94-4.05.05-3.57-.81-7.14-1.22-10.67-.09-.79-.17-1.58-.21-2.38-.02-.33-.03-.67-.02-1,0-.12,0-.24.01-.36,0-.11.01-.22.03-.33-.03.17-.03.2,0,.08.04-.49.27-.34-.07-.11-.12.08-.81.71-.5.41.11-.1-.3,0,.15,0,.25,0,.5-.02.75-.02,6.99.02,13.94,1.49,20.91,1.87,2.81.15,5.61-.16,8.4-.44,3.8-.38,7.6-.84,11.4-1.17,1.44-.13,2.89-.26,4.34-.26.23,0,.46.01.69.01.11,0,.23.01.34.02-.78-.08-.19-.04-.17-.02.02.03.17.03.21.05-.22-.12-.4-.16-.57-.34-.42-.43-.25-.45-.16.07-.06-.36.01.41.02.53,0,.33,0,.67-.02,1-.04.88-.13,1.76-.24,2.63-.23,1.91-.53,3.82-.78,5.73-.39,2.96-1.35,7.08,1.79,8.9,1.68.97,4.19.73,5.71-.44,1.63-1.25,2.52-3.24,3.25-5.1.83-2.12,1.4-4.35,1.9-6.57s.55-4.12.22-6.37c-.17-1.17-.6-2.31-.74-3.47-.21-1.69-.05-3.47-.18-5.17-.25-3.27-.75-6.53-1.57-9.71-1.4-5.42-3.83-10.71-7.95-14.62s-9.86-6.22-15.41-7.26c-2.92-.55-5.89-.79-8.87-.8-2.17,0-2.17,3.36,0,3.37,5.71.02,11.47.94,16.62,3.52,4.7,2.37,8.08,5.99,10.31,10.74,2.5,5.32,3.43,11.5,3.63,17.33.05,1.38-.11,2.79.29,4.13.34,1.12.56,2.28.67,3.45.21,2.05-.15,3.48-.66,5.55s-1.08,4.22-2.04,6.15c-.63,1.26-1.28,2.46-2.7,2.47-.36,0-.66,0-.96-.22-.2-.15-.2-.2-.31-.33-.15-.18.2.4.03.05-.18-.37-.03.05-.06-.31-.02-.33-.03-.65-.02-.98.03-1.56.24-3.12.46-4.67.43-3.14,1.25-6.5.95-9.68-.12-1.23-.47-2.46-1.78-2.85-.89-.26-1.93-.18-2.84-.14-6.71.27-13.36,1.5-20.07,1.85-2.6.14-5.19-.13-7.77-.39-3.64-.36-7.27-.79-10.91-1.13-1.5-.14-3.01-.28-4.52-.34-.9-.03-1.94-.11-2.81.17-2.6.82-1.74,5.18-1.5,7.15.4,3.36,1.15,6.74,1.19,10.13,0,.27,0,.54-.02.81-.03.44.1.06-.07.39-.14.29.04-.07.06-.1-.11.16-.11.21-.33.37-.3.22-.6.22-.96.22-1.51-.01-2.2-1.41-2.83-2.74-.93-1.95-1.48-4.11-1.99-6.2-.47-1.97-.78-3.25-.58-5.22.12-1.16.34-2.33.67-3.45.42-1.4.25-2.91.3-4.36.12-3.14.48-6.26,1.15-9.33,1.12-5.15,3.03-10.25,6.7-14.14s9.09-6.08,14.31-7.12c2.76-.55,5.57-.75,8.39-.77,2.17,0,2.17-3.38,0-3.37h0Z"/>
        <path class="cls-2" d="M116.09,125.7c-1.86-8.06-4.11-13.8-7.03-22.22-.75-2.17-2.37-5.4-3.95-7.37-3.5-4.22-9.66-7.47-17.34-10.64,0,0-7.49-2.84-9.01-3.41l-.53.57c-1.28,1.38-3.98,4.78-13.68,4.78-8.68,0-12.56-3.7-13.83-4.94l-.44-.43c-1.32.49-9.1,3.44-9.1,3.44-7.68,3.17-13.84,6.42-17.34,10.64-1.58,1.97-3.19,5.2-3.95,7.37-3.29,9.49-5.73,15.58-7.73,25.42-.33,1.64.59,3.28,2.12,3.5,3.9.56,12.76,1.51,16.76,1.73-.39,11.69-.68,20.36-.68,20.36-.47,14.11-.93,27.23-.93,31.94,0,.76.73,1.37,1.65,1.37,16.22.06,46.23-.03,66.63.02,1,0,1.8-.66,1.8-1.48,0-2.91-.35-15.09-.74-28.38,0,0-.32-10.9-.7-23.84,4.07-.24,12.74-1.17,16.59-1.72,1.53-.22,2.45-1.87,2.12-3.5-.23-1.11-.46-2.17-.69-3.2Z"/>
        <path class="cls-3" d="M77.04,81.44c-1.01,1.09-1.72,1.77-2.96,2.44-2.53,1.38-5.55,1.74-8.39,1.83-5.07.15-10.22-.98-13.78-4.43-1.56-1.51-3.95.87-2.39,2.39,4.32,4.19,10.26,5.59,16.16,5.42,5.2-.15,10.13-1.36,13.73-5.26,1.47-1.59-.91-3.98-2.39-2.39h0Z"/>
        <path class="cls-3" d="M50.24,80.25c-3.05,1.16-6.11,2.3-9.16,3.47-5.89,2.27-12.13,5.11-16.79,9.47-2.52,2.36-4.22,5.4-5.53,8.57-1.46,3.53-2.61,7.23-3.84,10.85s-2.29,7.01-3.19,10.58c-.78,3.11-2.71,7.84.55,10.17,1.25.89,2.97.87,4.44,1.05,1.7.21,3.4.4,5.11.58,3.17.34,6.34.68,9.52.84,2.17.11,2.16-3.26,0-3.37-5.26-.27-10.53-.88-15.75-1.57-1.04-.14-1.89-.26-1.81-1.55.1-1.79.81-3.74,1.24-5.47.84-3.31,1.85-6.58,2.94-9.81s2.34-6.77,3.54-10.14c1.02-2.86,2.53-5.75,4.69-7.91,4.2-4.19,10.15-6.87,15.6-8.99,3.1-1.21,6.22-2.36,9.33-3.53,2.01-.76,1.14-4.02-.9-3.25h0Z"/>
        <path class="cls-3" d="M77.82,83.5c2.87,1.09,5.74,2.18,8.61,3.26,5.1,1.93,10.48,4.33,14.72,7.82,5.19,4.28,6.85,10.9,8.98,17.01,1.09,3.14,2.14,6.29,3.04,9.49.5,1.77.95,3.55,1.36,5.34.22.96,1.29,3.46.18,4.21-.37.25-1.06.23-1.5.29-.68.09-1.36.17-2.05.25-1.58.19-3.16.36-4.75.53-2.93.31-5.87.61-8.82.77-2.16.11-2.17,3.49,0,3.37,5.69-.3,11.43-.91,17.07-1.74,1.56-.23,2.8-1.08,3.45-2.54.78-1.76.21-3.58-.19-5.37-.82-3.7-1.84-7.34-3.01-10.94s-2.5-7.25-3.76-10.87c-1.19-3.39-2.62-6.78-4.95-9.56-2.04-2.45-4.78-4.35-7.51-5.96-3.33-1.95-6.89-3.58-10.47-5-3.15-1.25-6.34-2.4-9.51-3.6-2.03-.77-2.91,2.49-.9,3.25h0Z"/>
        <path class="cls-2" d="M53.53,145.02c-3.7-13.38-31.42-112.11-32.82-117.24-.64-2.36-1.65-4.69-3.49-6.36-2.85-2.58-6.62-2.54-10.06-1.36-4.07,1.4-4.83,5.45-4.05,9.28.65,3.16,36.5,99.2,42.21,114.5l8.21,1.18Z"/>
        <path class="cls-3" d="M53.53,145.02c-1.33-4.82-5.48-19.87-10.31-37.39-.14.03-.21.04-.21.04-2.93.6-6.89,1.78-10.17,2.74,5.73,15.36,10.61,28.39,12.49,33.42l8.21,1.18Z"/>
        <path class="cls-3" d="M55.16,144.57c-1.67-6.03-3.36-12.06-5.05-18.09-2.87-10.25-5.74-20.5-8.61-30.75-3.11-11.1-6.22-22.21-9.34-33.31-2.45-8.73-4.89-17.45-7.33-26.18-.67-2.41-1.35-4.82-2.02-7.24-1.28-4.62-3.12-9.34-8.13-10.94-3.51-1.12-8.59-.37-11.22,2.36-2.35,2.44-2.72,6.23-1.96,9.4.33,1.38.9,2.73,1.37,4.06,2.56,7.24,5.22,14.44,7.87,21.64,3.87,10.53,7.77,21.06,11.68,31.58s7.86,21.16,11.8,31.73c2.79,7.5,5.59,14.99,8.38,22.49.37.99.74,1.97,1.1,2.96.75,2.02,4.01,1.14,3.25-.9-2.27-6.08-4.53-12.16-6.8-18.24-3.69-9.9-7.37-19.8-11.05-29.7-3.97-10.67-7.93-21.35-11.87-32.03-3.1-8.41-6.2-16.81-9.25-25.24-.87-2.4-1.74-4.8-2.57-7.22s-1.56-5.21-.05-7.54c.98-1.51,2.8-2.05,4.49-2.33,1.92-.32,3.94-.08,5.57,1.04,2.2,1.5,3.11,4.11,3.79,6.56.51,1.83,1.02,3.66,1.53,5.49,2.18,7.81,4.37,15.62,6.56,23.43,3.01,10.73,6.01,21.46,9.02,32.19s5.89,21.02,8.84,31.54c2,7.16,4.01,14.31,6,21.48.25.88.49,1.76.73,2.65.58,2.09,3.83,1.2,3.25-.9h0Z"/>
        <path class="cls-3" d="M42.56,106.04c-3.37.69-6.66,1.72-9.96,2.68-.85.25-1.46,1.2-1.18,2.07s1.17,1.44,2.07,1.18c3.3-.97,6.59-1.99,9.96-2.68.87-.18,1.45-1.25,1.18-2.07-.3-.92-1.15-1.37-2.07-1.18h0Z"/>
        <path class="cls-2" d="M32.66,121.89c.07-.25.14-.49.22-.73.76-2.27,1.67-4.24,3.75-5.64,1.99-1.34,4.48-1.9,6.85-1.69,2.58.23,6.98,1.52,5.37,5.22.45.12.88.33,1.24.61.22.17.44.35.57.59.52.99.69,2.17-.77,4.03,1.01.42,1.68,1.08,1.76,2.27.06,1.08-.62,2.65-1.83,2.82l-.6.09c.51.05.98.22,1.37.56.86.76.87,1.82.26,2.82-1.77,2.89-6.79,3.96-9.98,4.24-1.34.12-2.74.12-3.96-.35-1.38-.53-1.87-1.76-2.58-2.98-1.98-3.4-2.71-7.96-1.66-11.86Z"/>
        <path class="cls-3" d="M50.79,116.69c-.97-4.62-7.89-5.12-11.51-4.18-5.38,1.4-8.17,6.27-8.7,11.54-.27,2.62.11,5.38,1.03,7.84.8,2.14,2.02,4.99,4.11,6.15,2.26,1.25,5.23.81,7.65.4,2.14-.36,4.35-.99,6.21-2.14,2.12-1.31,4.39-3.99,2.9-6.58-1.6-2.8-5.15-1.87-7.71-1.38-2.13.41-1.23,3.66.9,3.25.62-.12,3.74-.99,3.91-.09.2,1.08-2.28,2.25-2.98,2.55-1.39.6-2.93.95-4.42,1.18s-3.77.66-5.05-.28c-.55-.4-.86-1.18-1.18-1.75-.47-.83-.9-1.66-1.22-2.56-.61-1.77-.91-3.61-.86-5.48.1-3.43,1.49-7.29,4.75-8.86,1.7-.82,3.72-1.05,5.57-.7,1.18.22,3.05.61,3.34,1.98.45,2.12,3.7,1.22,3.25-.9h0Z"/>
        <path class="cls-3" d="M44.26,121.08c.39-.1.79-.2,1.19-.27.2-.04.4-.06.6-.1-.53.09-.21.03-.08.01s.26-.03.39-.04c.54-.05,1.08-.07,1.62-.07.08,0,.15,0,.23,0,.19.02.15.01-.11-.02.08.04.24.05.33.07.07.02.15.04.22.07.17.07.14.05-.09-.04.04-.02.3.16.35.19.05.03.1.06.14.09.15.11.12.08-.08-.07,0,0,.31.28.31.28-.05.02-.22-.36-.06-.04.09.17.09.39-.04-.11.04.15.1.29.14.43.01.06.02.14.04.2-.04-.34-.05-.42-.04-.24,0,.05,0,.09,0,.14,0,.08,0,.17,0,.25,0,.36.09-.4.01-.11-.05.18-.14.39-.17.57.11-.26.13-.3.06-.14-.03.06-.06.12-.09.18-.05.1-.1.19-.16.28-.17.28-.36.55-.56.81-.25.32-.27.93-.17,1.3.11.39.41.82.78,1.01.39.21.87.31,1.3.17s.72-.41,1.01-.78c.6-.77,1.13-1.69,1.28-2.67s.02-1.91-.4-2.83c-.49-1.08-1.63-1.79-2.72-2.15s-2.22-.25-3.29-.15c-.96.09-1.91.26-2.85.5-.85.22-1.46,1.22-1.18,2.07s1.16,1.42,2.07,1.18h0Z"/>
        <path class="cls-3" d="M44.76,126.28c.94-.28,1.95-.36,2.91-.51.08-.01.16-.03.25-.04-.24.03-.26.04-.07.01.13,0,.25-.02.38-.03.17,0,.33-.01.5,0h.12c.19.03.16.02-.08,0,.08-.03.33.07.41.1.43.14-.23-.13.04,0,.18.09.38.26.57.33-.22-.18-.26-.21-.13-.1l.06.06s.08.08.12.12c.11.13.08.08-.1-.14.04.08.1.15.14.22.22.38-.06-.27.01.01.02.09.05.19.07.28.03.18.03.13-.01-.15,0,.06.01.12.01.19,0,.08,0,.17,0,.25,0,.29.09-.46,0-.01-.02.09-.04.18-.07.26-.02.06-.04.12-.06.18-.06.17-.04.12.07-.14-.1.14-.26.4-.32.56.05-.15.24-.28.03-.07-.04.04-.08.08-.13.12.22-.16.27-.2.17-.13-.04.03-.07.05-.11.07-.15.08-.1.06.17-.06-.11.02-.23.07-.34.09-.87.15-1.44,1.27-1.18,2.07.3.94,1.14,1.34,2.07,1.18,1.11-.19,2.06-1.1,2.53-2.09.5-1.06.7-2.25.38-3.4s-1.1-2.02-2.12-2.54c-1.3-.67-2.61-.69-4.03-.48-1.04.15-2.15.25-3.16.55-.85.25-1.46,1.2-1.18,2.07s1.17,1.44,2.07,1.18h0Z"/>
      </g>
    </g>
  </g>
</svg>