<?xml version="1.0" encoding="UTF-8"?>
<svg id="_レイヤー_2" data-name="レイヤー 2" xmlns="http://www.w3.org/2000/svg" viewBox="0 0 197.76 29.98">
  <defs>
    <style>
      .cls-1 {
        fill: #00913a;
      }
    </style>
  </defs>
  <g id="_レイヤー_1-2" data-name="レイヤー 1">
    <g>
      <path class="cls-1" d="M0,17.95c1.79-1.31,2.88-2.4,3.83-3.87H0v-6.18h4.36v-1.02c-1.7.03-2.26.03-4.36.03V.96c6.21-.06,11.47-.42,13.94-.96v6.21c-1.02.26-1.36.32-3.22.48v1.22h3.22v6.18h-3.22v.45c1.33,1.15,1.92,1.6,3.22,2.46v8.26c-1.3-.99-1.86-1.5-3.22-2.91v7.01h-6.37v-6.66c-1.45,1.76-2.44,2.69-4.36,4.13v-8.86ZM21.67,22.85V.42h6.31v23.52c.12,3.46-2.26,5.38-6.65,5.41h-6.58v-6.5h6.92ZM20.59.42v21.15h-5.84V.42h5.84Z"/>
      <path class="cls-1" d="M45.5,27.45v-5.86h-3.34c-1.02,4.32-3.74,6.88-8.5,7.94v-8.03c1.82-.96,2.26-2.11,2.26-6.14V.35h25.88v24.16c-.03,3.04-2.23,4.77-6.18,4.83h-4.33v-1.89h-5.78ZM45.5,8.45v-1.7h-3v1.7h3ZM45.5,15.74v-1.79h-3v1.79h3ZM55.05,8.45v-1.7h-3v1.7h3ZM55.05,15.74v-1.79h-3v1.79h3ZM55.05,23.23v-1.63h-3v1.63h3Z"/>
      <path class="cls-1" d="M72.17,21.44c-1.36.58-2.26.83-4.14,1.22v-6.98c2.97-.42,5.72-1.28,7.91-2.5h-7.91v-5.28h8.29v-1.09h-6.89V2.02h6.89V.06h6.8v1.95h4.61l.87-1.63h7.23c-.43,1.22-.71,1.89-1.27,3.01v3.42h-1.92l-.71,1.09h4.45v5.28h-9.27l-.93.77h8.35v10.08c.19,3.62-1.27,5.09-5.1,5.18h-17.25v-7.78ZM87.45,19.13v-.83h-8.44v.83h8.44ZM87.45,24.19v-.83h-8.44v.83h8.44ZM83.43,7.9l.93-1.09h-1.24v1.09h.31Z"/>
      <path class="cls-1" d="M115.97,25.5c-1.61,1.34-2.97,2.3-4.58,3.17v-6.53c1.27-.61,1.82-.96,3-1.86l-1.61-.38v-4.64h-.62v6.34l-1.92-2.11v9.89h-5.9v-7.26c-.74,1.34-1.08,1.82-2.44,3.49v-9.6c1.24-1.7,1.82-2.91,2.44-4.9h-2.35v-6.4h2.35V.1h5.9v4.61h1.82V1.76h1.67l-.87-1.73h6.43l.83,1.73h2.35l.77-1.73h6.49l-.83,1.73h1.45v3.87h-6.4v.77h5.78v3.84h-5.78v.7h6.4v9.44l-1.95.51c.93.58,1.08.64,1.95.99v6.88c-2.5-1.06-4.45-2.46-6.4-4.64v1.28c-.03,2.69-1.76,3.97-5.32,3.97h-2.69v-3.87ZM112.08,13.57v-2.46h-1.82v.22l1.82,2.24ZM117.95,10.94v-.7h-5.16v-3.84h5.16v-.77h-5.78v5.31h5.78ZM117.24,16.09v1.79l.71-.67v-1.95h-4.95l4.24.83ZM117.95,24.61v-.93l-.96.93h.96ZM130.2,15.26h-6.21v.83l.53,1.02,5.69-1.86Z"/>
      <path class="cls-1" d="M151.12,23.9c-.59,1.82-.93,2.53-1.55,3.17-.83.9-2.35,1.41-4.24,1.41-2.78,0-5.35-1.22-7.02-3.33-1.61-2.05-2.38-4.99-2.38-9.12,0-5.92,1.67-10.11,5.07-12.64,2.35-1.76,6.03-2.78,10.02-2.78s8.04,1.38,10.36,3.71c2.2,2.21,3.28,5.63,3.28,10.37,0,5.44-1.42,9.25-4.33,11.68-2.32,1.92-4.76,2.69-9.21,2.85v-5.31ZM143.98,9.73c-.93,1.47-1.42,3.74-1.42,6.46,0,1.95.25,3.26.8,4.16.25.42.68.77.99.77.56,0,.65-.32,1.42-3.94.25-1.12.96-5.86,1.48-9.7-1.82.54-2.54,1.02-3.28,2.24ZM153.87,10.69c-.68,5.28-1.36,8.86-2.19,11.55,2.44-.42,3.4-.83,4.17-1.89.9-1.15,1.39-3.55,1.39-6.78,0-3.62-.99-5.6-3.03-6.02-.06.48-.09.8-.12.9l-.22,2.24Z"/>
      <path class="cls-1" d="M170,23.04c1.82-.83,2.35-1.92,2.38-4.9v-6.27h24.67v4.74c.19,3.01-1.24,4.38-4.54,4.51h-13.73c-.22,4.77-3.4,7.97-8.78,8.86v-6.94ZM170.62,1.5h10.05V.03h7.11v1.47h9.99v4.77h-9.99v.77h9.27v4.19h-25.75v-4.19h9.37v-.77h-10.05V1.5ZM181.38,16.51v-.86h-2.41v.86h2.41ZM190.41,16.51v-.86h-2.47v.86h2.47Z"/>
    </g>
  </g>
</svg>