<?xml version="1.0" encoding="UTF-8"?>
<svg id="_レイヤー_2" data-name="レイヤー 2" xmlns="http://www.w3.org/2000/svg" viewBox="0 0 514.11 71.94">
  <defs>
    <style>
      .cls-1 {
        fill: #c70019;
      }

      .cls-2 {
        fill: #fff;
      }
    </style>
  </defs>
  <g id="_レイヤー_1-2" data-name="レイヤー 1">
    <polygon class="cls-1" points="492.46 71.94 0 71.94 21.65 0 514.11 0 492.46 71.94"/>
    <g>
      <path class="cls-2" d="M50.16,21.5h12.73c3.3,0,5.3.65,6.09,2.01.68,1.14.73,3.25.14,5.44-.7,2.63-2.1,4.85-3.84,6.09-1.63,1.17-3.65,1.67-6.75,1.67h-3.42c-3.18.15-4.27.9-4.81,3.28l-.54,2.01h15.36l-1.31,4.88h-21.34l1.52-5.66c1.77-6.95,5.32-9.71,12.58-9.71h3.26c2.24,0,2.76-.4,3.34-2.56.57-2.13.09-2.6-2.86-2.6h-11.46l1.3-4.85Z"/>
      <path class="cls-2" d="M83.79,21.5l-3.04,11.34c-.58,2.29-.45,2.41,1.94,2.44h3.46l3.69-13.78h6.05l-3.69,13.78h4.22l-1.31,4.88h-4.22l-1.8,6.71h-6.05l1.8-6.71h-5.89c-2.81-.03-3.77-.25-4.45-1.05-.72-.9-.7-1.58.12-4.76l3.45-12.86h5.73Z"/>
      <path class="cls-2" d="M109.65,22.79h11.46l-5.16,19.26c-.83,3.34-2.06,4.23-5.76,4.17h-6.82l6.28-23.43ZM111.46,41.49l1.3-4.85h-2.24l-1.3,4.85h2.24ZM113.92,32.31l1.28-4.79h-2.24l-1.28,4.79h2.24ZM118.55,34.72h9.95l.46-1.7h-9.95l1.03-3.83h5.73l.47-1.76h-5.12l1.12-4.17h5.12l.58-2.16h4.99l-.58,2.16h5.47l-1.12,4.17h-5.47l-.47,1.76h6.21l-1.03,3.83h-2.18l-.46,1.7h2.18l-1.13,4.23h-2.18l-1.45,5.41c-.77,3.34-2.45,4.73-5.69,4.76h-3.39l1.12-4.17h-4.45c-.07-1.64-.12-2.16-.51-4.67h4.77c.31,1.7.43,2.57.53,4.23h2.78l1.49-5.56h-9.95l1.13-4.23Z"/>
      <path class="cls-2" d="M158.42,21.59l-3.3,12.33h-8.35l-4.16,15.52h-4.8l7.46-27.85h13.15ZM159.36,45.66c-.84,1.58-1.83,2.04-4.15,2.01h-9.47l3.34-12.46h13.25l-2.53,9.43h2.43l2.87-10.73h-8.25l3.3-12.33h13.34l-6.14,22.93c-.93,3.71-2.31,4.7-6.56,4.67h-2.37l.94-3.52ZM151.24,30.61l.36-1.33h-3.58l-.36,1.33h3.58ZM152.3,26.63l.31-1.17h-3.58l-.31,1.17h3.58ZM155.27,44.09l.47-1.76h-4.13l-.47,1.76h4.13ZM156.47,39.64l.35-1.3h-4.13l-.35,1.3h4.13ZM165.99,30.61l.36-1.33h-3.62l-.36,1.33h3.62ZM167.06,26.63l.31-1.17h-3.62l-.31,1.17h3.62Z"/>
      <path class="cls-2" d="M201.42,21.5c5.47-.12,8.04,1.76,7.21,5.44l-.62,2.32c-.73,2.6-1.6,3.46-4.77,4.67l-.04.15c2.39.87,2.95,2.01,2.29,4.6l-.84,3.12c-1.18,3.8-3.55,5.13-9.07,5.07h-13.79l1.31-4.88h11.68c3.22.06,3.95-.19,4.39-1.45l.58-2.16c.36-1.82-.08-2.07-3.58-2.04h-9.57l1.31-4.88h11.14c2.02-.03,2.54-.28,2.89-1.45l.46-1.7c.37-1.51.05-1.85-2.04-1.95h-13.05l1.3-4.85h12.83Z"/>
      <path class="cls-2" d="M237.11,26.35h-12.32c-2.41.03-2.88.37-3.51,2.6l-.68,2.53c1.11-.43,1.48-.53,2.54-.53h5.44c5.09-.12,6.97,1.58,6.19,5.56l-1.37,5.13c-1.24,3.43-3.98,5.19-8.06,5.22h-6.91c-3.06-.03-4.29-.46-5.29-1.85-.97-1.39-1.1-3.31-.39-5.93l2.54-9.49c.77-2.87.85-3.06,1.32-3.83,2.08-3.21,4.13-4.3,8.05-4.27h13.76l-1.3,4.85ZM225.5,41.99c1.62-.06,2.17-.46,2.46-1.79l.65-2.41c.36-1.45-.08-1.95-1.75-1.95h-4.8c-2.18.03-2.76.37-3.21,1.95l-.65,2.41c-.34,1.39-.03,1.79,1.44,1.79h5.86Z"/>
      <path class="cls-2" d="M246.16,21.5h21.09l-1.3,4.85h-15.23l-1.28,4.76h9.02c4.42.09,6.04,1.95,5.12,5.75l-1.09,4.08c-1.28,4.05-4.25,5.93-9.24,5.93h-13.79l1.31-4.88h11.33c1.63,0,2.09-.03,2.62-.09l.14-.03h.1c.91-.06,1.64-.62,1.87-1.48l.65-2.44c.43-1.85.22-2.01-2.93-1.95h-12.25l3.88-14.5Z"/>
      <path class="cls-2" d="M301.81,21.59l-5.68,21.2c-1.29,5.07-2.93,6.27-8.5,6.18h-18.5l7.34-27.38h25.34ZM289.83,43.96l1.78-6.65h-13.54l-1.78,6.65h13.54ZM292.86,32.65l1.67-6.21h-13.54l-1.67,6.21h13.54Z"/>
      <path class="cls-2" d="M304.7,40.56c2.66-2.16,3.86-3.52,5.8-6.58h-3.71l1.26-4.7h4.96l.68-2.53-4.99.12,1.25-4.67c8.89-.22,10.71-.34,14.97-1.05l-1.33,4.98c-2.12.15-2.48.19-4.65.28l-.77,2.87h4.77l-1.26,4.7h-4.77l-.13.49,3.96,3.62-1.72,6.43-3.77-4.33-2.42,9.02h-5.15l2.05-7.66c-2.23,2.6-4.4,4.36-6.75,5.5l1.74-6.49ZM319.84,44.58h6.91l6.17-23.03h5.12l-6.29,23.46c-.86,3.09-2.52,4.27-5.87,4.23h-7.3l1.25-4.67ZM330.94,21.56l-5.32,19.84h-4.93l5.32-19.84h4.93Z"/>
      <path class="cls-2" d="M373.3,21.46l-5.61,20.92c-.92,3.55-1.4,4.39-3.15,5.66-1.21.71-2.02.87-4.62.9h-3.3l1.26-4.7h3.87l.91-3.4h-4.96l-1.76,6.55h-5.47l1.76-6.55h-4.77c-1.79,4.51-6.08,8.01-10.4,8.47l1.51-5.62c2.71-1.39,3.38-2.35,4.37-6.27l4.27-15.95h26.08ZM354.22,33.58h-4.61l-.77,2.87h4.61l.77-2.87ZM355.45,28.97l.68-2.53h-4.61l-.68,2.53h4.61ZM364.62,33.58h-4.96l-.77,2.87h4.96l.77-2.87ZM366.53,26.44h-4.96l-.68,2.53h4.96l.68-2.53Z"/>
      <path class="cls-2" d="M395.53,28.91l-2.98,11.13c-.68,2.53-2.44,3.86-5.2,3.89h-11.39l4.02-15.02h15.55ZM409.3,21.46l-1.27,4.73h-2.94l-4.99,18.61c-.66,2.57-2.52,4.02-5.13,3.99h-5.98l1.3-4.85h4.54l4.75-17.74h-20.83l1.27-4.73h29.28ZM387.58,39.02l1.51-5.63h-5.25l-1.51,5.63h5.25Z"/>
      <path class="cls-2" d="M427.42,30.4l-3.68,13.75c-.75,3.28-2.12,4.45-5.34,4.64h-3.17l1.13-4.23h2.11l.43-1.61h-3.68l-1.62,6.06h-5.18l4.99-18.61h14.02ZM415.75,25.36l2.77-4.27h5.28l-3.34,4.36h3.36l-.48-3h4.54l1.14,2.91-.51,1.92c-.53,1.73-1.54,2.29-4.25,2.26h-11.3l1.13-4.2,1.66.03ZM419.73,39.85l.34-1.27h-3.68l-.34,1.27h3.68ZM420.84,35.74l.37-1.39h-3.68l-.37,1.39h3.68ZM432.94,35.34l-.62,2.32,7.66-1.36-1.16,4.33-7.68,1.45-.55,2.07h4.99c1.49-.06,2.33-.34,3.16-1.05l-1.28,4.79c-.87.62-1.95.96-3.08.99h-5.76c-3.31-.06-4.01-1.02-3.11-4.27l2.48-9.27h4.96ZM436.95,21.09l-.71,2.66,7.42-1.05-1.1,4.11-7.4.99-.61,2.29h4.96c1.21-.09,1.67-.28,2.99-1.24l-1.23,4.57c-.88.65-1.98.96-3.46.99h-5.89c-2.46,0-3.42-1.21-2.76-3.43l2.65-9.89h5.15Z"/>
    </g>
  </g>
</svg>