<?xml version="1.0" encoding="UTF-8"?>
<svg id="_レイヤー_2" data-name="レイヤー 2" xmlns="http://www.w3.org/2000/svg" viewBox="0 0 229.98 245.07">
  <defs>
    <style>
      .cls-1 {
        fill: #fff;
      }

      .cls-2 {
        fill: #00913a;
      }
    </style>
  </defs>
  <g id="_レイヤー_1-2" data-name="レイヤー 1">
    <polygon class="cls-2" points="206.61 182.09 24.52 182.09 45.2 0 185.79 0 206.61 182.09"/>
    <g>
      <path class="cls-1" d="M75.55,91.61h47.1c5.69,0,6.44-.86,6.44-6.65,0-5.26-.75-6.01-6.44-6.01h-40.23v-22.53h40.23c6.33,0,6.65-.32,6.65-5.69s-.54-5.79-6.65-5.79h-47.1v-22.96h53.43c8.26,0,14.27,1.18,18.35,3.43,2.47,1.5,4.4,3.33,5.47,5.47,1.72,3.43,2.79,9.01,2.79,14.7,0,8.37-1.29,13.52-4.29,16.74-2.36,2.68-5.04,3.86-11.37,5.26,6.97,1.29,9.76,2.68,12.23,5.9,2.47,3.11,3.54,8.26,3.54,16.52,0,19.2-5.9,24.78-26.28,24.78h-53.86v-23.17Z"/>
      <path class="cls-1" d="M75.28,130.46l15.62-.34,4.18-.08c5.6,0,9.21.88,11.48,2.86,3.12,2.69,4.87,7.39,4.87,13.15s-1.7,9.83-5.27,13.15c-3.57,3.28-7.47,4.41-15.62,4.54l-12.7.21v-9.41l11.28-.08c4.87,0,7.38-.38,9.09-1.3,2.07-1.09,3.45-3.99,3.45-7.31s-1.42-5.46-4.02-6.18c-1.18-.29-3.12-.42-7.34-.42-.12,0-.69,0-1.38.04l-13.63.29v-9.12Z"/>
      <path class="cls-1" d="M139.1,158.31c-.77,2.39-1.22,3.32-2.03,4.16-1.1,1.18-3.08,1.85-5.56,1.85-3.65,0-7.02-1.6-9.21-4.37-2.11-2.69-3.12-6.55-3.12-11.97,0-7.77,2.19-13.27,6.65-16.59,3.08-2.31,7.91-3.65,13.15-3.65s10.55,1.81,13.59,4.87c2.88,2.9,4.3,7.39,4.3,13.61,0,7.14-1.87,12.14-5.68,15.33-3.04,2.52-6.25,3.53-12.09,3.74v-6.97ZM129.73,139.7c-1.22,1.93-1.87,4.92-1.87,8.49,0,2.56.32,4.28,1.05,5.46.32.55.89,1.01,1.3,1.01.73,0,.85-.42,1.87-5.17.32-1.47,1.26-7.69,1.95-12.73-2.39.71-3.33,1.34-4.3,2.94ZM142.71,140.96c-.89,6.93-1.79,11.64-2.88,15.16,3.21-.55,4.46-1.09,5.48-2.48,1.18-1.51,1.83-4.66,1.83-8.91,0-4.75-1.3-7.35-3.98-7.9-.08.63-.12,1.05-.16,1.18l-.28,2.94Z"/>
    </g>
    <g>
      <path class="cls-2" d="M0,215.86h36.61c.04,12.42-.36,16.15-2.13,20.06-2.36,5.24-9.55,8.74-17.77,8.69H1.47v-10.03h12.4c9.02-.18,12-2.39,11.86-8.92H0v-9.8ZM1.47,204.22h33.24v9.52H1.47v-9.52Z"/>
      <path class="cls-2" d="M48.17,205.37h28.04c-.4,1.47-.49,2.21-.49,3.17,0,4,3.02,7.08,6.93,7.08.71,0,1.38-.09,2.67-.41-.4,13.48-.8,15.69-3.82,20.75-4.31,6.16-9.24,8-21.51,7.87h-9.02v-10.44h8.53c4.49,0,6.13-.18,7.95-.87,2.53-.92,4.67-2.9,5.46-5.06.49-1.33.93-5.94.93-10.03,0-.28,0-.74-.04-1.47h-25.64v-10.58ZM88.64,208.27c0,3.4-2.62,6.12-5.87,6.12s-5.91-2.71-5.91-6.16,2.67-6.03,6-6.03c3.16,0,5.78,2.76,5.78,6.07ZM80.51,208.27c0,1.29,1.02,2.35,2.27,2.35s2.27-1.06,2.27-2.35-1.02-2.35-2.31-2.35c-1.2,0-2.22,1.06-2.22,2.35Z"/>
      <path class="cls-2" d="M101.84,223.82c-1.2-4.74-2.53-9.11-5.6-18.4h11.91c2.31,7.04,3.95,12.88,5.2,18.4h-11.51ZM99.08,233.62h10.97c8.75.09,12.71-3.96,12.53-12.88v-15.78h11.24v16.29c-.09,7.82-1.51,12.74-4.71,16.38-3.78,4.37-9.64,6.58-17.64,6.58h-12.4v-10.58Z"/>
      <path class="cls-2" d="M144.72,219.17h39.41v10.4h-39.41v-10.4Z"/>
      <path class="cls-2" d="M199.28,204.17h11.38v11.69c11.15,2.48,12.71,2.9,19.33,5.15v11.46c-6.58-2.53-13.2-4.37-19.33-5.43v18.03h-11.38v-40.9ZM218.56,204.45h4.93v7.36h-4.93v-7.36ZM224.83,204.45h5.02v7.36h-5.02v-7.36Z"/>
    </g>
  </g>
</svg>