<?xml version="1.0" encoding="UTF-8"?>
<svg id="_レイヤー_2" data-name="レイヤー 2" xmlns="http://www.w3.org/2000/svg" viewBox="0 0 229.98 324.73">
  <defs>
    <style>
      .cls-1 {
        fill: #fff;
      }

      .cls-2 {
        fill: #00913a;
      }
    </style>
  </defs>
  <g id="_レイヤー_1-2" data-name="レイヤー 1">
    <polygon class="cls-2" points="206.61 255.34 24.52 255.34 45.2 73.25 185.79 73.25 206.61 255.34"/>
    <g>
      <path class="cls-1" d="M75.55,164.87h47.1c5.69,0,6.44-.86,6.44-6.65,0-5.26-.75-6.01-6.44-6.01h-40.23v-22.53h40.23c6.33,0,6.65-.32,6.65-5.69s-.54-5.79-6.65-5.79h-47.1v-22.96h53.43c8.26,0,14.27,1.18,18.35,3.43,2.47,1.5,4.4,3.33,5.47,5.47,1.72,3.43,2.79,9.01,2.79,14.7,0,8.37-1.29,13.52-4.29,16.74-2.36,2.68-5.04,3.86-11.37,5.26,6.97,1.29,9.76,2.68,12.23,5.9,2.47,3.11,3.54,8.26,3.54,16.52,0,19.2-5.9,24.78-26.29,24.78h-53.86v-23.17Z"/>
      <path class="cls-1" d="M75.28,203.71l15.62-.34,4.18-.08c5.6,0,9.21.88,11.48,2.86,3.12,2.69,4.87,7.39,4.87,13.15s-1.7,9.83-5.27,13.15c-3.57,3.28-7.47,4.41-15.62,4.54l-12.7.21v-9.41l11.28-.08c4.87,0,7.38-.38,9.09-1.3,2.07-1.09,3.45-3.99,3.45-7.31s-1.42-5.46-4.02-6.18c-1.18-.29-3.12-.42-7.34-.42-.12,0-.69,0-1.38.04l-13.63.29v-9.12Z"/>
      <path class="cls-1" d="M139.1,231.56c-.77,2.39-1.22,3.32-2.03,4.16-1.1,1.18-3.08,1.85-5.56,1.85-3.65,0-7.02-1.6-9.21-4.37-2.11-2.69-3.12-6.55-3.12-11.97,0-7.77,2.19-13.27,6.65-16.59,3.08-2.31,7.91-3.65,13.15-3.65s10.55,1.81,13.59,4.87c2.88,2.9,4.3,7.39,4.3,13.61,0,7.14-1.87,12.14-5.68,15.33-3.04,2.52-6.25,3.53-12.09,3.74v-6.97ZM129.73,212.95c-1.22,1.93-1.87,4.92-1.87,8.49,0,2.56.32,4.28,1.05,5.46.32.55.89,1.01,1.3,1.01.73,0,.85-.42,1.87-5.17.33-1.47,1.26-7.69,1.95-12.73-2.39.71-3.33,1.34-4.3,2.94ZM142.71,214.21c-.89,6.93-1.79,11.64-2.88,15.16,3.21-.55,4.46-1.09,5.48-2.48,1.18-1.51,1.83-4.66,1.83-8.91,0-4.75-1.3-7.35-3.98-7.9-.08.63-.12,1.05-.16,1.18l-.28,2.94Z"/>
    </g>
    <g>
      <path class="cls-2" d="M0,13.66h36.61c.04,12.42-.36,16.15-2.13,20.06-2.36,5.24-9.55,8.74-17.77,8.69H1.47v-10.03h12.4c9.02-.18,12-2.39,11.86-8.92H0v-9.8ZM1.47,2.02h33.24v9.52H1.47V2.02Z"/>
      <path class="cls-2" d="M48.17,3.17h28.04c-.4,1.47-.49,2.21-.49,3.17,0,4,3.02,7.08,6.93,7.08.71,0,1.38-.09,2.67-.41-.4,13.48-.8,15.69-3.82,20.75-4.31,6.16-9.24,8-21.51,7.87h-9.02v-10.44h8.53c4.49,0,6.13-.18,7.95-.87,2.53-.92,4.67-2.9,5.46-5.06.49-1.33.93-5.94.93-10.03,0-.28,0-.74-.04-1.47h-25.64V3.17ZM88.64,6.07c0,3.4-2.62,6.12-5.87,6.12s-5.91-2.71-5.91-6.16,2.67-6.03,6-6.03c3.16,0,5.78,2.76,5.78,6.07ZM80.51,6.07c0,1.29,1.02,2.35,2.27,2.35s2.27-1.06,2.27-2.35-1.02-2.35-2.31-2.35c-1.2,0-2.22,1.06-2.22,2.35Z"/>
      <path class="cls-2" d="M101.84,21.62c-1.2-4.74-2.53-9.11-5.6-18.4h11.91c2.31,7.04,3.95,12.88,5.2,18.4h-11.51ZM99.08,31.42h10.97c8.75.09,12.71-3.96,12.53-12.88V2.76h11.24v16.29c-.09,7.82-1.51,12.74-4.71,16.38-3.78,4.37-9.64,6.58-17.64,6.58h-12.4v-10.58Z"/>
      <path class="cls-2" d="M144.72,16.98h39.41v10.4h-39.41v-10.4Z"/>
      <path class="cls-2" d="M199.28,1.98h11.38v11.69c11.15,2.48,12.71,2.9,19.33,5.15v11.46c-6.58-2.53-13.2-4.37-19.33-5.43v18.03h-11.38V1.98ZM218.56,2.25h4.93v7.36h-4.93V2.25ZM224.83,2.25h5.02v7.36h-5.02V2.25Z"/>
    </g>
    <g>
      <path class="cls-2" d="M44.12,316.13c1.47-.14,2.18-.32,4.27-1.1-.84-1.7-1.2-2.67-1.82-4.78v5.2l-2.53-.83c-1.16,5.57-4.4,8.83-9.82,9.85v-9.06c2.67-1.47,3.2-2.9,3.29-8.83h-.98v-7.08h8.49v-6.44c-.75,2.53-1.11,3.59-1.82,5.47h-7.46c1.11-2.21,1.51-3.27,2.09-5.11-1.02,0-1.38-.09-2-.51v5.29h-2.62v.6l2.44,2.39v10.26l-2.44-2.35v15.27h-8.22v-10.4c-1.56,2.81-2,3.4-3.24,4.69v-13.66c1.73-2.35,2.62-4.23,3.24-6.81h-3.11v-9.2h3.11v-6.58h8.22v6.58h2.04l2.13-5.93h7.29l-1.78,5.52h2.13v-6.16h8.04v6.26l1.96-5.61h7.42l-2,5.52h3.15c-.98,4.23-1.87,7.31-2.93,9.94h-7.6v.97h9.64v7.08h-8.98c.27,1.29.4,1.61,1.16,3.5.53-1.38.67-1.7.84-2.58h6.84c-.36,2.58-1.42,5.38-2.89,7.64.98.51,1.51.64,3.02.83v8.51c-4.04-.14-6.53-1.06-9.51-3.36-3.38,1.98-6.13,2.94-9.06,3.17v-8.14ZM46.25,308.95l-.49-2.39h-.93l-.04,1.93,1.47.46ZM53.05,298.1c1.11-1.89,1.51-2.71,2.22-4.65-1.29-.05-1.69-.23-2.22-1.15v5.8Z"/>
      <path class="cls-2" d="M70.74,288.39h1.02l2.53-5.98h8.8l-.8,1.84h7.24l2,4.28v3.82c-.13,2.58-1.6,3.59-5.24,3.54h-15.55v-7.5ZM71.63,296.85h19.95v21.85c.22,3.31-2.4,5.52-6.62,5.66h-3.91v-7.5h2.44v-1.1h-3.64v8.6h-8.22v-27.51ZM83.49,304.67v-.92h-3.64v.92h3.64ZM83.49,310.61v-.97h-3.64v.97h3.64ZM83.49,288.39l-1.42-3.59-1.55,3.59h2.98ZM111.53,322.75c-1.38.92-2.93,1.33-5.42,1.33h-7.69c-4.44-.09-6.09-1.7-5.95-5.84v-14.58h8.89v2.39l9.33-1.79v8.05l-9.33,1.84v1.93h5.02c1.73,0,4-.55,5.15-1.29v7.96ZM101.35,282.27v3.08l9.46-1.75v7.54l-9.46,1.79v2.07h5.24c1.87,0,2.98-.28,4.93-1.24v7.73c-1.73.97-3.2,1.29-5.73,1.33h-6.98c-4.75-.14-6.49-1.75-6.35-5.84v-14.72h8.89Z"/>
      <path class="cls-2" d="M124.68,308.45v1.89c0,4.6-.18,7.31-.71,10.44h-5.07c.84-4.55,1.02-6.3,1.07-12.33h4.71ZM160.27,318.15c0,4.51-1.96,6.07-7.46,6.03h-14.8v-18.59c-.58,1.15-1.51,1.66-3.2,1.66h-1.2v1.47l3.51,2.3v8.7l-3.51-2.25v6.95h-8v-17.16h-5.91v-7.36h1.91l1.82-2.39-3.2-4.74c-.67-.97-.84-1.38-.84-2.07q0-.78.84-2.39l3.02-5.89h8.35l-3.91,6.4.75,1.15c1.11-1.75,1.29-2.02,2.31-3.82h7.38v-3.31h22.17v13.66c.09,4.78-2.27,7.27-6.93,7.31h-6.27v-4.55c-1.6,2.3-4.8,4.23-9.02,5.52h22.17v13.39ZM132.01,299.89l-.75-1.89-1.51,1.89h2.27ZM136.59,296.07l1.38,3.77v-3.77c2.27-.92,3.24-2.3,3.38-4.88h-3.2v-3.77c-2.49,4.23-3.42,5.7-5.6,8.65h4.04ZM151.34,315.81v-3.31h-4.75v3.31h4.75ZM149.61,295.84c1.73,0,2.04-.28,2.04-2.02v-2.62h-2.13c-.09,1.66-.22,2.53-.75,4.65h.84Z"/>
      <path class="cls-2" d="M168.49,292.8c6.26-2.21,10.97-5.43,15.2-10.44h10.44c4.18,4.97,8.71,8.05,15.2,10.35v10.9l-.58-.18c-.84-.28-1.64-.55-2.49-.78-.89-.28-1.91-.74-3.64-1.61v23.46h-9.95v-26.59h4.35c-3.42-2.48-6.58-5.24-8.13-7.13-1.96,2.39-4.18,4.42-7.86,7.13h4.84v8.33c-.04,11.55-4.75,16.84-16.44,18.49v-10.26c4.4-.74,6.58-3.4,6.58-8.14v-5.57c-2.27,1.15-4.4,1.98-7.51,2.81v-10.77Z"/>
    </g>
  </g>
</svg>