<?xml version="1.0" encoding="UTF-8"?>
<svg id="_レイヤー_2" data-name="レイヤー 2" xmlns="http://www.w3.org/2000/svg" viewBox="0 0 670 340">
  <defs>
    <style>
      .cls-1, .cls-2 {
        fill: none;
      }

      .cls-3 {
        fill: #fff;
      }

      .cls-2 {
        stroke: #00913a;
        stroke-linecap: round;
        stroke-linejoin: round;
        stroke-width: 5.35px;
      }
    </style>
  </defs>
  <g id="_レイヤー_1-2" data-name="レイヤー 1">
    <g>
      <g>
        <g>
          <path class="cls-2" d="M103.69,122.1h-45.2l-6.28,21.27H11.55L59.98,14.52h43.43l48.42,128.85h-41.69l-6.45-21.27ZM95.43,94.24l-14.22-46.32-14.07,46.32h28.29Z"/>
          <path class="cls-2" d="M180.29,14.52h36.12v44.65c3.57-3.75,7.63-6.56,12.17-8.44,4.54-1.88,9.56-2.81,15.07-2.81,11.37,0,20.77,4.09,28.21,12.26,7.44,8.17,11.16,19.91,11.16,35.2,0,10.2-1.7,19.17-5.1,26.94-3.4,7.76-8.1,13.57-14.11,17.4-6.01,3.84-12.67,5.76-20,5.76-6.27,0-12.01-1.35-17.23-4.04-3.93-2.11-8.2-6.06-12.83-11.87v13.8h-33.49V14.52ZM216.15,96.44c0,8.03,1.51,13.84,4.53,17.45,3.02,3.6,6.84,5.41,11.47,5.41,4.28,0,7.87-1.77,10.77-5.32,2.9-3.54,4.35-9.51,4.35-17.89,0-7.38-1.42-12.8-4.26-16.26-2.84-3.46-6.28-5.19-10.33-5.19-4.86,0-8.83,1.8-11.91,5.41s-4.61,9.07-4.61,16.39Z"/>
          <path class="cls-2" d="M313.77,96.96c0-14.24,4.8-25.97,14.41-35.2,9.61-9.23,22.59-13.84,38.94-13.84,18.69,0,32.81,5.42,42.36,16.26,7.68,8.73,11.51,19.48,11.51,32.26,0,14.36-4.76,26.12-14.28,35.29-9.52,9.17-22.69,13.75-39.51,13.75-15,0-27.13-3.81-36.39-11.43-11.37-9.43-17.05-21.8-17.05-37.09ZM349.63,96.88c0,8.32,1.68,14.47,5.05,18.46,3.37,3.99,7.6,5.98,12.7,5.98s9.39-1.96,12.7-5.89c3.31-3.92,4.97-10.22,4.97-18.9,0-8.09-1.67-14.11-5.01-18.06s-7.47-5.93-12.39-5.93c-5.22,0-9.52,2.01-12.92,6.02-3.4,4.01-5.1,10.12-5.1,18.33Z"/>
          <path class="cls-2" d="M554.58,143.37h-33.4v-15.12c-4.98,6.21-10.01,10.63-15.07,13.27-5.07,2.64-11.29,3.96-18.68,3.96-9.84,0-17.56-2.94-23.16-8.83-5.6-5.89-8.39-14.96-8.39-27.2v-59.41h35.95v51.33c0,5.86,1.08,10.02,3.25,12.48,2.17,2.46,5.21,3.69,9.14,3.69,4.28,0,7.78-1.64,10.5-4.92,2.72-3.28,4.09-9.17,4.09-17.67v-44.91h35.77v93.34Z"/>
          <path class="cls-2" d="M637.44,14.52v35.51h19.69v26.19h-19.69v33.07c0,3.98.38,6.61,1.14,7.89,1.17,1.99,3.22,2.98,6.15,2.98,2.64,0,6.33-.76,11.07-2.28l2.64,24.69c-8.85,1.93-17.11,2.9-24.79,2.9-8.91,0-15.47-1.14-19.69-3.42s-7.34-5.75-9.36-10.4-3.03-12.19-3.03-22.6v-32.83h-13.18v-26.19h13.18v-17.14l35.86-18.37Z"/>
          <path class="cls-2" d="M120.45,323.37h-33.4v-15.12c-4.98,6.21-10.01,10.63-15.07,13.27-5.07,2.64-11.29,3.96-18.68,3.96-9.84,0-17.56-2.94-23.16-8.83-5.6-5.89-8.39-14.96-8.39-27.2v-59.41h35.95v51.33c0,5.86,1.08,10.02,3.25,12.48,2.17,2.46,5.21,3.69,9.14,3.69,4.28,0,7.78-1.64,10.5-4.92,2.72-3.28,4.09-9.17,4.09-17.67v-44.91h35.77v93.34Z"/>
          <path class="cls-2" d="M153.83,297.44l35.51-3.34c1.46,4.22,3.52,7.24,6.15,9.05,2.64,1.82,6.15,2.72,10.55,2.72,4.8,0,8.53-1.02,11.16-3.07,2.05-1.52,3.08-3.42,3.08-5.7,0-2.57-1.35-4.56-4.04-5.97-1.93-.99-7.06-2.22-15.38-3.69-12.42-2.16-21.05-4.17-25.88-6.01-4.83-1.84-8.91-4.96-12.22-9.35-3.31-4.39-4.97-9.39-4.97-15.01,0-6.15,1.79-11.44,5.36-15.89,3.57-4.45,8.5-7.77,14.77-9.96,6.27-2.19,14.68-3.29,25.22-3.29,11.13,0,19.35.85,24.65,2.55,5.3,1.7,9.73,4.34,13.27,7.91,3.54,3.57,6.49,8.41,8.83,14.5l-33.93,3.34c-.88-2.99-2.34-5.19-4.39-6.59-2.81-1.88-6.21-2.81-10.2-2.81s-6.99.72-8.83,2.15-2.77,3.17-2.77,5.22c0,2.28,1.17,4.01,3.52,5.18,2.34,1.17,7.44,2.22,15.29,3.16,11.89,1.35,20.74,3.22,26.54,5.62s10.24,5.82,13.32,10.27c3.08,4.45,4.61,9.34,4.61,14.66s-1.63,10.62-4.88,15.72-8.38,9.15-15.38,12.16c-7,3.01-16.54,4.52-28.61,4.52-17.05,0-29.19-2.43-36.43-7.29-7.24-4.86-11.88-11.78-13.93-20.74Z"/>
        </g>
        <g>
          <path class="cls-3" d="M103.69,122.1h-45.2l-6.28,21.27H11.55L59.98,14.52h43.43l48.42,128.85h-41.69l-6.45-21.27ZM95.43,94.24l-14.22-46.32-14.07,46.32h28.29Z"/>
          <path class="cls-3" d="M180.29,14.52h36.12v44.65c3.57-3.75,7.63-6.56,12.17-8.44,4.54-1.88,9.56-2.81,15.07-2.81,11.37,0,20.77,4.09,28.21,12.26,7.44,8.17,11.16,19.91,11.16,35.2,0,10.2-1.7,19.17-5.1,26.94-3.4,7.76-8.1,13.57-14.11,17.4-6.01,3.84-12.67,5.76-20,5.76-6.27,0-12.01-1.35-17.23-4.04-3.93-2.11-8.2-6.06-12.83-11.87v13.8h-33.49V14.52ZM216.15,96.44c0,8.03,1.51,13.84,4.53,17.45,3.02,3.6,6.84,5.41,11.47,5.41,4.28,0,7.87-1.77,10.77-5.32,2.9-3.54,4.35-9.51,4.35-17.89,0-7.38-1.42-12.8-4.26-16.26-2.84-3.46-6.28-5.19-10.33-5.19-4.86,0-8.83,1.8-11.91,5.41s-4.61,9.07-4.61,16.39Z"/>
          <path class="cls-3" d="M313.77,96.96c0-14.24,4.8-25.97,14.41-35.2,9.61-9.23,22.59-13.84,38.94-13.84,18.69,0,32.81,5.42,42.36,16.26,7.68,8.73,11.51,19.48,11.51,32.26,0,14.36-4.76,26.12-14.28,35.29-9.52,9.17-22.69,13.75-39.51,13.75-15,0-27.13-3.81-36.39-11.43-11.37-9.43-17.05-21.8-17.05-37.09ZM349.63,96.88c0,8.32,1.68,14.47,5.05,18.46,3.37,3.99,7.6,5.98,12.7,5.98s9.39-1.96,12.7-5.89c3.31-3.92,4.97-10.22,4.97-18.9,0-8.09-1.67-14.11-5.01-18.06s-7.47-5.93-12.39-5.93c-5.22,0-9.52,2.01-12.92,6.02-3.4,4.01-5.1,10.12-5.1,18.33Z"/>
          <path class="cls-3" d="M554.58,143.37h-33.4v-15.12c-4.98,6.21-10.01,10.63-15.07,13.27-5.07,2.64-11.29,3.96-18.68,3.96-9.84,0-17.56-2.94-23.16-8.83-5.6-5.89-8.39-14.96-8.39-27.2v-59.41h35.95v51.33c0,5.86,1.08,10.02,3.25,12.48,2.17,2.46,5.21,3.69,9.14,3.69,4.28,0,7.78-1.64,10.5-4.92,2.72-3.28,4.09-9.17,4.09-17.67v-44.91h35.77v93.34Z"/>
          <path class="cls-3" d="M637.44,14.52v35.51h19.69v26.19h-19.69v33.07c0,3.98.38,6.61,1.14,7.89,1.17,1.99,3.22,2.98,6.15,2.98,2.64,0,6.33-.76,11.07-2.28l2.64,24.69c-8.85,1.93-17.11,2.9-24.79,2.9-8.91,0-15.47-1.14-19.69-3.42s-7.34-5.75-9.36-10.4-3.03-12.19-3.03-22.6v-32.83h-13.18v-26.19h13.18v-17.14l35.86-18.37Z"/>
          <path class="cls-3" d="M120.45,323.37h-33.4v-15.12c-4.98,6.21-10.01,10.63-15.07,13.27-5.07,2.64-11.29,3.96-18.68,3.96-9.84,0-17.56-2.94-23.16-8.83-5.6-5.89-8.39-14.96-8.39-27.2v-59.41h35.95v51.33c0,5.86,1.08,10.02,3.25,12.48,2.17,2.46,5.21,3.69,9.14,3.69,4.28,0,7.78-1.64,10.5-4.92,2.72-3.28,4.09-9.17,4.09-17.67v-44.91h35.77v93.34Z"/>
          <path class="cls-3" d="M153.83,297.44l35.51-3.34c1.46,4.22,3.52,7.24,6.15,9.05,2.64,1.82,6.15,2.72,10.55,2.72,4.8,0,8.53-1.02,11.16-3.07,2.05-1.52,3.08-3.42,3.08-5.7,0-2.57-1.35-4.56-4.04-5.97-1.93-.99-7.06-2.22-15.38-3.69-12.42-2.16-21.05-4.17-25.88-6.01-4.83-1.84-8.91-4.96-12.22-9.35-3.31-4.39-4.97-9.39-4.97-15.01,0-6.15,1.79-11.44,5.36-15.89,3.57-4.45,8.5-7.77,14.77-9.96,6.27-2.19,14.68-3.29,25.22-3.29,11.13,0,19.35.85,24.65,2.55,5.3,1.7,9.73,4.34,13.27,7.91,3.54,3.57,6.49,8.41,8.83,14.5l-33.93,3.34c-.88-2.99-2.34-5.19-4.39-6.59-2.81-1.88-6.21-2.81-10.2-2.81s-6.99.72-8.83,2.15-2.77,3.17-2.77,5.22c0,2.28,1.17,4.01,3.52,5.18,2.34,1.17,7.44,2.22,15.29,3.16,11.89,1.35,20.74,3.22,26.54,5.62s10.24,5.82,13.32,10.27c3.08,4.45,4.61,9.34,4.61,14.66s-1.63,10.62-4.88,15.72-8.38,9.15-15.38,12.16c-7,3.01-16.54,4.52-28.61,4.52-17.05,0-29.19-2.43-36.43-7.29-7.24-4.86-11.88-11.78-13.93-20.74Z"/>
        </g>
      </g>
      <rect class="cls-1" width="670" height="340"/>
    </g>
  </g>
</svg>