<?xml version="1.0" encoding="UTF-8"?>
<svg id="_レイヤー_2" data-name="レイヤー 2" xmlns="http://www.w3.org/2000/svg" viewBox="0 0 713.83 33.55">
  <defs>
    <style>
      .cls-1 {
        fill: #00913a;
      }
    </style>
  </defs>
  <g id="_レイヤー_1-2" data-name="レイヤー 1">
    <g>
      <path class="cls-1" d="M0,0h11.13l4.59,19.01L20.31,0h11.16v31.14h-7.89V13.46l-4.28,17.67h-7.2L7.82,13.35v17.78H0V0Z"/>
      <path class="cls-1" d="M45.35,31.14c-2.57,0-4.56-.58-5.39-1.62-.8-.9-1.25-2.84-1.25-5.11,0-5.29,1.43-7.49,4.76-7.49h9.49v-.18c-.04-1.22-.24-1.44-1.53-1.44h-12.03v-6.84h14.43c4.87.04,6.71,1.73,6.78,6.12v16.56h-15.27ZM47.47,21.81c-1.08,0-1.25.22-1.25,1.4,0,1.3.14,1.44,1.22,1.44h5.46v-2.84h-5.42Z"/>
      <path class="cls-1" d="M68.29.86h7.79v18.43l6.61-10.83h8.31l-7.06,11.09,7.3,11.59h-8.8l-6.36-11.19v11.19h-7.79V.86Z"/>
      <path class="cls-1" d="M97.85.86h7.79v18.43l6.61-10.83h8.31l-7.06,11.09,7.3,11.59h-8.8l-6.36-11.19v11.19h-7.79V.86Z"/>
      <path class="cls-1" d="M149.42,30.92c-4.31.14-7.44.22-10.43.22h-1.04c-5.95,0-7.86-.4-9.18-1.91-1.18-1.37-1.49-3.1-1.49-8.53,0-6.7.35-9,1.63-10.4,1.29-1.44,3.27-1.84,9.11-1.84h1.6c5.04,0,6.78.36,8.14,1.66,1.25,1.22,1.74,2.92,1.74,6.19,0,.22,0,.94-.04,1.73l-.04,3.74h-14.36v.83c.04,1.12.17,1.26,1.32,1.26h13.04v7.06ZM141.84,17.21c.04-.18.04-.32.04-.54,0-1.26-.45-1.51-2.85-1.51h-1.84c-1.84,0-2.09.18-2.12,1.37v.68h6.78Z"/>
      <path class="cls-1" d="M157.35.86h7.93v5.69h-7.93V.86ZM157.35,8.46h7.93v22.68h-7.93V8.46Z"/>
      <path class="cls-1" d="M185.27,0h19.27c3.41,0,5.35.54,6.75,1.94,1.15,1.15,1.57,2.81,1.57,6.08,0,5.11-.97,6.48-5.08,7.31,4.35.61,5.25,1.8,5.25,6.98,0,3.67-.42,5.4-1.63,6.7-1.32,1.4-3.62,2.12-6.85,2.12h-19.27V0ZM202.49,12.13c1.56,0,1.98-.43,1.98-2.12s-.42-2.16-2.02-2.16h-8.76v4.28h8.8ZM202.49,23.29c1.74,0,1.98-.29,1.98-2.16,0-1.76-.35-2.12-1.98-2.12h-8.8v4.28h8.8Z"/>
      <path class="cls-1" d="M227.56,31.14c-2.57,0-4.55-.58-5.39-1.62-.8-.9-1.25-2.84-1.25-5.11,0-5.29,1.43-7.49,4.76-7.49h9.49v-.18c-.03-1.22-.24-1.44-1.53-1.44h-12.03v-6.84h14.43c4.87.04,6.71,1.73,6.78,6.12v16.56h-15.27ZM229.68,21.81c-1.08,0-1.25.22-1.25,1.4,0,1.3.14,1.44,1.22,1.44h5.46v-2.84h-5.43Z"/>
      <path class="cls-1" d="M250.54,24.33h12.55c1.18,0,1.46-.18,1.46-.9,0-.79-.28-.97-1.6-.97h-5.91c-2.37,0-4.24-.61-5.15-1.66-.83-.97-1.32-2.99-1.32-5.29,0-5.72,1.43-7.06,7.58-7.06h13.46v6.48h-12.34c-.83,0-1.15.25-1.15.97,0,.65.24.79,1.46.79h7.02c4.24,0,5.81,1.98,5.81,7.27,0,3.35-.7,5.26-2.26,6.19-1.08.65-2.82.97-5.42.97h-14.19v-6.8Z"/>
      <path class="cls-1" d="M302.08,30.92c-4.31.14-7.44.22-10.43.22h-1.04c-5.95,0-7.86-.4-9.18-1.91-1.18-1.37-1.5-3.1-1.5-8.53,0-6.7.35-9,1.63-10.4,1.29-1.44,3.27-1.84,9.11-1.84h1.6c5.04,0,6.78.36,8.14,1.66,1.25,1.22,1.74,2.92,1.74,6.19,0,.22,0,.94-.04,1.73l-.03,3.74h-14.36v.83c.04,1.12.17,1.26,1.32,1.26h13.04v7.06ZM294.5,17.21c.04-.18.04-.32.04-.54,0-1.26-.45-1.51-2.85-1.51h-1.84c-1.84,0-2.09.18-2.12,1.37v.68h6.78Z"/>
      <path class="cls-1" d="M310.04.86h7.86v7.63c3.51-.07,4.45-.07,5.08-.07,3.37,0,5.22.22,6.47.72,1.25.47,2.12,1.3,2.68,2.56.45,1.04.7,3.35.7,7.02v2.45c-.03,5.44-.42,7.06-2.09,8.53-1.46,1.12-3.09,1.4-9.11,1.44h-2.68c-1.81,0-3.13,0-5.6-.07-2.05-.04-2.09-.04-3.3-.04V.86ZM317.9,23.51h4c3.27,0,3.34-.07,3.34-3.78v-1.3c0-2.34-.24-2.56-2.85-2.56h-.83c-.21,0-.24,0-1.67.04h-.9l-.52.04h-.56v7.56Z"/>
      <path class="cls-1" d="M347.18,31.14c-2.57,0-4.56-.58-5.39-1.62-.8-.9-1.25-2.84-1.25-5.11,0-5.29,1.43-7.49,4.76-7.49h9.49v-.18c-.04-1.22-.24-1.44-1.53-1.44h-12.03v-6.84h14.43c4.87.04,6.71,1.73,6.78,6.12v16.56h-15.27ZM349.3,21.81c-1.08,0-1.25.22-1.25,1.4,0,1.3.14,1.44,1.22,1.44h5.46v-2.84h-5.42Z"/>
      <path class="cls-1" d="M370.23.86h7.82v30.27h-7.82V.86Z"/>
      <path class="cls-1" d="M386.23.86h7.82v30.27h-7.82V.86Z"/>
      <path class="cls-1" d="M423.09,0h10.43l10.02,31.14h-9.01l-1.81-6.7h-8.9l-1.77,6.7h-9.01l10.05-31.14ZM430.91,17.49l-2.61-9.94-2.61,9.94h5.22Z"/>
      <path class="cls-1" d="M471.25,31.03c-2.82.07-5.84.11-8.9.11h-2.57c-4.94,0-6.82-.36-8.1-1.58-1.39-1.33-1.81-3.31-1.81-9,0-6.16.28-8.39,1.29-9.75,1.25-1.73,3.48-2.38,7.96-2.38h3.34l2.71.04h6.09v7.31l-3.62-.04h-2.54c-4.56.04-5.98.07-6.68.25-.62.14-.83,1.04-.83,3.64,0,2.45.14,3.53.56,3.89.28.25,1.25.36,3.86.36h1.29c5.01,0,5.6,0,7.96-.07v7.24Z"/>
      <path class="cls-1" d="M485.4,31.14c-2.57,0-4.56-.58-5.39-1.62-.8-.9-1.25-2.84-1.25-5.11,0-5.29,1.43-7.49,4.76-7.49h9.49v-.18c-.04-1.22-.24-1.44-1.53-1.44h-12.03v-6.84h14.43c4.87.04,6.71,1.73,6.78,6.12v16.56h-15.27ZM487.52,21.81c-1.08,0-1.25.22-1.25,1.4,0,1.3.14,1.44,1.22,1.44h5.46v-2.84h-5.42Z"/>
      <path class="cls-1" d="M531.06,31.06c-3.34.04-6.19.07-9.7.07h-2.4c-4.42,0-6.47-.29-8.03-1.15-1.98-1.08-2.61-3.42-2.61-9.79s.45-8.75,2.02-10.19c1.22-1.12,3.03-1.55,6.47-1.55h1.6c1.01.04,2.64.04,4.69.04V.86h7.96v30.2ZM523.09,16.05c-2.23-.07-2.96-.07-4.31-.07-2.89,0-3.03.22-3.03,4.72,0,2.52.31,2.88,2.71,2.88h.21c.1,0,.49,0,1.08-.04l1.84-.04,1.5-.04v-7.42Z"/>
      <path class="cls-1" d="M560.96,30.92c-4.31.14-7.44.22-10.43.22h-1.04c-5.95,0-7.86-.4-9.18-1.91-1.18-1.37-1.5-3.1-1.5-8.53,0-6.7.35-9,1.63-10.4,1.29-1.44,3.27-1.84,9.11-1.84h1.6c5.04,0,6.78.36,8.14,1.66,1.25,1.22,1.74,2.92,1.74,6.19,0,.22,0,.94-.04,1.73l-.03,3.74h-14.36v.83c.03,1.12.17,1.26,1.32,1.26h13.04v7.06ZM553.38,17.21c.03-.18.03-.32.03-.54,0-1.26-.45-1.51-2.85-1.51h-1.84c-1.84,0-2.09.18-2.12,1.37v.68h6.78Z"/>
      <path class="cls-1" d="M568.47,8.46h24.1c5.25.04,7.06,1.76,7.16,6.73v15.95h-7.62v-13.53c-.03-1.48-.56-1.91-2.36-1.91h-1.88v15.44h-7.62v-15.44h-4.17v15.44h-7.62V8.46Z"/>
      <path class="cls-1" d="M605.65,8.46h8.14l3.69,9.21,3.79-9.21h8.35l-8.69,19.98c-1.15,2.59-2.19,4.03-3.41,4.57-.83.36-2.4.54-5.11.54h-2.36l-2.78-.04v-6.62h3.2c2.57-.04,3.17-.18,3.44-.76l-8.24-17.67Z"/>
      <path class="cls-1" d="M659.86,33.48c-5.29.04-7.13-.25-9.25-1.33-3.51-1.84-5.39-5.08-5.39-9.29s1.67-7.42,4.63-9.32c1.88-1.22,3.62-1.87,6.4-2.41l-.31-9.86h8.24l.1,8.78,9.81-.25v7.56l-7.23.22c-5.25.11-8.03.4-10.19.94-2.16.54-3.37,1.84-3.37,3.6,0,1.48.63,2.59,1.81,3.13.94.47,3.69.79,6.95.79,1.11,0,1.25,0,2.3-.04l9.95-.22v7.67l-14.43.04Z"/>
      <path class="cls-1" d="M683.61,33.19c-.49-5.04-.59-7.56-.59-14.72,0-5.94.28-10.73.94-16.88h7.75c-.9,7.27-1.08,10.65-1.08,20.45,0,3.67.17,6.41.73,11.16h-7.75ZM713.72,29.91c-3.13-1.76-3.96-2.2-4.94-2.56-.21,2.09-.76,3.2-2.16,4.28-1.36,1.01-3.23,1.51-5.81,1.51-2.33,0-3.96-.36-5.22-1.12-2.29-1.44-3.51-3.6-3.51-6.3s1.15-4.9,3.37-6.19c1.22-.72,2.54-1.08,3.93-1.08.63,0,1.15.07,2.16.25.04-.65.04-1.01.04-1.26l-.04-2.56v-.79l-8.9.11v-7.34l8.8-.11V1.3h7.68v5.4h4.69v7.23l-4.73.11v.94l-.04,3.53v1.55c2.75.97,3.13,1.12,4.66,1.84v8.03ZM698.39,25.92c0,.86.59,1.37,1.67,1.37,1.01,0,1.6-.5,1.6-1.33s-.73-1.4-1.67-1.4-1.6.54-1.6,1.37Z"/>
    </g>
  </g>
</svg>