<?xml version="1.0" encoding="UTF-8"?>
<svg id="_レイヤー_2" data-name="レイヤー 2" xmlns="http://www.w3.org/2000/svg" viewBox="0 0 619.33 376.26">
  <defs>
    <style>
      .cls-1 {
        fill: #22ac38;
      }

      .cls-2 {
        fill: #dae000;
      }

      .cls-3 {
        fill: #8fc31f;
      }

      .cls-4 {
        fill: #00913a;
      }
    </style>
  </defs>
  <g id="_レイヤー_1-2" data-name="レイヤー 1">
    <g>
      <g>
        <path class="cls-2" d="M534.47,125.28h0c-3.86,3.86-7.09,8.36-9.52,13.32l22.84-22.84c-4.96,2.43-9.46,5.66-13.32,9.52Z"/>
        <path class="cls-2" d="M554.19,113.16l-31.83,31.83c-.55,1.69-1.02,3.42-1.39,5.19l38.41-38.41c-1.77.37-3.5.84-5.19,1.39Z"/>
        <path class="cls-2" d="M563.91,111.04l-43.67,43.67c-.15,1.35-.26,2.72-.3,4.1l48.08-48.08c-1.38.04-2.75.15-4.1.3Z"/>
        <path class="cls-2" d="M571.8,110.76l-51.84,51.84c.05,1.19.14,2.36.28,3.53l55.09-55.09c-1.16-.13-2.34-.23-3.53-.28Z"/>
        <path class="cls-2" d="M578.63,111.53l-57.91,57.91c.19,1.05.42,2.1.68,3.12l60.36-60.36c-1.03-.26-2.07-.48-3.12-.68Z"/>
        <path class="cls-2" d="M584.72,113.05l-62.48,62.48c.3.95.63,1.89.99,2.81l64.3-64.3c-.92-.36-1.86-.69-2.81-.99Z"/>
        <path class="cls-2" d="M590.21,115.16l-65.85,65.85c.39.86.81,1.71,1.25,2.55l67.15-67.15c-.84-.44-1.69-.86-2.55-1.25Z"/>
        <path class="cls-2" d="M595.19,117.78l-68.22,68.22c.47.79.97,1.56,1.48,2.32l69.06-69.06c-.76-.51-1.53-1.01-2.32-1.48Z"/>
        <path class="cls-2" d="M599.72,120.85l-69.68,69.68c.55.72,1.11,1.42,1.7,2.11l70.09-70.09c-.69-.58-1.39-1.15-2.11-1.7Z"/>
        <path class="cls-2" d="M603.83,124.34l-70.29,70.29c.62.65,1.25,1.28,1.9,1.9l70.29-70.29c-.62-.65-1.25-1.28-1.9-1.9Z"/>
        <path class="cls-2" d="M607.53,128.25l-70.09,70.09c.69.58,1.39,1.15,2.11,1.7l69.68-69.68c-.55-.72-1.11-1.42-1.7-2.11Z"/>
        <path class="cls-2" d="M610.82,132.56l-69.06,69.06c.76.51,1.53,1.01,2.32,1.48l68.22-68.22c-.47-.79-.97-1.56-1.48-2.32Z"/>
        <path class="cls-2" d="M613.66,137.32l-67.15,67.15c.84.44,1.69.86,2.55,1.25l65.85-65.85c-.39-.86-.81-1.71-1.25-2.55Z"/>
        <path class="cls-2" d="M616.04,142.54l-64.3,64.3c.92.36,1.86.69,2.81.99l62.48-62.48c-.3-.95-.63-1.89-.99-2.81Z"/>
        <path class="cls-2" d="M617.87,148.32l-60.36,60.36c1.03.26,2.07.48,3.12.68l57.91-57.91c-.19-1.05-.42-2.1-.68-3.12Z"/>
        <path class="cls-2" d="M619.04,154.75l-55.09,55.09c1.16.13,2.34.23,3.53.28l51.84-51.84c-.05-1.19-.14-2.36-.28-3.53Z"/>
        <path class="cls-2" d="M619.03,166.16c.15-1.35.26-2.72.3-4.1l-48.08,48.08c1.38-.04,2.75-.15,4.1-.3l43.67-43.67Z"/>
        <path class="cls-2" d="M585.08,207.72l31.83-31.83c.55-1.69,1.02-3.42,1.39-5.19l-38.41,38.41c1.77-.37,3.5-.84,5.19-1.39Z"/>
        <path class="cls-2" d="M614.32,182.28l-22.84,22.84c9.92-4.86,17.99-12.92,22.84-22.84Z"/>
      </g>
      <path class="cls-3" d="M27.16,371.62c-6.19,6.19-16.33,6.19-22.52,0h0c-6.19-6.19-6.19-16.33,0-22.52L349.1,4.64c6.19-6.19,16.33-6.19,22.52,0h0c6.19,6.19,6.19,16.33,0,22.52L27.16,371.62Z"/>
      <path class="cls-1" d="M187.38,316.89c-3.1,3.1-8.16,3.1-11.26,0h0c-3.1-3.1-3.1-8.16,0-11.26l172.23-172.23c3.1-3.1,8.16-3.1,11.26,0h0c3.1,3.1,3.1,8.16,0,11.26l-172.23,172.23Z"/>
      <circle class="cls-4" cx="410.34" cy="213.24" r="16.6" transform="translate(-37.65 98.53) rotate(-13.1)"/>
      <circle class="cls-3" cx="462.75" cy="70.59" r="25.47"/>
    </g>
  </g>
</svg>