<?xml version="1.0" encoding="UTF-8"?>
<svg id="_レイヤー_2" data-name="レイヤー 2" xmlns="http://www.w3.org/2000/svg" viewBox="0 0 436.12 524.52">
  <defs>
    <style>
      .cls-1 {
        fill: #22ac38;
      }

      .cls-2 {
        fill: #dae000;
      }

      .cls-3 {
        fill: #8fc31f;
      }

      .cls-4 {
        fill: #006934;
      }
    </style>
  </defs>
  <g id="_レイヤー_1-2" data-name="レイヤー 1">
    <g>
      <g>
        <path class="cls-2" d="M43.84,20.17c1.97,0,3.56-1.59,3.56-3.56,0-1.69-1.18-3.1-2.76-3.46-1.46.92-2.9,1.88-4.3,2.87-.03.19-.06.39-.06.59,0,1.97,1.59,3.56,3.56,3.56Z"/>
        <path class="cls-2" d="M63.4,7.12c1.97,0,3.56-1.59,3.56-3.56,0-.25-.03-.5-.08-.74-2.25.71-4.46,1.5-6.63,2.37.59,1.14,1.77,1.93,3.15,1.93Z"/>
        <path class="cls-2" d="M56.88,20.17c1.97,0,3.56-1.59,3.56-3.56s-1.59-3.56-3.56-3.56-3.56,1.59-3.56,3.56,1.59,3.56,3.56,3.56Z"/>
        <path class="cls-2" d="M72.89,3.56c0,1.97,1.59,3.56,3.56,3.56s3.56-1.59,3.56-3.56c0-1.64-1.11-3-2.61-3.42-1.07.21-2.14.43-3.19.67-.8.65-1.32,1.63-1.32,2.74Z"/>
        <path class="cls-2" d="M69.93,20.17c1.97,0,3.56-1.59,3.56-3.56s-1.59-3.56-3.56-3.56-3.56,1.59-3.56,3.56,1.59,3.56,3.56,3.56Z"/>
        <path class="cls-2" d="M89.49,7.12c1.97,0,3.56-1.59,3.56-3.56s-1.59-3.56-3.56-3.56-3.56,1.59-3.56,3.56,1.59,3.56,3.56,3.56Z"/>
        <path class="cls-2" d="M82.97,20.17c1.97,0,3.56-1.59,3.56-3.56s-1.59-3.56-3.56-3.56-3.56,1.59-3.56,3.56,1.59,3.56,3.56,3.56Z"/>
        <path class="cls-2" d="M102.54,7.12c1.97,0,3.56-1.59,3.56-3.56s-1.59-3.56-3.56-3.56-3.56,1.59-3.56,3.56,1.59,3.56,3.56,3.56Z"/>
        <path class="cls-2" d="M96.02,20.17c1.97,0,3.56-1.59,3.56-3.56s-1.59-3.56-3.56-3.56-3.56,1.59-3.56,3.56,1.59,3.56,3.56,3.56Z"/>
        <path class="cls-2" d="M112.02,3.56c0,1.97,1.59,3.56,3.56,3.56s3.56-1.59,3.56-3.56c0-1.11-.52-2.09-1.32-2.74-1.06-.24-2.12-.46-3.19-.67-1.5.42-2.61,1.78-2.61,3.42Z"/>
        <path class="cls-2" d="M109.06,20.17c1.97,0,3.56-1.59,3.56-3.56s-1.59-3.56-3.56-3.56-3.56,1.59-3.56,3.56,1.59,3.56,3.56,3.56Z"/>
        <path class="cls-2" d="M128.63,7.12c1.38,0,2.56-.79,3.15-1.93-2.17-.87-4.38-1.66-6.63-2.37-.05.24-.08.49-.08.74,0,1.97,1.59,3.56,3.56,3.56Z"/>
        <path class="cls-2" d="M122.1,20.17c1.97,0,3.56-1.59,3.56-3.56s-1.59-3.56-3.56-3.56-3.56,1.59-3.56,3.56,1.59,3.56,3.56,3.56Z"/>
        <path class="cls-2" d="M135.15,20.17c1.97,0,3.56-1.59,3.56-3.56s-1.59-3.56-3.56-3.56-3.56,1.59-3.56,3.56,1.59,3.56,3.56,3.56Z"/>
        <path class="cls-2" d="M144.63,16.61c0,1.97,1.59,3.56,3.56,3.56s3.56-1.59,3.56-3.56c0-.2-.03-.4-.06-.59-1.41-1-2.84-1.95-4.3-2.87-1.58.37-2.76,1.77-2.76,3.46Z"/>
        <path class="cls-2" d="M27.83,29.65c0-.86-.32-1.64-.83-2.26-1.64,1.68-3.22,3.41-4.73,5.2.57.39,1.26.62,2,.62,1.97,0,3.56-1.59,3.56-3.56Z"/>
        <path class="cls-2" d="M17.75,46.26c1.97,0,3.56-1.59,3.56-3.56s-1.59-3.56-3.56-3.56c-.2,0-.4.03-.59.06-1,1.41-1.95,2.84-2.87,4.3.37,1.58,1.77,2.76,3.46,2.76Z"/>
        <path class="cls-2" d="M37.32,33.21c1.97,0,3.56-1.59,3.56-3.56s-1.59-3.56-3.56-3.56-3.56,1.59-3.56,3.56,1.59,3.56,3.56,3.56Z"/>
        <circle class="cls-2" cx="30.79" cy="42.69" r="3.56"/>
        <circle class="cls-2" cx="50.36" cy="29.65" r="3.56"/>
        <path class="cls-2" d="M43.84,46.26c1.97,0,3.56-1.59,3.56-3.56s-1.59-3.56-3.56-3.56-3.56,1.59-3.56,3.56,1.59,3.56,3.56,3.56Z"/>
        <circle class="cls-2" cx="63.4" cy="29.65" r="3.56"/>
        <circle class="cls-2" cx="56.88" cy="42.69" r="3.56"/>
        <path class="cls-2" d="M76.45,33.21c1.97,0,3.56-1.59,3.56-3.56s-1.59-3.56-3.56-3.56-3.56,1.59-3.56,3.56,1.59,3.56,3.56,3.56Z"/>
        <circle class="cls-2" cx="69.93" cy="42.69" r="3.56"/>
        <path class="cls-2" d="M89.49,26.09c-1.97,0-3.56,1.59-3.56,3.56s1.59,3.56,3.56,3.56,3.56-1.59,3.56-3.56-1.59-3.56-3.56-3.56Z"/>
        <path class="cls-2" d="M82.97,39.13c-1.97,0-3.56,1.59-3.56,3.56s1.59,3.56,3.56,3.56,3.56-1.59,3.56-3.56-1.59-3.56-3.56-3.56Z"/>
        <path class="cls-2" d="M102.54,26.09c-1.97,0-3.56,1.59-3.56,3.56s1.59,3.56,3.56,3.56,3.56-1.59,3.56-3.56-1.59-3.56-3.56-3.56Z"/>
        <circle class="cls-2" cx="96.02" cy="42.69" r="3.56"/>
        <path class="cls-2" d="M115.58,33.21c1.97,0,3.56-1.59,3.56-3.56s-1.59-3.56-3.56-3.56-3.56,1.59-3.56,3.56,1.59,3.56,3.56,3.56Z"/>
        <path class="cls-2" d="M109.06,39.13c-1.97,0-3.56,1.59-3.56,3.56s1.59,3.56,3.56,3.56,3.56-1.59,3.56-3.56-1.59-3.56-3.56-3.56Z"/>
        <path class="cls-2" d="M128.63,33.21c1.97,0,3.56-1.59,3.56-3.56s-1.59-3.56-3.56-3.56-3.56,1.59-3.56,3.56,1.59,3.56,3.56,3.56Z"/>
        <circle class="cls-2" cx="122.1" cy="42.69" r="3.56"/>
        <circle class="cls-2" cx="141.67" cy="29.65" r="3.56"/>
        <path class="cls-2" d="M135.15,39.13c-1.97,0-3.56,1.59-3.56,3.56s1.59,3.56,3.56,3.56,3.56-1.59,3.56-3.56-1.59-3.56-3.56-3.56Z"/>
        <path class="cls-2" d="M154.71,33.21c1.97,0,3.56-1.59,3.56-3.56s-1.59-3.56-3.56-3.56-3.56,1.59-3.56,3.56,1.59,3.56,3.56,3.56Z"/>
        <circle class="cls-2" cx="148.19" cy="42.69" r="3.56" transform="translate(-2.65 10.61) rotate(-4.07)"/>
        <path class="cls-2" d="M167.76,33.21c.74,0,1.43-.23,2-.62-1.51-1.79-3.09-3.53-4.73-5.2-.51.62-.83,1.4-.83,2.26,0,1.97,1.59,3.56,3.56,3.56Z"/>
        <circle class="cls-2" cx="161.24" cy="42.69" r="3.56"/>
        <path class="cls-2" d="M170.72,42.69c0,1.97,1.59,3.56,3.56,3.56,1.69,0,3.1-1.18,3.46-2.76-.92-1.46-1.88-2.9-2.87-4.3-.19-.03-.39-.06-.59-.06-1.97,0-3.56,1.59-3.56,3.56Z"/>
        <path class="cls-2" d="M11.23,59.3c1.97,0,3.56-1.59,3.56-3.56s-1.59-3.56-3.56-3.56c-.83,0-1.58.29-2.18.77-.47.98-.92,1.97-1.36,2.96.09,1.89,1.63,3.4,3.54,3.4Z"/>
        <path class="cls-2" d="M8.27,68.78c0-1.97-1.59-3.56-3.56-3.56-.2,0-.4.03-.59.06-.65,2.03-1.24,4.08-1.76,6.16.63.56,1.44.9,2.35.9,1.97,0,3.56-1.59,3.56-3.56Z"/>
        <path class="cls-2" d="M24.27,59.3c1.97,0,3.56-1.59,3.56-3.56s-1.59-3.56-3.56-3.56-3.56,1.59-3.56,3.56,1.59,3.56,3.56,3.56Z"/>
        <path class="cls-2" d="M17.75,72.34c1.97,0,3.56-1.59,3.56-3.56s-1.59-3.56-3.56-3.56-3.56,1.59-3.56,3.56,1.59,3.56,3.56,3.56Z"/>
        <path class="cls-2" d="M37.32,52.18c-1.97,0-3.56,1.59-3.56,3.56s1.59,3.56,3.56,3.56,3.56-1.59,3.56-3.56-1.59-3.56-3.56-3.56Z"/>
        <circle class="cls-2" cx="30.79" cy="68.78" r="3.56"/>
        <path class="cls-2" d="M50.36,52.18c-1.97,0-3.56,1.59-3.56,3.56s1.59,3.56,3.56,3.56,3.56-1.59,3.56-3.56-1.59-3.56-3.56-3.56Z"/>
        <path class="cls-2" d="M43.84,65.22c-1.97,0-3.56,1.59-3.56,3.56s1.59,3.56,3.56,3.56,3.56-1.59,3.56-3.56-1.59-3.56-3.56-3.56Z"/>
        <path class="cls-2" d="M63.4,52.18c-1.97,0-3.56,1.59-3.56,3.56s1.59,3.56,3.56,3.56,3.56-1.59,3.56-3.56-1.59-3.56-3.56-3.56Z"/>
        <circle class="cls-2" cx="56.88" cy="68.78" r="3.56"/>
        <path class="cls-2" d="M76.45,52.18c-1.97,0-3.56,1.59-3.56,3.56s1.59,3.56,3.56,3.56,3.56-1.59,3.56-3.56-1.59-3.56-3.56-3.56Z"/>
        <circle class="cls-2" cx="69.93" cy="68.78" r="3.56"/>
        <path class="cls-2" d="M89.49,52.18c-1.97,0-3.56,1.59-3.56,3.56s1.59,3.56,3.56,3.56,3.56-1.59,3.56-3.56-1.59-3.56-3.56-3.56Z"/>
        <path class="cls-2" d="M82.97,65.22c-1.97,0-3.56,1.59-3.56,3.56s1.59,3.56,3.56,3.56,3.56-1.59,3.56-3.56-1.59-3.56-3.56-3.56Z"/>
        <path class="cls-2" d="M102.54,52.18c-1.97,0-3.56,1.59-3.56,3.56s1.59,3.56,3.56,3.56,3.56-1.59,3.56-3.56-1.59-3.56-3.56-3.56Z"/>
        <circle class="cls-2" cx="96.02" cy="68.78" r="3.56"/>
        <path class="cls-2" d="M115.58,52.18c-1.97,0-3.56,1.59-3.56,3.56s1.59,3.56,3.56,3.56,3.56-1.59,3.56-3.56-1.59-3.56-3.56-3.56Z"/>
        <path class="cls-2" d="M109.06,65.22c-1.97,0-3.56,1.59-3.56,3.56s1.59,3.56,3.56,3.56,3.56-1.59,3.56-3.56-1.59-3.56-3.56-3.56Z"/>
        <path class="cls-2" d="M128.63,52.18c-1.97,0-3.56,1.59-3.56,3.56s1.59,3.56,3.56,3.56,3.56-1.59,3.56-3.56-1.59-3.56-3.56-3.56Z"/>
        <circle class="cls-2" cx="122.1" cy="68.78" r="3.56"/>
        <path class="cls-2" d="M141.67,52.18c-1.97,0-3.56,1.59-3.56,3.56s1.59,3.56,3.56,3.56,3.56-1.59,3.56-3.56-1.59-3.56-3.56-3.56Z"/>
        <path class="cls-2" d="M135.15,65.22c-1.97,0-3.56,1.59-3.56,3.56s1.59,3.56,3.56,3.56,3.56-1.59,3.56-3.56-1.59-3.56-3.56-3.56Z"/>
        <path class="cls-2" d="M154.71,52.18c-1.97,0-3.56,1.59-3.56,3.56s1.59,3.56,3.56,3.56,3.56-1.59,3.56-3.56-1.59-3.56-3.56-3.56Z"/>
        <circle class="cls-2" cx="148.19" cy="68.78" r="3.56" transform="translate(65.14 209.48) rotate(-84.35)"/>
        <path class="cls-2" d="M167.76,59.3c1.97,0,3.56-1.59,3.56-3.56s-1.59-3.56-3.56-3.56-3.56,1.59-3.56,3.56,1.59,3.56,3.56,3.56Z"/>
        <circle class="cls-2" cx="161.24" cy="68.78" r="3.56"/>
        <path class="cls-2" d="M177.24,55.74c0,1.97,1.59,3.56,3.56,3.56s3.46-1.51,3.54-3.4c-.44-1-.89-1.98-1.36-2.96-.6-.47-1.36-.77-2.18-.77-1.97,0-3.56,1.59-3.56,3.56Z"/>
        <path class="cls-2" d="M174.28,72.34c1.97,0,3.56-1.59,3.56-3.56s-1.59-3.56-3.56-3.56-3.56,1.59-3.56,3.56,1.59,3.56,3.56,3.56Z"/>
        <path class="cls-2" d="M183.76,68.78c0,1.97,1.59,3.56,3.56,3.56.9,0,1.72-.35,2.35-.9-.52-2.08-1.11-4.13-1.76-6.16-.19-.03-.39-.06-.59-.06-1.97,0-3.56,1.59-3.56,3.56Z"/>
        <path class="cls-2" d="M1.74,81.83c0-.96-.39-1.84-1.01-2.48-.3,1.83-.54,3.67-.74,5.52,1.04-.62,1.74-1.75,1.74-3.05Z"/>
        <path class="cls-2" d="M11.23,85.39c1.97,0,3.56-1.59,3.56-3.56s-1.59-3.56-3.56-3.56-3.56,1.59-3.56,3.56,1.59,3.56,3.56,3.56Z"/>
        <path class="cls-2" d="M4.7,91.31c-1.97,0-3.56,1.59-3.56,3.56s1.59,3.56,3.56,3.56,3.56-1.59,3.56-3.56-1.59-3.56-3.56-3.56Z"/>
        <path class="cls-2" d="M24.27,78.27c-1.97,0-3.56,1.59-3.56,3.56s1.59,3.56,3.56,3.56,3.56-1.59,3.56-3.56-1.59-3.56-3.56-3.56Z"/>
        <path class="cls-2" d="M17.75,91.31c-1.97,0-3.56,1.59-3.56,3.56s1.59,3.56,3.56,3.56,3.56-1.59,3.56-3.56-1.59-3.56-3.56-3.56Z"/>
        <path class="cls-2" d="M37.32,85.39c1.97,0,3.56-1.59,3.56-3.56s-1.59-3.56-3.56-3.56-3.56,1.59-3.56,3.56,1.59,3.56,3.56,3.56Z"/>
        <circle class="cls-2" cx="30.79" cy="94.87" r="3.56"/>
        <path class="cls-2" d="M50.36,78.27c-1.97,0-3.56,1.59-3.56,3.56s1.59,3.56,3.56,3.56,3.56-1.59,3.56-3.56-1.59-3.56-3.56-3.56Z"/>
        <path class="cls-2" d="M43.84,98.43c1.97,0,3.56-1.59,3.56-3.56s-1.59-3.56-3.56-3.56-3.56,1.59-3.56,3.56,1.59,3.56,3.56,3.56Z"/>
        <path class="cls-2" d="M63.4,78.27c-1.97,0-3.56,1.59-3.56,3.56s1.59,3.56,3.56,3.56,3.56-1.59,3.56-3.56-1.59-3.56-3.56-3.56Z"/>
        <circle class="cls-2" cx="56.88" cy="94.87" r="3.56"/>
        <path class="cls-2" d="M76.45,78.27c-1.97,0-3.56,1.59-3.56,3.56s1.59,3.56,3.56,3.56,3.56-1.59,3.56-3.56-1.59-3.56-3.56-3.56Z"/>
        <circle class="cls-2" cx="69.93" cy="94.87" r="3.56"/>
        <path class="cls-2" d="M89.49,85.39c1.97,0,3.56-1.59,3.56-3.56s-1.59-3.56-3.56-3.56-3.56,1.59-3.56,3.56,1.59,3.56,3.56,3.56Z"/>
        <path class="cls-2" d="M82.97,91.31c-1.97,0-3.56,1.59-3.56,3.56s1.59,3.56,3.56,3.56,3.56-1.59,3.56-3.56-1.59-3.56-3.56-3.56Z"/>
        <path class="cls-2" d="M102.54,85.39c1.97,0,3.56-1.59,3.56-3.56s-1.59-3.56-3.56-3.56-3.56,1.59-3.56,3.56,1.59,3.56,3.56,3.56Z"/>
        <circle class="cls-2" cx="96.02" cy="94.87" r="3.56"/>
        <path class="cls-2" d="M115.58,78.27c-1.97,0-3.56,1.59-3.56,3.56s1.59,3.56,3.56,3.56,3.56-1.59,3.56-3.56-1.59-3.56-3.56-3.56Z"/>
        <path class="cls-2" d="M109.06,98.43c1.97,0,3.56-1.59,3.56-3.56s-1.59-3.56-3.56-3.56-3.56,1.59-3.56,3.56,1.59,3.56,3.56,3.56Z"/>
        <path class="cls-2" d="M128.63,78.27c-1.97,0-3.56,1.59-3.56,3.56s1.59,3.56,3.56,3.56,3.56-1.59,3.56-3.56-1.59-3.56-3.56-3.56Z"/>
        <circle class="cls-2" cx="122.1" cy="94.87" r="3.56"/>
        <path class="cls-2" d="M141.67,78.27c-1.97,0-3.56,1.59-3.56,3.56s1.59,3.56,3.56,3.56,3.56-1.59,3.56-3.56-1.59-3.56-3.56-3.56Z"/>
        <path class="cls-2" d="M135.15,98.43c1.97,0,3.56-1.59,3.56-3.56s-1.59-3.56-3.56-3.56-3.56,1.59-3.56,3.56,1.59,3.56,3.56,3.56Z"/>
        <path class="cls-2" d="M154.71,78.27c-1.97,0-3.56,1.59-3.56,3.56s1.59,3.56,3.56,3.56,3.56-1.59,3.56-3.56-1.59-3.56-3.56-3.56Z"/>
        <circle class="cls-2" cx="148.19" cy="94.87" r="3.56" transform="translate(39.18 232.99) rotate(-84.35)"/>
        <path class="cls-2" d="M167.76,78.27c-1.97,0-3.56,1.59-3.56,3.56s1.59,3.56,3.56,3.56,3.56-1.59,3.56-3.56-1.59-3.56-3.56-3.56Z"/>
        <circle class="cls-2" cx="161.24" cy="94.87" r="3.56"/>
        <path class="cls-2" d="M180.8,85.39c1.97,0,3.56-1.59,3.56-3.56s-1.59-3.56-3.56-3.56-3.56,1.59-3.56,3.56,1.59,3.56,3.56,3.56Z"/>
        <path class="cls-2" d="M174.28,98.43c1.97,0,3.56-1.59,3.56-3.56s-1.59-3.56-3.56-3.56-3.56,1.59-3.56,3.56,1.59,3.56,3.56,3.56Z"/>
        <path class="cls-2" d="M192.03,84.87c-.19-1.86-.44-3.7-.74-5.52-.62.64-1.01,1.51-1.01,2.48,0,1.3.7,2.43,1.74,3.05Z"/>
        <circle class="cls-2" cx="187.33" cy="94.87" r="3.56"/>
        <path class="cls-2" d="M0,104.87c.19,1.86.44,3.7.74,5.52.62-.64,1.01-1.51,1.01-2.48,0-1.3-.7-2.43-1.74-3.05Z"/>
        <path class="cls-2" d="M11.23,104.35c-1.97,0-3.56,1.59-3.56,3.56s1.59,3.56,3.56,3.56,3.56-1.59,3.56-3.56-1.59-3.56-3.56-3.56Z"/>
        <path class="cls-2" d="M8.27,120.96c0-1.97-1.59-3.56-3.56-3.56-.9,0-1.72.35-2.35.9.52,2.08,1.11,4.13,1.76,6.16.19.03.39.06.59.06,1.97,0,3.56-1.59,3.56-3.56Z"/>
        <circle class="cls-2" cx="24.27" cy="107.92" r="3.56" transform="translate(-83.04 81.09) rotate(-63.29)"/>
        <path class="cls-2" d="M17.75,117.4c-1.97,0-3.56,1.59-3.56,3.56s1.59,3.56,3.56,3.56,3.56-1.59,3.56-3.56-1.59-3.56-3.56-3.56Z"/>
        <path class="cls-2" d="M37.32,111.48c1.97,0,3.56-1.59,3.56-3.56s-1.59-3.56-3.56-3.56-3.56,1.59-3.56,3.56,1.59,3.56,3.56,3.56Z"/>
        <path class="cls-2" d="M30.79,124.52c1.97,0,3.56-1.59,3.56-3.56s-1.59-3.56-3.56-3.56-3.56,1.59-3.56,3.56,1.59,3.56,3.56,3.56Z"/>
        <circle class="cls-2" cx="50.36" cy="107.92" r="3.56"/>
        <path class="cls-2" d="M43.84,124.52c1.97,0,3.56-1.59,3.56-3.56s-1.59-3.56-3.56-3.56-3.56,1.59-3.56,3.56,1.59,3.56,3.56,3.56Z"/>
        <circle class="cls-2" cx="63.4" cy="107.92" r="3.56"/>
        <path class="cls-2" d="M56.88,124.52c1.97,0,3.56-1.59,3.56-3.56s-1.59-3.56-3.56-3.56-3.56,1.59-3.56,3.56,1.59,3.56,3.56,3.56Z"/>
        <path class="cls-2" d="M76.45,111.48c1.97,0,3.56-1.59,3.56-3.56s-1.59-3.56-3.56-3.56-3.56,1.59-3.56,3.56,1.59,3.56,3.56,3.56Z"/>
        <path class="cls-2" d="M69.93,124.52c1.97,0,3.56-1.59,3.56-3.56s-1.59-3.56-3.56-3.56-3.56,1.59-3.56,3.56,1.59,3.56,3.56,3.56Z"/>
        <path class="cls-2" d="M89.49,111.48c1.97,0,3.56-1.59,3.56-3.56s-1.59-3.56-3.56-3.56-3.56,1.59-3.56,3.56,1.59,3.56,3.56,3.56Z"/>
        <path class="cls-2" d="M82.97,124.52c1.97,0,3.56-1.59,3.56-3.56s-1.59-3.56-3.56-3.56-3.56,1.59-3.56,3.56,1.59,3.56,3.56,3.56Z"/>
        <path class="cls-2" d="M102.54,111.48c1.97,0,3.56-1.59,3.56-3.56s-1.59-3.56-3.56-3.56-3.56,1.59-3.56,3.56,1.59,3.56,3.56,3.56Z"/>
        <path class="cls-2" d="M96.02,124.52c1.97,0,3.56-1.59,3.56-3.56s-1.59-3.56-3.56-3.56-3.56,1.59-3.56,3.56,1.59,3.56,3.56,3.56Z"/>
        <path class="cls-2" d="M115.58,111.48c1.97,0,3.56-1.59,3.56-3.56s-1.59-3.56-3.56-3.56-3.56,1.59-3.56,3.56,1.59,3.56,3.56,3.56Z"/>
        <path class="cls-2" d="M109.06,124.52c1.97,0,3.56-1.59,3.56-3.56s-1.59-3.56-3.56-3.56-3.56,1.59-3.56,3.56,1.59,3.56,3.56,3.56Z"/>
        <path class="cls-2" d="M128.63,111.48c1.97,0,3.56-1.59,3.56-3.56s-1.59-3.56-3.56-3.56-3.56,1.59-3.56,3.56,1.59,3.56,3.56,3.56Z"/>
        <path class="cls-2" d="M122.1,124.52c1.97,0,3.56-1.59,3.56-3.56s-1.59-3.56-3.56-3.56-3.56,1.59-3.56,3.56,1.59,3.56,3.56,3.56Z"/>
        <circle class="cls-2" cx="141.67" cy="107.92" r="3.56"/>
        <path class="cls-2" d="M135.15,124.52c1.97,0,3.56-1.59,3.56-3.56s-1.59-3.56-3.56-3.56-3.56,1.59-3.56,3.56,1.59,3.56,3.56,3.56Z"/>
        <path class="cls-2" d="M154.71,104.35c-1.97,0-3.56,1.59-3.56,3.56s1.59,3.56,3.56,3.56,3.56-1.59,3.56-3.56-1.59-3.56-3.56-3.56Z"/>
        <path class="cls-2" d="M148.19,124.52c1.97,0,3.56-1.59,3.56-3.56s-1.59-3.56-3.56-3.56-3.56,1.59-3.56,3.56,1.59,3.56,3.56,3.56Z"/>
        <circle class="cls-2" cx="167.76" cy="107.92" r="3.56" transform="translate(-4.05 209.26) rotate(-63.29)"/>
        <path class="cls-2" d="M161.24,124.52c1.97,0,3.56-1.59,3.56-3.56s-1.59-3.56-3.56-3.56-3.56,1.59-3.56,3.56,1.59,3.56,3.56,3.56Z"/>
        <path class="cls-2" d="M180.8,104.35c-1.97,0-3.56,1.59-3.56,3.56s1.59,3.56,3.56,3.56,3.56-1.59,3.56-3.56-1.59-3.56-3.56-3.56Z"/>
        <path class="cls-2" d="M174.28,117.4c-1.97,0-3.56,1.59-3.56,3.56s1.59,3.56,3.56,3.56,3.56-1.59,3.56-3.56-1.59-3.56-3.56-3.56Z"/>
        <path class="cls-2" d="M190.29,107.92c0,.96.39,1.84,1.01,2.48.3-1.83.54-3.67.74-5.52-1.04.62-1.74,1.75-1.74,3.05Z"/>
        <path class="cls-2" d="M183.76,120.96c0,1.97,1.59,3.56,3.56,3.56.2,0,.4-.03.59-.06.65-2.03,1.24-4.08,1.76-6.16-.63-.56-1.44-.9-2.35-.9-1.97,0-3.56,1.59-3.56,3.56Z"/>
        <path class="cls-2" d="M14.79,134c0-1.97-1.59-3.56-3.56-3.56s-3.46,1.51-3.54,3.4c.44,1,.89,1.98,1.36,2.96.6.47,1.36.77,2.18.77,1.97,0,3.56-1.59,3.56-3.56Z"/>
        <circle class="cls-2" cx="24.27" cy="134" r="3.56" transform="translate(-108.91 105.56) rotate(-67.68)"/>
        <path class="cls-2" d="M21.31,147.05c0-1.97-1.59-3.56-3.56-3.56-1.69,0-3.1,1.18-3.46,2.76.92,1.46,1.88,2.9,2.87,4.3.19.03.39.06.59.06,1.97,0,3.56-1.59,3.56-3.56Z"/>
        <path class="cls-2" d="M37.32,137.57c1.97,0,3.56-1.59,3.56-3.56s-1.59-3.56-3.56-3.56-3.56,1.59-3.56,3.56,1.59,3.56,3.56,3.56Z"/>
        <circle class="cls-2" cx="30.79" cy="147.05" r="3.56"/>
        <circle class="cls-2" cx="50.36" cy="134" r="3.56"/>
        <path class="cls-2" d="M43.84,143.49c-1.97,0-3.56,1.59-3.56,3.56s1.59,3.56,3.56,3.56,3.56-1.59,3.56-3.56-1.59-3.56-3.56-3.56Z"/>
        <circle class="cls-2" cx="63.4" cy="134" r="3.56"/>
        <circle class="cls-2" cx="56.88" cy="147.05" r="3.56"/>
        <path class="cls-2" d="M76.45,137.57c1.97,0,3.56-1.59,3.56-3.56s-1.59-3.56-3.56-3.56-3.56,1.59-3.56,3.56,1.59,3.56,3.56,3.56Z"/>
        <circle class="cls-2" cx="69.93" cy="147.05" r="3.56"/>
        <path class="cls-2" d="M89.49,137.57c1.97,0,3.56-1.59,3.56-3.56s-1.59-3.56-3.56-3.56-3.56,1.59-3.56,3.56,1.59,3.56,3.56,3.56Z"/>
        <path class="cls-2" d="M82.97,150.61c1.97,0,3.56-1.59,3.56-3.56s-1.59-3.56-3.56-3.56-3.56,1.59-3.56,3.56,1.59,3.56,3.56,3.56Z"/>
        <path class="cls-2" d="M102.54,137.57c1.97,0,3.56-1.59,3.56-3.56s-1.59-3.56-3.56-3.56-3.56,1.59-3.56,3.56,1.59,3.56,3.56,3.56Z"/>
        <circle class="cls-2" cx="96.02" cy="147.05" r="3.56"/>
        <path class="cls-2" d="M115.58,137.57c1.97,0,3.56-1.59,3.56-3.56s-1.59-3.56-3.56-3.56-3.56,1.59-3.56,3.56,1.59,3.56,3.56,3.56Z"/>
        <path class="cls-2" d="M109.06,150.61c1.97,0,3.56-1.59,3.56-3.56s-1.59-3.56-3.56-3.56-3.56,1.59-3.56,3.56,1.59,3.56,3.56,3.56Z"/>
        <path class="cls-2" d="M128.63,137.57c1.97,0,3.56-1.59,3.56-3.56s-1.59-3.56-3.56-3.56-3.56,1.59-3.56,3.56,1.59,3.56,3.56,3.56Z"/>
        <circle class="cls-2" cx="122.1" cy="147.05" r="3.56"/>
        <circle class="cls-2" cx="141.67" cy="134" r="3.56"/>
        <path class="cls-2" d="M135.15,150.61c1.97,0,3.56-1.59,3.56-3.56s-1.59-3.56-3.56-3.56-3.56,1.59-3.56,3.56,1.59,3.56,3.56,3.56Z"/>
        <path class="cls-2" d="M154.71,137.57c1.97,0,3.56-1.59,3.56-3.56s-1.59-3.56-3.56-3.56-3.56,1.59-3.56,3.56,1.59,3.56,3.56,3.56Z"/>
        <circle class="cls-2" cx="148.19" cy="147.05" r="3.56"/>
        <circle class="cls-2" cx="167.76" cy="134" r="3.56" transform="translate(-19.92 238.29) rotate(-67.68)"/>
        <circle class="cls-2" cx="161.24" cy="147.05" r="3.56"/>
        <path class="cls-2" d="M180.8,130.44c-1.97,0-3.56,1.59-3.56,3.56s1.59,3.56,3.56,3.56c.83,0,1.58-.29,2.18-.77.47-.98.92-1.97,1.36-2.96-.09-1.89-1.63-3.4-3.54-3.4Z"/>
        <path class="cls-2" d="M174.28,143.49c-1.97,0-3.56,1.59-3.56,3.56s1.59,3.56,3.56,3.56c.2,0,.4-.03.59-.06,1-1.41,1.95-2.84,2.87-4.3-.37-1.58-1.77-2.76-3.46-2.76Z"/>
        <path class="cls-2" d="M24.27,156.53c-.74,0-1.43.23-2,.62,1.51,1.79,3.09,3.53,4.73,5.2.51-.62.83-1.4.83-2.26,0-1.97-1.59-3.56-3.56-3.56Z"/>
        <path class="cls-2" d="M37.32,156.53c-1.97,0-3.56,1.59-3.56,3.56s1.59,3.56,3.56,3.56,3.56-1.59,3.56-3.56-1.59-3.56-3.56-3.56Z"/>
        <circle class="cls-2" cx="50.36" cy="160.09" r="3.56"/>
        <path class="cls-2" d="M47.4,173.14c0-1.97-1.59-3.56-3.56-3.56s-3.56,1.59-3.56,3.56c0,.2.03.4.06.59,1.41,1,2.84,1.95,4.3,2.87,1.58-.37,2.76-1.77,2.76-3.46Z"/>
        <circle class="cls-2" cx="63.4" cy="160.09" r="3.56"/>
        <path class="cls-2" d="M56.88,169.58c-1.97,0-3.56,1.59-3.56,3.56s1.59,3.56,3.56,3.56,3.56-1.59,3.56-3.56-1.59-3.56-3.56-3.56Z"/>
        <path class="cls-2" d="M76.45,156.53c-1.97,0-3.56,1.59-3.56,3.56s1.59,3.56,3.56,3.56,3.56-1.59,3.56-3.56-1.59-3.56-3.56-3.56Z"/>
        <path class="cls-2" d="M69.93,169.58c-1.97,0-3.56,1.59-3.56,3.56s1.59,3.56,3.56,3.56,3.56-1.59,3.56-3.56-1.59-3.56-3.56-3.56Z"/>
        <path class="cls-2" d="M89.49,163.65c1.97,0,3.56-1.59,3.56-3.56s-1.59-3.56-3.56-3.56-3.56,1.59-3.56,3.56,1.59,3.56,3.56,3.56Z"/>
        <path class="cls-2" d="M82.97,169.58c-1.97,0-3.56,1.59-3.56,3.56s1.59,3.56,3.56,3.56,3.56-1.59,3.56-3.56-1.59-3.56-3.56-3.56Z"/>
        <path class="cls-2" d="M102.54,163.65c1.97,0,3.56-1.59,3.56-3.56s-1.59-3.56-3.56-3.56-3.56,1.59-3.56,3.56,1.59,3.56,3.56,3.56Z"/>
        <path class="cls-2" d="M96.02,169.58c-1.97,0-3.56,1.59-3.56,3.56s1.59,3.56,3.56,3.56,3.56-1.59,3.56-3.56-1.59-3.56-3.56-3.56Z"/>
        <path class="cls-2" d="M115.58,156.53c-1.97,0-3.56,1.59-3.56,3.56s1.59,3.56,3.56,3.56,3.56-1.59,3.56-3.56-1.59-3.56-3.56-3.56Z"/>
        <path class="cls-2" d="M109.06,169.58c-1.97,0-3.56,1.59-3.56,3.56s1.59,3.56,3.56,3.56,3.56-1.59,3.56-3.56-1.59-3.56-3.56-3.56Z"/>
        <path class="cls-2" d="M128.63,156.53c-1.97,0-3.56,1.59-3.56,3.56s1.59,3.56,3.56,3.56,3.56-1.59,3.56-3.56-1.59-3.56-3.56-3.56Z"/>
        <path class="cls-2" d="M122.1,169.58c-1.97,0-3.56,1.59-3.56,3.56s1.59,3.56,3.56,3.56,3.56-1.59,3.56-3.56-1.59-3.56-3.56-3.56Z"/>
        <circle class="cls-2" cx="141.67" cy="160.09" r="3.56"/>
        <path class="cls-2" d="M135.15,169.58c-1.97,0-3.56,1.59-3.56,3.56s1.59,3.56,3.56,3.56,3.56-1.59,3.56-3.56-1.59-3.56-3.56-3.56Z"/>
        <path class="cls-2" d="M154.71,156.53c-1.97,0-3.56,1.59-3.56,3.56s1.59,3.56,3.56,3.56,3.56-1.59,3.56-3.56-1.59-3.56-3.56-3.56Z"/>
        <path class="cls-2" d="M148.19,169.58c-1.97,0-3.56,1.59-3.56,3.56,0,1.69,1.18,3.1,2.76,3.46,1.46-.92,2.9-1.88,4.3-2.87.03-.19.06-.39.06-.59,0-1.97-1.59-3.56-3.56-3.56Z"/>
        <path class="cls-2" d="M164.2,160.09c0,.86.32,1.64.83,2.26,1.64-1.68,3.22-3.41,4.73-5.2-.57-.39-1.26-.62-2-.62-1.97,0-3.56,1.59-3.56,3.56Z"/>
        <path class="cls-2" d="M63.4,182.62c-1.38,0-2.56.79-3.15,1.93,2.17.87,4.38,1.66,6.63,2.37.05-.24.08-.49.08-.74,0-1.97-1.59-3.56-3.56-3.56Z"/>
        <path class="cls-2" d="M80.01,186.18c0-1.97-1.59-3.56-3.56-3.56s-3.56,1.59-3.56,3.56c0,1.11.52,2.09,1.32,2.74,1.06.24,2.12.46,3.19.67,1.5-.42,2.61-1.78,2.61-3.42Z"/>
        <path class="cls-2" d="M89.49,182.62c-1.97,0-3.56,1.59-3.56,3.56s1.59,3.56,3.56,3.56,3.56-1.59,3.56-3.56-1.59-3.56-3.56-3.56Z"/>
        <path class="cls-2" d="M102.54,182.62c-1.97,0-3.56,1.59-3.56,3.56s1.59,3.56,3.56,3.56,3.56-1.59,3.56-3.56-1.59-3.56-3.56-3.56Z"/>
        <path class="cls-2" d="M119.14,186.18c0-1.97-1.59-3.56-3.56-3.56s-3.56,1.59-3.56,3.56c0,1.64,1.11,3,2.61,3.42,1.07-.21,2.14-.43,3.19-.67.8-.65,1.32-1.63,1.32-2.74Z"/>
        <path class="cls-2" d="M128.63,182.62c-1.97,0-3.56,1.59-3.56,3.56,0,.25.03.5.08.74,2.25-.71,4.46-1.5,6.63-2.37-.59-1.14-1.77-1.93-3.15-1.93Z"/>
      </g>
      <path class="cls-1" d="M72.76,261.68c-3.58,3.58-9.43,3.58-13.01,0h0c-3.58-3.58-3.58-9.43,0-13.01L258.77,49.65c3.58-3.58,9.43-3.58,13.01,0h0c3.58,3.58,3.58,9.43,0,13.01l-199.02,199.02Z"/>
      <path class="cls-3" d="M148.08,520.68c-5.11,5.11-13.47,5.11-18.58,0h0c-5.11-5.11-5.11-13.47,0-18.58L413.71,217.9c5.11-5.11,13.47-5.11,18.58,0h0c5.11,5.11,5.11,13.47,0,18.58l-284.21,284.21Z"/>
      <path class="cls-4" d="M76.45,353.36c-5.14,5.14-13.54,5.14-18.68,0h0c-5.14-5.14-5.14-13.54,0-18.68L343.48,48.98c5.14-5.14,13.54-5.14,18.68,0h0c5.14,5.14,5.14,13.54,0,18.68L76.45,353.36Z"/>
    </g>
  </g>
</svg>