<?xml version="1.0" encoding="UTF-8"?>
<svg id="_レイヤー_2" data-name="レイヤー 2" xmlns="http://www.w3.org/2000/svg" viewBox="0 0 819.52 386.73">
  <defs>
    <style>
      .cls-1, .cls-2 {
        fill: none;
      }

      .cls-3 {
        fill: #fff;
      }

      .cls-2 {
        stroke: #00913a;
        stroke-linecap: round;
        stroke-linejoin: round;
        stroke-width: 4.75px;
      }
    </style>
  </defs>
  <g id="_レイヤー_1-2" data-name="レイヤー 1">
    <g>
      <g>
        <g>
          <path class="cls-2" d="M22.12,20h52.36l20.19,78.4,20.05-78.4h52.33v128.85h-32.61V50.59l-25.12,98.26h-29.51l-25.08-98.26v98.26H22.12V20Z"/>
          <path class="cls-2" d="M240.69,85.74l-34.19-3.6c1.29-5.98,3.15-10.68,5.58-14.11,2.43-3.43,5.93-6.4,10.5-8.92,3.28-1.82,7.79-3.22,13.54-4.22,5.74-1,11.95-1.49,18.63-1.49,10.72,0,19.34.6,25.84,1.8,6.5,1.2,11.92,3.71,16.26,7.51,3.05,2.64,5.45,6.37,7.21,11.21s2.64,9.45,2.64,13.84v41.22c0,4.39.28,7.84.83,10.33.56,2.49,1.77,5.67,3.65,9.54h-33.57c-1.35-2.4-2.23-4.23-2.64-5.49-.41-1.26-.82-3.24-1.23-5.93-4.69,4.51-9.35,7.73-13.97,9.67-6.33,2.58-13.68,3.87-22.06,3.87-11.13,0-19.59-2.58-25.36-7.73-5.77-5.16-8.66-11.51-8.66-19.07,0-7.09,2.08-12.92,6.24-17.49,4.16-4.57,11.83-7.97,23.03-10.2,13.42-2.69,22.12-4.58,26.1-5.67,3.98-1.08,8.2-2.5,12.66-4.26,0-4.39-.91-7.47-2.72-9.23-1.82-1.76-5.01-2.64-9.58-2.64-5.86,0-10.25.94-13.18,2.81-2.29,1.47-4.13,4.22-5.54,8.26ZM271.71,104.55c-4.92,1.76-10.05,3.31-15.38,4.66-7.27,1.93-11.87,3.84-13.8,5.71-1.99,1.93-2.99,4.13-2.99,6.59,0,2.81.98,5.11,2.94,6.9,1.96,1.79,4.85,2.68,8.66,2.68s7.69-.97,11.12-2.9,5.86-4.29,7.29-7.08c1.44-2.78,2.15-6.4,2.15-10.85v-5.71Z"/>
          <path class="cls-2" d="M346.14,20h36.56v66.51l26.72-31h44.03l-33.48,32.7,35.42,60.64h-40.3l-18.9-37.42-13.48,13.16v24.26h-36.56V20Z"/>
          <path class="cls-2" d="M484.2,20h36.56v66.51l26.72-31h44.03l-33.48,32.7,35.42,60.64h-40.3l-18.9-37.42-13.48,13.16v24.26h-36.56V20Z"/>
          <path class="cls-2" d="M725.88,111.05h-71.72c.64,5.74,2.2,10.02,4.66,12.83,3.46,4.04,7.97,6.06,13.54,6.06,3.52,0,6.86-.88,10.02-2.64,1.93-1.11,4.01-3.08,6.24-5.89l35.24,3.25c-5.39,9.38-11.9,16.1-19.51,20.17-7.62,4.07-18.54,6.11-32.78,6.11-12.36,0-22.09-1.74-29.18-5.23-7.09-3.49-12.96-9.02-17.62-16.61-4.66-7.59-6.99-16.51-6.99-26.76,0-14.59,4.67-26.4,14.02-35.42,9.35-9.02,22.25-13.54,38.72-13.54,13.36,0,23.91,2.02,31.64,6.06s13.62,9.9,17.67,17.58c4.04,7.68,6.06,17.67,6.06,29.97v4.04ZM689.49,93.92c-.7-6.91-2.56-11.87-5.58-14.85-3.02-2.99-6.99-4.48-11.91-4.48-5.68,0-10.23,2.26-13.62,6.77-2.17,2.81-3.55,7-4.13,12.57h35.24Z"/>
          <path class="cls-2" d="M761.63,20h35.77v24.35h-35.77v-24.35ZM761.63,55.51h35.77v93.34h-35.77V55.51Z"/>
          <path class="cls-2" d="M22.65,200h74.53c12.42,0,21.96,3.08,28.61,9.23,6.65,6.15,9.98,13.77,9.98,22.85,0,7.62-2.37,14.15-7.12,19.6-3.16,3.63-7.79,6.5-13.89,8.61,9.26,2.23,16.07,6.05,20.43,11.47,4.36,5.42,6.55,12.23,6.55,20.43,0,6.68-1.55,12.69-4.66,18.02-3.11,5.33-7.35,9.55-12.74,12.66-3.34,1.93-8.38,3.34-15.12,4.22-8.96,1.17-14.91,1.76-17.84,1.76H22.65v-128.85ZM62.81,250.54h17.31c6.21,0,10.53-1.07,12.96-3.21,2.43-2.14,3.65-5.23,3.65-9.27,0-3.75-1.22-6.68-3.65-8.79-2.43-2.11-6.67-3.16-12.7-3.16h-17.58v24.43ZM62.81,301.16h20.3c6.86,0,11.69-1.22,14.5-3.65,2.81-2.43,4.22-5.7,4.22-9.8,0-3.81-1.39-6.87-4.17-9.18-2.78-2.31-7.66-3.47-14.63-3.47h-20.21v26.1Z"/>
          <path class="cls-2" d="M179.43,200h35.86v128.85h-35.86v-128.85Z"/>
          <path class="cls-2" d="M251.74,282.44c0-14.24,4.8-25.97,14.41-35.2,9.61-9.23,22.59-13.84,38.94-13.84,18.69,0,32.81,5.42,42.36,16.26,7.68,8.73,11.51,19.48,11.51,32.26,0,14.36-4.76,26.12-14.28,35.29-9.52,9.17-22.69,13.75-39.51,13.75-15,0-27.13-3.81-36.39-11.43-11.37-9.43-17.05-21.8-17.05-37.09ZM287.6,282.35c0,8.32,1.68,14.47,5.05,18.46,3.37,3.99,7.6,5.98,12.7,5.98s9.39-1.96,12.7-5.89c3.31-3.92,4.97-10.22,4.97-18.9,0-8.09-1.67-14.11-5.01-18.06s-7.47-5.93-12.39-5.93c-5.22,0-9.52,2.01-12.92,6.02-3.4,4.01-5.1,10.12-5.1,18.33Z"/>
          <path class="cls-2" d="M459.15,235.51h33.49v88.15l.09,4.13c0,5.86-1.25,11.44-3.74,16.74-2.49,5.3-5.8,9.59-9.93,12.88-4.13,3.28-9.38,5.65-15.73,7.12-6.36,1.46-13.64,2.2-21.84,2.2-18.75,0-31.63-2.81-38.63-8.44-7-5.62-10.5-13.15-10.5-22.59,0-1.17.06-2.75.18-4.75l34.72,3.96c.88,3.22,2.23,5.45,4.04,6.68,2.64,1.82,5.95,2.72,9.93,2.72,5.16,0,9.01-1.38,11.56-4.13,2.55-2.75,3.82-7.56,3.82-14.41v-14.15c-3.52,4.16-7.03,7.18-10.55,9.05-5.51,2.93-11.46,4.39-17.84,4.39-12.48,0-22.56-5.45-30.23-16.35-5.45-7.73-8.17-17.96-8.17-30.67,0-14.53,3.52-25.6,10.55-33.22,7.03-7.62,16.23-11.43,27.6-11.43,7.26,0,13.26,1.23,17.97,3.69,4.72,2.46,9.13,6.53,13.23,12.22v-13.8ZM425.49,280.77c0,6.74,1.44,11.73,4.31,14.99,2.87,3.25,6.65,4.88,11.34,4.88s8.19-1.68,11.21-5.05c3.02-3.37,4.53-8.45,4.53-15.25s-1.58-12-4.75-15.6-7.03-5.41-11.6-5.41-8.22,1.66-10.94,4.97c-2.72,3.31-4.09,8.8-4.09,16.48Z"/>
        </g>
        <g>
          <path class="cls-3" d="M22.12,20h52.36l20.19,78.4,20.05-78.4h52.33v128.85h-32.61V50.59l-25.12,98.26h-29.51l-25.08-98.26v98.26H22.12V20Z"/>
          <path class="cls-3" d="M240.69,85.74l-34.19-3.6c1.29-5.98,3.15-10.68,5.58-14.11,2.43-3.43,5.93-6.4,10.5-8.92,3.28-1.82,7.79-3.22,13.54-4.22,5.74-1,11.95-1.49,18.63-1.49,10.72,0,19.34.6,25.84,1.8,6.5,1.2,11.92,3.71,16.26,7.51,3.05,2.64,5.45,6.37,7.21,11.21s2.64,9.45,2.64,13.84v41.22c0,4.39.28,7.84.83,10.33.56,2.49,1.77,5.67,3.65,9.54h-33.57c-1.35-2.4-2.23-4.23-2.64-5.49-.41-1.26-.82-3.24-1.23-5.93-4.69,4.51-9.35,7.73-13.97,9.67-6.33,2.58-13.68,3.87-22.06,3.87-11.13,0-19.59-2.58-25.36-7.73-5.77-5.16-8.66-11.51-8.66-19.07,0-7.09,2.08-12.92,6.24-17.49,4.16-4.57,11.83-7.97,23.03-10.2,13.42-2.69,22.12-4.58,26.1-5.67,3.98-1.08,8.2-2.5,12.66-4.26,0-4.39-.91-7.47-2.72-9.23-1.82-1.76-5.01-2.64-9.58-2.64-5.86,0-10.25.94-13.18,2.81-2.29,1.47-4.13,4.22-5.54,8.26ZM271.71,104.55c-4.92,1.76-10.05,3.31-15.38,4.66-7.27,1.93-11.87,3.84-13.8,5.71-1.99,1.93-2.99,4.13-2.99,6.59,0,2.81.98,5.11,2.94,6.9,1.96,1.79,4.85,2.68,8.66,2.68s7.69-.97,11.12-2.9,5.86-4.29,7.29-7.08c1.44-2.78,2.15-6.4,2.15-10.85v-5.71Z"/>
          <path class="cls-3" d="M346.14,20h36.56v66.51l26.72-31h44.03l-33.48,32.7,35.42,60.64h-40.3l-18.9-37.42-13.48,13.16v24.26h-36.56V20Z"/>
          <path class="cls-3" d="M484.2,20h36.56v66.51l26.72-31h44.03l-33.48,32.7,35.42,60.64h-40.3l-18.9-37.42-13.48,13.16v24.26h-36.56V20Z"/>
          <path class="cls-3" d="M725.88,111.05h-71.72c.64,5.74,2.2,10.02,4.66,12.83,3.46,4.04,7.97,6.06,13.54,6.06,3.52,0,6.86-.88,10.02-2.64,1.93-1.11,4.01-3.08,6.24-5.89l35.24,3.25c-5.39,9.38-11.9,16.1-19.51,20.17-7.62,4.07-18.54,6.11-32.78,6.11-12.36,0-22.09-1.74-29.18-5.23-7.09-3.49-12.96-9.02-17.62-16.61-4.66-7.59-6.99-16.51-6.99-26.76,0-14.59,4.67-26.4,14.02-35.42,9.35-9.02,22.25-13.54,38.72-13.54,13.36,0,23.91,2.02,31.64,6.06s13.62,9.9,17.67,17.58c4.04,7.68,6.06,17.67,6.06,29.97v4.04ZM689.49,93.92c-.7-6.91-2.56-11.87-5.58-14.85-3.02-2.99-6.99-4.48-11.91-4.48-5.68,0-10.23,2.26-13.62,6.77-2.17,2.81-3.55,7-4.13,12.57h35.24Z"/>
          <path class="cls-3" d="M761.63,20h35.77v24.35h-35.77v-24.35ZM761.63,55.51h35.77v93.34h-35.77V55.51Z"/>
          <path class="cls-3" d="M22.65,200h74.53c12.42,0,21.96,3.08,28.61,9.23,6.65,6.15,9.98,13.77,9.98,22.85,0,7.62-2.37,14.15-7.12,19.6-3.16,3.63-7.79,6.5-13.89,8.61,9.26,2.23,16.07,6.05,20.43,11.47,4.36,5.42,6.55,12.23,6.55,20.43,0,6.68-1.55,12.69-4.66,18.02-3.11,5.33-7.35,9.55-12.74,12.66-3.34,1.93-8.38,3.34-15.12,4.22-8.96,1.17-14.91,1.76-17.84,1.76H22.65v-128.85ZM62.81,250.54h17.31c6.21,0,10.53-1.07,12.96-3.21,2.43-2.14,3.65-5.23,3.65-9.27,0-3.75-1.22-6.68-3.65-8.79-2.43-2.11-6.67-3.16-12.7-3.16h-17.58v24.43ZM62.81,301.16h20.3c6.86,0,11.69-1.22,14.5-3.65,2.81-2.43,4.22-5.7,4.22-9.8,0-3.81-1.39-6.87-4.17-9.18-2.78-2.31-7.66-3.47-14.63-3.47h-20.21v26.1Z"/>
          <path class="cls-3" d="M179.43,200h35.86v128.85h-35.86v-128.85Z"/>
          <path class="cls-3" d="M251.74,282.44c0-14.24,4.8-25.97,14.41-35.2,9.61-9.23,22.59-13.84,38.94-13.84,18.69,0,32.81,5.42,42.36,16.26,7.68,8.73,11.51,19.48,11.51,32.26,0,14.36-4.76,26.12-14.28,35.29-9.52,9.17-22.69,13.75-39.51,13.75-15,0-27.13-3.81-36.39-11.43-11.37-9.43-17.05-21.8-17.05-37.09ZM287.6,282.35c0,8.32,1.68,14.47,5.05,18.46,3.37,3.99,7.6,5.98,12.7,5.98s9.39-1.96,12.7-5.89c3.31-3.92,4.97-10.22,4.97-18.9,0-8.09-1.67-14.11-5.01-18.06s-7.47-5.93-12.39-5.93c-5.22,0-9.52,2.01-12.92,6.02-3.4,4.01-5.1,10.12-5.1,18.33Z"/>
          <path class="cls-3" d="M459.15,235.51h33.49v88.15l.09,4.13c0,5.86-1.25,11.44-3.74,16.74-2.49,5.3-5.8,9.59-9.93,12.88-4.13,3.28-9.38,5.65-15.73,7.12-6.36,1.46-13.64,2.2-21.84,2.2-18.75,0-31.63-2.81-38.63-8.44-7-5.62-10.5-13.15-10.5-22.59,0-1.17.06-2.75.18-4.75l34.72,3.96c.88,3.22,2.23,5.45,4.04,6.68,2.64,1.82,5.95,2.72,9.93,2.72,5.16,0,9.01-1.38,11.56-4.13,2.55-2.75,3.82-7.56,3.82-14.41v-14.15c-3.52,4.16-7.03,7.18-10.55,9.05-5.51,2.93-11.46,4.39-17.84,4.39-12.48,0-22.56-5.45-30.23-16.35-5.45-7.73-8.17-17.96-8.17-30.67,0-14.53,3.52-25.6,10.55-33.22,7.03-7.62,16.23-11.43,27.6-11.43,7.26,0,13.26,1.23,17.97,3.69,4.72,2.46,9.13,6.53,13.23,12.22v-13.8ZM425.49,280.77c0,6.74,1.44,11.73,4.31,14.99,2.87,3.25,6.65,4.88,11.34,4.88s8.19-1.68,11.21-5.05c3.02-3.37,4.53-8.45,4.53-15.25s-1.58-12-4.75-15.6-7.03-5.41-11.6-5.41-8.22,1.66-10.94,4.97c-2.72,3.31-4.09,8.8-4.09,16.48Z"/>
        </g>
      </g>
      <rect class="cls-1" width="819.52" height="386.73"/>
    </g>
  </g>
</svg>