<?xml version="1.0" encoding="UTF-8"?>
<svg id="_レイヤー_2" data-name="レイヤー 2" xmlns="http://www.w3.org/2000/svg" viewBox="0 0 914.6 171.04">
  <defs>
    <style>
      .cls-1, .cls-2 {
        fill: none;
      }

      .cls-3 {
        fill: #fff;
      }

      .cls-2 {
        stroke: #00913a;
        stroke-linecap: round;
        stroke-linejoin: round;
        stroke-width: 4.75px;
      }
    </style>
  </defs>
  <g id="_レイヤー_1-2" data-name="レイヤー 1">
    <g>
      <g>
        <g>
          <path class="cls-2" d="M110.45,97.21l34.89,10.55c-2.34,9.79-6.04,17.96-11.07,24.52-5.04,6.56-11.29,11.51-18.76,14.85s-16.98,5.01-28.52,5.01c-14,0-25.44-2.04-34.32-6.1-8.88-4.07-16.54-11.23-22.98-21.47s-9.67-23.36-9.67-39.35c0-21.31,5.67-37.69,17.01-49.14,11.34-11.45,27.38-17.17,48.12-17.17,16.23,0,28.99,3.28,38.28,9.84,9.29,6.56,16.19,16.64,20.7,30.23l-35.16,7.82c-1.23-3.92-2.52-6.8-3.87-8.61-2.23-3.05-4.95-5.39-8.17-7.03-3.22-1.64-6.83-2.46-10.81-2.46-9.02,0-15.94,3.63-20.74,10.89-3.63,5.38-5.45,13.84-5.45,25.37,0,14.28,2.17,24.07,6.5,29.37,4.34,5.3,10.43,7.94,18.28,7.94s13.37-2.14,17.27-6.42c3.9-4.28,6.72-10.49,8.48-18.63Z"/>
          <path class="cls-2" d="M175.91,103.54c0-14.24,4.8-25.97,14.41-35.2s22.59-13.84,38.94-13.84c18.69,0,32.81,5.42,42.36,16.26,7.68,8.73,11.51,19.48,11.51,32.26,0,14.36-4.76,26.12-14.28,35.29-9.52,9.17-22.69,13.75-39.51,13.75-15,0-27.13-3.81-36.39-11.43-11.37-9.43-17.05-21.8-17.05-37.09ZM211.77,103.45c0,8.32,1.68,14.47,5.05,18.46,3.37,3.99,7.6,5.98,12.7,5.98s9.39-1.96,12.7-5.89c3.31-3.92,4.96-10.22,4.96-18.9,0-8.09-1.67-14.11-5.01-18.06s-7.47-5.93-12.39-5.93c-5.21,0-9.52,2.01-12.92,6.02-3.4,4.01-5.1,10.12-5.1,18.33Z"/>
          <path class="cls-2" d="M318.36,56.61h33.31v15.21c4.98-6.21,10.02-10.65,15.12-13.32,5.1-2.67,11.31-4,18.63-4,9.9,0,17.65,2.94,23.25,8.83,5.59,5.89,8.39,14.99,8.39,27.29v59.33h-35.95v-51.33c0-5.86-1.08-10-3.25-12.44-2.17-2.43-5.21-3.65-9.14-3.65-4.34,0-7.85,1.64-10.55,4.92-2.7,3.28-4.04,9.17-4.04,17.67v44.82h-35.77V56.61Z"/>
          <path class="cls-2" d="M499.58,21.1v35.51h19.69v26.19h-19.69v33.07c0,3.98.38,6.61,1.14,7.89,1.17,1.99,3.22,2.98,6.15,2.98,2.64,0,6.33-.76,11.07-2.28l2.64,24.69c-8.85,1.93-17.11,2.9-24.79,2.9-8.91,0-15.47-1.14-19.69-3.42-4.22-2.28-7.34-5.75-9.36-10.4-2.02-4.65-3.03-12.19-3.03-22.6v-32.83h-13.18v-26.19h13.18v-17.14l35.86-18.37Z"/>
          <path class="cls-2" d="M586.92,86.84l-34.19-3.6c1.29-5.98,3.15-10.68,5.58-14.11,2.43-3.43,5.93-6.4,10.5-8.92,3.28-1.82,7.79-3.22,13.54-4.22,5.74-1,11.95-1.49,18.63-1.49,10.72,0,19.34.6,25.84,1.8,6.5,1.2,11.92,3.71,16.26,7.51,3.05,2.64,5.45,6.37,7.21,11.21s2.64,9.45,2.64,13.84v41.22c0,4.39.28,7.84.84,10.33.56,2.49,1.77,5.67,3.65,9.54h-33.57c-1.35-2.4-2.23-4.23-2.64-5.49-.41-1.26-.82-3.24-1.23-5.93-4.69,4.51-9.35,7.73-13.97,9.67-6.33,2.58-13.68,3.87-22.06,3.87-11.13,0-19.59-2.58-25.36-7.73-5.77-5.16-8.66-11.51-8.66-19.07,0-7.09,2.08-12.92,6.24-17.49s11.84-7.97,23.03-10.2c13.42-2.69,22.12-4.58,26.1-5.67,3.98-1.08,8.2-2.5,12.66-4.26,0-4.39-.91-7.47-2.72-9.23s-5.01-2.64-9.58-2.64c-5.86,0-10.25.94-13.18,2.81-2.29,1.47-4.13,4.22-5.54,8.26ZM617.95,105.65c-4.92,1.76-10.05,3.31-15.38,4.66-7.27,1.93-11.87,3.84-13.8,5.71-1.99,1.93-2.99,4.13-2.99,6.59,0,2.81.98,5.11,2.95,6.9,1.96,1.79,4.85,2.68,8.66,2.68s7.69-.97,11.12-2.9,5.86-4.29,7.29-7.08c1.43-2.78,2.15-6.4,2.15-10.85v-5.71Z"/>
          <path class="cls-2" d="M761.98,113.38l34.01,3.87c-1.88,7.09-4.95,13.23-9.23,18.41s-9.74,9.21-16.39,12.08c-6.65,2.87-15.1,4.31-25.36,4.31s-18.15-.92-24.74-2.77c-6.59-1.84-12.26-4.83-17.01-8.96-4.75-4.13-8.47-8.97-11.16-14.53-2.7-5.56-4.04-12.94-4.04-22.13s1.64-17.59,4.92-23.97c2.4-4.68,5.68-8.88,9.84-12.6,4.16-3.72,8.44-6.48,12.83-8.3,6.97-2.87,15.91-4.3,26.81-4.3,15.23,0,26.85,2.72,34.85,8.17s13.61,13.42,16.83,23.91l-33.66,4.48c-1.05-3.98-2.97-6.99-5.76-9.01-2.78-2.02-6.52-3.03-11.21-3.03-5.92,0-10.71,2.12-14.37,6.36-3.66,4.24-5.49,10.66-5.49,19.26,0,7.66,1.82,13.48,5.45,17.46,3.63,3.98,8.26,5.97,13.89,5.97,4.69,0,8.63-1.2,11.82-3.6,3.19-2.4,5.58-6.09,7.16-11.07Z"/>
          <path class="cls-2" d="M873.59,21.1v35.51h19.69v26.19h-19.69v33.07c0,3.98.38,6.61,1.14,7.89,1.17,1.99,3.22,2.98,6.15,2.98,2.64,0,6.33-.76,11.07-2.28l2.64,24.69c-8.85,1.93-17.11,2.9-24.79,2.9-8.91,0-15.47-1.14-19.69-3.42-4.22-2.28-7.34-5.75-9.36-10.4-2.02-4.65-3.03-12.19-3.03-22.6v-32.83h-13.18v-26.19h13.18v-17.14l35.86-18.37Z"/>
        </g>
        <g>
          <path class="cls-3" d="M110.45,97.21l34.89,10.55c-2.34,9.79-6.04,17.96-11.07,24.52-5.04,6.56-11.29,11.51-18.76,14.85s-16.98,5.01-28.52,5.01c-14,0-25.44-2.04-34.32-6.1-8.88-4.07-16.54-11.23-22.98-21.47s-9.67-23.36-9.67-39.35c0-21.31,5.67-37.69,17.01-49.14,11.34-11.45,27.38-17.17,48.12-17.17,16.23,0,28.99,3.28,38.28,9.84,9.29,6.56,16.19,16.64,20.7,30.23l-35.16,7.82c-1.23-3.92-2.52-6.8-3.87-8.61-2.23-3.05-4.95-5.39-8.17-7.03-3.22-1.64-6.83-2.46-10.81-2.46-9.02,0-15.94,3.63-20.74,10.89-3.63,5.38-5.45,13.84-5.45,25.37,0,14.28,2.17,24.07,6.5,29.37,4.34,5.3,10.43,7.94,18.28,7.94s13.37-2.14,17.27-6.42c3.9-4.28,6.72-10.49,8.48-18.63Z"/>
          <path class="cls-3" d="M175.91,103.54c0-14.24,4.8-25.97,14.41-35.2s22.59-13.84,38.94-13.84c18.69,0,32.81,5.42,42.36,16.26,7.68,8.73,11.51,19.48,11.51,32.26,0,14.36-4.76,26.12-14.28,35.29-9.52,9.17-22.69,13.75-39.51,13.75-15,0-27.13-3.81-36.39-11.43-11.37-9.43-17.05-21.8-17.05-37.09ZM211.77,103.45c0,8.32,1.68,14.47,5.05,18.46,3.37,3.99,7.6,5.98,12.7,5.98s9.39-1.96,12.7-5.89c3.31-3.92,4.96-10.22,4.96-18.9,0-8.09-1.67-14.11-5.01-18.06s-7.47-5.93-12.39-5.93c-5.21,0-9.52,2.01-12.92,6.02-3.4,4.01-5.1,10.12-5.1,18.33Z"/>
          <path class="cls-3" d="M318.36,56.61h33.31v15.21c4.98-6.21,10.02-10.65,15.12-13.32,5.1-2.67,11.31-4,18.63-4,9.9,0,17.65,2.94,23.25,8.83,5.59,5.89,8.39,14.99,8.39,27.29v59.33h-35.95v-51.33c0-5.86-1.08-10-3.25-12.44-2.17-2.43-5.21-3.65-9.14-3.65-4.34,0-7.85,1.64-10.55,4.92-2.7,3.28-4.04,9.17-4.04,17.67v44.82h-35.77V56.61Z"/>
          <path class="cls-3" d="M499.58,21.1v35.51h19.69v26.19h-19.69v33.07c0,3.98.38,6.61,1.14,7.89,1.17,1.99,3.22,2.98,6.15,2.98,2.64,0,6.33-.76,11.07-2.28l2.64,24.69c-8.85,1.93-17.11,2.9-24.79,2.9-8.91,0-15.47-1.14-19.69-3.42-4.22-2.28-7.34-5.75-9.36-10.4-2.02-4.65-3.03-12.19-3.03-22.6v-32.83h-13.18v-26.19h13.18v-17.14l35.86-18.37Z"/>
          <path class="cls-3" d="M586.92,86.84l-34.19-3.6c1.29-5.98,3.15-10.68,5.58-14.11,2.43-3.43,5.93-6.4,10.5-8.92,3.28-1.82,7.79-3.22,13.54-4.22,5.74-1,11.95-1.49,18.63-1.49,10.72,0,19.34.6,25.84,1.8,6.5,1.2,11.92,3.71,16.26,7.51,3.05,2.64,5.45,6.37,7.21,11.21s2.64,9.45,2.64,13.84v41.22c0,4.39.28,7.84.84,10.33.56,2.49,1.77,5.67,3.65,9.54h-33.57c-1.35-2.4-2.23-4.23-2.64-5.49-.41-1.26-.82-3.24-1.23-5.93-4.69,4.51-9.35,7.73-13.97,9.67-6.33,2.58-13.68,3.87-22.06,3.87-11.13,0-19.59-2.58-25.36-7.73-5.77-5.16-8.66-11.51-8.66-19.07,0-7.09,2.08-12.92,6.24-17.49s11.84-7.97,23.03-10.2c13.42-2.69,22.12-4.58,26.1-5.67,3.98-1.08,8.2-2.5,12.66-4.26,0-4.39-.91-7.47-2.72-9.23s-5.01-2.64-9.58-2.64c-5.86,0-10.25.94-13.18,2.81-2.29,1.47-4.13,4.22-5.54,8.26ZM617.95,105.65c-4.92,1.76-10.05,3.31-15.38,4.66-7.27,1.93-11.87,3.84-13.8,5.71-1.99,1.93-2.99,4.13-2.99,6.59,0,2.81.98,5.11,2.95,6.9,1.96,1.79,4.85,2.68,8.66,2.68s7.69-.97,11.12-2.9,5.86-4.29,7.29-7.08c1.43-2.78,2.15-6.4,2.15-10.85v-5.71Z"/>
          <path class="cls-3" d="M761.98,113.38l34.01,3.87c-1.88,7.09-4.95,13.23-9.23,18.41s-9.74,9.21-16.39,12.08c-6.65,2.87-15.1,4.31-25.36,4.31s-18.15-.92-24.74-2.77c-6.59-1.84-12.26-4.83-17.01-8.96-4.75-4.13-8.47-8.97-11.16-14.53-2.7-5.56-4.04-12.94-4.04-22.13s1.64-17.59,4.92-23.97c2.4-4.68,5.68-8.88,9.84-12.6,4.16-3.72,8.44-6.48,12.83-8.3,6.97-2.87,15.91-4.3,26.81-4.3,15.23,0,26.85,2.72,34.85,8.17s13.61,13.42,16.83,23.91l-33.66,4.48c-1.05-3.98-2.97-6.99-5.76-9.01-2.78-2.02-6.52-3.03-11.21-3.03-5.92,0-10.71,2.12-14.37,6.36-3.66,4.24-5.49,10.66-5.49,19.26,0,7.66,1.82,13.48,5.45,17.46,3.63,3.98,8.26,5.97,13.89,5.97,4.69,0,8.63-1.2,11.82-3.6,3.19-2.4,5.58-6.09,7.16-11.07Z"/>
          <path class="cls-3" d="M873.59,21.1v35.51h19.69v26.19h-19.69v33.07c0,3.98.38,6.61,1.14,7.89,1.17,1.99,3.22,2.98,6.15,2.98,2.64,0,6.33-.76,11.07-2.28l2.64,24.69c-8.85,1.93-17.11,2.9-24.79,2.9-8.91,0-15.47-1.14-19.69-3.42-4.22-2.28-7.34-5.75-9.36-10.4-2.02-4.65-3.03-12.19-3.03-22.6v-32.83h-13.18v-26.19h13.18v-17.14l35.86-18.37Z"/>
        </g>
      </g>
      <rect class="cls-1" width="914.6" height="171.04"/>
    </g>
  </g>
</svg>