<?xml version="1.0" encoding="UTF-8"?>
<svg id="_レイヤー_2" data-name="レイヤー 2" xmlns="http://www.w3.org/2000/svg" viewBox="0 0 271.06 271.06">
  <defs>
    <style>
      .cls-1 {
        fill: #dae000;
      }
    </style>
  </defs>
  <g id="_レイヤー_1-2" data-name="レイヤー 1">
    <g>
      <path class="cls-1" d="M39.64,39.64h0c-10.54,10.54-19.34,22.81-25.96,36.33L75.97,13.67c-13.53,6.62-25.79,15.43-36.33,25.96Z"/>
      <path class="cls-1" d="M93.41,6.6L6.6,93.41c-1.51,4.61-2.77,9.33-3.78,14.15L107.56,2.81c-4.82,1.01-9.54,2.28-14.15,3.78Z"/>
      <path class="cls-1" d="M119.93.82L.82,119.93c-.42,3.69-.7,7.42-.82,11.19L131.11,0c-3.77.12-7.5.4-11.19.82Z"/>
      <path class="cls-1" d="M141.42.06L.06,141.42c.14,3.24.39,6.44.75,9.61L151.04.81c-3.17-.36-6.38-.61-9.61-.75Z"/>
      <path class="cls-1" d="M160.07,2.14L2.14,160.07c.53,2.87,1.14,5.71,1.85,8.52L168.59,3.99c-2.81-.7-5.65-1.32-8.52-1.85Z"/>
      <path class="cls-1" d="M176.66,6.28L6.28,176.66c.82,2.59,1.72,5.15,2.7,7.67L184.33,8.98c-2.52-.97-5.08-1.87-7.67-2.7Z"/>
      <path class="cls-1" d="M191.64,12.04L12.04,191.64c1.07,2.36,2.21,4.67,3.41,6.95L198.59,15.45c-2.28-1.2-4.6-2.34-6.95-3.41Z"/>
      <path class="cls-1" d="M205.22,19.19L19.19,205.22c1.29,2.15,2.63,4.26,4.04,6.33L211.55,23.22c-2.07-1.4-4.18-2.75-6.33-4.04Z"/>
      <path class="cls-1" d="M217.58,27.56L27.56,217.58c1.49,1.96,3.03,3.87,4.62,5.74L223.32,32.19c-1.87-1.59-3.79-3.13-5.74-4.62Z"/>
      <path class="cls-1" d="M228.79,37.09L37.09,228.79c1.68,1.77,3.41,3.5,5.18,5.18L233.97,42.27c-1.68-1.77-3.41-3.5-5.18-5.18Z"/>
      <path class="cls-1" d="M238.87,47.73L47.73,238.87c1.87,1.59,3.79,3.13,5.74,4.62L243.5,53.48c-1.49-1.96-3.03-3.87-4.62-5.74Z"/>
      <path class="cls-1" d="M247.84,59.5L59.51,247.84c2.07,1.4,4.18,2.75,6.33,4.04L251.87,65.83c-1.29-2.15-2.63-4.26-4.04-6.33Z"/>
      <path class="cls-1" d="M255.6,72.47L72.47,255.6c2.28,1.2,4.6,2.34,6.95,3.41l179.6-179.6c-1.07-2.36-2.21-4.67-3.41-6.95Z"/>
      <path class="cls-1" d="M262.08,86.73l-175.36,175.36c2.52.97,5.08,1.87,7.67,2.7l170.38-170.38c-.82-2.59-1.72-5.15-2.7-7.67Z"/>
      <path class="cls-1" d="M267.07,102.47l-164.6,164.6c2.81.7,5.65,1.32,8.52,1.85l157.93-157.93c-.53-2.87-1.14-5.71-1.85-8.52Z"/>
      <path class="cls-1" d="M270.25,120.02l-150.23,150.23c3.17.36,6.38.61,9.61.75l141.37-141.37c-.14-3.24-.39-6.44-.75-9.61Z"/>
      <path class="cls-1" d="M270.24,151.13c.42-3.69.7-7.42.82-11.19l-131.11,131.11c3.77-.12,7.5-.4,11.19-.82l119.11-119.11Z"/>
      <path class="cls-1" d="M177.65,264.46l86.81-86.81c1.51-4.61,2.77-9.33,3.78-14.15l-104.75,104.75c4.82-1.01,9.54-2.28,14.15-3.78Z"/>
      <path class="cls-1" d="M257.39,195.09l-62.3,62.3c27.06-13.25,49.05-35.24,62.3-62.3Z"/>
    </g>
  </g>
</svg>