<?xml version="1.0" encoding="UTF-8"?>
<svg id="_レイヤー_2" data-name="レイヤー 2" xmlns="http://www.w3.org/2000/svg" viewBox="0 0 325.48 80.27">
  <defs>
    <style>
      .cls-1 {
        fill: #fff;
      }

      .cls-2 {
        fill: #00913a;
      }
    </style>
  </defs>
  <g id="_レイヤー_1-2" data-name="レイヤー 1">
    <g>
      <rect class="cls-2" x="0" y="0" width="325.48" height="80.27" rx="40.14" ry="40.14"/>
      <g>
        <path class="cls-1" d="M54.03,50.1l.75-2.78h3.7l.43-1.62h2.87l-.43,1.62h2.89l-.74,2.77h-2.89l-.24.9c.42-.02.78-.03.97-.03,3.85,0,5.73,1.98,4.9,5.1-.42,1.58-1.37,2.9-2.66,3.77-1.35.89-3.07,1.43-4.6,1.43-.15,0-.3,0-.53-.02l.77-2.89c1.45-.03,2.01-.16,2.61-.57.59-.43,1.04-1.08,1.23-1.77.11-.4.1-.8,0-1.04-.37-.77-1.46-1.3-2.64-1.3-.17,0-.53.03-.93.09l-1.1,4.1c-.32,1.2-.63,1.91-1.04,2.44-.46.59-1.28.9-2.33.9-2.94,0-4.35-1.77-3.61-4.54.42-1.55,1.48-2.94,3.1-4.05.76-.52,1.33-.78,2.98-1.34l.27-1.15h-3.73ZM56.55,54.29c-.64.21-.96.37-1.29.68-.47.44-.88,1.08-1.02,1.62-.22.82.16,1.53.82,1.53.37,0,.53-.23.75-1.04l.75-2.78ZM67.41,46.66c.33,1.72.36,2.16.32,3.51h-2.82c-.03-1.6-.04-1.84-.27-3.51h2.77Z"/>
        <path class="cls-1" d="M79.7,45.86l-1.86,6.94h-4.38l-2.34,8.73h-2.52l4.2-15.67h6.9ZM74.71,53.63h6.8l-1.33,4.96c-.36,1.46-1.11,2-2.74,1.97h-4.59l1.85-6.92ZM75.84,50.94l.2-.75h-1.88l-.2.75h1.88ZM76.44,48.69l.18-.66h-1.88l-.18.66h1.88ZM77.78,58l.49-1.84h-1.83l-.49,1.84h1.83ZM87.61,45.86l-3.46,12.91c-.53,2.1-1.26,2.64-3.5,2.64h-1.18l.69-2.57h1.29l1.62-6.04h-4.33l1.86-6.94h7.01ZM83.58,50.94l.2-.75h-1.9l-.2.75h1.9ZM84.18,48.69l.18-.66h-1.9l-.18.66h1.9Z"/>
        <path class="cls-1" d="M94.7,46.64l-2.16,8.05q-.54,2.09-.46,2.26c.08.14.21.21.43.21.35,0,1.26-.38,3.22-1.37l-.95,3.55c-2.9,1.22-3.58,1.44-4.33,1.44-.81,0-1.42-.33-1.69-.92-.29-.63-.26-1.23.15-2.75l2.8-10.47h2.97ZM98.78,60.14l1.66-6.19c.47-1.83.52-2.5.2-2.89-.2-.21-.44-.3-.89-.31h-1.6l.84-3.13c3.2.03,3.8.19,4.55,1.06.86,1.17.87,1.91-.06,5.29l-1.65,6.17h-3.06Z"/>
        <path class="cls-1" d="M108.63,54.03h12.77l-1.21,4.52c-.47,1.76-1.46,2.49-3.37,2.47h-10.06l1.87-6.99ZM118.92,45.39c.74,1.74,2.48,3.03,5.07,3.79l-.84,3.15c-1.12-.33-1.58-.49-2.32-.82l-.36,1.34h-10.43l.37-1.39c-1.38.5-1.62.57-2.51.71l.75-2.82c2.07-.52,5.62-2.4,7.46-3.96h2.81ZM117.34,58.26l.47-1.74h-6.89l-.47,1.74h6.89ZM118.99,50.29c-1.04-.83-1.69-1.58-2.21-2.49-1.86,1.36-2.77,1.95-3.81,2.49h6.01Z"/>
        <path class="cls-1" d="M129.05,52.76l.41-1.53h-2.45l.72-2.68h2.45l.78-2.9h2.82l-1.23,4.61c1.85-1.39,3.41-2.05,4.85-2.05,2.97,0,4.45,2.66,3.48,6.28-.57,2.12-1.64,3.81-3.14,4.96-1.5,1.13-2.98,1.58-5.21,1.58-.24,0-.75-.02-1.35-.05l.75-2.78c.4.02.7.02.95.02,1.31,0,2.33-.24,3.12-.73.93-.59,1.66-1.69,2.02-3.03.52-1.95-.1-3.22-1.56-3.22-1.31,0-2.43.54-4.78,2.3l-2.07,7.72h-2.82l1.23-4.61-3.48,2.96,1.1-4.09,3.42-2.75Z"/>
        <path class="cls-1" d="M145.82,49.18h2.62l.82-3.08h2.97l-.82,3.08h3.73l.82-3.04h2.94l-.82,3.04h2.59l-.7,2.61h-2.59l-.25.94c-.96,3.15-2.19,3.84-6.69,3.77l.78-2.92c.36.03.55.03.75.03,1.56,0,2.02-.26,2.29-1.27l.13-.56-3.67.02-1.28,4.71c-.39,1.46-.35,1.48,2.73,1.48,2.25,0,3.09-.05,5.06-.33l-.83,3.1c-3.01.09-3.25.09-4.24.09-3.46,0-4.6-.12-5.36-.57-.42-.24-.72-.75-.79-1.32-.04-.37.04-.92.26-1.72l1.45-5.43h-2.62l.7-2.63Z"/>
        <path class="cls-1" d="M168.99,45.93c-1.71,4.3-2.41,6.28-3.02,8.57-1,3.72-1.14,4.4-1.42,6.42h-2.89c.37-2.02.55-2.82,1.1-4.85,1.05-3.91,1.54-5.36,3.41-10.14h2.82ZM172.81,51.28h-4.37l.72-2.68h4.37l.75-2.78h2.81l-.72,2.7h2.67l-.74,2.77h-2.64l-.25.92-.59,2.28-.22.87c1.6.7,1.87.82,2.58,1.3l-.89,3.32c-.94-.87-1.48-1.25-2.44-1.74-.28.85-.52,1.25-.96,1.69-.83.77-1.99,1.2-3.3,1.2-2.37,0-3.69-1.34-3.18-3.23.3-1.13,1.24-2.3,2.26-2.8.62-.3,1.54-.49,2.42-.49.18,0,.46.02.83.05l.9-3.37ZM169.16,57.77c-.13.5.11.83.62.83.79,0,1.25-.28,1.4-.85.13-.5-.17-.8-.84-.8-.59,0-1.04.31-1.18.82Z"/>
        <path class="cls-1" d="M186.49,53.56c-.15.17-.29.35-.45.54-.95,1.1-1.26,1.58-1.43,2.21-.2.73.08,1.13.93,1.3.49.12,1.68.19,2.79.19,1.41,0,3.8-.12,6.18-.31l-.9,3.37-1.8.02-3.1.04c-1.13.02-3.4-.05-4.04-.1-1.65-.17-2.58-.66-3.15-1.65-.37-.68-.46-1.43-.25-2.21.22-.82.54-1.37,1.97-3.39h3.26ZM196.94,46.38l-.8,2.97-11.47.1.79-2.96,11.47-.12Z"/>
        <path class="cls-1" d="M206.08,47.74l.87-1.81h3.16l-.99,1.81h6.89l-.73,2.71h-7.64l-1.42,2.71c.83-.54,1.18-.71,1.81-.92.85-.3,1.72-.45,2.46-.45,2.67,0,4.08,1.88,3.37,4.52-.51,1.91-1.8,3.34-3.73,4.14-1.34.56-2.46.71-5.18.71h-4.96l.75-2.8h4.96c1.45,0,2.71-.14,3.35-.4.67-.26,1.45-1.1,1.63-1.77.27-.99-.34-1.76-1.39-1.76-.87,0-1.99.3-2.96.78-.7.35-1.17.75-1.99,1.67h-3.06l3.4-6.44h-3.21l.73-2.71h3.88Z"/>
        <path class="cls-1" d="M218.78,58.15h3.73q2.96,0,3.53-.05c1.1-.09,1.52-.23,1.91-.59.34-.35.59-.75.69-1.15.28-1.04-.41-1.65-1.86-1.65-1.12,0-2.34.35-3.41.96-.5.28-.85.54-1.56,1.17h-2.67l1.89-7.04h2.89l-1.01,3.76c2.52-1.15,3.83-1.51,5.29-1.51,2.86,0,4.38,1.76,3.7,4.3-.47,1.77-1.7,3.27-3.32,4.05-.85.42-1.65.59-3.12.66-.72.03-1.25.03-3.72.03h-3.75l.78-2.92ZM231.78,49.08c-3.99-.28-6.13-.36-8.76-.36h-1.83l.72-2.68c5.84.07,6.21.09,10.6.33l-.73,2.71Z"/>
        <path class="cls-1" d="M241.31,49.37c.38-.96.61-1.63,1.11-3.25h2.91c-.38,1.17-.6,1.79-1.19,3.25h1.58c1.19,0,2.02.56,2.15,1.46.13.78-.07,2.16-.55,3.95-.59,2.19-1.11,3.51-1.75,4.38-.88,1.22-2.35,1.83-4.42,1.83-.24,0-.57,0-.97-.02l.77-2.89c.3.02.77.02.84.02.89,0,1.27-.21,1.62-.89.2-.38.6-1.5.82-2.31.18-.66.36-1.67.35-1.93-.01-.38-.34-.66-.8-.66h-.91c-2.04,4.49-2.94,6.21-4.44,8.59h-3.14c1.92-2.89,3.46-5.65,4.77-8.57l-2.49.12.83-3.08h2.92ZM251.87,48.08c.62,1.06.71,1.88.43,3.84-.12.87-.36,1.96-.71,3.27-.12.44-.26.9-.54,1.88h-2.99c.37-1.2.55-1.79.73-2.49.61-2.3.76-3.27.64-4.35-.09-.85-.22-1.43-.5-2.16h2.92Z"/>
        <path class="cls-1" d="M255.73,58.15h3.73q2.96,0,3.53-.05c1.1-.09,1.52-.23,1.91-.59.34-.35.59-.75.69-1.15.28-1.04-.41-1.65-1.86-1.65-1.12,0-2.34.35-3.41.96-.5.28-.85.54-1.56,1.17h-2.67l1.89-7.04h2.89l-1.01,3.76c2.52-1.15,3.83-1.51,5.29-1.51,2.86,0,4.38,1.76,3.7,4.3-.47,1.77-1.7,3.27-3.32,4.05-.85.42-1.65.59-3.12.66-.71.03-1.25.03-3.72.03h-3.75l.78-2.92ZM268.73,49.08c-3.99-.28-6.13-.36-8.76-.36h-1.83l.72-2.68c5.84.07,6.21.09,10.6.33l-.73,2.71Z"/>
      </g>
      <g>
        <path class="cls-1" d="M63.25,19.13h3.73l-1.32,5.21c.91-.06,1.76-.12,2.05-.14.28,0,1.19-.04,3.84-.12l-.91,3.41c-3.47,0-4.84.04-6.72.24-3.44.37-4.6.73-5.59,1.81-.43.47-.73.97-.86,1.48-.17.65-.05,1.26.32,1.62.29.28,1.03.49,2,.57.28.02.87.02,1.82.02,3.39,0,4.93-.08,7.79-.41l-1,3.73c-3.48.12-5.21.16-6.75.16-4.14,0-5.94-.39-7.05-1.54-1.03-1.05-1.36-2.56-.93-4.18.41-1.52,1.21-2.78,2.4-3.73,1.53-1.24,2.99-1.87,5.86-2.49l1.33-5.64ZM70.42,19.17l-.84,3.12h-1.91l.84-3.12h1.91ZM72.99,19.17l-.84,3.12h-1.91l.84-3.12h1.91Z"/>
        <path class="cls-1" d="M81.34,21.7c.46-1.03.65-1.5,1.03-2.56h3.41c-.68,1.7-.73,1.81-1.03,2.56h2.72l-.85,3.18h-3.35c-2.01,4.38-3.31,6.98-4.98,9.8h-3.39c2.43-4.16,2.89-5.05,5.12-9.8h-2.68l.85-3.18h3.14ZM89.61,21.66h6l-.86,3.22h-2.66l-1.28,4.77c1.81.87,1.9.93,2.59,1.46l-1.05,3.91c-1.12-1.05-1.49-1.32-2.39-1.83-.33,1.1-.63,1.66-1.27,2.33-1.07,1.14-2.56,1.74-4.3,1.74s-2.92-.61-3.54-1.78c-.35-.65-.39-1.56-.12-2.6.68-2.54,3.15-4.34,5.97-4.34.33,0,.56.02,1.02.12l1.88-7.02ZM83.86,32.82c-.2.75.27,1.28,1.14,1.28s1.54-.51,1.76-1.34c.2-.73-.19-1.18-1.06-1.18s-1.64.51-1.83,1.24Z"/>
        <path class="cls-1" d="M103.41,21.42l.79-2.27h3.69l-.88,2.23,2.65-.06-.46,1.72h7.95l-.9,3.37h-8.38l.47-1.74h-2.51c-2.8,6.75-4.4,10.3-5.4,11.97h-3.65c2.56-4.79,3.13-6.02,5.46-11.97l-2.64.1.91-3.39,2.91.04ZM109.73,29.31c-1.03,1.2-1.45,1.87-1.64,2.56-.31,1.16.48,1.54,3.03,1.54.55,0,1.81-.1,3.81-.28l-.9,3.35c-2.18.1-3.2.14-4.3.14-2.45,0-3.79-.24-4.58-.83-.79-.61-1.02-1.78-.63-3.25.29-1.1.75-1.89,1.84-3.22h3.37Z"/>
        <path class="cls-1" d="M123.83,20.2l16.21-.1-.87,3.25c-.66.18-1.25.36-1.85.55-3.28.97-4.78,1.7-6.46,3.12-1.24,1.05-2.03,2.19-2.34,3.37-.25.91-.05,1.85.48,2.21.63.45,1.9.69,3.73.69.61,0,1.7-.06,2.92-.14l-.96,3.57c-1.23.04-2.31.06-2.96.06-2.86,0-4.67-.37-5.92-1.22-1.4-.91-1.84-2.66-1.27-4.81.39-1.44,1.15-2.8,2.3-4.06,1.12-1.22,2.04-1.93,4.06-3.1l-8.03.14.95-3.53ZM134.63,25.47h1.93l-.83,3.1h-1.93l.83-3.1ZM139.03,25.47l-.83,3.1h-1.89l.83-3.1h1.89Z"/>
        <path class="cls-1" d="M144.1,27.08h4.4l.6-2.25h-4.3l.79-2.94h4.3l.76-2.82h3.43l-.76,2.82h6.96l-.79,2.94h-6.96l-.6,2.25h6.96l-.55,2.05h1.87c-.22,1.12-.34,1.64-.53,2.37-.43,1.6-.73,2.27-1.41,3.08-1.35,1.64-3.22,2.33-6.28,2.33-2.78,0-4.26-.37-4.83-1.2-.51-.73-.52-1.6-.04-3.39l.65-2.41h-4.4l.76-2.84ZM151.17,29.92l-.44,1.64c-.31,1.16-.33,1.46-.12,1.74.21.28.74.43,1.71.43,2.35,0,3.35-.61,3.82-2.37.07-.26.18-.75.3-1.44h-5.27Z"/>
        <path class="cls-1" d="M167.69,24.05l.87-3.25h4.46l.51-1.89h3.47l-.51,1.89h3.49l-.86,3.22h-3.49l-.28,1.05c.51-.02.94-.04,1.17-.04,4.64,0,6.95,2.31,5.97,5.94-.5,1.85-1.62,3.39-3.17,4.4-1.61,1.03-3.69,1.66-5.54,1.66-.18,0-.36,0-.64-.02l.9-3.37c1.75-.04,2.42-.18,3.14-.67.7-.51,1.25-1.26,1.47-2.07.12-.47.11-.93-.02-1.22-.45-.89-1.78-1.52-3.2-1.52-.2,0-.64.04-1.12.1l-1.28,4.79c-.38,1.4-.74,2.23-1.23,2.84-.55.69-1.54,1.05-2.8,1.05-3.55,0-5.27-2.07-4.4-5.29.48-1.81,1.75-3.43,3.7-4.73.91-.61,1.6-.91,3.58-1.56l.32-1.34h-4.5ZM170.78,28.94c-.78.24-1.15.43-1.55.79-.56.51-1.05,1.26-1.22,1.89-.25.95.21,1.78,1,1.78.45,0,.64-.26.89-1.22l.87-3.25ZM183.82,20.04c.42,2.01.46,2.51.42,4.1h-3.41c-.05-1.87-.07-2.15-.36-4.1h3.35Z"/>
        <path class="cls-1" d="M192.15,29.43c.83.75,1.19,1.1,2.02,2.07.81-.67,1.12-.99,2.19-2.33h3.53c-1.11,1.87-2.16,3.06-3.88,4.4,1.11,1.52,1.44,2.11,2.09,3.55h-4.42c-.46-.85-.56-.99-.96-1.56-2.31.97-4.94,1.54-7.59,1.62l.85-3.18c2.57-.06,3.35-.18,5-.79-1.03-1.46-1.71-2.23-3.37-3.77h4.54ZM205.06,26.08l-1.33,4.97c-.34,1.42,0,2.23.99,2.35l-1.02,3.81c-3.36-.1-4.55-2.23-3.44-6.02l.7-2.6h-12.96l.67-2.51h16.39ZM197.6,18.78c-.38.51-.45.61-.76.95h10.93l-.72,2.68h-12.53l-.64.57h12.01l-.64,2.39h-14.52l.05-.18c-.94.41-1.25.49-2.74.83l.85-3.16c2.01-.77,3.46-2.01,4.8-4.08h3.91Z"/>
        <path class="cls-1" d="M212.12,31.66l.16-.61h-2.88l2.11-7.87h2.88l.2-.75h-3.37l.69-2.58h3.37l.33-1.24h2.88l-.33,1.24h2.92l-.69,2.58h-2.92l-.2.75h2.72l-1.59,5.94c-.35,1.38-1.2,1.97-2.77,1.93h-.47l-.16.61h2.92l-.65,2.41h3.22l.52-1.95h-2.7l.68-2.53h2.7l.47-1.76h3l-.47,1.76h2.9l-.68,2.53h-2.9l-.52,1.95h3.53l-.72,2.7h-10.02l.65-2.41h-2.66l-.7,2.62h-2.88l.7-2.62h-3.37l.72-2.7h3.37ZM213.09,28.82l.25-.91h-.69l-.25.91h.69ZM213.81,26.12l.23-.87h-.69l-.23.87h.69ZM216.11,28.82l.25-.91h-.71l-.25.91h.71ZM216.83,26.12l.23-.87h-.71l-.23.87h.71ZM220.86,21.7l.72-2.7h8.86l-.67,2.52c-1.28,1.52-1.81,2.07-2.89,3,.72.65,1.26.91,2.39,1.24l-.81,3.04c-1.63-.37-3.17-1.2-4.43-2.39-1.88,1.12-2.95,1.56-4.97,2.07l.76-2.84c1.37-.41,1.77-.57,2.7-1.05-.56-1.09-.78-1.72-.95-2.88h-.69ZM224.65,21.7c.2.61.26.71.54,1.08.47-.41.56-.49,1.06-1.08h-1.6Z"/>
        <path class="cls-1" d="M240.2,19.53c-2.01,4.56-2.68,6.43-3.87,10.89q-.13.49-1.03,4.22l-.52,2.09h-3.37c.89-4.02,1.15-5.11,1.65-7,.78-2.9,1.9-6.04,3.65-10.2h3.49ZM243.42,28.31c-1.08,1.38-1.48,2.05-1.69,2.82-.22.81-.04,1.36.54,1.68.41.22.84.28,1.93.28,1.89,0,3.05-.02,4.49-.1l-.88,3.29c-1.15.04-3.73.08-4.73.08-2.25,0-3.43-.28-4.24-.99-.84-.73-1.15-2.05-.81-3.35.28-1.05.97-2.39,1.91-3.71h3.47ZM251.8,20.61l-.88,3.29h-10.12l.88-3.29h10.12Z"/>
        <path class="cls-1" d="M264.39,33.42l-1.03,3.83h-3.93l1.03-3.83h3.93ZM268.9,18.76l-4.64,13.69h-3.12l2.8-13.69h4.97Z"/>
      </g>
    </g>
  </g>
</svg>