<?xml version="1.0" encoding="UTF-8"?>
<svg id="_レイヤー_2" data-name="レイヤー 2" xmlns="http://www.w3.org/2000/svg" viewBox="0 0 222.1 33.4">
  <defs>
    <style>
      .cls-1 {
        fill: #fff;
      }
    </style>
  </defs>
  <g id="_レイヤー_1-2" data-name="レイヤー 1">
    <g>
      <path class="cls-1" d="M1.81,9.75V4h7.65V.65h5.95v3.35h5.98v5.72h-5.98v1.87c.87-.04,1.6-.07,1.98-.07,7.96,0,12.97,4.1,12.97,10.55,0,3.28-1.22,6.01-3.41,7.81-2.3,1.84-5.56,2.95-8.73,2.95-.31,0-.63,0-1.11-.04v-5.98c2.99-.07,4.07-.32,5.08-1.19.97-.9,1.56-2.23,1.56-3.67,0-.83-.24-1.66-.59-2.16-1.18-1.58-3.76-2.7-6.19-2.7-.35,0-1.08.07-1.88.18v8.5c0,2.48-.24,3.96-.8,5.04-.63,1.22-2.16,1.87-4.31,1.87-6.09,0-9.98-3.67-9.98-9.39,0-3.2,1.43-6.08,4.17-8.39,1.29-1.08,2.33-1.62,5.42-2.77l-.07-2.38H1.81ZM9.35,18.43c-1.22.43-1.77.76-2.3,1.4-.73.9-1.22,2.23-1.22,3.35,0,1.69,1.18,3.17,2.54,3.17.77,0,.97-.47.97-2.16v-5.76ZM27.61,2.63c1.63,3.56,1.95,4.46,2.61,7.27h-5.84c-.94-3.31-1.11-3.82-2.5-7.27h5.74Z"/>
      <path class="cls-1" d="M52.61.97v14.36h-9.08v18.07h-5.22V.97h14.29ZM47.43,6.84v-1.37h-3.9v1.37h3.9ZM47.43,11.48v-1.55h-3.9v1.55h3.9ZM46.6,17.06h14.08v10.26c.07,3.02-1.18,4.14-4.59,4.07h-9.49v-14.33ZM55.36,26.1v-3.82h-3.79v3.82h3.79ZM68.99.97v26.71c.07,4.36-1.15,5.47-5.77,5.47h-2.43v-5.33h2.68v-12.49h-8.97V.97h14.5ZM63.46,6.84v-1.37h-3.93v1.37h3.93ZM63.46,11.48v-1.55h-3.93v1.55h3.93Z"/>
      <path class="cls-1" d="M84.12,2.59v16.67q.03,4.32.31,4.68c.24.29.56.43,1.01.43.73,0,2.4-.79,5.91-2.84v7.34c-5.32,2.52-6.61,2.99-8.17,2.99-1.67,0-3.13-.68-4-1.91-.94-1.3-1.22-2.56-1.22-5.69V2.59h6.16ZM100.04,30.52v-12.81c-.03-3.78-.31-5.18-1.18-5.98-.52-.43-1.08-.61-2.02-.65h-3.3v-6.48c6.64.07,7.96.4,10.02,2.2,2.43,2.41,2.85,3.96,2.82,10.94v12.78h-6.33Z"/>
      <path class="cls-1" d="M133.57,0c2.5,3.6,6.82,6.26,12.59,7.85v6.52c-2.5-.68-3.55-1.01-5.25-1.69v2.77h-21.6v-2.88c-2.57,1.04-3.03,1.19-4.8,1.48v-5.83c4-1.08,10.29-4.97,13.25-8.21h5.81ZM117.05,17.89h26.43v9.36c0,3.64-1.63,5.15-5.6,5.11h-20.83v-14.47ZM137.43,26.64v-3.6h-14.26v3.6h14.26ZM136.42,10.15c-2.61-1.73-4.38-3.28-5.95-5.15-3.1,2.81-4.66,4.03-6.5,5.15h12.45Z"/>
      <path class="cls-1" d="M158.64,15.26v-3.17h-5.08v-5.54h5.08V.54h5.84v9.54c3.06-2.88,5.91-4.25,8.9-4.25,6.16,0,10.68,5.51,10.68,12.99,0,4.39-1.29,7.88-3.76,10.26-2.47,2.34-5.29,3.28-9.91,3.28-.49,0-1.56-.04-2.82-.11v-5.76c.83.04,1.46.04,1.98.04,2.71,0,4.69-.5,6.05-1.51,1.6-1.22,2.5-3.49,2.5-6.26,0-4.03-1.98-6.66-5.01-6.66-2.71,0-4.73,1.12-8.62,4.75v15.98h-5.84v-9.54l-5.56,6.12v-8.46l5.56-5.69Z"/>
      <path class="cls-1" d="M191.36,7.85h5.42V1.48h6.16v6.37h7.72V1.55h6.09v6.3h5.36v5.4h-5.36v1.94c-.24,6.52-2.4,7.96-11.75,7.81v-6.05c.77.07,1.15.07,1.56.07,3.23,0,4.03-.54,4.03-2.63l-.04-1.15-7.58.04-.03,9.75c0,3.02.1,3.06,6.47,3.06,4.66,0,6.36-.11,10.29-.68v6.41c-6.19.18-6.68.18-8.73.18-7.16,0-9.6-.25-11.41-1.19-1.01-.5-1.91-1.55-2.36-2.74-.28-.76-.42-1.91-.42-3.56v-11.23h-5.42v-5.44Z"/>
    </g>
  </g>
</svg>