<?xml version="1.0" encoding="UTF-8"?>
<svg id="_レイヤー_2" data-name="レイヤー 2" xmlns="http://www.w3.org/2000/svg" viewBox="0 0 161.4 237.07">
  <defs>
    <style>
      .cls-1 {
        fill: #8fc31f;
      }

      .cls-2 {
        fill: #00913a;
      }
    </style>
  </defs>
  <g id="_レイヤー_1-2" data-name="レイヤー 1">
    <g>
      <g>
        <path class="cls-1" d="M27.4,131.09c1.23,0,2.23-1,2.23-2.23,0-1.06-.74-1.94-1.72-2.16-.91.58-1.81,1.17-2.69,1.79-.02.12-.04.24-.04.37,0,1.23,1,2.23,2.23,2.23Z"/>
        <path class="cls-1" d="M39.63,122.94c1.23,0,2.23-1,2.23-2.23,0-.16-.02-.31-.05-.46-1.4.44-2.79.94-4.14,1.48.37.71,1.11,1.21,1.97,1.21Z"/>
        <path class="cls-1" d="M35.55,131.09c1.23,0,2.23-1,2.23-2.23s-1-2.23-2.23-2.23-2.23,1-2.23,2.23,1,2.23,2.23,2.23Z"/>
        <path class="cls-1" d="M45.55,120.71c0,1.23,1,2.23,2.23,2.23s2.23-1,2.23-2.23c0-1.02-.69-1.87-1.63-2.14-.67.13-1.34.27-2,.42-.5.41-.82,1.02-.82,1.71Z"/>
        <path class="cls-1" d="M43.7,131.09c1.23,0,2.23-1,2.23-2.23s-1-2.23-2.23-2.23-2.23,1-2.23,2.23,1,2.23,2.23,2.23Z"/>
        <path class="cls-1" d="M55.93,122.94c1.23,0,2.23-1,2.23-2.23s-1-2.23-2.23-2.23-2.23,1-2.23,2.23,1,2.23,2.23,2.23Z"/>
        <path class="cls-1" d="M51.86,131.09c1.23,0,2.23-1,2.23-2.23s-1-2.23-2.23-2.23-2.23,1-2.23,2.23,1,2.23,2.23,2.23Z"/>
        <path class="cls-1" d="M64.09,122.94c1.23,0,2.23-1,2.23-2.23s-1-2.23-2.23-2.23-2.23,1-2.23,2.23,1,2.23,2.23,2.23Z"/>
        <path class="cls-1" d="M60.01,131.09c1.23,0,2.23-1,2.23-2.23s-1-2.23-2.23-2.23-2.23,1-2.23,2.23,1,2.23,2.23,2.23Z"/>
        <path class="cls-1" d="M70.01,120.71c0,1.23,1,2.23,2.23,2.23s2.23-1,2.23-2.23c0-.69-.32-1.31-.82-1.71-.66-.15-1.33-.29-2-.42-.94.26-1.63,1.11-1.63,2.14Z"/>
        <path class="cls-1" d="M68.16,131.09c1.23,0,2.23-1,2.23-2.23s-1-2.23-2.23-2.23-2.23,1-2.23,2.23,1,2.23,2.23,2.23Z"/>
        <path class="cls-1" d="M80.39,122.94c.86,0,1.6-.49,1.97-1.21-1.36-.54-2.74-1.04-4.14-1.48-.03.15-.05.3-.05.46,0,1.23,1,2.23,2.23,2.23Z"/>
        <path class="cls-1" d="M76.31,131.09c1.23,0,2.23-1,2.23-2.23s-1-2.23-2.23-2.23-2.23,1-2.23,2.23,1,2.23,2.23,2.23Z"/>
        <path class="cls-1" d="M84.47,131.09c1.23,0,2.23-1,2.23-2.23s-1-2.23-2.23-2.23-2.23,1-2.23,2.23,1,2.23,2.23,2.23Z"/>
        <path class="cls-1" d="M90.39,128.86c0,1.23,1,2.23,2.23,2.23s2.23-1,2.23-2.23c0-.13-.02-.25-.04-.37-.88-.62-1.78-1.22-2.69-1.79-.99.23-1.72,1.11-1.72,2.16Z"/>
        <path class="cls-1" d="M17.4,137.02c0-.54-.2-1.03-.52-1.41-1.02,1.05-2.01,2.13-2.96,3.25.36.24.79.39,1.25.39,1.23,0,2.23-1,2.23-2.23Z"/>
        <path class="cls-1" d="M11.09,147.39c1.23,0,2.23-1,2.23-2.23s-1-2.23-2.23-2.23c-.13,0-.25.02-.37.04-.62.88-1.22,1.78-1.79,2.69.23.99,1.11,1.72,2.16,1.72Z"/>
        <path class="cls-1" d="M23.32,139.24c1.23,0,2.23-1,2.23-2.23s-1-2.23-2.23-2.23-2.23,1-2.23,2.23,1,2.23,2.23,2.23Z"/>
        <path class="cls-1" d="M19.25,147.39c1.23,0,2.23-1,2.23-2.23s-1-2.23-2.23-2.23-2.23,1-2.23,2.23,1,2.23,2.23,2.23Z"/>
        <path class="cls-1" d="M31.47,139.24c1.23,0,2.23-1,2.23-2.23s-1-2.23-2.23-2.23-2.23,1-2.23,2.23,1,2.23,2.23,2.23Z"/>
        <path class="cls-1" d="M27.4,147.39c1.23,0,2.23-1,2.23-2.23s-1-2.23-2.23-2.23-2.23,1-2.23,2.23,1,2.23,2.23,2.23Z"/>
        <path class="cls-1" d="M39.63,139.24c1.23,0,2.23-1,2.23-2.23s-1-2.23-2.23-2.23-2.23,1-2.23,2.23,1,2.23,2.23,2.23Z"/>
        <path class="cls-1" d="M35.55,142.94c-1.23,0-2.23,1-2.23,2.23s1,2.23,2.23,2.23,2.23-1,2.23-2.23-1-2.23-2.23-2.23Z"/>
        <path class="cls-1" d="M47.78,139.24c1.23,0,2.23-1,2.23-2.23s-1-2.23-2.23-2.23-2.23,1-2.23,2.23,1,2.23,2.23,2.23Z"/>
        <path class="cls-1" d="M43.7,142.94c-1.23,0-2.23,1-2.23,2.23s1,2.23,2.23,2.23,2.23-1,2.23-2.23-1-2.23-2.23-2.23Z"/>
        <path class="cls-1" d="M55.93,134.79c-1.23,0-2.23,1-2.23,2.23s1,2.23,2.23,2.23,2.23-1,2.23-2.23-1-2.23-2.23-2.23Z"/>
        <path class="cls-1" d="M51.86,142.94c-1.23,0-2.23,1-2.23,2.23s1,2.23,2.23,2.23,2.23-1,2.23-2.23-1-2.23-2.23-2.23Z"/>
        <path class="cls-1" d="M64.09,134.79c-1.23,0-2.23,1-2.23,2.23s1,2.23,2.23,2.23,2.23-1,2.23-2.23-1-2.23-2.23-2.23Z"/>
        <path class="cls-1" d="M60.01,142.94c-1.23,0-2.23,1-2.23,2.23s1,2.23,2.23,2.23,2.23-1,2.23-2.23-1-2.23-2.23-2.23Z"/>
        <path class="cls-1" d="M72.24,139.24c1.23,0,2.23-1,2.23-2.23s-1-2.23-2.23-2.23-2.23,1-2.23,2.23,1,2.23,2.23,2.23Z"/>
        <path class="cls-1" d="M68.16,142.94c-1.23,0-2.23,1-2.23,2.23s1,2.23,2.23,2.23,2.23-1,2.23-2.23-1-2.23-2.23-2.23Z"/>
        <path class="cls-1" d="M80.39,139.24c1.23,0,2.23-1,2.23-2.23s-1-2.23-2.23-2.23-2.23,1-2.23,2.23,1,2.23,2.23,2.23Z"/>
        <path class="cls-1" d="M76.31,142.94c-1.23,0-2.23,1-2.23,2.23s1,2.23,2.23,2.23,2.23-1,2.23-2.23-1-2.23-2.23-2.23Z"/>
        <path class="cls-1" d="M88.54,139.24c1.23,0,2.23-1,2.23-2.23s-1-2.23-2.23-2.23-2.23,1-2.23,2.23,1,2.23,2.23,2.23Z"/>
        <path class="cls-1" d="M84.47,142.94c-1.23,0-2.23,1-2.23,2.23s1,2.23,2.23,2.23,2.23-1,2.23-2.23-1-2.23-2.23-2.23Z"/>
        <path class="cls-1" d="M96.7,139.24c1.23,0,2.23-1,2.23-2.23s-1-2.23-2.23-2.23-2.23,1-2.23,2.23,1,2.23,2.23,2.23Z"/>
        <path class="cls-1" d="M92.62,147.39c1.23,0,2.23-1,2.23-2.23s-1-2.23-2.23-2.23-2.23,1-2.23,2.23,1,2.23,2.23,2.23Z"/>
        <path class="cls-1" d="M104.85,139.24c.46,0,.89-.14,1.25-.39-.95-1.12-1.93-2.2-2.96-3.25-.32.39-.52.87-.52,1.41,0,1.23,1,2.23,2.23,2.23Z"/>
        <path class="cls-1" d="M100.77,147.39c1.23,0,2.23-1,2.23-2.23s-1-2.23-2.23-2.23-2.23,1-2.23,2.23,1,2.23,2.23,2.23Z"/>
        <path class="cls-1" d="M106.7,145.17c0,1.23,1,2.23,2.23,2.23,1.06,0,1.94-.74,2.16-1.72-.58-.91-1.17-1.81-1.79-2.69-.12-.02-.24-.04-.37-.04-1.23,0-2.23,1-2.23,2.23Z"/>
        <path class="cls-1" d="M7.02,155.55c1.23,0,2.23-1,2.23-2.23s-1-2.23-2.23-2.23c-.52,0-.99.18-1.36.48-.29.61-.58,1.23-.85,1.85.06,1.18,1.02,2.12,2.22,2.12Z"/>
        <path class="cls-1" d="M5.17,161.47c0-1.23-1-2.23-2.23-2.23-.13,0-.25.02-.37.04-.41,1.27-.77,2.55-1.1,3.85.39.35.9.56,1.47.56,1.23,0,2.23-1,2.23-2.23Z"/>
        <path class="cls-1" d="M15.17,155.55c1.23,0,2.23-1,2.23-2.23s-1-2.23-2.23-2.23-2.23,1-2.23,2.23,1,2.23,2.23,2.23Z"/>
        <path class="cls-1" d="M11.09,163.7c1.23,0,2.23-1,2.23-2.23s-1-2.23-2.23-2.23-2.23,1-2.23,2.23,1,2.23,2.23,2.23Z"/>
        <path class="cls-1" d="M23.32,151.1c-1.23,0-2.23,1-2.23,2.23s1,2.23,2.23,2.23,2.23-1,2.23-2.23-1-2.23-2.23-2.23Z"/>
        <path class="cls-1" d="M19.25,159.25c-1.23,0-2.23,1-2.23,2.23s1,2.23,2.23,2.23,2.23-1,2.23-2.23-1-2.23-2.23-2.23Z"/>
        <path class="cls-1" d="M31.47,151.1c-1.23,0-2.23,1-2.23,2.23s1,2.23,2.23,2.23,2.23-1,2.23-2.23-1-2.23-2.23-2.23Z"/>
        <path class="cls-1" d="M27.4,159.25c-1.23,0-2.23,1-2.23,2.23s1,2.23,2.23,2.23,2.23-1,2.23-2.23-1-2.23-2.23-2.23Z"/>
        <path class="cls-1" d="M39.63,151.1c-1.23,0-2.23,1-2.23,2.23s1,2.23,2.23,2.23,2.23-1,2.23-2.23-1-2.23-2.23-2.23Z"/>
        <path class="cls-1" d="M35.55,159.25c-1.23,0-2.23,1-2.23,2.23s1,2.23,2.23,2.23,2.23-1,2.23-2.23-1-2.23-2.23-2.23Z"/>
        <path class="cls-1" d="M47.78,151.1c-1.23,0-2.23,1-2.23,2.23s1,2.23,2.23,2.23,2.23-1,2.23-2.23-1-2.23-2.23-2.23Z"/>
        <path class="cls-1" d="M43.7,159.25c-1.23,0-2.23,1-2.23,2.23s1,2.23,2.23,2.23,2.23-1,2.23-2.23-1-2.23-2.23-2.23Z"/>
        <path class="cls-1" d="M55.93,151.1c-1.23,0-2.23,1-2.23,2.23s1,2.23,2.23,2.23,2.23-1,2.23-2.23-1-2.23-2.23-2.23Z"/>
        <path class="cls-1" d="M51.86,159.25c-1.23,0-2.23,1-2.23,2.23s1,2.23,2.23,2.23,2.23-1,2.23-2.23-1-2.23-2.23-2.23Z"/>
        <path class="cls-1" d="M64.09,151.1c-1.23,0-2.23,1-2.23,2.23s1,2.23,2.23,2.23,2.23-1,2.23-2.23-1-2.23-2.23-2.23Z"/>
        <path class="cls-1" d="M60.01,159.25c-1.23,0-2.23,1-2.23,2.23s1,2.23,2.23,2.23,2.23-1,2.23-2.23-1-2.23-2.23-2.23Z"/>
        <path class="cls-1" d="M72.24,151.1c-1.23,0-2.23,1-2.23,2.23s1,2.23,2.23,2.23,2.23-1,2.23-2.23-1-2.23-2.23-2.23Z"/>
        <path class="cls-1" d="M68.16,159.25c-1.23,0-2.23,1-2.23,2.23s1,2.23,2.23,2.23,2.23-1,2.23-2.23-1-2.23-2.23-2.23Z"/>
        <path class="cls-1" d="M80.39,151.1c-1.23,0-2.23,1-2.23,2.23s1,2.23,2.23,2.23,2.23-1,2.23-2.23-1-2.23-2.23-2.23Z"/>
        <path class="cls-1" d="M76.31,159.25c-1.23,0-2.23,1-2.23,2.23s1,2.23,2.23,2.23,2.23-1,2.23-2.23-1-2.23-2.23-2.23Z"/>
        <path class="cls-1" d="M88.54,151.1c-1.23,0-2.23,1-2.23,2.23s1,2.23,2.23,2.23,2.23-1,2.23-2.23-1-2.23-2.23-2.23Z"/>
        <path class="cls-1" d="M84.47,159.25c-1.23,0-2.23,1-2.23,2.23s1,2.23,2.23,2.23,2.23-1,2.23-2.23-1-2.23-2.23-2.23Z"/>
        <path class="cls-1" d="M96.7,151.1c-1.23,0-2.23,1-2.23,2.23s1,2.23,2.23,2.23,2.23-1,2.23-2.23-1-2.23-2.23-2.23Z"/>
        <path class="cls-1" d="M92.62,159.25c-1.23,0-2.23,1-2.23,2.23s1,2.23,2.23,2.23,2.23-1,2.23-2.23-1-2.23-2.23-2.23Z"/>
        <path class="cls-1" d="M104.85,155.55c1.23,0,2.23-1,2.23-2.23s-1-2.23-2.23-2.23-2.23,1-2.23,2.23,1,2.23,2.23,2.23Z"/>
        <path class="cls-1" d="M100.77,159.25c-1.23,0-2.23,1-2.23,2.23s1,2.23,2.23,2.23,2.23-1,2.23-2.23-1-2.23-2.23-2.23Z"/>
        <path class="cls-1" d="M110.78,153.32c0,1.23,1,2.23,2.23,2.23s2.16-.94,2.22-2.12c-.27-.62-.56-1.24-.85-1.85-.38-.3-.85-.48-1.36-.48-1.23,0-2.23,1-2.23,2.23Z"/>
        <path class="cls-1" d="M108.93,163.7c1.23,0,2.23-1,2.23-2.23s-1-2.23-2.23-2.23-2.23,1-2.23,2.23,1,2.23,2.23,2.23Z"/>
        <path class="cls-1" d="M114.85,161.47c0,1.23,1,2.23,2.23,2.23.56,0,1.08-.22,1.47-.56-.32-1.3-.69-2.58-1.1-3.85-.12-.02-.24-.04-.37-.04-1.23,0-2.23,1-2.23,2.23Z"/>
        <path class="cls-1" d="M1.09,169.63c0-.6-.24-1.15-.63-1.55-.18,1.14-.34,2.29-.46,3.45.65-.39,1.09-1.09,1.09-1.9Z"/>
        <path class="cls-1" d="M7.02,171.85c1.23,0,2.23-1,2.23-2.23s-1-2.23-2.23-2.23-2.23,1-2.23,2.23,1,2.23,2.23,2.23Z"/>
        <path class="cls-1" d="M2.94,175.55c-1.23,0-2.23,1-2.23,2.23s1,2.23,2.23,2.23,2.23-1,2.23-2.23-1-2.23-2.23-2.23Z"/>
        <path class="cls-1" d="M15.17,167.4c-1.23,0-2.23,1-2.23,2.23s1,2.23,2.23,2.23,2.23-1,2.23-2.23-1-2.23-2.23-2.23Z"/>
        <path class="cls-1" d="M11.09,175.55c-1.23,0-2.23,1-2.23,2.23s1,2.23,2.23,2.23,2.23-1,2.23-2.23-1-2.23-2.23-2.23Z"/>
        <path class="cls-1" d="M23.32,171.85c1.23,0,2.23-1,2.23-2.23s-1-2.23-2.23-2.23-2.23,1-2.23,2.23,1,2.23,2.23,2.23Z"/>
        <path class="cls-1" d="M19.25,175.55c-1.23,0-2.23,1-2.23,2.23s1,2.23,2.23,2.23,2.23-1,2.23-2.23-1-2.23-2.23-2.23Z"/>
        <path class="cls-1" d="M31.47,167.4c-1.23,0-2.23,1-2.23,2.23s1,2.23,2.23,2.23,2.23-1,2.23-2.23-1-2.23-2.23-2.23Z"/>
        <path class="cls-1" d="M27.4,180c1.23,0,2.23-1,2.23-2.23s-1-2.23-2.23-2.23-2.23,1-2.23,2.23,1,2.23,2.23,2.23Z"/>
        <path class="cls-1" d="M39.63,167.4c-1.23,0-2.23,1-2.23,2.23s1,2.23,2.23,2.23,2.23-1,2.23-2.23-1-2.23-2.23-2.23Z"/>
        <path class="cls-1" d="M35.55,175.55c-1.23,0-2.23,1-2.23,2.23s1,2.23,2.23,2.23,2.23-1,2.23-2.23-1-2.23-2.23-2.23Z"/>
        <path class="cls-1" d="M47.78,167.4c-1.23,0-2.23,1-2.23,2.23s1,2.23,2.23,2.23,2.23-1,2.23-2.23-1-2.23-2.23-2.23Z"/>
        <path class="cls-1" d="M43.7,175.55c-1.23,0-2.23,1-2.23,2.23s1,2.23,2.23,2.23,2.23-1,2.23-2.23-1-2.23-2.23-2.23Z"/>
        <path class="cls-1" d="M55.93,171.85c1.23,0,2.23-1,2.23-2.23s-1-2.23-2.23-2.23-2.23,1-2.23,2.23,1,2.23,2.23,2.23Z"/>
        <path class="cls-1" d="M51.86,175.55c-1.23,0-2.23,1-2.23,2.23s1,2.23,2.23,2.23,2.23-1,2.23-2.23-1-2.23-2.23-2.23Z"/>
        <path class="cls-1" d="M64.09,171.85c1.23,0,2.23-1,2.23-2.23s-1-2.23-2.23-2.23-2.23,1-2.23,2.23,1,2.23,2.23,2.23Z"/>
        <path class="cls-1" d="M60.01,180c1.23,0,2.23-1,2.23-2.23s-1-2.23-2.23-2.23-2.23,1-2.23,2.23,1,2.23,2.23,2.23Z"/>
        <path class="cls-1" d="M72.24,167.4c-1.23,0-2.23,1-2.23,2.23s1,2.23,2.23,2.23,2.23-1,2.23-2.23-1-2.23-2.23-2.23Z"/>
        <path class="cls-1" d="M68.16,180c1.23,0,2.23-1,2.23-2.23s-1-2.23-2.23-2.23-2.23,1-2.23,2.23,1,2.23,2.23,2.23Z"/>
        <path class="cls-1" d="M80.39,167.4c-1.23,0-2.23,1-2.23,2.23s1,2.23,2.23,2.23,2.23-1,2.23-2.23-1-2.23-2.23-2.23Z"/>
        <path class="cls-1" d="M76.31,175.55c-1.23,0-2.23,1-2.23,2.23s1,2.23,2.23,2.23,2.23-1,2.23-2.23-1-2.23-2.23-2.23Z"/>
        <path class="cls-1" d="M88.54,167.4c-1.23,0-2.23,1-2.23,2.23s1,2.23,2.23,2.23,2.23-1,2.23-2.23-1-2.23-2.23-2.23Z"/>
        <path class="cls-1" d="M84.47,180c1.23,0,2.23-1,2.23-2.23s-1-2.23-2.23-2.23-2.23,1-2.23,2.23,1,2.23,2.23,2.23Z"/>
        <path class="cls-1" d="M96.7,167.4c-1.23,0-2.23,1-2.23,2.23s1,2.23,2.23,2.23,2.23-1,2.23-2.23-1-2.23-2.23-2.23Z"/>
        <path class="cls-1" d="M92.62,175.55c-1.23,0-2.23,1-2.23,2.23s1,2.23,2.23,2.23,2.23-1,2.23-2.23-1-2.23-2.23-2.23Z"/>
        <path class="cls-1" d="M104.85,167.4c-1.23,0-2.23,1-2.23,2.23s1,2.23,2.23,2.23,2.23-1,2.23-2.23-1-2.23-2.23-2.23Z"/>
        <path class="cls-1" d="M100.77,180c1.23,0,2.23-1,2.23-2.23s-1-2.23-2.23-2.23-2.23,1-2.23,2.23,1,2.23,2.23,2.23Z"/>
        <path class="cls-1" d="M113,171.85c1.23,0,2.23-1,2.23-2.23s-1-2.23-2.23-2.23-2.23,1-2.23,2.23,1,2.23,2.23,2.23Z"/>
        <path class="cls-1" d="M108.93,180c1.23,0,2.23-1,2.23-2.23s-1-2.23-2.23-2.23-2.23,1-2.23,2.23,1,2.23,2.23,2.23Z"/>
        <path class="cls-1" d="M120.02,171.53c-.12-1.16-.28-2.31-.46-3.45-.39.4-.63.95-.63,1.55,0,.81.44,1.52,1.09,1.9Z"/>
        <path class="cls-1" d="M117.08,180c1.23,0,2.23-1,2.23-2.23s-1-2.23-2.23-2.23-2.23,1-2.23,2.23,1,2.23,2.23,2.23Z"/>
        <path class="cls-1" d="M0,184.03c.12,1.16.28,2.31.46,3.45.39-.4.63-.95.63-1.55,0-.81-.44-1.52-1.09-1.9Z"/>
        <path class="cls-1" d="M7.02,183.71c-1.23,0-2.23,1-2.23,2.23s1,2.23,2.23,2.23,2.23-1,2.23-2.23-1-2.23-2.23-2.23Z"/>
        <path class="cls-1" d="M5.17,194.08c0-1.23-1-2.23-2.23-2.23-.57,0-1.08.22-1.47.56.32,1.3.69,2.58,1.1,3.85.12.02.24.04.37.04,1.23,0,2.23-1,2.23-2.23Z"/>
        <path class="cls-1" d="M15.17,188.16c1.23,0,2.23-1,2.23-2.23s-1-2.23-2.23-2.23-2.23,1-2.23,2.23,1,2.23,2.23,2.23Z"/>
        <path class="cls-1" d="M11.09,191.86c-1.23,0-2.23,1-2.23,2.23s1,2.23,2.23,2.23,2.23-1,2.23-2.23-1-2.23-2.23-2.23Z"/>
        <path class="cls-1" d="M23.32,188.16c1.23,0,2.23-1,2.23-2.23s-1-2.23-2.23-2.23-2.23,1-2.23,2.23,1,2.23,2.23,2.23Z"/>
        <path class="cls-1" d="M19.25,196.31c1.23,0,2.23-1,2.23-2.23s-1-2.23-2.23-2.23-2.23,1-2.23,2.23,1,2.23,2.23,2.23Z"/>
        <path class="cls-1" d="M31.47,188.16c1.23,0,2.23-1,2.23-2.23s-1-2.23-2.23-2.23-2.23,1-2.23,2.23,1,2.23,2.23,2.23Z"/>
        <path class="cls-1" d="M27.4,196.31c1.23,0,2.23-1,2.23-2.23s-1-2.23-2.23-2.23-2.23,1-2.23,2.23,1,2.23,2.23,2.23Z"/>
        <path class="cls-1" d="M39.63,188.16c1.23,0,2.23-1,2.23-2.23s-1-2.23-2.23-2.23-2.23,1-2.23,2.23,1,2.23,2.23,2.23Z"/>
        <path class="cls-1" d="M35.55,196.31c1.23,0,2.23-1,2.23-2.23s-1-2.23-2.23-2.23-2.23,1-2.23,2.23,1,2.23,2.23,2.23Z"/>
        <path class="cls-1" d="M47.78,188.16c1.23,0,2.23-1,2.23-2.23s-1-2.23-2.23-2.23-2.23,1-2.23,2.23,1,2.23,2.23,2.23Z"/>
        <path class="cls-1" d="M43.7,196.31c1.23,0,2.23-1,2.23-2.23s-1-2.23-2.23-2.23-2.23,1-2.23,2.23,1,2.23,2.23,2.23Z"/>
        <path class="cls-1" d="M55.93,188.16c1.23,0,2.23-1,2.23-2.23s-1-2.23-2.23-2.23-2.23,1-2.23,2.23,1,2.23,2.23,2.23Z"/>
        <path class="cls-1" d="M51.86,196.31c1.23,0,2.23-1,2.23-2.23s-1-2.23-2.23-2.23-2.23,1-2.23,2.23,1,2.23,2.23,2.23Z"/>
        <path class="cls-1" d="M64.09,188.16c1.23,0,2.23-1,2.23-2.23s-1-2.23-2.23-2.23-2.23,1-2.23,2.23,1,2.23,2.23,2.23Z"/>
        <path class="cls-1" d="M60.01,196.31c1.23,0,2.23-1,2.23-2.23s-1-2.23-2.23-2.23-2.23,1-2.23,2.23,1,2.23,2.23,2.23Z"/>
        <path class="cls-1" d="M72.24,188.16c1.23,0,2.23-1,2.23-2.23s-1-2.23-2.23-2.23-2.23,1-2.23,2.23,1,2.23,2.23,2.23Z"/>
        <path class="cls-1" d="M68.16,196.31c1.23,0,2.23-1,2.23-2.23s-1-2.23-2.23-2.23-2.23,1-2.23,2.23,1,2.23,2.23,2.23Z"/>
        <path class="cls-1" d="M80.39,188.16c1.23,0,2.23-1,2.23-2.23s-1-2.23-2.23-2.23-2.23,1-2.23,2.23,1,2.23,2.23,2.23Z"/>
        <path class="cls-1" d="M76.31,196.31c1.23,0,2.23-1,2.23-2.23s-1-2.23-2.23-2.23-2.23,1-2.23,2.23,1,2.23,2.23,2.23Z"/>
        <path class="cls-1" d="M88.54,188.16c1.23,0,2.23-1,2.23-2.23s-1-2.23-2.23-2.23-2.23,1-2.23,2.23,1,2.23,2.23,2.23Z"/>
        <path class="cls-1" d="M84.47,196.31c1.23,0,2.23-1,2.23-2.23s-1-2.23-2.23-2.23-2.23,1-2.23,2.23,1,2.23,2.23,2.23Z"/>
        <path class="cls-1" d="M96.7,183.71c-1.23,0-2.23,1-2.23,2.23s1,2.23,2.23,2.23,2.23-1,2.23-2.23-1-2.23-2.23-2.23Z"/>
        <path class="cls-1" d="M92.62,196.31c1.23,0,2.23-1,2.23-2.23s-1-2.23-2.23-2.23-2.23,1-2.23,2.23,1,2.23,2.23,2.23Z"/>
        <path class="cls-1" d="M104.85,188.16c1.23,0,2.23-1,2.23-2.23s-1-2.23-2.23-2.23-2.23,1-2.23,2.23,1,2.23,2.23,2.23Z"/>
        <path class="cls-1" d="M100.77,196.31c1.23,0,2.23-1,2.23-2.23s-1-2.23-2.23-2.23-2.23,1-2.23,2.23,1,2.23,2.23,2.23Z"/>
        <path class="cls-1" d="M113,183.71c-1.23,0-2.23,1-2.23,2.23s1,2.23,2.23,2.23,2.23-1,2.23-2.23-1-2.23-2.23-2.23Z"/>
        <path class="cls-1" d="M108.93,191.86c-1.23,0-2.23,1-2.23,2.23s1,2.23,2.23,2.23,2.23-1,2.23-2.23-1-2.23-2.23-2.23Z"/>
        <path class="cls-1" d="M118.93,185.93c0,.6.24,1.15.63,1.55.18-1.14.34-2.29.46-3.45-.65.39-1.09,1.09-1.09,1.9Z"/>
        <path class="cls-1" d="M114.85,194.08c0,1.23,1,2.23,2.23,2.23.13,0,.25-.02.37-.04.41-1.27.77-2.55,1.1-3.85-.39-.35-.9-.56-1.47-.56-1.23,0-2.23,1-2.23,2.23Z"/>
        <path class="cls-1" d="M9.24,202.24c0-1.23-1-2.23-2.23-2.23s-2.16.94-2.22,2.12c.27.62.56,1.24.85,1.85.38.3.85.48,1.36.48,1.23,0,2.23-1,2.23-2.23Z"/>
        <path class="cls-1" d="M15.17,200.01c-1.23,0-2.23,1-2.23,2.23s1,2.23,2.23,2.23,2.23-1,2.23-2.23-1-2.23-2.23-2.23Z"/>
        <path class="cls-1" d="M13.32,210.39c0-1.23-1-2.23-2.23-2.23-1.06,0-1.94.74-2.16,1.72.58.91,1.17,1.81,1.79,2.69.12.02.24.04.37.04,1.23,0,2.23-1,2.23-2.23Z"/>
        <path class="cls-1" d="M23.32,204.46c1.23,0,2.23-1,2.23-2.23s-1-2.23-2.23-2.23-2.23,1-2.23,2.23,1,2.23,2.23,2.23Z"/>
        <path class="cls-1" d="M19.25,208.16c-1.23,0-2.23,1-2.23,2.23s1,2.23,2.23,2.23,2.23-1,2.23-2.23-1-2.23-2.23-2.23Z"/>
        <path class="cls-1" d="M31.47,204.46c1.23,0,2.23-1,2.23-2.23s-1-2.23-2.23-2.23-2.23,1-2.23,2.23,1,2.23,2.23,2.23Z"/>
        <path class="cls-1" d="M27.4,208.16c-1.23,0-2.23,1-2.23,2.23s1,2.23,2.23,2.23,2.23-1,2.23-2.23-1-2.23-2.23-2.23Z"/>
        <path class="cls-1" d="M39.63,204.46c1.23,0,2.23-1,2.23-2.23s-1-2.23-2.23-2.23-2.23,1-2.23,2.23,1,2.23,2.23,2.23Z"/>
        <path class="cls-1" d="M35.55,212.62c1.23,0,2.23-1,2.23-2.23s-1-2.23-2.23-2.23-2.23,1-2.23,2.23,1,2.23,2.23,2.23Z"/>
        <path class="cls-1" d="M47.78,204.46c1.23,0,2.23-1,2.23-2.23s-1-2.23-2.23-2.23-2.23,1-2.23,2.23,1,2.23,2.23,2.23Z"/>
        <path class="cls-1" d="M43.7,212.62c1.23,0,2.23-1,2.23-2.23s-1-2.23-2.23-2.23-2.23,1-2.23,2.23,1,2.23,2.23,2.23Z"/>
        <path class="cls-1" d="M55.93,204.46c1.23,0,2.23-1,2.23-2.23s-1-2.23-2.23-2.23-2.23,1-2.23,2.23,1,2.23,2.23,2.23Z"/>
        <path class="cls-1" d="M51.86,212.62c1.23,0,2.23-1,2.23-2.23s-1-2.23-2.23-2.23-2.23,1-2.23,2.23,1,2.23,2.23,2.23Z"/>
        <path class="cls-1" d="M64.09,204.46c1.23,0,2.23-1,2.23-2.23s-1-2.23-2.23-2.23-2.23,1-2.23,2.23,1,2.23,2.23,2.23Z"/>
        <path class="cls-1" d="M60.01,212.62c1.23,0,2.23-1,2.23-2.23s-1-2.23-2.23-2.23-2.23,1-2.23,2.23,1,2.23,2.23,2.23Z"/>
        <path class="cls-1" d="M72.24,204.46c1.23,0,2.23-1,2.23-2.23s-1-2.23-2.23-2.23-2.23,1-2.23,2.23,1,2.23,2.23,2.23Z"/>
        <path class="cls-1" d="M68.16,212.62c1.23,0,2.23-1,2.23-2.23s-1-2.23-2.23-2.23-2.23,1-2.23,2.23,1,2.23,2.23,2.23Z"/>
        <path class="cls-1" d="M80.39,204.46c1.23,0,2.23-1,2.23-2.23s-1-2.23-2.23-2.23-2.23,1-2.23,2.23,1,2.23,2.23,2.23Z"/>
        <path class="cls-1" d="M76.31,212.62c1.23,0,2.23-1,2.23-2.23s-1-2.23-2.23-2.23-2.23,1-2.23,2.23,1,2.23,2.23,2.23Z"/>
        <path class="cls-1" d="M88.54,204.46c1.23,0,2.23-1,2.23-2.23s-1-2.23-2.23-2.23-2.23,1-2.23,2.23,1,2.23,2.23,2.23Z"/>
        <path class="cls-1" d="M84.47,212.62c1.23,0,2.23-1,2.23-2.23s-1-2.23-2.23-2.23-2.23,1-2.23,2.23,1,2.23,2.23,2.23Z"/>
        <path class="cls-1" d="M96.7,204.46c1.23,0,2.23-1,2.23-2.23s-1-2.23-2.23-2.23-2.23,1-2.23,2.23,1,2.23,2.23,2.23Z"/>
        <path class="cls-1" d="M92.62,208.16c-1.23,0-2.23,1-2.23,2.23s1,2.23,2.23,2.23,2.23-1,2.23-2.23-1-2.23-2.23-2.23Z"/>
        <path class="cls-1" d="M104.85,200.01c-1.23,0-2.23,1-2.23,2.23s1,2.23,2.23,2.23,2.23-1,2.23-2.23-1-2.23-2.23-2.23Z"/>
        <path class="cls-1" d="M100.77,208.16c-1.23,0-2.23,1-2.23,2.23s1,2.23,2.23,2.23,2.23-1,2.23-2.23-1-2.23-2.23-2.23Z"/>
        <path class="cls-1" d="M113,200.01c-1.23,0-2.23,1-2.23,2.23s1,2.23,2.23,2.23c.52,0,.99-.18,1.36-.48.29-.61.58-1.23.85-1.85-.06-1.18-1.02-2.12-2.22-2.12Z"/>
        <path class="cls-1" d="M108.93,208.16c-1.23,0-2.23,1-2.23,2.23s1,2.23,2.23,2.23c.13,0,.25-.02.37-.04.62-.88,1.22-1.78,1.79-2.69-.23-.99-1.11-1.72-2.16-1.72Z"/>
        <path class="cls-1" d="M15.17,216.32c-.46,0-.89.14-1.25.39.95,1.12,1.93,2.2,2.96,3.25.32-.39.52-.87.52-1.41,0-1.23-1-2.23-2.23-2.23Z"/>
        <path class="cls-1" d="M23.32,216.32c-1.23,0-2.23,1-2.23,2.23s1,2.23,2.23,2.23,2.23-1,2.23-2.23-1-2.23-2.23-2.23Z"/>
        <path class="cls-1" d="M31.47,216.32c-1.23,0-2.23,1-2.23,2.23s1,2.23,2.23,2.23,2.23-1,2.23-2.23-1-2.23-2.23-2.23Z"/>
        <path class="cls-1" d="M29.62,226.7c0-1.23-1-2.23-2.23-2.23s-2.23,1-2.23,2.23c0,.13.02.25.04.37.88.62,1.78,1.22,2.69,1.79.99-.23,1.72-1.11,1.72-2.16Z"/>
        <path class="cls-1" d="M39.63,216.32c-1.23,0-2.23,1-2.23,2.23s1,2.23,2.23,2.23,2.23-1,2.23-2.23-1-2.23-2.23-2.23Z"/>
        <path class="cls-1" d="M35.55,224.47c-1.23,0-2.23,1-2.23,2.23s1,2.23,2.23,2.23,2.23-1,2.23-2.23-1-2.23-2.23-2.23Z"/>
        <path class="cls-1" d="M47.78,216.32c-1.23,0-2.23,1-2.23,2.23s1,2.23,2.23,2.23,2.23-1,2.23-2.23-1-2.23-2.23-2.23Z"/>
        <path class="cls-1" d="M43.7,224.47c-1.23,0-2.23,1-2.23,2.23s1,2.23,2.23,2.23,2.23-1,2.23-2.23-1-2.23-2.23-2.23Z"/>
        <circle class="cls-1" cx="55.93" cy="218.54" r="2.23" transform="translate(-48.71 18.7) rotate(-13.28)"/>
        <path class="cls-1" d="M51.86,224.47c-1.23,0-2.23,1-2.23,2.23s1,2.23,2.23,2.23,2.23-1,2.23-2.23-1-2.23-2.23-2.23Z"/>
        <path class="cls-1" d="M64.09,220.77c1.23,0,2.23-1,2.23-2.23s-1-2.23-2.23-2.23-2.23,1-2.23,2.23,1,2.23,2.23,2.23Z"/>
        <path class="cls-1" d="M60.01,224.47c-1.23,0-2.23,1-2.23,2.23s1,2.23,2.23,2.23,2.23-1,2.23-2.23-1-2.23-2.23-2.23Z"/>
        <path class="cls-1" d="M72.24,216.32c-1.23,0-2.23,1-2.23,2.23s1,2.23,2.23,2.23,2.23-1,2.23-2.23-1-2.23-2.23-2.23Z"/>
        <path class="cls-1" d="M68.16,224.47c-1.23,0-2.23,1-2.23,2.23s1,2.23,2.23,2.23,2.23-1,2.23-2.23-1-2.23-2.23-2.23Z"/>
        <path class="cls-1" d="M80.39,216.32c-1.23,0-2.23,1-2.23,2.23s1,2.23,2.23,2.23,2.23-1,2.23-2.23-1-2.23-2.23-2.23Z"/>
        <path class="cls-1" d="M76.31,224.47c-1.23,0-2.23,1-2.23,2.23s1,2.23,2.23,2.23,2.23-1,2.23-2.23-1-2.23-2.23-2.23Z"/>
        <path class="cls-1" d="M88.54,216.32c-1.23,0-2.23,1-2.23,2.23s1,2.23,2.23,2.23,2.23-1,2.23-2.23-1-2.23-2.23-2.23Z"/>
        <path class="cls-1" d="M84.47,224.47c-1.23,0-2.23,1-2.23,2.23s1,2.23,2.23,2.23,2.23-1,2.23-2.23-1-2.23-2.23-2.23Z"/>
        <path class="cls-1" d="M96.7,216.32c-1.23,0-2.23,1-2.23,2.23s1,2.23,2.23,2.23,2.23-1,2.23-2.23-1-2.23-2.23-2.23Z"/>
        <path class="cls-1" d="M92.62,224.47c-1.23,0-2.23,1-2.23,2.23,0,1.06.74,1.94,1.72,2.16.91-.58,1.81-1.17,2.69-1.79.02-.12.04-.24.04-.37,0-1.23-1-2.23-2.23-2.23Z"/>
        <path class="cls-1" d="M102.62,218.54c0,.54.2,1.03.52,1.41,1.02-1.05,2.01-2.13,2.96-3.25-.36-.24-.79-.39-1.25-.39-1.23,0-2.23,1-2.23,2.23Z"/>
        <path class="cls-1" d="M39.63,232.62c-.86,0-1.6.49-1.97,1.21,1.36.54,2.74,1.04,4.14,1.48.03-.15.05-.3.05-.46,0-1.23-1-2.23-2.23-2.23Z"/>
        <path class="cls-1" d="M50.01,234.85c0-1.23-1-2.23-2.23-2.23s-2.23,1-2.23,2.23c0,.69.32,1.31.82,1.71.66.15,1.33.29,2,.42.94-.26,1.63-1.11,1.63-2.14Z"/>
        <circle class="cls-1" cx="55.93" cy="234.85" r="2.23" transform="translate(-52.46 19.13) rotate(-13.28)"/>
        <path class="cls-1" d="M64.09,232.62c-1.23,0-2.23,1-2.23,2.23s1,2.23,2.23,2.23,2.23-1,2.23-2.23-1-2.23-2.23-2.23Z"/>
        <path class="cls-1" d="M74.46,234.85c0-1.23-1-2.23-2.23-2.23s-2.23,1-2.23,2.23c0,1.02.69,1.87,1.63,2.14.67-.13,1.34-.27,2-.42.5-.41.82-1.02.82-1.71Z"/>
        <path class="cls-1" d="M80.39,232.62c-1.23,0-2.23,1-2.23,2.23,0,.16.02.31.05.46,1.4-.44,2.79-.94,4.14-1.48-.37-.71-1.11-1.21-1.97-1.21Z"/>
      </g>
      <circle class="cls-2" cx="138.12" cy="23.27" r="23.27" transform="translate(86.14 153.34) rotate(-77.78)"/>
    </g>
  </g>
</svg>