<?xml version="1.0" encoding="UTF-8"?>
<svg id="_レイヤー_2" data-name="レイヤー 2" xmlns="http://www.w3.org/2000/svg" viewBox="0 0 284.74 139.35">
  <defs>
    <style>
      .cls-1 {
        fill: #dae000;
      }

      .cls-2 {
        fill: #8fc31f;
      }
    </style>
  </defs>
  <g id="_レイヤー_1-2" data-name="レイヤー 1">
    <g>
      <circle class="cls-2" cx="23.55" cy="86.19" r="23.55" transform="translate(-29.78 14.5) rotate(-21.37)"/>
      <g>
        <path class="cls-1" d="M175.91,14.81c1.44,0,2.62-1.17,2.62-2.62,0-1.24-.87-2.27-2.03-2.54-1.07.68-2.13,1.38-3.16,2.11-.02.14-.04.29-.04.43,0,1.44,1.17,2.62,2.62,2.62Z"/>
        <path class="cls-1" d="M190.28,5.23c1.44,0,2.62-1.17,2.62-2.62,0-.19-.02-.37-.06-.54-1.65.52-3.27,1.1-4.87,1.74.44.84,1.3,1.42,2.31,1.42Z"/>
        <path class="cls-1" d="M185.49,14.81c1.44,0,2.62-1.17,2.62-2.62s-1.17-2.62-2.62-2.62-2.62,1.17-2.62,2.62,1.17,2.62,2.62,2.62Z"/>
        <path class="cls-1" d="M197.24,2.62c0,1.44,1.17,2.62,2.62,2.62s2.62-1.17,2.62-2.62c0-1.2-.81-2.2-1.92-2.51-.79.15-1.57.32-2.35.49-.59.48-.97,1.2-.97,2.01Z"/>
        <path class="cls-1" d="M195.07,14.81c1.44,0,2.62-1.17,2.62-2.62s-1.17-2.62-2.62-2.62-2.62,1.17-2.62,2.62,1.17,2.62,2.62,2.62Z"/>
        <path class="cls-1" d="M209.44,5.23c1.44,0,2.62-1.17,2.62-2.62s-1.17-2.62-2.62-2.62-2.62,1.17-2.62,2.62,1.17,2.62,2.62,2.62Z"/>
        <circle class="cls-1" cx="204.65" cy="12.19" r="2.62"/>
        <circle class="cls-1" cx="219.02" cy="2.62" r="2.62" transform="translate(.19 12.14) rotate(-3.18)"/>
        <path class="cls-1" d="M214.23,14.81c1.44,0,2.62-1.17,2.62-2.62s-1.17-2.62-2.62-2.62-2.62,1.17-2.62,2.62,1.17,2.62,2.62,2.62Z"/>
        <path class="cls-1" d="M225.98,2.62c0,1.44,1.17,2.62,2.62,2.62s2.62-1.17,2.62-2.62c0-.82-.38-1.53-.97-2.01-.78-.18-1.56-.34-2.35-.49-1.1.31-1.92,1.31-1.92,2.51Z"/>
        <path class="cls-1" d="M223.81,14.81c1.44,0,2.62-1.17,2.62-2.62s-1.17-2.62-2.62-2.62-2.62,1.17-2.62,2.62,1.17,2.62,2.62,2.62Z"/>
        <path class="cls-1" d="M238.18,5.23c1.01,0,1.88-.58,2.31-1.42-1.6-.64-3.22-1.22-4.87-1.74-.04.18-.06.36-.06.54,0,1.44,1.17,2.62,2.62,2.62Z"/>
        <circle class="cls-1" cx="233.39" cy="12.19" r="2.62"/>
        <path class="cls-1" d="M242.97,14.81c1.44,0,2.62-1.17,2.62-2.62s-1.17-2.62-2.62-2.62-2.62,1.17-2.62,2.62,1.17,2.62,2.62,2.62Z"/>
        <path class="cls-1" d="M249.93,12.19c0,1.44,1.17,2.62,2.62,2.62s2.62-1.17,2.62-2.62c0-.15-.02-.29-.04-.43-1.03-.73-2.09-1.43-3.16-2.11-1.16.27-2.03,1.3-2.03,2.54Z"/>
        <path class="cls-1" d="M164.16,21.77c0-.63-.23-1.21-.61-1.66-1.2,1.23-2.36,2.51-3.48,3.82.42.29.92.45,1.47.45,1.44,0,2.62-1.17,2.62-2.62Z"/>
        <path class="cls-1" d="M156.75,33.97c1.44,0,2.62-1.17,2.62-2.62s-1.17-2.62-2.62-2.62c-.15,0-.29.02-.43.04-.73,1.03-1.43,2.09-2.11,3.16.27,1.16,1.3,2.03,2.54,2.03Z"/>
        <path class="cls-1" d="M171.12,24.39c1.44,0,2.62-1.17,2.62-2.62s-1.17-2.62-2.62-2.62-2.62,1.17-2.62,2.62,1.17,2.62,2.62,2.62Z"/>
        <circle class="cls-1" cx="166.33" cy="31.35" r="2.62" transform="translate(-2.77 38.79) rotate(-13.19)"/>
        <circle class="cls-1" cx="180.7" cy="21.77" r="2.62"/>
        <path class="cls-1" d="M175.91,33.97c1.44,0,2.62-1.17,2.62-2.62s-1.17-2.62-2.62-2.62-2.62,1.17-2.62,2.62,1.17,2.62,2.62,2.62Z"/>
        <circle class="cls-1" cx="190.28" cy="21.77" r="2.62"/>
        <path class="cls-1" d="M185.49,28.74c-1.44,0-2.62,1.17-2.62,2.62s1.17,2.62,2.62,2.62,2.62-1.17,2.62-2.62-1.17-2.62-2.62-2.62Z"/>
        <path class="cls-1" d="M199.86,24.39c1.44,0,2.62-1.17,2.62-2.62s-1.17-2.62-2.62-2.62-2.62,1.17-2.62,2.62,1.17,2.62,2.62,2.62Z"/>
        <path class="cls-1" d="M195.07,28.74c-1.44,0-2.62,1.17-2.62,2.62s1.17,2.62,2.62,2.62,2.62-1.17,2.62-2.62-1.17-2.62-2.62-2.62Z"/>
        <path class="cls-1" d="M209.44,19.16c-1.44,0-2.62,1.17-2.62,2.62s1.17,2.62,2.62,2.62,2.62-1.17,2.62-2.62-1.17-2.62-2.62-2.62Z"/>
        <circle class="cls-1" cx="204.65" cy="31.35" r="2.62" transform="translate(-1.7 48.18) rotate(-13.37)"/>
        <circle class="cls-1" cx="219.02" cy="21.77" r="2.62" transform="translate(-.67 35.19) rotate(-9.17)"/>
        <path class="cls-1" d="M214.23,28.74c-1.44,0-2.62,1.17-2.62,2.62s1.17,2.62,2.62,2.62,2.62-1.17,2.62-2.62-1.17-2.62-2.62-2.62Z"/>
        <path class="cls-1" d="M228.6,24.39c1.44,0,2.62-1.17,2.62-2.62s-1.17-2.62-2.62-2.62-2.62,1.17-2.62,2.62,1.17,2.62,2.62,2.62Z"/>
        <path class="cls-1" d="M223.81,28.74c-1.44,0-2.62,1.17-2.62,2.62s1.17,2.62,2.62,2.62,2.62-1.17,2.62-2.62-1.17-2.62-2.62-2.62Z"/>
        <path class="cls-1" d="M238.18,24.39c1.44,0,2.62-1.17,2.62-2.62s-1.17-2.62-2.62-2.62-2.62,1.17-2.62,2.62,1.17,2.62,2.62,2.62Z"/>
        <circle class="cls-1" cx="233.39" cy="31.35" r="2.62" transform="translate(-.92 54.83) rotate(-13.37)"/>
        <circle class="cls-1" cx="247.76" cy="21.77" r="2.62"/>
        <path class="cls-1" d="M242.97,28.74c-1.44,0-2.62,1.17-2.62,2.62s1.17,2.62,2.62,2.62,2.62-1.17,2.62-2.62-1.17-2.62-2.62-2.62Z"/>
        <circle class="cls-1" cx="257.34" cy="21.77" r="2.62"/>
        <path class="cls-1" d="M252.55,33.97c1.44,0,2.62-1.17,2.62-2.62s-1.17-2.62-2.62-2.62-2.62,1.17-2.62,2.62,1.17,2.62,2.62,2.62Z"/>
        <path class="cls-1" d="M266.92,24.39c.55,0,1.05-.17,1.47-.45-1.11-1.32-2.27-2.59-3.48-3.82-.37.45-.61,1.03-.61,1.66,0,1.44,1.17,2.62,2.62,2.62Z"/>
        <circle class="cls-1" cx="262.13" cy="31.35" r="2.62" transform="translate(-.24 60.66) rotate(-13.19)"/>
        <path class="cls-1" d="M269.09,31.35c0,1.44,1.17,2.62,2.62,2.62,1.24,0,2.27-.87,2.54-2.03-.68-1.07-1.38-2.13-2.11-3.16-.14-.02-.29-.04-.43-.04-1.44,0-2.62,1.17-2.62,2.62Z"/>
        <path class="cls-1" d="M151.96,43.55c1.44,0,2.62-1.17,2.62-2.62s-1.17-2.62-2.62-2.62c-.61,0-1.16.22-1.6.56-.35.72-.68,1.44-1,2.17.06,1.39,1.2,2.49,2.6,2.49Z"/>
        <path class="cls-1" d="M149.79,50.51c0-1.44-1.17-2.62-2.62-2.62-.15,0-.29.02-.43.04-.48,1.49-.91,3-1.29,4.52.46.41,1.06.66,1.72.66,1.44,0,2.62-1.17,2.62-2.62Z"/>
        <path class="cls-1" d="M161.54,43.55c1.44,0,2.62-1.17,2.62-2.62s-1.17-2.62-2.62-2.62-2.62,1.17-2.62,2.62,1.17,2.62,2.62,2.62Z"/>
        <path class="cls-1" d="M156.75,53.13c1.44,0,2.62-1.17,2.62-2.62s-1.17-2.62-2.62-2.62-2.62,1.17-2.62,2.62,1.17,2.62,2.62,2.62Z"/>
        <path class="cls-1" d="M171.12,38.32c-1.44,0-2.62,1.17-2.62,2.62s1.17,2.62,2.62,2.62,2.62-1.17,2.62-2.62-1.17-2.62-2.62-2.62Z"/>
        <path class="cls-1" d="M166.33,47.9c-1.44,0-2.62,1.17-2.62,2.62s1.17,2.62,2.62,2.62,2.62-1.17,2.62-2.62-1.17-2.62-2.62-2.62Z"/>
        <circle class="cls-1" cx="180.7" cy="40.93" r="2.62" transform="translate(127.03 218.27) rotate(-85.93)"/>
        <path class="cls-1" d="M175.91,47.9c-1.44,0-2.62,1.17-2.62,2.62s1.17,2.62,2.62,2.62,2.62-1.17,2.62-2.62-1.17-2.62-2.62-2.62Z"/>
        <circle class="cls-1" cx="190.28" cy="40.93" r="2.62" transform="translate(135.93 227.82) rotate(-85.93)"/>
        <path class="cls-1" d="M185.49,47.9c-1.44,0-2.62,1.17-2.62,2.62s1.17,2.62,2.62,2.62,2.62-1.17,2.62-2.62-1.17-2.62-2.62-2.62Z"/>
        <path class="cls-1" d="M199.86,38.32c-1.44,0-2.62,1.17-2.62,2.62s1.17,2.62,2.62,2.62,2.62-1.17,2.62-2.62-1.17-2.62-2.62-2.62Z"/>
        <path class="cls-1" d="M195.07,47.9c-1.44,0-2.62,1.17-2.62,2.62s1.17,2.62,2.62,2.62,2.62-1.17,2.62-2.62-1.17-2.62-2.62-2.62Z"/>
        <path class="cls-1" d="M209.44,38.32c-1.44,0-2.62,1.17-2.62,2.62s1.17,2.62,2.62,2.62,2.62-1.17,2.62-2.62-1.17-2.62-2.62-2.62Z"/>
        <path class="cls-1" d="M204.65,47.9c-1.44,0-2.62,1.17-2.62,2.62s1.17,2.62,2.62,2.62,2.62-1.17,2.62-2.62-1.17-2.62-2.62-2.62Z"/>
        <circle class="cls-1" cx="219.02" cy="40.93" r="2.62" transform="translate(162.63 256.49) rotate(-85.93)"/>
        <path class="cls-1" d="M214.23,47.9c-1.44,0-2.62,1.17-2.62,2.62s1.17,2.62,2.62,2.62,2.62-1.17,2.62-2.62-1.17-2.62-2.62-2.62Z"/>
        <path class="cls-1" d="M228.6,38.32c-1.44,0-2.62,1.17-2.62,2.62s1.17,2.62,2.62,2.62,2.62-1.17,2.62-2.62-1.17-2.62-2.62-2.62Z"/>
        <path class="cls-1" d="M223.81,47.9c-1.44,0-2.62,1.17-2.62,2.62s1.17,2.62,2.62,2.62,2.62-1.17,2.62-2.62-1.17-2.62-2.62-2.62Z"/>
        <path class="cls-1" d="M238.18,38.32c-1.44,0-2.62,1.17-2.62,2.62s1.17,2.62,2.62,2.62,2.62-1.17,2.62-2.62-1.17-2.62-2.62-2.62Z"/>
        <path class="cls-1" d="M233.39,47.9c-1.44,0-2.62,1.17-2.62,2.62s1.17,2.62,2.62,2.62,2.62-1.17,2.62-2.62-1.17-2.62-2.62-2.62Z"/>
        <circle class="cls-1" cx="247.76" cy="40.93" r="2.62" transform="translate(189.33 285.16) rotate(-85.93)"/>
        <path class="cls-1" d="M242.97,47.9c-1.44,0-2.62,1.17-2.62,2.62s1.17,2.62,2.62,2.62,2.62-1.17,2.62-2.62-1.17-2.62-2.62-2.62Z"/>
        <circle class="cls-1" cx="257.34" cy="40.93" r="2.62"/>
        <path class="cls-1" d="M252.55,47.9c-1.44,0-2.62,1.17-2.62,2.62s1.17,2.62,2.62,2.62,2.62-1.17,2.62-2.62-1.17-2.62-2.62-2.62Z"/>
        <path class="cls-1" d="M266.92,43.55c1.44,0,2.62-1.17,2.62-2.62s-1.17-2.62-2.62-2.62-2.62,1.17-2.62,2.62,1.17,2.62,2.62,2.62Z"/>
        <path class="cls-1" d="M262.13,47.9c-1.44,0-2.62,1.17-2.62,2.62s1.17,2.62,2.62,2.62,2.62-1.17,2.62-2.62-1.17-2.62-2.62-2.62Z"/>
        <path class="cls-1" d="M273.88,40.93c0,1.44,1.17,2.62,2.62,2.62s2.54-1.11,2.6-2.49c-.32-.73-.65-1.46-1-2.18-.44-.35-1-.56-1.6-.56-1.44,0-2.62,1.17-2.62,2.62Z"/>
        <path class="cls-1" d="M271.71,53.13c1.44,0,2.62-1.17,2.62-2.62s-1.17-2.62-2.62-2.62-2.62,1.17-2.62,2.62,1.17,2.62,2.62,2.62Z"/>
        <path class="cls-1" d="M278.67,50.51c0,1.44,1.17,2.62,2.62,2.62.66,0,1.26-.26,1.72-.66-.38-1.53-.81-3.04-1.29-4.52-.14-.02-.29-.04-.43-.04-1.44,0-2.62,1.17-2.62,2.62Z"/>
        <path class="cls-1" d="M145,60.09c0-.71-.28-1.35-.74-1.82-.22,1.34-.4,2.69-.54,4.06.76-.46,1.28-1.28,1.28-2.24Z"/>
        <circle class="cls-1" cx="151.96" cy="60.09" r="2.62"/>
        <path class="cls-1" d="M147.17,67.06c-1.44,0-2.62,1.17-2.62,2.62s1.17,2.62,2.62,2.62,2.62-1.17,2.62-2.62-1.17-2.62-2.62-2.62Z"/>
        <path class="cls-1" d="M161.54,57.48c-1.44,0-2.62,1.17-2.62,2.62s1.17,2.62,2.62,2.62,2.62-1.17,2.62-2.62-1.17-2.62-2.62-2.62Z"/>
        <path class="cls-1" d="M156.75,67.06c-1.44,0-2.62,1.17-2.62,2.62s1.17,2.62,2.62,2.62,2.62-1.17,2.62-2.62-1.17-2.62-2.62-2.62Z"/>
        <path class="cls-1" d="M171.12,62.71c1.44,0,2.62-1.17,2.62-2.62s-1.17-2.62-2.62-2.62-2.62,1.17-2.62,2.62,1.17,2.62,2.62,2.62Z"/>
        <path class="cls-1" d="M166.33,67.06c-1.44,0-2.62,1.17-2.62,2.62s1.17,2.62,2.62,2.62,2.62-1.17,2.62-2.62-1.17-2.62-2.62-2.62Z"/>
        <circle class="cls-1" cx="180.7" cy="60.09" r="2.62"/>
        <path class="cls-1" d="M175.91,72.29c1.44,0,2.62-1.17,2.62-2.62s-1.17-2.62-2.62-2.62-2.62,1.17-2.62,2.62,1.17,2.62,2.62,2.62Z"/>
        <circle class="cls-1" cx="190.28" cy="60.09" r="2.62"/>
        <path class="cls-1" d="M185.49,67.06c-1.44,0-2.62,1.17-2.62,2.62s1.17,2.62,2.62,2.62,2.62-1.17,2.62-2.62-1.17-2.62-2.62-2.62Z"/>
        <path class="cls-1" d="M199.86,57.48c-1.44,0-2.62,1.17-2.62,2.62s1.17,2.62,2.62,2.62,2.62-1.17,2.62-2.62-1.17-2.62-2.62-2.62Z"/>
        <path class="cls-1" d="M195.07,67.06c-1.44,0-2.62,1.17-2.62,2.62s1.17,2.62,2.62,2.62,2.62-1.17,2.62-2.62-1.17-2.62-2.62-2.62Z"/>
        <path class="cls-1" d="M209.44,62.71c1.44,0,2.62-1.17,2.62-2.62s-1.17-2.62-2.62-2.62-2.62,1.17-2.62,2.62,1.17,2.62,2.62,2.62Z"/>
        <path class="cls-1" d="M204.65,67.06c-1.44,0-2.62,1.17-2.62,2.62s1.17,2.62,2.62,2.62,2.62-1.17,2.62-2.62-1.17-2.62-2.62-2.62Z"/>
        <circle class="cls-1" cx="219.02" cy="60.09" r="2.62"/>
        <path class="cls-1" d="M214.23,72.29c1.44,0,2.62-1.17,2.62-2.62s-1.17-2.62-2.62-2.62-2.62,1.17-2.62,2.62,1.17,2.62,2.62,2.62Z"/>
        <path class="cls-1" d="M228.6,57.48c-1.44,0-2.62,1.17-2.62,2.62s1.17,2.62,2.62,2.62,2.62-1.17,2.62-2.62-1.17-2.62-2.62-2.62Z"/>
        <path class="cls-1" d="M223.81,72.29c1.44,0,2.62-1.17,2.62-2.62s-1.17-2.62-2.62-2.62-2.62,1.17-2.62,2.62,1.17,2.62,2.62,2.62Z"/>
        <path class="cls-1" d="M238.18,57.48c-1.44,0-2.62,1.17-2.62,2.62s1.17,2.62,2.62,2.62,2.62-1.17,2.62-2.62-1.17-2.62-2.62-2.62Z"/>
        <path class="cls-1" d="M233.39,67.06c-1.44,0-2.62,1.17-2.62,2.62s1.17,2.62,2.62,2.62,2.62-1.17,2.62-2.62-1.17-2.62-2.62-2.62Z"/>
        <circle class="cls-1" cx="247.76" cy="60.09" r="2.62"/>
        <path class="cls-1" d="M242.97,72.29c1.44,0,2.62-1.17,2.62-2.62s-1.17-2.62-2.62-2.62-2.62,1.17-2.62,2.62,1.17,2.62,2.62,2.62Z"/>
        <circle class="cls-1" cx="257.34" cy="60.09" r="2.62"/>
        <path class="cls-1" d="M252.55,67.06c-1.44,0-2.62,1.17-2.62,2.62s1.17,2.62,2.62,2.62,2.62-1.17,2.62-2.62-1.17-2.62-2.62-2.62Z"/>
        <path class="cls-1" d="M266.92,57.48c-1.44,0-2.62,1.17-2.62,2.62s1.17,2.62,2.62,2.62,2.62-1.17,2.62-2.62-1.17-2.62-2.62-2.62Z"/>
        <path class="cls-1" d="M262.13,72.29c1.44,0,2.62-1.17,2.62-2.62s-1.17-2.62-2.62-2.62-2.62,1.17-2.62,2.62,1.17,2.62,2.62,2.62Z"/>
        <path class="cls-1" d="M276.5,62.71c1.44,0,2.62-1.17,2.62-2.62s-1.17-2.62-2.62-2.62-2.62,1.17-2.62,2.62,1.17,2.62,2.62,2.62Z"/>
        <path class="cls-1" d="M271.71,72.29c1.44,0,2.62-1.17,2.62-2.62s-1.17-2.62-2.62-2.62-2.62,1.17-2.62,2.62,1.17,2.62,2.62,2.62Z"/>
        <path class="cls-1" d="M284.74,62.33c-.14-1.36-.32-2.72-.54-4.06-.46.47-.74,1.11-.74,1.82,0,.95.52,1.78,1.28,2.24Z"/>
        <path class="cls-1" d="M281.29,72.29c1.44,0,2.62-1.17,2.62-2.62s-1.17-2.62-2.62-2.62-2.62,1.17-2.62,2.62,1.17,2.62,2.62,2.62Z"/>
        <path class="cls-1" d="M143.72,77.01c.14,1.36.32,2.72.54,4.06.46-.47.74-1.11.74-1.82,0-.95-.52-1.78-1.28-2.24Z"/>
        <path class="cls-1" d="M151.96,76.64c-1.44,0-2.62,1.17-2.62,2.62s1.17,2.62,2.62,2.62,2.62-1.17,2.62-2.62-1.17-2.62-2.62-2.62Z"/>
        <path class="cls-1" d="M149.79,88.83c0-1.44-1.17-2.62-2.62-2.62-.66,0-1.26.26-1.72.66.38,1.53.81,3.04,1.29,4.52.14.02.29.04.43.04,1.44,0,2.62-1.17,2.62-2.62Z"/>
        <path class="cls-1" d="M161.54,81.87c1.44,0,2.62-1.17,2.62-2.62s-1.17-2.62-2.62-2.62-2.62,1.17-2.62,2.62,1.17,2.62,2.62,2.62Z"/>
        <circle class="cls-1" cx="156.75" cy="88.83" r="2.62" transform="translate(26.45 213.27) rotate(-73.22)"/>
        <path class="cls-1" d="M171.12,81.87c1.44,0,2.62-1.17,2.62-2.62s-1.17-2.62-2.62-2.62-2.62,1.17-2.62,2.62,1.17,2.62,2.62,2.62Z"/>
        <circle class="cls-1" cx="166.33" cy="88.83" r="2.62" transform="translate(-15.89 40.31) rotate(-13.19)"/>
        <path class="cls-1" d="M180.7,81.87c1.44,0,2.62-1.17,2.62-2.62s-1.17-2.62-2.62-2.62-2.62,1.17-2.62,2.62,1.17,2.62,2.62,2.62Z"/>
        <path class="cls-1" d="M175.91,91.45c1.44,0,2.62-1.17,2.62-2.62s-1.17-2.62-2.62-2.62-2.62,1.17-2.62,2.62,1.17,2.62,2.62,2.62Z"/>
        <path class="cls-1" d="M190.28,81.87c1.44,0,2.62-1.17,2.62-2.62s-1.17-2.62-2.62-2.62-2.62,1.17-2.62,2.62,1.17,2.62,2.62,2.62Z"/>
        <path class="cls-1" d="M185.49,91.45c1.44,0,2.62-1.17,2.62-2.62s-1.17-2.62-2.62-2.62-2.62,1.17-2.62,2.62,1.17,2.62,2.62,2.62Z"/>
        <path class="cls-1" d="M199.86,81.87c1.44,0,2.62-1.17,2.62-2.62s-1.17-2.62-2.62-2.62-2.62,1.17-2.62,2.62,1.17,2.62,2.62,2.62Z"/>
        <path class="cls-1" d="M195.07,91.45c1.44,0,2.62-1.17,2.62-2.62s-1.17-2.62-2.62-2.62-2.62,1.17-2.62,2.62,1.17,2.62,2.62,2.62Z"/>
        <path class="cls-1" d="M209.44,81.87c1.44,0,2.62-1.17,2.62-2.62s-1.17-2.62-2.62-2.62-2.62,1.17-2.62,2.62,1.17,2.62,2.62,2.62Z"/>
        <circle class="cls-1" cx="204.65" cy="88.83" r="2.62" transform="translate(-14.87 49.06) rotate(-13.19)"/>
        <path class="cls-1" d="M219.02,81.87c1.44,0,2.62-1.17,2.62-2.62s-1.17-2.62-2.62-2.62-2.62,1.17-2.62,2.62,1.17,2.62,2.62,2.62Z"/>
        <path class="cls-1" d="M214.23,91.45c1.44,0,2.62-1.17,2.62-2.62s-1.17-2.62-2.62-2.62-2.62,1.17-2.62,2.62,1.17,2.62,2.62,2.62Z"/>
        <path class="cls-1" d="M228.6,81.87c1.44,0,2.62-1.17,2.62-2.62s-1.17-2.62-2.62-2.62-2.62,1.17-2.62,2.62,1.17,2.62,2.62,2.62Z"/>
        <path class="cls-1" d="M223.81,91.45c1.44,0,2.62-1.17,2.62-2.62s-1.17-2.62-2.62-2.62-2.62,1.17-2.62,2.62,1.17,2.62,2.62,2.62Z"/>
        <path class="cls-1" d="M238.18,81.87c1.44,0,2.62-1.17,2.62-2.62s-1.17-2.62-2.62-2.62-2.62,1.17-2.62,2.62,1.17,2.62,2.62,2.62Z"/>
        <circle class="cls-1" cx="233.39" cy="88.83" r="2.62" transform="translate(-14.12 55.61) rotate(-13.19)"/>
        <path class="cls-1" d="M247.76,81.87c1.44,0,2.62-1.17,2.62-2.62s-1.17-2.62-2.62-2.62-2.62,1.17-2.62,2.62,1.17,2.62,2.62,2.62Z"/>
        <path class="cls-1" d="M242.97,91.45c1.44,0,2.62-1.17,2.62-2.62s-1.17-2.62-2.62-2.62-2.62,1.17-2.62,2.62,1.17,2.62,2.62,2.62Z"/>
        <path class="cls-1" d="M257.34,76.64c-1.44,0-2.62,1.17-2.62,2.62s1.17,2.62,2.62,2.62,2.62-1.17,2.62-2.62-1.17-2.62-2.62-2.62Z"/>
        <path class="cls-1" d="M252.55,91.45c1.44,0,2.62-1.17,2.62-2.62s-1.17-2.62-2.62-2.62-2.62,1.17-2.62,2.62,1.17,2.62,2.62,2.62Z"/>
        <path class="cls-1" d="M266.92,81.87c1.44,0,2.62-1.17,2.62-2.62s-1.17-2.62-2.62-2.62-2.62,1.17-2.62,2.62,1.17,2.62,2.62,2.62Z"/>
        <circle class="cls-1" cx="262.13" cy="88.83" r="2.62" transform="translate(-13.36 62.17) rotate(-13.19)"/>
        <path class="cls-1" d="M276.5,76.64c-1.44,0-2.62,1.17-2.62,2.62s1.17,2.62,2.62,2.62,2.62-1.17,2.62-2.62-1.17-2.62-2.62-2.62Z"/>
        <path class="cls-1" d="M271.71,86.22c-1.44,0-2.62,1.17-2.62,2.62s1.17,2.62,2.62,2.62,2.62-1.17,2.62-2.62-1.17-2.62-2.62-2.62Z"/>
        <path class="cls-1" d="M283.46,79.25c0,.71.28,1.35.74,1.82.22-1.34.4-2.69.54-4.06-.76.46-1.28,1.28-1.28,2.24Z"/>
        <path class="cls-1" d="M278.67,88.83c0,1.44,1.17,2.62,2.62,2.62.15,0,.29-.02.43-.04.48-1.49.91-3,1.29-4.52-.46-.41-1.06-.66-1.72-.66-1.44,0-2.62,1.17-2.62,2.62Z"/>
        <path class="cls-1" d="M154.58,98.41c0-1.44-1.17-2.62-2.62-2.62s-2.54,1.11-2.6,2.49c.32.73.65,1.46,1,2.17.44.35,1,.56,1.6.56,1.44,0,2.62-1.17,2.62-2.62Z"/>
        <path class="cls-1" d="M161.54,95.8c-1.44,0-2.62,1.17-2.62,2.62s1.17,2.62,2.62,2.62,2.62-1.17,2.62-2.62-1.17-2.62-2.62-2.62Z"/>
        <path class="cls-1" d="M159.37,107.99c0-1.44-1.17-2.62-2.62-2.62-1.24,0-2.27.87-2.54,2.03.68,1.07,1.38,2.13,2.11,3.16.14.02.29.04.43.04,1.44,0,2.62-1.17,2.62-2.62Z"/>
        <path class="cls-1" d="M171.12,101.03c1.44,0,2.62-1.17,2.62-2.62s-1.17-2.62-2.62-2.62-2.62,1.17-2.62,2.62,1.17,2.62,2.62,2.62Z"/>
        <path class="cls-1" d="M166.33,105.38c-1.44,0-2.62,1.17-2.62,2.62s1.17,2.62,2.62,2.62,2.62-1.17,2.62-2.62-1.17-2.62-2.62-2.62Z"/>
        <path class="cls-1" d="M180.7,101.03c1.44,0,2.62-1.17,2.62-2.62s-1.17-2.62-2.62-2.62-2.62,1.17-2.62,2.62,1.17,2.62,2.62,2.62Z"/>
        <path class="cls-1" d="M175.91,105.38c-1.44,0-2.62,1.17-2.62,2.62s1.17,2.62,2.62,2.62,2.62-1.17,2.62-2.62-1.17-2.62-2.62-2.62Z"/>
        <path class="cls-1" d="M190.28,101.03c1.44,0,2.62-1.17,2.62-2.62s-1.17-2.62-2.62-2.62-2.62,1.17-2.62,2.62,1.17,2.62,2.62,2.62Z"/>
        <path class="cls-1" d="M185.49,110.61c1.44,0,2.62-1.17,2.62-2.62s-1.17-2.62-2.62-2.62-2.62,1.17-2.62,2.62,1.17,2.62,2.62,2.62Z"/>
        <path class="cls-1" d="M199.86,101.03c1.44,0,2.62-1.17,2.62-2.62s-1.17-2.62-2.62-2.62-2.62,1.17-2.62,2.62,1.17,2.62,2.62,2.62Z"/>
        <path class="cls-1" d="M195.07,110.61c1.44,0,2.62-1.17,2.62-2.62s-1.17-2.62-2.62-2.62-2.62,1.17-2.62,2.62,1.17,2.62,2.62,2.62Z"/>
        <path class="cls-1" d="M209.44,101.03c1.44,0,2.62-1.17,2.62-2.62s-1.17-2.62-2.62-2.62-2.62,1.17-2.62,2.62,1.17,2.62,2.62,2.62Z"/>
        <path class="cls-1" d="M204.65,110.61c1.44,0,2.62-1.17,2.62-2.62s-1.17-2.62-2.62-2.62-2.62,1.17-2.62,2.62,1.17,2.62,2.62,2.62Z"/>
        <path class="cls-1" d="M219.02,101.03c1.44,0,2.62-1.17,2.62-2.62s-1.17-2.62-2.62-2.62-2.62,1.17-2.62,2.62,1.17,2.62,2.62,2.62Z"/>
        <path class="cls-1" d="M214.23,110.61c1.44,0,2.62-1.17,2.62-2.62s-1.17-2.62-2.62-2.62-2.62,1.17-2.62,2.62,1.17,2.62,2.62,2.62Z"/>
        <path class="cls-1" d="M228.6,101.03c1.44,0,2.62-1.17,2.62-2.62s-1.17-2.62-2.62-2.62-2.62,1.17-2.62,2.62,1.17,2.62,2.62,2.62Z"/>
        <path class="cls-1" d="M223.81,110.61c1.44,0,2.62-1.17,2.62-2.62s-1.17-2.62-2.62-2.62-2.62,1.17-2.62,2.62,1.17,2.62,2.62,2.62Z"/>
        <path class="cls-1" d="M238.18,101.03c1.44,0,2.62-1.17,2.62-2.62s-1.17-2.62-2.62-2.62-2.62,1.17-2.62,2.62,1.17,2.62,2.62,2.62Z"/>
        <path class="cls-1" d="M233.39,110.61c1.44,0,2.62-1.17,2.62-2.62s-1.17-2.62-2.62-2.62-2.62,1.17-2.62,2.62,1.17,2.62,2.62,2.62Z"/>
        <path class="cls-1" d="M247.76,101.03c1.44,0,2.62-1.17,2.62-2.62s-1.17-2.62-2.62-2.62-2.62,1.17-2.62,2.62,1.17,2.62,2.62,2.62Z"/>
        <path class="cls-1" d="M242.97,110.61c1.44,0,2.62-1.17,2.62-2.62s-1.17-2.62-2.62-2.62-2.62,1.17-2.62,2.62,1.17,2.62,2.62,2.62Z"/>
        <path class="cls-1" d="M257.34,101.03c1.44,0,2.62-1.17,2.62-2.62s-1.17-2.62-2.62-2.62-2.62,1.17-2.62,2.62,1.17,2.62,2.62,2.62Z"/>
        <path class="cls-1" d="M252.55,105.38c-1.44,0-2.62,1.17-2.62,2.62s1.17,2.62,2.62,2.62,2.62-1.17,2.62-2.62-1.17-2.62-2.62-2.62Z"/>
        <path class="cls-1" d="M266.92,95.8c-1.44,0-2.62,1.17-2.62,2.62s1.17,2.62,2.62,2.62,2.62-1.17,2.62-2.62-1.17-2.62-2.62-2.62Z"/>
        <path class="cls-1" d="M262.13,105.38c-1.44,0-2.62,1.17-2.62,2.62s1.17,2.62,2.62,2.62,2.62-1.17,2.62-2.62-1.17-2.62-2.62-2.62Z"/>
        <path class="cls-1" d="M276.5,95.8c-1.44,0-2.62,1.17-2.62,2.62s1.17,2.62,2.62,2.62c.61,0,1.16-.22,1.6-.56.35-.72.68-1.44,1-2.17-.06-1.39-1.2-2.49-2.6-2.49Z"/>
        <path class="cls-1" d="M271.71,105.38c-1.44,0-2.62,1.17-2.62,2.62s1.17,2.62,2.62,2.62c.15,0,.29-.02.43-.04.73-1.03,1.43-2.09,2.11-3.16-.27-1.16-1.3-2.03-2.54-2.03Z"/>
        <path class="cls-1" d="M161.54,114.96c-.55,0-1.05.17-1.47.45,1.11,1.32,2.27,2.59,3.48,3.82.37-.45.61-1.03.61-1.66,0-1.44-1.17-2.62-2.62-2.62Z"/>
        <path class="cls-1" d="M171.12,114.96c-1.44,0-2.62,1.17-2.62,2.62s1.17,2.62,2.62,2.62,2.62-1.17,2.62-2.62-1.17-2.62-2.62-2.62Z"/>
        <circle class="cls-1" cx="180.7" cy="117.57" r="2.62"/>
        <path class="cls-1" d="M178.53,127.15c0-1.44-1.17-2.62-2.62-2.62s-2.62,1.17-2.62,2.62c0,.15.02.29.04.43,1.03.73,2.09,1.43,3.16,2.11,1.16-.27,2.03-1.3,2.03-2.54Z"/>
        <circle class="cls-1" cx="190.28" cy="117.57" r="2.62"/>
        <path class="cls-1" d="M185.49,124.54c-1.44,0-2.62,1.17-2.62,2.62s1.17,2.62,2.62,2.62,2.62-1.17,2.62-2.62-1.17-2.62-2.62-2.62Z"/>
        <path class="cls-1" d="M199.86,114.96c-1.44,0-2.62,1.17-2.62,2.62s1.17,2.62,2.62,2.62,2.62-1.17,2.62-2.62-1.17-2.62-2.62-2.62Z"/>
        <path class="cls-1" d="M195.07,124.54c-1.44,0-2.62,1.17-2.62,2.62s1.17,2.62,2.62,2.62,2.62-1.17,2.62-2.62-1.17-2.62-2.62-2.62Z"/>
        <path class="cls-1" d="M209.44,120.19c1.44,0,2.62-1.17,2.62-2.62s-1.17-2.62-2.62-2.62-2.62,1.17-2.62,2.62,1.17,2.62,2.62,2.62Z"/>
        <circle class="cls-1" cx="204.65" cy="127.15" r="2.62" transform="translate(-11.53 20.78) rotate(-5.65)"/>
        <circle class="cls-1" cx="219.02" cy="117.57" r="2.62"/>
        <path class="cls-1" d="M214.23,124.54c-1.44,0-2.62,1.17-2.62,2.62s1.17,2.62,2.62,2.62,2.62-1.17,2.62-2.62-1.17-2.62-2.62-2.62Z"/>
        <path class="cls-1" d="M228.6,114.96c-1.44,0-2.62,1.17-2.62,2.62s1.17,2.62,2.62,2.62,2.62-1.17,2.62-2.62-1.17-2.62-2.62-2.62Z"/>
        <path class="cls-1" d="M223.81,124.54c-1.44,0-2.62,1.17-2.62,2.62s1.17,2.62,2.62,2.62,2.62-1.17,2.62-2.62-1.17-2.62-2.62-2.62Z"/>
        <path class="cls-1" d="M238.18,114.96c-1.44,0-2.62,1.17-2.62,2.62s1.17,2.62,2.62,2.62,2.62-1.17,2.62-2.62-1.17-2.62-2.62-2.62Z"/>
        <circle class="cls-1" cx="233.39" cy="127.15" r="2.62" transform="translate(-11.39 23.62) rotate(-5.65)"/>
        <circle class="cls-1" cx="247.76" cy="117.57" r="2.62"/>
        <path class="cls-1" d="M242.97,124.54c-1.44,0-2.62,1.17-2.62,2.62s1.17,2.62,2.62,2.62,2.62-1.17,2.62-2.62-1.17-2.62-2.62-2.62Z"/>
        <circle class="cls-1" cx="257.34" cy="117.57" r="2.62"/>
        <path class="cls-1" d="M252.55,124.54c-1.44,0-2.62,1.17-2.62,2.62,0,1.24.87,2.27,2.03,2.54,1.07-.68,2.13-1.38,3.16-2.11.02-.14.04-.29.04-.43,0-1.44-1.17-2.62-2.62-2.62Z"/>
        <path class="cls-1" d="M264.3,117.57c0,.63.23,1.21.61,1.66,1.2-1.23,2.36-2.51,3.48-3.82-.42-.29-.92-.45-1.47-.45-1.44,0-2.62,1.17-2.62,2.62Z"/>
        <path class="cls-1" d="M190.28,134.12c-1.01,0-1.88.58-2.31,1.42,1.6.64,3.22,1.22,4.87,1.74.04-.18.06-.36.06-.54,0-1.44-1.17-2.62-2.62-2.62Z"/>
        <path class="cls-1" d="M202.47,136.73c0-1.44-1.17-2.62-2.62-2.62s-2.62,1.17-2.62,2.62c0,.82.38,1.53.97,2.01.78.18,1.56.34,2.35.49,1.1-.31,1.92-1.31,1.92-2.51Z"/>
        <path class="cls-1" d="M209.44,134.12c-1.44,0-2.62,1.17-2.62,2.62s1.17,2.62,2.62,2.62,2.62-1.17,2.62-2.62-1.17-2.62-2.62-2.62Z"/>
        <path class="cls-1" d="M219.02,134.12c-1.44,0-2.62,1.17-2.62,2.62s1.17,2.62,2.62,2.62,2.62-1.17,2.62-2.62-1.17-2.62-2.62-2.62Z"/>
        <path class="cls-1" d="M231.21,136.73c0-1.44-1.17-2.62-2.62-2.62s-2.62,1.17-2.62,2.62c0,1.2.81,2.2,1.92,2.51.79-.15,1.57-.32,2.35-.49.59-.48.97-1.2.97-2.01Z"/>
        <path class="cls-1" d="M238.18,134.12c-1.44,0-2.62,1.17-2.62,2.62,0,.19.02.37.06.54,1.65-.52,3.27-1.1,4.87-1.74-.44-.84-1.3-1.42-2.31-1.42Z"/>
      </g>
    </g>
  </g>
</svg>