<?xml version="1.0" encoding="UTF-8"?>
<svg id="_レイヤー_2" data-name="レイヤー 2" xmlns="http://www.w3.org/2000/svg" viewBox="0 0 607.81 384.36">
  <defs>
    <style>
      .cls-1, .cls-2 {
        fill: none;
      }

      .cls-3 {
        fill: #fff;
      }

      .cls-2 {
        stroke: #00913a;
        stroke-linecap: round;
        stroke-linejoin: round;
        stroke-width: 4.75px;
      }
    </style>
  </defs>
  <g id="_レイヤー_1-2" data-name="レイヤー 1">
    <g>
      <g>
        <g>
          <path class="cls-2" d="M23.26,20h66.18c14.41,0,25.21,3.43,32.39,10.28,7.18,6.86,10.77,16.61,10.77,29.27s-3.91,23.17-11.73,30.5c-7.82,7.33-19.76,10.99-35.82,10.99h-21.8v47.81H23.26V20ZM63.25,74.93h9.76c7.68,0,13.07-1.33,16.17-4,3.1-2.67,4.66-6.08,4.66-10.24s-1.35-7.47-4.04-10.28c-2.7-2.81-7.76-4.22-15.21-4.22h-11.34v28.74Z"/>
          <path class="cls-2" d="M169.41,55.51h33.49v15.29c3.22-6.62,6.55-11.18,9.98-13.67,3.43-2.49,7.66-3.74,12.7-3.74s11.04,1.64,17.31,4.92l-11.07,25.49c-4.22-1.76-7.56-2.64-10.02-2.64-4.69,0-8.32,1.93-10.9,5.8-3.69,5.45-5.54,15.64-5.54,30.59v31.29h-35.95V55.51Z"/>
          <path class="cls-2" d="M268.27,20h35.77v24.35h-35.77v-24.35ZM268.27,55.51h35.77v93.34h-35.77V55.51Z"/>
          <path class="cls-2" d="M414.5,112.29l34.01,3.87c-1.88,7.09-4.95,13.23-9.23,18.41-4.28,5.19-9.74,9.21-16.39,12.08-6.65,2.87-15.1,4.31-25.36,4.31s-18.15-.92-24.74-2.77c-6.59-1.84-12.26-4.83-17.01-8.96-4.75-4.13-8.47-8.97-11.16-14.53-2.7-5.56-4.04-12.94-4.04-22.13s1.64-17.59,4.92-23.97c2.4-4.68,5.68-8.88,9.84-12.6,4.16-3.72,8.44-6.48,12.83-8.3,6.97-2.87,15.91-4.3,26.81-4.3,15.23,0,26.85,2.72,34.85,8.17s13.61,13.42,16.83,23.91l-33.66,4.48c-1.05-3.98-2.97-6.99-5.76-9.01-2.78-2.02-6.52-3.03-11.21-3.03-5.92,0-10.71,2.12-14.37,6.36-3.66,4.24-5.49,10.66-5.49,19.26,0,7.66,1.82,13.48,5.45,17.46,3.63,3.98,8.26,5.97,13.89,5.97,4.69,0,8.63-1.2,11.82-3.6,3.19-2.4,5.58-6.09,7.16-11.07Z"/>
          <path class="cls-2" d="M586.57,111.05h-71.72c.64,5.74,2.2,10.02,4.66,12.83,3.46,4.04,7.97,6.06,13.54,6.06,3.52,0,6.86-.88,10.02-2.64,1.93-1.11,4.01-3.08,6.24-5.89l35.24,3.25c-5.39,9.38-11.9,16.1-19.51,20.17-7.62,4.07-18.54,6.11-32.78,6.11-12.36,0-22.09-1.74-29.18-5.23-7.09-3.49-12.96-9.02-17.62-16.61-4.66-7.59-6.99-16.51-6.99-26.76,0-14.59,4.67-26.4,14.02-35.42,9.35-9.02,22.25-13.54,38.72-13.54,13.36,0,23.91,2.02,31.64,6.06s13.62,9.9,17.67,17.58c4.04,7.68,6.06,17.67,6.06,29.97v4.04ZM550.18,93.92c-.7-6.91-2.56-11.87-5.58-14.85-3.02-2.99-6.99-4.48-11.91-4.48-5.68,0-10.23,2.26-13.62,6.77-2.17,2.81-3.55,7-4.13,12.57h35.24Z"/>
          <path class="cls-2" d="M21.24,364.36v-128.85h33.49v13.8c4.63-5.8,8.88-9.73,12.74-11.78,5.21-2.75,10.99-4.13,17.31-4.13,12.48,0,22.13,4.78,28.96,14.33,6.83,9.55,10.24,21.36,10.24,35.42,0,15.53-3.72,27.38-11.16,35.55-7.44,8.17-16.85,12.26-28.21,12.26-5.51,0-10.53-.94-15.07-2.81-4.54-1.88-8.6-4.66-12.17-8.35v44.56H21.24ZM57.1,282.44c0,7.38,1.55,12.86,4.66,16.44,3.1,3.57,7.03,5.36,11.78,5.36,4.16,0,7.65-1.71,10.46-5.14s4.22-9.24,4.22-17.45c0-7.56-1.47-13.11-4.39-16.66-2.93-3.54-6.5-5.32-10.72-5.32-4.57,0-8.38,1.79-11.43,5.36-3.05,3.57-4.57,9.38-4.57,17.4Z"/>
          <path class="cls-2" d="M160.35,200h35.86v128.85h-35.86v-128.85Z"/>
          <path class="cls-2" d="M269.67,265.74l-34.19-3.6c1.29-5.98,3.15-10.68,5.58-14.11,2.43-3.43,5.93-6.4,10.5-8.92,3.28-1.82,7.79-3.22,13.54-4.22,5.74-1,11.95-1.49,18.63-1.49,10.72,0,19.34.6,25.84,1.8,6.5,1.2,11.92,3.71,16.26,7.51,3.05,2.64,5.45,6.37,7.21,11.21s2.64,9.45,2.64,13.84v41.22c0,4.39.28,7.84.83,10.33.56,2.49,1.77,5.67,3.65,9.54h-33.57c-1.35-2.4-2.23-4.23-2.64-5.49-.41-1.26-.82-3.24-1.23-5.93-4.69,4.51-9.35,7.73-13.97,9.67-6.33,2.58-13.68,3.87-22.06,3.87-11.13,0-19.59-2.58-25.36-7.73-5.77-5.16-8.66-11.51-8.66-19.07,0-7.09,2.08-12.92,6.24-17.49,4.16-4.57,11.83-7.97,23.03-10.2,13.42-2.69,22.12-4.58,26.1-5.67,3.98-1.08,8.2-2.5,12.66-4.26,0-4.39-.91-7.47-2.72-9.23-1.82-1.76-5.01-2.64-9.58-2.64-5.86,0-10.25.94-13.18,2.81-2.29,1.46-4.13,4.22-5.54,8.26ZM300.7,284.55c-4.92,1.76-10.05,3.31-15.38,4.66-7.27,1.93-11.87,3.84-13.8,5.71-1.99,1.93-2.99,4.13-2.99,6.59,0,2.81.98,5.11,2.94,6.9,1.96,1.79,4.85,2.68,8.66,2.68s7.69-.97,11.12-2.9,5.86-4.29,7.29-7.08c1.44-2.78,2.15-6.4,2.15-10.85v-5.71Z"/>
          <path class="cls-2" d="M375.12,235.51h33.31v15.21c4.98-6.21,10.02-10.65,15.12-13.32,5.1-2.67,11.31-4,18.63-4,9.9,0,17.65,2.94,23.25,8.83,5.59,5.89,8.39,14.99,8.39,27.29v59.33h-35.95v-51.33c0-5.86-1.08-10-3.25-12.44-2.17-2.43-5.22-3.65-9.14-3.65-4.34,0-7.85,1.64-10.55,4.92-2.7,3.28-4.04,9.17-4.04,17.67v44.82h-35.77v-93.34Z"/>
        </g>
        <g>
          <path class="cls-3" d="M23.26,20h66.18c14.41,0,25.21,3.43,32.39,10.28,7.18,6.86,10.77,16.61,10.77,29.27s-3.91,23.17-11.73,30.5c-7.82,7.33-19.76,10.99-35.82,10.99h-21.8v47.81H23.26V20ZM63.25,74.93h9.76c7.68,0,13.07-1.33,16.17-4,3.1-2.67,4.66-6.08,4.66-10.24s-1.35-7.47-4.04-10.28c-2.7-2.81-7.76-4.22-15.21-4.22h-11.34v28.74Z"/>
          <path class="cls-3" d="M169.41,55.51h33.49v15.29c3.22-6.62,6.55-11.18,9.98-13.67,3.43-2.49,7.66-3.74,12.7-3.74s11.04,1.64,17.31,4.92l-11.07,25.49c-4.22-1.76-7.56-2.64-10.02-2.64-4.69,0-8.32,1.93-10.9,5.8-3.69,5.45-5.54,15.64-5.54,30.59v31.29h-35.95V55.51Z"/>
          <path class="cls-3" d="M268.27,20h35.77v24.35h-35.77v-24.35ZM268.27,55.51h35.77v93.34h-35.77V55.51Z"/>
          <path class="cls-3" d="M414.5,112.29l34.01,3.87c-1.88,7.09-4.95,13.23-9.23,18.41-4.28,5.19-9.74,9.21-16.39,12.08-6.65,2.87-15.1,4.31-25.36,4.31s-18.15-.92-24.74-2.77c-6.59-1.84-12.26-4.83-17.01-8.96-4.75-4.13-8.47-8.97-11.16-14.53-2.7-5.56-4.04-12.94-4.04-22.13s1.64-17.59,4.92-23.97c2.4-4.68,5.68-8.88,9.84-12.6,4.16-3.72,8.44-6.48,12.83-8.3,6.97-2.87,15.91-4.3,26.81-4.3,15.23,0,26.85,2.72,34.85,8.17s13.61,13.42,16.83,23.91l-33.66,4.48c-1.05-3.98-2.97-6.99-5.76-9.01-2.78-2.02-6.52-3.03-11.21-3.03-5.92,0-10.71,2.12-14.37,6.36-3.66,4.24-5.49,10.66-5.49,19.26,0,7.66,1.82,13.48,5.45,17.46,3.63,3.98,8.26,5.97,13.89,5.97,4.69,0,8.63-1.2,11.82-3.6,3.19-2.4,5.58-6.09,7.16-11.07Z"/>
          <path class="cls-3" d="M586.57,111.05h-71.72c.64,5.74,2.2,10.02,4.66,12.83,3.46,4.04,7.97,6.06,13.54,6.06,3.52,0,6.86-.88,10.02-2.64,1.93-1.11,4.01-3.08,6.24-5.89l35.24,3.25c-5.39,9.38-11.9,16.1-19.51,20.17-7.62,4.07-18.54,6.11-32.78,6.11-12.36,0-22.09-1.74-29.18-5.23-7.09-3.49-12.96-9.02-17.62-16.61-4.66-7.59-6.99-16.51-6.99-26.76,0-14.59,4.67-26.4,14.02-35.42,9.35-9.02,22.25-13.54,38.72-13.54,13.36,0,23.91,2.02,31.64,6.06s13.62,9.9,17.67,17.58c4.04,7.68,6.06,17.67,6.06,29.97v4.04ZM550.18,93.92c-.7-6.91-2.56-11.87-5.58-14.85-3.02-2.99-6.99-4.48-11.91-4.48-5.68,0-10.23,2.26-13.62,6.77-2.17,2.81-3.55,7-4.13,12.57h35.24Z"/>
          <path class="cls-3" d="M21.24,364.36v-128.85h33.49v13.8c4.63-5.8,8.88-9.73,12.74-11.78,5.21-2.75,10.99-4.13,17.31-4.13,12.48,0,22.13,4.78,28.96,14.33,6.83,9.55,10.24,21.36,10.24,35.42,0,15.53-3.72,27.38-11.16,35.55-7.44,8.17-16.85,12.26-28.21,12.26-5.51,0-10.53-.94-15.07-2.81-4.54-1.88-8.6-4.66-12.17-8.35v44.56H21.24ZM57.1,282.44c0,7.38,1.55,12.86,4.66,16.44,3.1,3.57,7.03,5.36,11.78,5.36,4.16,0,7.65-1.71,10.46-5.14s4.22-9.24,4.22-17.45c0-7.56-1.47-13.11-4.39-16.66-2.93-3.54-6.5-5.32-10.72-5.32-4.57,0-8.38,1.79-11.43,5.36-3.05,3.57-4.57,9.38-4.57,17.4Z"/>
          <path class="cls-3" d="M160.35,200h35.86v128.85h-35.86v-128.85Z"/>
          <path class="cls-3" d="M269.67,265.74l-34.19-3.6c1.29-5.98,3.15-10.68,5.58-14.11,2.43-3.43,5.93-6.4,10.5-8.92,3.28-1.82,7.79-3.22,13.54-4.22,5.74-1,11.95-1.49,18.63-1.49,10.72,0,19.34.6,25.84,1.8,6.5,1.2,11.92,3.71,16.26,7.51,3.05,2.64,5.45,6.37,7.21,11.21s2.64,9.45,2.64,13.84v41.22c0,4.39.28,7.84.83,10.33.56,2.49,1.77,5.67,3.65,9.54h-33.57c-1.35-2.4-2.23-4.23-2.64-5.49-.41-1.26-.82-3.24-1.23-5.93-4.69,4.51-9.35,7.73-13.97,9.67-6.33,2.58-13.68,3.87-22.06,3.87-11.13,0-19.59-2.58-25.36-7.73-5.77-5.16-8.66-11.51-8.66-19.07,0-7.09,2.08-12.92,6.24-17.49,4.16-4.57,11.83-7.97,23.03-10.2,13.42-2.69,22.12-4.58,26.1-5.67,3.98-1.08,8.2-2.5,12.66-4.26,0-4.39-.91-7.47-2.72-9.23-1.82-1.76-5.01-2.64-9.58-2.64-5.86,0-10.25.94-13.18,2.81-2.29,1.46-4.13,4.22-5.54,8.26ZM300.7,284.55c-4.92,1.76-10.05,3.31-15.38,4.66-7.27,1.93-11.87,3.84-13.8,5.71-1.99,1.93-2.99,4.13-2.99,6.59,0,2.81.98,5.11,2.94,6.9,1.96,1.79,4.85,2.68,8.66,2.68s7.69-.97,11.12-2.9,5.86-4.29,7.29-7.08c1.44-2.78,2.15-6.4,2.15-10.85v-5.71Z"/>
          <path class="cls-3" d="M375.12,235.51h33.31v15.21c4.98-6.21,10.02-10.65,15.12-13.32,5.1-2.67,11.31-4,18.63-4,9.9,0,17.65,2.94,23.25,8.83,5.59,5.89,8.39,14.99,8.39,27.29v59.33h-35.95v-51.33c0-5.86-1.08-10-3.25-12.44-2.17-2.43-5.22-3.65-9.14-3.65-4.34,0-7.85,1.64-10.55,4.92-2.7,3.28-4.04,9.17-4.04,17.67v44.82h-35.77v-93.34Z"/>
        </g>
      </g>
      <rect class="cls-1" width="607.81" height="384.36"/>
    </g>
  </g>
</svg>