<?xml version="1.0" encoding="UTF-8"?>
<svg id="_レイヤー_2" data-name="レイヤー 2" xmlns="http://www.w3.org/2000/svg" viewBox="0 0 337.13 33.76">
  <defs>
    <style>
      .cls-1 {
        fill: #00913a;
      }
    </style>
  </defs>
  <g id="_レイヤー_1-2" data-name="レイヤー 1">
    <g>
      <path class="cls-1" d="M.1,22.79c2.09-1.73,2.71-2.41,4.07-4.57H.38v-7.09h4.76v-.72H1.36c-.28-2.27-.8-5.33-1.36-7.88h4.1c.1.58.17.97.17,1.15l.31,1.98c.07.5.24,1.44.49,2.81V.83h6.78v7.13c.42-2.27.45-2.63.83-5.51h3.65v-.76c1.91.54,2.19.61,6.85,2.05v7.7c-2.64-.9-3.86-1.3-6.85-2.12V2.81c-.24,1.76-.66,4.32-1.22,7.59h-3.27v.72h3.69v7.09h-3.69v.5l3.62,2.2v8.1c-1.84-1.15-2.05-1.3-3.62-2.3v7.06h-6.71v-6.05c-1.74,2.38-2.82,3.42-5.04,4.9v-9.83ZM23.89,20.66V.83h7.02v19.29l1.88-.11v7.34l-1.88.18v6.23h-7.02v-5.65l-7.82.72v-7.56l7.82-.61ZM16.34,10.62l3.58,1.08c1.43.4,1.53.43,3.27,1.01v7.67c-.8-.25-1.43-.43-1.81-.58-1.91-.61-3.2-1.01-3.62-1.12-.17-.07-.76-.21-1.43-.36v-7.7Z"/>
      <path class="cls-1" d="M58.77.9c2.36,2.81,7.62,6.08,11.82,7.38v7.78c-2.4-.76-3.3-1.08-5.29-1.98v1.37h-6.78v1.08h10.57v6.37h-10.57v3.96h1.25l1.5-3.06h7.55l-1.88,3.06h3.23v6.7h-31.23v-6.7h3.23l-1.91-3.06h7.48l1.56,3.06h1.25v-3.96h-10.54v-6.37h10.54v-1.08h-6.68v-1.51c-2.29,1.19-3.3,1.58-5.29,2.05v-7.7c4.97-1.84,9.53-4.64,11.82-7.38h8.35ZM57.48,9.4c-1.36-.9-1.98-1.44-2.92-2.45-1.01,1.04-1.53,1.51-2.78,2.45h5.7Z"/>
      <path class="cls-1" d="M78.34,2.48h21.94c-.31,1.15-.38,1.73-.38,2.48,0,3.13,2.36,5.54,5.42,5.54.56,0,1.08-.07,2.09-.32-.31,10.55-.63,12.27-2.99,16.23-3.37,4.82-7.23,6.26-16.83,6.15h-7.06v-8.17h6.68c3.51,0,4.8-.14,6.22-.68,1.98-.72,3.65-2.27,4.28-3.96.38-1.04.73-4.64.73-7.85,0-.22,0-.58-.04-1.15h-20.06V2.48ZM110.02,4.75c0,2.66-2.05,4.79-4.59,4.79s-4.63-2.12-4.63-4.82,2.09-4.72,4.69-4.72c2.47,0,4.52,2.16,4.52,4.75ZM103.66,4.75c0,1.01.8,1.84,1.77,1.84s1.77-.83,1.77-1.84-.8-1.84-1.81-1.84c-.94,0-1.74.83-1.74,1.84Z"/>
      <path class="cls-1" d="M117.15,10.69h28.65c.03,9.72-.28,12.63-1.67,15.69-1.84,4.1-7.48,6.84-13.91,6.8h-11.93v-7.85h9.7c7.06-.14,9.39-1.87,9.28-6.98h-20.13v-7.67ZM118.3,1.58h26.01v7.45h-26.01V1.58Z"/>
      <path class="cls-1" d="M154.46,24.37h12.31c3.41-.04,5.91-.86,7.37-2.41,1.29-1.51,1.5-2.48,1.5-6.84V5.62h8.62v11.91c0,5.29-.97,8.14-3.62,10.94-2.75,2.81-6.85,4.36-11.65,4.36h-14.54v-8.46ZM170.36,14.69c-3.9-1.3-9.95-2.95-15.61-4.28V2.02c7.62,1.69,9.46,2.2,15.61,3.96v8.71Z"/>
      <path class="cls-1" d="M193.9,33.55c-.52-5.47-.7-8.5-.7-12.31,0-4.9.31-10.22,1.11-19.19h7.72l-.1,1.08c0,.36-.17,2.2-.45,5.47-.31,3.31-.49,7.88-.49,11.63,0,4.82.21,9,.63,13.32h-7.72ZM223.46,32.5c-1.74.11-2.54.14-4.66.14-7.41,0-9.42-.25-11.34-1.37-2.57-1.51-3.96-3.96-3.96-6.98,0-2.34.56-4.39,1.91-6.91h7.44c-1.43,3.02-1.56,3.46-1.56,4.68,0,2.3,1.29,2.99,5.53,2.99,1.7,0,4.59-.07,6.64-.14v7.59ZM204.85,3.89l17.7-.11v7.49h-17.7V3.89Z"/>
      <path class="cls-1" d="M230.44,3.82l13.39-.29,3.58-.07c4.8,0,7.89.76,9.84,2.45,2.68,2.3,4.17,6.33,4.17,11.27s-1.46,8.42-4.52,11.27c-3.06,2.81-6.4,3.78-13.39,3.89l-10.88.18v-8.06l9.67-.07c4.17,0,6.33-.32,7.79-1.12,1.77-.94,2.96-3.42,2.96-6.26s-1.22-4.68-3.44-5.29c-1.01-.25-2.68-.36-6.29-.36-.1,0-.59,0-1.18.04l-11.68.25V3.82Z"/>
      <path class="cls-1" d="M276.9,19.19c0,4.57.03,4.82.7,4.82.87,0,2.02-.61,5.88-3.1v8.71c-4.56,2.52-6.61,3.35-8.48,3.35-2.4,0-4.42-1.37-5.22-3.6-.56-1.51-.83-3.53-.83-6.23V2.84h7.96v16.34ZM291.37,18.21c.07-5.4-.24-5.69-5.88-5.72v-7.63c1.29-.11,1.95-.14,2.96-.14,4.35,0,6.5.65,8.17,2.41,1.95,2.09,2.64,4.54,2.68,9.32l.07,14.25h-7.96l-.03-12.49Z"/>
      <path class="cls-1" d="M307.54,2.63l29.59-.5v7.74c-4.52.76-6.75,1.51-9.7,3.38-3.48,2.16-4.87,4.32-4.87,7.56,0,3.6,1.88,4.93,7.06,4.93l6.4.04v7.81h-5.25c-5.08,0-9.42-.86-11.65-2.34-3.3-2.12-4.97-5.36-4.97-9.61,0-3.13.83-5.65,2.71-8.06,1.32-1.76,2.33-2.59,4.62-3.81l-13.94.5V2.63Z"/>
    </g>
  </g>
</svg>