<?xml version="1.0" encoding="UTF-8"?>
<svg id="_レイヤー_2" data-name="レイヤー 2" xmlns="http://www.w3.org/2000/svg" viewBox="0 0 665.97 352.49">
  <defs>
    <style>
      .cls-1, .cls-2 {
        fill: none;
      }

      .cls-3 {
        fill: #fff;
      }

      .cls-2 {
        stroke: #00913a;
        stroke-linecap: round;
        stroke-linejoin: round;
        stroke-width: 4.75px;
      }
    </style>
  </defs>
  <g id="_レイヤー_1-2" data-name="レイヤー 1">
    <g>
      <g>
        <g>
          <path class="cls-2" d="M116.5,20.77h39.73v76.77c0,7.61-1.19,14.8-3.56,21.56-2.37,6.76-6.09,12.68-11.16,17.74-5.07,5.06-10.39,8.62-15.95,10.67-7.73,2.87-17.02,4.3-27.86,4.3-6.27,0-13.11-.44-20.52-1.32-7.41-.88-13.61-2.62-18.59-5.23-4.98-2.6-9.54-6.31-13.67-11.11-4.13-4.8-6.96-9.75-8.48-14.84-2.46-8.2-3.69-15.46-3.69-21.78V20.77h39.73v78.59c0,7.03,1.95,12.52,5.84,16.47,3.9,3.95,9.3,5.93,16.22,5.93s12.23-1.95,16.13-5.84c3.9-3.89,5.84-9.41,5.84-16.55V20.77Z"/>
          <path class="cls-2" d="M191.9,123.69l35.51-3.34c1.46,4.22,3.52,7.24,6.15,9.05,2.64,1.82,6.15,2.72,10.55,2.72,4.8,0,8.53-1.02,11.16-3.07,2.05-1.52,3.08-3.42,3.08-5.7,0-2.57-1.35-4.56-4.04-5.97-1.93-.99-7.06-2.22-15.38-3.69-12.42-2.16-21.05-4.17-25.88-6.01-4.83-1.84-8.91-4.96-12.22-9.35-3.31-4.39-4.97-9.39-4.97-15.01,0-6.15,1.79-11.44,5.36-15.89,3.57-4.45,8.5-7.77,14.77-9.96,6.27-2.19,14.68-3.29,25.22-3.29,11.13,0,19.35.85,24.65,2.55,5.3,1.7,9.73,4.34,13.27,7.91,3.54,3.57,6.49,8.41,8.83,14.5l-33.93,3.34c-.88-2.99-2.34-5.19-4.39-6.59-2.81-1.87-6.21-2.81-10.2-2.81s-6.99.72-8.83,2.15c-1.85,1.43-2.77,3.17-2.77,5.22,0,2.28,1.17,4.01,3.52,5.18,2.34,1.17,7.44,2.22,15.29,3.16,11.89,1.35,20.74,3.22,26.54,5.62s10.24,5.82,13.32,10.27c3.08,4.45,4.61,9.34,4.61,14.66s-1.63,10.62-4.88,15.72c-3.25,5.09-8.38,9.15-15.38,12.16-7,3.01-16.54,4.52-28.61,4.52-17.05,0-29.19-2.43-36.43-7.29-7.24-4.86-11.88-11.78-13.93-20.74Z"/>
          <path class="cls-2" d="M429.8,111.82h-71.72c.64,5.74,2.2,10.02,4.66,12.83,3.46,4.04,7.97,6.06,13.54,6.06,3.52,0,6.86-.88,10.02-2.64,1.93-1.11,4.01-3.08,6.24-5.89l35.24,3.25c-5.39,9.38-11.9,16.1-19.51,20.17-7.62,4.07-18.54,6.11-32.78,6.11-12.36,0-22.09-1.74-29.18-5.23-7.09-3.49-12.96-9.02-17.62-16.61-4.66-7.59-6.99-16.51-6.99-26.76,0-14.59,4.67-26.4,14.02-35.42,9.35-9.02,22.25-13.54,38.72-13.54,13.36,0,23.91,2.02,31.64,6.06s13.62,9.9,17.67,17.58c4.04,7.68,6.06,17.67,6.06,29.97v4.04ZM393.41,94.68c-.7-6.91-2.56-11.87-5.58-14.85-3.02-2.99-6.99-4.48-11.91-4.48-5.68,0-10.23,2.26-13.62,6.77-2.17,2.81-3.55,7-4.13,12.57h35.24Z"/>
          <path class="cls-2" d="M464.59,56.27h33.49v15.29c3.22-6.62,6.55-11.18,9.98-13.67,3.43-2.49,7.66-3.74,12.7-3.74s11.04,1.64,17.31,4.92l-11.07,25.49c-4.22-1.76-7.56-2.64-10.02-2.64-4.69,0-8.32,1.93-10.9,5.8-3.69,5.45-5.54,15.64-5.54,30.59v31.29h-35.95V56.27Z"/>
          <path class="cls-2" d="M20,200.77h41.62l29,92.72,28.63-92.72h40.41l-47.84,128.85h-43.15L20,200.77Z"/>
          <path class="cls-2" d="M183.9,283.21c0-14.24,4.8-25.97,14.41-35.2,9.61-9.23,22.59-13.84,38.94-13.84,18.69,0,32.81,5.42,42.36,16.26,7.68,8.73,11.51,19.48,11.51,32.26,0,14.36-4.76,26.12-14.28,35.29-9.52,9.17-22.69,13.75-39.51,13.75-15,0-27.13-3.81-36.39-11.43-11.37-9.43-17.05-21.8-17.05-37.09ZM219.76,283.12c0,8.32,1.68,14.47,5.05,18.46,3.37,3.99,7.6,5.98,12.7,5.98s9.39-1.96,12.7-5.89c3.31-3.92,4.97-10.22,4.97-18.9,0-8.09-1.67-14.11-5.01-18.06s-7.47-5.93-12.39-5.93c-5.22,0-9.52,2.01-12.92,6.02-3.4,4.01-5.1,10.12-5.1,18.33Z"/>
          <path class="cls-2" d="M327.67,200.77h35.77v24.35h-35.77v-24.35ZM327.67,236.27h35.77v93.34h-35.77v-93.34Z"/>
          <path class="cls-2" d="M473.9,293.05l34.01,3.87c-1.88,7.09-4.95,13.23-9.23,18.41-4.28,5.19-9.74,9.21-16.39,12.08-6.65,2.87-15.1,4.31-25.36,4.31s-18.15-.92-24.74-2.77c-6.59-1.84-12.26-4.83-17.01-8.96-4.75-4.13-8.47-8.97-11.16-14.53-2.7-5.56-4.04-12.94-4.04-22.13s1.64-17.59,4.92-23.97c2.4-4.68,5.68-8.88,9.84-12.6,4.16-3.72,8.44-6.48,12.83-8.3,6.97-2.87,15.91-4.3,26.81-4.3,15.23,0,26.85,2.72,34.85,8.17s13.61,13.42,16.83,23.91l-33.66,4.48c-1.05-3.98-2.97-6.99-5.76-9.01-2.78-2.02-6.52-3.03-11.21-3.03-5.92,0-10.71,2.12-14.37,6.36-3.66,4.24-5.49,10.66-5.49,19.26,0,7.66,1.82,13.48,5.45,17.46,3.63,3.98,8.26,5.97,13.89,5.97,4.69,0,8.63-1.2,11.82-3.6,3.19-2.4,5.58-6.09,7.16-11.07Z"/>
          <path class="cls-2" d="M645.97,291.82h-71.72c.64,5.74,2.2,10.02,4.66,12.83,3.46,4.04,7.97,6.06,13.54,6.06,3.52,0,6.86-.88,10.02-2.64,1.93-1.11,4.01-3.08,6.24-5.89l35.24,3.25c-5.39,9.38-11.9,16.1-19.51,20.17-7.62,4.07-18.54,6.11-32.78,6.11-12.36,0-22.09-1.74-29.18-5.23-7.09-3.49-12.96-9.02-17.62-16.61-4.66-7.59-6.99-16.51-6.99-26.76,0-14.59,4.67-26.4,14.02-35.42,9.35-9.02,22.25-13.54,38.72-13.54,13.36,0,23.91,2.02,31.64,6.06s13.62,9.9,17.67,17.58c4.04,7.68,6.06,17.67,6.06,29.97v4.04ZM609.59,274.68c-.7-6.91-2.56-11.87-5.58-14.85-3.02-2.99-6.99-4.48-11.91-4.48-5.68,0-10.23,2.26-13.62,6.77-2.17,2.81-3.55,7-4.13,12.57h35.24Z"/>
        </g>
        <g>
          <path class="cls-3" d="M116.5,20.77h39.73v76.77c0,7.61-1.19,14.8-3.56,21.56-2.37,6.76-6.09,12.68-11.16,17.74-5.07,5.06-10.39,8.62-15.95,10.67-7.73,2.87-17.02,4.3-27.86,4.3-6.27,0-13.11-.44-20.52-1.32-7.41-.88-13.61-2.62-18.59-5.23-4.98-2.6-9.54-6.31-13.67-11.11-4.13-4.8-6.96-9.75-8.48-14.84-2.46-8.2-3.69-15.46-3.69-21.78V20.77h39.73v78.59c0,7.03,1.95,12.52,5.84,16.47,3.9,3.95,9.3,5.93,16.22,5.93s12.23-1.95,16.13-5.84c3.9-3.89,5.84-9.41,5.84-16.55V20.77Z"/>
          <path class="cls-3" d="M191.9,123.69l35.51-3.34c1.46,4.22,3.52,7.24,6.15,9.05,2.64,1.82,6.15,2.72,10.55,2.72,4.8,0,8.53-1.02,11.16-3.07,2.05-1.52,3.08-3.42,3.08-5.7,0-2.57-1.35-4.56-4.04-5.97-1.93-.99-7.06-2.22-15.38-3.69-12.42-2.16-21.05-4.17-25.88-6.01-4.83-1.84-8.91-4.96-12.22-9.35-3.31-4.39-4.97-9.39-4.97-15.01,0-6.15,1.79-11.44,5.36-15.89,3.57-4.45,8.5-7.77,14.77-9.96,6.27-2.19,14.68-3.29,25.22-3.29,11.13,0,19.35.85,24.65,2.55,5.3,1.7,9.73,4.34,13.27,7.91,3.54,3.57,6.49,8.41,8.83,14.5l-33.93,3.34c-.88-2.99-2.34-5.19-4.39-6.59-2.81-1.87-6.21-2.81-10.2-2.81s-6.99.72-8.83,2.15c-1.85,1.43-2.77,3.17-2.77,5.22,0,2.28,1.17,4.01,3.52,5.18,2.34,1.17,7.44,2.22,15.29,3.16,11.89,1.35,20.74,3.22,26.54,5.62s10.24,5.82,13.32,10.27c3.08,4.45,4.61,9.34,4.61,14.66s-1.63,10.62-4.88,15.72c-3.25,5.09-8.38,9.15-15.38,12.16-7,3.01-16.54,4.52-28.61,4.52-17.05,0-29.19-2.43-36.43-7.29-7.24-4.86-11.88-11.78-13.93-20.74Z"/>
          <path class="cls-3" d="M429.8,111.82h-71.72c.64,5.74,2.2,10.02,4.66,12.83,3.46,4.04,7.97,6.06,13.54,6.06,3.52,0,6.86-.88,10.02-2.64,1.93-1.11,4.01-3.08,6.24-5.89l35.24,3.25c-5.39,9.38-11.9,16.1-19.51,20.17-7.62,4.07-18.54,6.11-32.78,6.11-12.36,0-22.09-1.74-29.18-5.23-7.09-3.49-12.96-9.02-17.62-16.61-4.66-7.59-6.99-16.51-6.99-26.76,0-14.59,4.67-26.4,14.02-35.42,9.35-9.02,22.25-13.54,38.72-13.54,13.36,0,23.91,2.02,31.64,6.06s13.62,9.9,17.67,17.58c4.04,7.68,6.06,17.67,6.06,29.97v4.04ZM393.41,94.68c-.7-6.91-2.56-11.87-5.58-14.85-3.02-2.99-6.99-4.48-11.91-4.48-5.68,0-10.23,2.26-13.62,6.77-2.17,2.81-3.55,7-4.13,12.57h35.24Z"/>
          <path class="cls-3" d="M464.59,56.27h33.49v15.29c3.22-6.62,6.55-11.18,9.98-13.67,3.43-2.49,7.66-3.74,12.7-3.74s11.04,1.64,17.31,4.92l-11.07,25.49c-4.22-1.76-7.56-2.64-10.02-2.64-4.69,0-8.32,1.93-10.9,5.8-3.69,5.45-5.54,15.64-5.54,30.59v31.29h-35.95V56.27Z"/>
          <path class="cls-3" d="M20,200.77h41.62l29,92.72,28.63-92.72h40.41l-47.84,128.85h-43.15L20,200.77Z"/>
          <path class="cls-3" d="M183.9,283.21c0-14.24,4.8-25.97,14.41-35.2,9.61-9.23,22.59-13.84,38.94-13.84,18.69,0,32.81,5.42,42.36,16.26,7.68,8.73,11.51,19.48,11.51,32.26,0,14.36-4.76,26.12-14.28,35.29-9.52,9.17-22.69,13.75-39.51,13.75-15,0-27.13-3.81-36.39-11.43-11.37-9.43-17.05-21.8-17.05-37.09ZM219.76,283.12c0,8.32,1.68,14.47,5.05,18.46,3.37,3.99,7.6,5.98,12.7,5.98s9.39-1.96,12.7-5.89c3.31-3.92,4.97-10.22,4.97-18.9,0-8.09-1.67-14.11-5.01-18.06s-7.47-5.93-12.39-5.93c-5.22,0-9.52,2.01-12.92,6.02-3.4,4.01-5.1,10.12-5.1,18.33Z"/>
          <path class="cls-3" d="M327.67,200.77h35.77v24.35h-35.77v-24.35ZM327.67,236.27h35.77v93.34h-35.77v-93.34Z"/>
          <path class="cls-3" d="M473.9,293.05l34.01,3.87c-1.88,7.09-4.95,13.23-9.23,18.41-4.28,5.19-9.74,9.21-16.39,12.08-6.65,2.87-15.1,4.31-25.36,4.31s-18.15-.92-24.74-2.77c-6.59-1.84-12.26-4.83-17.01-8.96-4.75-4.13-8.47-8.97-11.16-14.53-2.7-5.56-4.04-12.94-4.04-22.13s1.64-17.59,4.92-23.97c2.4-4.68,5.68-8.88,9.84-12.6,4.16-3.72,8.44-6.48,12.83-8.3,6.97-2.87,15.91-4.3,26.81-4.3,15.23,0,26.85,2.72,34.85,8.17s13.61,13.42,16.83,23.91l-33.66,4.48c-1.05-3.98-2.97-6.99-5.76-9.01-2.78-2.02-6.52-3.03-11.21-3.03-5.92,0-10.71,2.12-14.37,6.36-3.66,4.24-5.49,10.66-5.49,19.26,0,7.66,1.82,13.48,5.45,17.46,3.63,3.98,8.26,5.97,13.89,5.97,4.69,0,8.63-1.2,11.82-3.6,3.19-2.4,5.58-6.09,7.16-11.07Z"/>
          <path class="cls-3" d="M645.97,291.82h-71.72c.64,5.74,2.2,10.02,4.66,12.83,3.46,4.04,7.97,6.06,13.54,6.06,3.52,0,6.86-.88,10.02-2.64,1.93-1.11,4.01-3.08,6.24-5.89l35.24,3.25c-5.39,9.38-11.9,16.1-19.51,20.17-7.62,4.07-18.54,6.11-32.78,6.11-12.36,0-22.09-1.74-29.18-5.23-7.09-3.49-12.96-9.02-17.62-16.61-4.66-7.59-6.99-16.51-6.99-26.76,0-14.59,4.67-26.4,14.02-35.42,9.35-9.02,22.25-13.54,38.72-13.54,13.36,0,23.91,2.02,31.64,6.06s13.62,9.9,17.67,17.58c4.04,7.68,6.06,17.67,6.06,29.97v4.04ZM609.59,274.68c-.7-6.91-2.56-11.87-5.58-14.85-3.02-2.99-6.99-4.48-11.91-4.48-5.68,0-10.23,2.26-13.62,6.77-2.17,2.81-3.55,7-4.13,12.57h35.24Z"/>
        </g>
      </g>
      <rect class="cls-1" width="665.97" height="352.49"/>
    </g>
  </g>
</svg>