<?xml version="1.0" encoding="UTF-8"?>
<svg id="_レイヤー_2" data-name="レイヤー 2" xmlns="http://www.w3.org/2000/svg" viewBox="0 0 469.4 30.05">
  <defs>
    <style>
      .cls-1 {
        fill: #00913a;
      }
    </style>
  </defs>
  <g id="_レイヤー_1-2" data-name="レイヤー 1">
    <g>
      <path class="cls-1" d="M14.96,24.03c0,1.47-.5,3.07-1.24,4-.96,1.25-2.66,1.89-4.92,1.89-2.38,0-4.3-.74-6.12-2.37-1.76-1.6-2.69-3.81-2.69-6.4,0-3.04,1.11-5.6,3.25-7.46,1.39-1.22,2.54-1.76,5.01-2.43v-2.05l-6.37.06V3.39l6.37-.16-.03-2.56h6.74v2.5l4.61-.1v5.95l-4.61.1v1.31q1.98,0,2.81.1c3.71.38,6.31,1.54,7.91,3.55,1.24,1.6,1.89,3.49,1.89,5.6,0,3.58-1.58,6.72-4.3,8.42-1.82,1.12-3.99,1.63-7.3,1.73v-6.43c1.14-.06,1.98-.19,2.84-.51,1.05-.38,1.61-1.31,1.61-2.75,0-2.72-1.61-3.84-5.47-3.87v7.78ZM8.25,17.6c-1.58.96-2.1,1.86-2.1,3.58,0,1.31.68,2.3,1.61,2.3.4,0,.53-.32.53-1.12v-1.47l-.03-3.3ZM22.41,10.17c-.96-3.94-1.05-4.26-2.41-7.2h6.43c1.14,2.46,1.64,3.9,2.47,7.2h-6.49Z"/>
      <path class="cls-1" d="M33.69,4.77c2.23-.8,3.93-2.24,4.82-4.1h7.82l-.83,1.44h15.55v4.74h-18.64l-.87.77h18.15v3.58h-22.38v-1.02c-1.55.7-2.44,1.06-3.62,1.34v-6.75ZM33.69,23.61c2.75-.13,4.02-.29,5.5-.74-1.67-1.7-1.76-1.79-4.64-4.45l-.8-.77h8.56l.4.38c1.02.9,1.67,1.44,1.89,1.63.59-.7.83-1.18,1.24-2.27h6.89v-.7h-19.04v-4.64h25.94v5.15c.09,4.29.49,5.18,2.41,5.41v7.42c-2.72,0-5.19-1.12-6.92-3.17-1.58-1.98-2.07-3.65-2.38-8.1-1.05,2.43-1.89,3.74-3.52,5.38l.59.61c1.45,1.54,2.04,2.18,3.03,3.23.56.61.8.9,1.61,1.92h-8.9l-1.64-1.98c-3.03,1.34-5.78,1.89-10.2,1.92v-6.24Z"/>
      <path class="cls-1" d="M71.37,29.92v-2.88h-3.74v-5.41h3.74v-.8h-3.43V7.94h3.43v-.74h-3.77V1.98h3.77V.67h5.26v1.31h3.46v5.22h-3.46v.74h3.55v9.47c.03,2.43-.8,3.26-3.55,3.42v.8h3.55v2.34h4.92v-1.34h-3.93v-5.44h3.93v-1.57c-2.19.67-2.75.83-4.3,1.12v-5.66c.99-.16,1.64-.35,2.38-.61-1.08-1.38-1.58-2.11-2.5-3.71V1.25h14.53v5.66c-1.17,1.7-1.73,2.43-2.63,3.52,1.11.29,1.48.38,3.43.64v5.54c-1.42-.16-2.84-.45-4.85-.96v1.54h4.17v5.44h-4.17v1.34h4.85v5.7h-16.48v-2.62h-2.91v2.88h-5.26ZM72.45,12.74v-.7h-.74v.7h.74ZM72.45,16.73v-.7h-.74v.7h.74ZM76.47,12.74v-.7h-.74v.7h.74ZM76.47,16.73v-.7h-.74v.7h.74ZM90.14,15.33c-1.11-.45-1.27-.51-2.29-.99-.9.48-1.02.58-2.01.99h4.3ZM86.64,6.72c.4.51.46.61.93.99.46-.42.53-.48.87-.99h-1.79Z"/>
      <path class="cls-1" d="M103.64,29.69c-.46-4.86-.62-7.55-.62-10.94,0-4.35.28-9.09.99-17.06h6.86l-.09.96c0,.32-.15,1.95-.4,4.86-.28,2.94-.43,7.01-.43,10.33,0,4.29.19,8,.56,11.84h-6.86ZM129.92,28.77c-1.55.1-2.26.13-4.14.13-6.58,0-8.38-.22-10.08-1.22-2.29-1.34-3.52-3.52-3.52-6.21,0-2.08.49-3.9,1.7-6.14h6.62c-1.27,2.69-1.39,3.07-1.39,4.16,0,2.05,1.14,2.66,4.92,2.66,1.51,0,4.08-.06,5.91-.13v6.75ZM113.38,3.33l15.74-.1v6.66h-15.74V3.33Z"/>
      <path class="cls-1" d="M150.96,24.03c0,1.47-.49,3.07-1.24,4-.96,1.25-2.66,1.89-4.92,1.89-2.38,0-4.3-.74-6.12-2.37-1.76-1.6-2.69-3.81-2.69-6.4,0-3.04,1.11-5.6,3.25-7.46,1.39-1.22,2.54-1.76,5.01-2.43v-2.05l-6.37.06V3.39l6.37-.16-.03-2.56h6.74v2.5l4.61-.1v5.95l-4.61.1v1.31q1.98,0,2.81.1c3.71.38,6.31,1.54,7.91,3.55,1.24,1.6,1.89,3.49,1.89,5.6,0,3.58-1.58,6.72-4.3,8.42-1.82,1.12-3.99,1.63-7.3,1.73v-6.43c1.14-.06,1.98-.19,2.84-.51,1.05-.38,1.61-1.31,1.61-2.75,0-2.72-1.61-3.84-5.47-3.87v7.78ZM144.26,17.6c-1.58.96-2.1,1.86-2.1,3.58,0,1.31.68,2.3,1.61,2.3.4,0,.53-.32.53-1.12v-1.47l-.03-3.3ZM158.42,10.17c-.96-3.94-1.05-4.26-2.41-7.2h6.43c1.14,2.46,1.64,3.9,2.47,7.2h-6.49Z"/>
      <path class="cls-1" d="M170.19,1.12h13.23v13.25h-7.23v15.55h-6V1.12ZM178.23,6.4v-.77h-2.04v.77h2.04ZM178.23,10.46v-.77h-2.04v.77h2.04ZM176.84,15.23h14.04v8.74h.65v-9.6h-7.23V1.12h13.29v24.13c-.06,2.88-2.13,4.7-5.35,4.67h-4.3v-1.82c-1.02.51-1.48.61-2.97.61h-8.13v-13.47ZM184.87,22.97v-2.37h-2.13v2.37h2.13ZM191.52,6.4v-.77h-2.01v.77h2.01ZM191.52,10.46v-.77h-2.01v.77h2.01Z"/>
      <path class="cls-1" d="M211.42,16.93c0,4.06.03,4.29.62,4.29.77,0,1.79-.54,5.22-2.75v7.74c-4.05,2.24-5.87,2.98-7.54,2.98-2.13,0-3.93-1.22-4.64-3.2-.49-1.34-.74-3.14-.74-5.54V2.4h7.08v14.53ZM224.28,16.06c.06-4.8-.22-5.06-5.22-5.09v-6.78c1.14-.1,1.73-.13,2.63-.13,3.86,0,5.78.58,7.27,2.14,1.73,1.86,2.35,4.03,2.38,8.29l.06,12.67h-7.08l-.03-11.1Z"/>
      <path class="cls-1" d="M237.66,7.17c4.54-1.57,7.88-3.62,10.6-6.56h7.45c2.78,3.14,6.65,5.54,10.33,6.4v7.33c-1.39-.45-2.2-.74-3.77-1.44v2.14h-20.84v-2.11c-1.48.61-2.41.93-3.77,1.31v-7.07ZM264.25,15.87v8.83c0,3.97-1.76,5.15-7.39,4.99h-17.1v-13.82h24.48ZM257.05,23.68v-2.21h-10.42v2.21h10.42ZM255.22,9.21c-1.48-.93-2.04-1.38-3.43-2.75-1.08,1.09-1.76,1.66-3.25,2.75h6.68Z"/>
      <path class="cls-1" d="M272.1,17.44c1.17-1.25,1.42-1.44,3.89-3.65v-2.27l-3.99.16v-6.43l3.96-.19.06-4.32h6.99l.03,7.52c3.71-2.43,5.01-2.94,7.51-2.94,2.88,0,5.44,1.28,7.23,3.58,1.64,2.11,2.38,4.77,2.38,8.38,0,4.54-1.11,7.42-3.68,9.44-2.35,1.86-5.29,2.69-9.37,2.69-.25,0-.96,0-1.7-.03v-6.66c2.41-.1,3.8-.29,5.01-.74,1.79-.67,2.72-2.24,2.72-4.7,0-2.88-1.39-4.64-3.65-4.64-1.98,0-3.83,1.06-6.43,3.65l-.03,13.6h-7.08v-7.52c-1.48,1.57-2.84,3.07-3.86,4.16v-9.09Z"/>
      <path class="cls-1" d="M305.63,6.37l3.77-.06V1.38h6.99l-.06,4.9,6.31-.06.03-4.83h7.05v4.77h4.3v6.5h-4.3v2.98c-.19,4.35-2.19,5.76-7.94,5.6h-3.49v-6.17h1.45c2.78-.03,2.88-.1,2.91-1.5v-.83h-6.37l-.03,6.56q.09,3.3.65,3.52c.56.22,1.82.32,3.96.32.4,0,.83,0,1.21-.03l9.55-.42v6.72l-11.19.29c-3.4,0-5.78-.26-7.3-.8-2.84-1.15-3.77-2.94-3.71-7.26v-8.8h-3.77v-6.43Z"/>
      <path class="cls-1" d="M344.92,18.81c-1.36-1.66-1.73-2.46-1.73-3.62,0-1.25.56-2.56,1.61-3.81l8.81-10.37h9.4l-10.14,11.55c-.99,1.12-1.39,1.79-1.39,2.3,0,.45.37,1.06,1.33,2.14l10.82,12.35h-10.17l-8.53-10.56Z"/>
      <path class="cls-1" d="M373.88,4.9l4.2-.1c.12-1.76.15-2.02.25-3.68h6.68c-.03,1.73-.06,1.98-.15,3.62h3.65v1.95l12.8.03v6.75h-13.88v-2.66l-3.15.06c-.53,5.38-1.76,12.99-3,18.62h-7.02c1.58-5.79,2.44-10.62,3.34-18.56l-3.71.03v-6.08ZM401.61,29.34c-3,.19-4.2.22-6.15.22-4.54,0-6.43-.26-8.04-1.12-1.95-1.06-3-3.01-3-5.6,0-1.98.49-3.87,1.55-5.82h6.55c-.99,2.05-1.27,2.88-1.27,3.84,0,1.63,1.11,2.18,4.42,2.18,1.7,0,3.83-.1,5.94-.29v6.59ZM393.3,0h3.46v5.41h-3.46V0ZM397.94,0h3.46v5.41h-3.46V0Z"/>
      <path class="cls-1" d="M408.84,5.44l9.99-.19-1.14-4.35h7.33l1.14,4.29,8.72-.1v6.56l-7.02.1,1.92,7.46h-7.3l-1.92-7.33-11.72.1v-6.53ZM425.13,29.41c-.9.03-1.85.03-2.47.03-5.69,0-8.13-.45-10.23-1.89-1.86-1.28-3.03-3.42-3.03-5.54,0-1.41.37-2.82,1.45-5.57h7.14c-.99,1.95-1.17,2.5-1.17,3.36,0,2.27,1.61,3.1,6.06,3.1l4.33-.03,6.34-.26v6.56l-8.41.22Z"/>
      <path class="cls-1" d="M449.43,16.93c0,4.06.03,4.29.62,4.29.77,0,1.79-.54,5.22-2.75v7.74c-4.05,2.24-5.87,2.98-7.54,2.98-2.13,0-3.93-1.22-4.64-3.2-.5-1.34-.74-3.14-.74-5.54V2.4h7.08v14.53ZM462.29,16.06c.06-4.8-.22-5.06-5.22-5.09v-6.78c1.14-.1,1.73-.13,2.63-.13,3.86,0,5.78.58,7.26,2.14,1.73,1.86,2.35,4.03,2.38,8.29l.06,12.67h-7.08l-.03-11.1Z"/>
    </g>
  </g>
</svg>