<?xml version="1.0" encoding="UTF-8"?>
<svg id="_レイヤー_2" data-name="レイヤー 2" xmlns="http://www.w3.org/2000/svg" viewBox="0 0 275.01 323.6">
  <defs>
    <style>
      .cls-1 {
        fill: #8fc31f;
      }

      .cls-2 {
        fill: #00913a;
      }
    </style>
  </defs>
  <g id="_レイヤー_1-2" data-name="レイヤー 1">
    <g>
      <path class="cls-1" d="M16.96,321.26c-3.12,3.12-8.23,3.12-11.35,0h0c-3.12-3.12-3.12-8.23,0-11.35l173.61-173.61c3.12-3.12,8.23-3.12,11.35,0h0c3.12,3.12,3.12,8.23,0,11.35L16.96,321.26Z"/>
      <path class="cls-1" d="M18.17,248.63c-4.14,4.14-10.92,4.14-15.07,0h0c-4.14-4.14-4.14-10.92,0-15.07L233.57,3.11c4.14-4.14,10.92-4.14,15.07,0h0c4.14,4.14,4.14,10.92,0,15.07L18.17,248.63Z"/>
      <circle class="cls-2" cx="251.74" cy="251.74" r="23.27" transform="translate(-47.58 444.49) rotate(-77.78)"/>
    </g>
  </g>
</svg>