<?xml version="1.0" encoding="UTF-8"?>
<svg id="_レイヤー_2" data-name="レイヤー 2" xmlns="http://www.w3.org/2000/svg" viewBox="0 0 131.49 131.49">
  <defs>
    <style>
      .cls-1 {
        fill: #dae000;
      }
    </style>
  </defs>
  <g id="_レイヤー_1-2" data-name="レイヤー 1">
    <g>
      <path class="cls-1" d="M112.26,112.26h0c-5.11,5.11-11.06,9.38-17.62,12.6l30.22-30.22c-3.21,6.56-7.48,12.51-12.59,17.62Z"/>
      <path class="cls-1" d="M128.28,86.17l-42.11,42.11c-2.24.73-4.53,1.35-6.86,1.84l50.81-50.81c-.49,2.34-1.11,4.63-1.84,6.86Z"/>
      <path class="cls-1" d="M131.09,73.31l-57.78,57.78c-1.79.2-3.6.34-5.43.4l63.6-63.6c-.06,1.83-.19,3.64-.4,5.43Z"/>
      <path class="cls-1" d="M131.46,62.88l-68.57,68.57c-1.57-.07-3.12-.19-4.66-.37l72.87-72.87c.18,1.54.3,3.09.37,4.66Z"/>
      <path class="cls-1" d="M130.45,53.84l-76.61,76.61c-1.39-.25-2.77-.55-4.13-.9l79.85-79.85c.34,1.36.64,2.74.9,4.13Z"/>
      <path class="cls-1" d="M128.44,45.79l-82.65,82.65c-1.26-.4-2.5-.84-3.72-1.31L127.13,42.07c.47,1.22.91,2.46,1.31,3.72Z"/>
      <path class="cls-1" d="M125.65,38.53L38.53,125.65c-1.14-.52-2.27-1.07-3.37-1.66L123.99,35.15c.58,1.11,1.14,2.23,1.66,3.37Z"/>
      <path class="cls-1" d="M122.18,31.93L31.93,122.18c-1.04-.63-2.07-1.28-3.07-1.96L120.22,28.86c.68,1,1.33,2.03,1.96,3.07Z"/>
      <path class="cls-1" d="M118.12,25.94L25.94,118.12c-.95-.72-1.88-1.47-2.79-2.24L115.87,23.16c.77.91,1.52,1.84,2.24,2.79Z"/>
      <path class="cls-1" d="M113.5,20.5L20.5,113.5c-.86-.82-1.7-1.65-2.51-2.51L110.98,17.99c.86.82,1.7,1.65,2.51,2.51Z"/>
      <path class="cls-1" d="M108.33,15.61L15.61,108.33c-.77-.91-1.52-1.84-2.24-2.79L105.54,13.37c.95.72,1.88,1.47,2.79,2.24Z"/>
      <path class="cls-1" d="M102.62,11.26L11.26,102.62c-.68-1-1.33-2.03-1.96-3.07L99.55,9.31c1.04.63,2.07,1.28,3.07,1.96Z"/>
      <path class="cls-1" d="M96.33,7.5L7.5,96.33c-.58-1.11-1.14-2.23-1.66-3.37L92.96,5.84c1.14.52,2.27,1.07,3.37,1.66Z"/>
      <path class="cls-1" d="M89.42,4.35L4.35,89.42c-.47-1.22-.91-2.46-1.31-3.72L85.7,3.05c1.26.4,2.5.84,3.72,1.31Z"/>
      <path class="cls-1" d="M81.78,1.93L1.93,81.78c-.34-1.36-.64-2.74-.9-4.13L77.65,1.04c1.39.25,2.77.55,4.13.9Z"/>
      <path class="cls-1" d="M73.26.39L.39,73.26c-.18-1.54-.3-3.09-.37-4.66L68.6.03c1.57.07,3.12.19,4.66.37Z"/>
      <path class="cls-1" d="M58.17.4c1.79-.2,3.6-.34,5.43-.4L0,63.6c.06-1.83.19-3.64.4-5.43L58.17.4Z"/>
      <path class="cls-1" d="M3.2,45.31L45.31,3.2c2.24-.73,4.53-1.35,6.86-1.84L1.37,52.18c.49-2.34,1.11-4.63,1.84-6.86Z"/>
      <path class="cls-1" d="M36.85,6.63L6.63,36.85c6.43-13.12,17.09-23.79,30.22-30.22Z"/>
    </g>
  </g>
</svg>