<?xml version="1.0" encoding="UTF-8"?>
<svg id="_レイヤー_2" data-name="レイヤー 2" xmlns="http://www.w3.org/2000/svg" viewBox="0 0 195.07 260.82">
  <defs>
    <style>
      .cls-1 {
        fill: #dae000;
      }

      .cls-2 {
        fill: #8fc31f;
      }
    </style>
  </defs>
  <g id="_レイヤー_1-2" data-name="レイヤー 1">
    <g>
      <circle class="cls-2" cx="23.55" cy="23.55" r="23.55" transform="translate(-6.96 10.2) rotate(-21.37)"/>
      <g>
        <path class="cls-1" d="M86.24,136.28c1.44,0,2.62-1.17,2.62-2.62,0-1.24-.87-2.27-2.03-2.54-1.07.68-2.13,1.38-3.16,2.11-.02.14-.04.29-.04.43,0,1.44,1.17,2.62,2.62,2.62Z"/>
        <path class="cls-1" d="M100.61,126.7c1.44,0,2.62-1.17,2.62-2.62,0-.19-.02-.37-.06-.54-1.65.52-3.27,1.1-4.87,1.74.44.84,1.3,1.42,2.31,1.42Z"/>
        <path class="cls-1" d="M95.82,136.28c1.44,0,2.62-1.17,2.62-2.62s-1.17-2.62-2.62-2.62-2.62,1.17-2.62,2.62,1.17,2.62,2.62,2.62Z"/>
        <path class="cls-1" d="M107.57,124.09c0,1.44,1.17,2.62,2.62,2.62s2.62-1.17,2.62-2.62c0-1.2-.81-2.2-1.92-2.51-.79.15-1.57.32-2.35.49-.59.48-.97,1.2-.97,2.01Z"/>
        <path class="cls-1" d="M105.4,136.28c1.44,0,2.62-1.17,2.62-2.62s-1.17-2.62-2.62-2.62-2.62,1.17-2.62,2.62,1.17,2.62,2.62,2.62Z"/>
        <path class="cls-1" d="M119.77,126.7c1.44,0,2.62-1.17,2.62-2.62s-1.17-2.62-2.62-2.62-2.62,1.17-2.62,2.62,1.17,2.62,2.62,2.62Z"/>
        <circle class="cls-1" cx="114.98" cy="133.67" r="2.62"/>
        <circle class="cls-1" cx="129.35" cy="124.09" r="2.62" transform="translate(-6.68 7.36) rotate(-3.18)"/>
        <path class="cls-1" d="M124.56,136.28c1.44,0,2.62-1.17,2.62-2.62s-1.17-2.62-2.62-2.62-2.62,1.17-2.62,2.62,1.17,2.62,2.62,2.62Z"/>
        <path class="cls-1" d="M136.31,124.09c0,1.44,1.17,2.62,2.62,2.62s2.62-1.17,2.62-2.62c0-.82-.38-1.53-.97-2.01-.78-.18-1.56-.34-2.35-.49-1.1.31-1.92,1.31-1.92,2.51Z"/>
        <path class="cls-1" d="M134.14,136.28c1.44,0,2.62-1.17,2.62-2.62s-1.17-2.62-2.62-2.62-2.62,1.17-2.62,2.62,1.17,2.62,2.62,2.62Z"/>
        <path class="cls-1" d="M148.51,126.7c1.01,0,1.88-.58,2.31-1.42-1.6-.64-3.22-1.22-4.87-1.74-.04.18-.06.36-.06.54,0,1.44,1.17,2.62,2.62,2.62Z"/>
        <circle class="cls-1" cx="143.72" cy="133.67" r="2.62"/>
        <path class="cls-1" d="M153.3,136.28c1.44,0,2.62-1.17,2.62-2.62s-1.17-2.62-2.62-2.62-2.62,1.17-2.62,2.62,1.17,2.62,2.62,2.62Z"/>
        <path class="cls-1" d="M160.26,133.67c0,1.44,1.17,2.62,2.62,2.62s2.62-1.17,2.62-2.62c0-.15-.02-.29-.04-.43-1.03-.73-2.09-1.43-3.16-2.11-1.16.27-2.03,1.3-2.03,2.54Z"/>
        <path class="cls-1" d="M74.48,143.25c0-.63-.23-1.21-.61-1.66-1.2,1.23-2.36,2.51-3.48,3.82.42.29.92.45,1.47.45,1.44,0,2.62-1.17,2.62-2.62Z"/>
        <path class="cls-1" d="M67.08,155.44c1.44,0,2.62-1.17,2.62-2.62s-1.17-2.62-2.62-2.62c-.15,0-.29.02-.43.04-.73,1.03-1.43,2.09-2.11,3.16.27,1.16,1.3,2.03,2.54,2.03Z"/>
        <path class="cls-1" d="M81.45,145.86c1.44,0,2.62-1.17,2.62-2.62s-1.17-2.62-2.62-2.62-2.62,1.17-2.62,2.62,1.17,2.62,2.62,2.62Z"/>
        <circle class="cls-1" cx="76.66" cy="152.83" r="2.62" transform="translate(-32.86 21.53) rotate(-13.19)"/>
        <circle class="cls-1" cx="91.03" cy="143.25" r="2.62"/>
        <path class="cls-1" d="M86.24,155.44c1.44,0,2.62-1.17,2.62-2.62s-1.17-2.62-2.62-2.62-2.62,1.17-2.62,2.62,1.17,2.62,2.62,2.62Z"/>
        <circle class="cls-1" cx="100.61" cy="143.25" r="2.62"/>
        <path class="cls-1" d="M95.82,150.21c-1.44,0-2.62,1.17-2.62,2.62s1.17,2.62,2.62,2.62,2.62-1.17,2.62-2.62-1.17-2.62-2.62-2.62Z"/>
        <path class="cls-1" d="M110.19,145.86c1.44,0,2.62-1.17,2.62-2.62s-1.17-2.62-2.62-2.62-2.62,1.17-2.62,2.62,1.17,2.62,2.62,2.62Z"/>
        <path class="cls-1" d="M105.4,150.21c-1.44,0-2.62,1.17-2.62,2.62s1.17,2.62,2.62,2.62,2.62-1.17,2.62-2.62-1.17-2.62-2.62-2.62Z"/>
        <path class="cls-1" d="M119.77,140.63c-1.44,0-2.62,1.17-2.62,2.62s1.17,2.62,2.62,2.62,2.62-1.17,2.62-2.62-1.17-2.62-2.62-2.62Z"/>
        <circle class="cls-1" cx="114.98" cy="152.83" r="2.62" transform="translate(-32.23 30.74) rotate(-13.37)"/>
        <circle class="cls-1" cx="129.35" cy="143.25" r="2.62" transform="translate(-21.18 22.45) rotate(-9.17)"/>
        <path class="cls-1" d="M124.56,150.21c-1.44,0-2.62,1.17-2.62,2.62s1.17,2.62,2.62,2.62,2.62-1.17,2.62-2.62-1.17-2.62-2.62-2.62Z"/>
        <path class="cls-1" d="M138.93,145.86c1.44,0,2.62-1.17,2.62-2.62s-1.17-2.62-2.62-2.62-2.62,1.17-2.62,2.62,1.17,2.62,2.62,2.62Z"/>
        <path class="cls-1" d="M134.14,150.21c-1.44,0-2.62,1.17-2.62,2.62s1.17,2.62,2.62,2.62,2.62-1.17,2.62-2.62-1.17-2.62-2.62-2.62Z"/>
        <path class="cls-1" d="M148.51,145.86c1.44,0,2.62-1.17,2.62-2.62s-1.17-2.62-2.62-2.62-2.62,1.17-2.62,2.62,1.17,2.62,2.62,2.62Z"/>
        <circle class="cls-1" cx="143.72" cy="152.83" r="2.62" transform="translate(-31.45 37.38) rotate(-13.37)"/>
        <circle class="cls-1" cx="158.09" cy="143.25" r="2.62"/>
        <path class="cls-1" d="M153.3,150.21c-1.44,0-2.62,1.17-2.62,2.62s1.17,2.62,2.62,2.62,2.62-1.17,2.62-2.62-1.17-2.62-2.62-2.62Z"/>
        <circle class="cls-1" cx="167.67" cy="143.25" r="2.62"/>
        <path class="cls-1" d="M162.88,155.44c1.44,0,2.62-1.17,2.62-2.62s-1.17-2.62-2.62-2.62-2.62,1.17-2.62,2.62,1.17,2.62,2.62,2.62Z"/>
        <path class="cls-1" d="M177.24,145.86c.55,0,1.05-.17,1.47-.45-1.11-1.32-2.27-2.59-3.48-3.82-.37.45-.61,1.03-.61,1.66,0,1.44,1.17,2.62,2.62,2.62Z"/>
        <circle class="cls-1" cx="172.45" cy="152.83" r="2.62" transform="translate(-30.33 43.4) rotate(-13.19)"/>
        <path class="cls-1" d="M179.42,152.83c0,1.44,1.17,2.62,2.62,2.62,1.24,0,2.27-.87,2.54-2.03-.68-1.07-1.38-2.13-2.11-3.16-.14-.02-.29-.04-.43-.04-1.44,0-2.62,1.17-2.62,2.62Z"/>
        <path class="cls-1" d="M62.29,165.02c1.44,0,2.62-1.17,2.62-2.62s-1.17-2.62-2.62-2.62c-.61,0-1.16.22-1.6.56-.35.72-.68,1.44-1,2.17.06,1.39,1.2,2.49,2.6,2.49Z"/>
        <path class="cls-1" d="M60.11,171.99c0-1.44-1.17-2.62-2.62-2.62-.15,0-.29.02-.43.04-.48,1.49-.91,3-1.29,4.52.46.41,1.06.66,1.72.66,1.44,0,2.62-1.17,2.62-2.62Z"/>
        <path class="cls-1" d="M71.87,165.02c1.44,0,2.62-1.17,2.62-2.62s-1.17-2.62-2.62-2.62-2.62,1.17-2.62,2.62,1.17,2.62,2.62,2.62Z"/>
        <path class="cls-1" d="M67.08,174.6c1.44,0,2.62-1.17,2.62-2.62s-1.17-2.62-2.62-2.62-2.62,1.17-2.62,2.62,1.17,2.62,2.62,2.62Z"/>
        <path class="cls-1" d="M81.45,159.79c-1.44,0-2.62,1.17-2.62,2.62s1.17,2.62,2.62,2.62,2.62-1.17,2.62-2.62-1.17-2.62-2.62-2.62Z"/>
        <path class="cls-1" d="M76.66,169.37c-1.44,0-2.62,1.17-2.62,2.62s1.17,2.62,2.62,2.62,2.62-1.17,2.62-2.62-1.17-2.62-2.62-2.62Z"/>
        <circle class="cls-1" cx="91.03" cy="162.41" r="2.62" transform="translate(-77.43 241.67) rotate(-85.93)"/>
        <path class="cls-1" d="M86.24,169.37c-1.44,0-2.62,1.17-2.62,2.62s1.17,2.62,2.62,2.62,2.62-1.17,2.62-2.62-1.17-2.62-2.62-2.62Z"/>
        <circle class="cls-1" cx="100.61" cy="162.41" r="2.62" transform="translate(-68.54 251.22) rotate(-85.93)"/>
        <path class="cls-1" d="M95.82,169.37c-1.44,0-2.62,1.17-2.62,2.62s1.17,2.62,2.62,2.62,2.62-1.17,2.62-2.62-1.17-2.62-2.62-2.62Z"/>
        <path class="cls-1" d="M110.19,159.79c-1.44,0-2.62,1.17-2.62,2.62s1.17,2.62,2.62,2.62,2.62-1.17,2.62-2.62-1.17-2.62-2.62-2.62Z"/>
        <path class="cls-1" d="M105.4,169.37c-1.44,0-2.62,1.17-2.62,2.62s1.17,2.62,2.62,2.62,2.62-1.17,2.62-2.62-1.17-2.62-2.62-2.62Z"/>
        <path class="cls-1" d="M119.77,159.79c-1.44,0-2.62,1.17-2.62,2.62s1.17,2.62,2.62,2.62,2.62-1.17,2.62-2.62-1.17-2.62-2.62-2.62Z"/>
        <path class="cls-1" d="M114.98,169.37c-1.44,0-2.62,1.17-2.62,2.62s1.17,2.62,2.62,2.62,2.62-1.17,2.62-2.62-1.17-2.62-2.62-2.62Z"/>
        <circle class="cls-1" cx="129.35" cy="162.41" r="2.62" transform="translate(-41.84 279.89) rotate(-85.93)"/>
        <path class="cls-1" d="M124.56,169.37c-1.44,0-2.62,1.17-2.62,2.62s1.17,2.62,2.62,2.62,2.62-1.17,2.62-2.62-1.17-2.62-2.62-2.62Z"/>
        <path class="cls-1" d="M138.93,159.79c-1.44,0-2.62,1.17-2.62,2.62s1.17,2.62,2.62,2.62,2.62-1.17,2.62-2.62-1.17-2.62-2.62-2.62Z"/>
        <path class="cls-1" d="M134.14,169.37c-1.44,0-2.62,1.17-2.62,2.62s1.17,2.62,2.62,2.62,2.62-1.17,2.62-2.62-1.17-2.62-2.62-2.62Z"/>
        <path class="cls-1" d="M148.51,159.79c-1.44,0-2.62,1.17-2.62,2.62s1.17,2.62,2.62,2.62,2.62-1.17,2.62-2.62-1.17-2.62-2.62-2.62Z"/>
        <path class="cls-1" d="M143.72,169.37c-1.44,0-2.62,1.17-2.62,2.62s1.17,2.62,2.62,2.62,2.62-1.17,2.62-2.62-1.17-2.62-2.62-2.62Z"/>
        <circle class="cls-1" cx="158.09" cy="162.41" r="2.62" transform="translate(-15.14 308.55) rotate(-85.93)"/>
        <path class="cls-1" d="M153.3,169.37c-1.44,0-2.62,1.17-2.62,2.62s1.17,2.62,2.62,2.62,2.62-1.17,2.62-2.62-1.17-2.62-2.62-2.62Z"/>
        <circle class="cls-1" cx="167.67" cy="162.41" r="2.62"/>
        <path class="cls-1" d="M162.88,169.37c-1.44,0-2.62,1.17-2.62,2.62s1.17,2.62,2.62,2.62,2.62-1.17,2.62-2.62-1.17-2.62-2.62-2.62Z"/>
        <path class="cls-1" d="M177.24,165.02c1.44,0,2.62-1.17,2.62-2.62s-1.17-2.62-2.62-2.62-2.62,1.17-2.62,2.62,1.17,2.62,2.62,2.62Z"/>
        <path class="cls-1" d="M172.45,169.37c-1.44,0-2.62,1.17-2.62,2.62s1.17,2.62,2.62,2.62,2.62-1.17,2.62-2.62-1.17-2.62-2.62-2.62Z"/>
        <path class="cls-1" d="M184.21,162.41c0,1.44,1.17,2.62,2.62,2.62s2.54-1.11,2.6-2.49c-.32-.73-.65-1.46-1-2.18-.44-.35-1-.56-1.6-.56-1.44,0-2.62,1.17-2.62,2.62Z"/>
        <path class="cls-1" d="M182.03,174.6c1.44,0,2.62-1.17,2.62-2.62s-1.17-2.62-2.62-2.62-2.62,1.17-2.62,2.62,1.17,2.62,2.62,2.62Z"/>
        <path class="cls-1" d="M189,171.99c0,1.44,1.17,2.62,2.62,2.62.66,0,1.26-.26,1.72-.66-.38-1.53-.81-3.04-1.29-4.52-.14-.02-.29-.04-.43-.04-1.44,0-2.62,1.17-2.62,2.62Z"/>
        <path class="cls-1" d="M55.32,181.56c0-.71-.28-1.35-.74-1.82-.22,1.34-.4,2.69-.54,4.06.76-.46,1.28-1.28,1.28-2.24Z"/>
        <circle class="cls-1" cx="62.29" cy="181.56" r="2.62"/>
        <path class="cls-1" d="M57.5,188.53c-1.44,0-2.62,1.17-2.62,2.62s1.17,2.62,2.62,2.62,2.62-1.17,2.62-2.62-1.17-2.62-2.62-2.62Z"/>
        <path class="cls-1" d="M71.87,178.95c-1.44,0-2.62,1.17-2.62,2.62s1.17,2.62,2.62,2.62,2.62-1.17,2.62-2.62-1.17-2.62-2.62-2.62Z"/>
        <path class="cls-1" d="M67.08,188.53c-1.44,0-2.62,1.17-2.62,2.62s1.17,2.62,2.62,2.62,2.62-1.17,2.62-2.62-1.17-2.62-2.62-2.62Z"/>
        <path class="cls-1" d="M81.45,184.18c1.44,0,2.62-1.17,2.62-2.62s-1.17-2.62-2.62-2.62-2.62,1.17-2.62,2.62,1.17,2.62,2.62,2.62Z"/>
        <path class="cls-1" d="M76.66,188.53c-1.44,0-2.62,1.17-2.62,2.62s1.17,2.62,2.62,2.62,2.62-1.17,2.62-2.62-1.17-2.62-2.62-2.62Z"/>
        <circle class="cls-1" cx="91.03" cy="181.56" r="2.62"/>
        <path class="cls-1" d="M86.24,193.76c1.44,0,2.62-1.17,2.62-2.62s-1.17-2.62-2.62-2.62-2.62,1.17-2.62,2.62,1.17,2.62,2.62,2.62Z"/>
        <circle class="cls-1" cx="100.61" cy="181.56" r="2.62"/>
        <path class="cls-1" d="M95.82,188.53c-1.44,0-2.62,1.17-2.62,2.62s1.17,2.62,2.62,2.62,2.62-1.17,2.62-2.62-1.17-2.62-2.62-2.62Z"/>
        <path class="cls-1" d="M110.19,178.95c-1.44,0-2.62,1.17-2.62,2.62s1.17,2.62,2.62,2.62,2.62-1.17,2.62-2.62-1.17-2.62-2.62-2.62Z"/>
        <path class="cls-1" d="M105.4,188.53c-1.44,0-2.62,1.17-2.62,2.62s1.17,2.62,2.62,2.62,2.62-1.17,2.62-2.62-1.17-2.62-2.62-2.62Z"/>
        <path class="cls-1" d="M119.77,184.18c1.44,0,2.62-1.17,2.62-2.62s-1.17-2.62-2.62-2.62-2.62,1.17-2.62,2.62,1.17,2.62,2.62,2.62Z"/>
        <path class="cls-1" d="M114.98,188.53c-1.44,0-2.62,1.17-2.62,2.62s1.17,2.62,2.62,2.62,2.62-1.17,2.62-2.62-1.17-2.62-2.62-2.62Z"/>
        <circle class="cls-1" cx="129.35" cy="181.56" r="2.62"/>
        <path class="cls-1" d="M124.56,193.76c1.44,0,2.62-1.17,2.62-2.62s-1.17-2.62-2.62-2.62-2.62,1.17-2.62,2.62,1.17,2.62,2.62,2.62Z"/>
        <path class="cls-1" d="M138.93,178.95c-1.44,0-2.62,1.17-2.62,2.62s1.17,2.62,2.62,2.62,2.62-1.17,2.62-2.62-1.17-2.62-2.62-2.62Z"/>
        <path class="cls-1" d="M134.14,193.76c1.44,0,2.62-1.17,2.62-2.62s-1.17-2.62-2.62-2.62-2.62,1.17-2.62,2.62,1.17,2.62,2.62,2.62Z"/>
        <path class="cls-1" d="M148.51,178.95c-1.44,0-2.62,1.17-2.62,2.62s1.17,2.62,2.62,2.62,2.62-1.17,2.62-2.62-1.17-2.62-2.62-2.62Z"/>
        <path class="cls-1" d="M143.72,188.53c-1.44,0-2.62,1.17-2.62,2.62s1.17,2.62,2.62,2.62,2.62-1.17,2.62-2.62-1.17-2.62-2.62-2.62Z"/>
        <circle class="cls-1" cx="158.09" cy="181.56" r="2.62"/>
        <path class="cls-1" d="M153.3,193.76c1.44,0,2.62-1.17,2.62-2.62s-1.17-2.62-2.62-2.62-2.62,1.17-2.62,2.62,1.17,2.62,2.62,2.62Z"/>
        <circle class="cls-1" cx="167.67" cy="181.56" r="2.62"/>
        <path class="cls-1" d="M162.88,188.53c-1.44,0-2.62,1.17-2.62,2.62s1.17,2.62,2.62,2.62,2.62-1.17,2.62-2.62-1.17-2.62-2.62-2.62Z"/>
        <path class="cls-1" d="M177.24,178.95c-1.44,0-2.62,1.17-2.62,2.62s1.17,2.62,2.62,2.62,2.62-1.17,2.62-2.62-1.17-2.62-2.62-2.62Z"/>
        <path class="cls-1" d="M172.45,193.76c1.44,0,2.62-1.17,2.62-2.62s-1.17-2.62-2.62-2.62-2.62,1.17-2.62,2.62,1.17,2.62,2.62,2.62Z"/>
        <path class="cls-1" d="M186.82,184.18c1.44,0,2.62-1.17,2.62-2.62s-1.17-2.62-2.62-2.62-2.62,1.17-2.62,2.62,1.17,2.62,2.62,2.62Z"/>
        <path class="cls-1" d="M182.03,193.76c1.44,0,2.62-1.17,2.62-2.62s-1.17-2.62-2.62-2.62-2.62,1.17-2.62,2.62,1.17,2.62,2.62,2.62Z"/>
        <path class="cls-1" d="M195.07,183.8c-.14-1.36-.32-2.72-.54-4.06-.46.47-.74,1.11-.74,1.82,0,.95.52,1.78,1.28,2.24Z"/>
        <path class="cls-1" d="M191.61,193.76c1.44,0,2.62-1.17,2.62-2.62s-1.17-2.62-2.62-2.62-2.62,1.17-2.62,2.62,1.17,2.62,2.62,2.62Z"/>
        <path class="cls-1" d="M54.04,198.49c.14,1.36.32,2.72.54,4.06.46-.47.74-1.11.74-1.82,0-.95-.52-1.78-1.28-2.24Z"/>
        <path class="cls-1" d="M62.29,198.11c-1.44,0-2.62,1.17-2.62,2.62s1.17,2.62,2.62,2.62,2.62-1.17,2.62-2.62-1.17-2.62-2.62-2.62Z"/>
        <path class="cls-1" d="M60.11,210.3c0-1.44-1.17-2.62-2.62-2.62-.66,0-1.26.26-1.72.66.38,1.53.81,3.04,1.29,4.52.14.02.29.04.43.04,1.44,0,2.62-1.17,2.62-2.62Z"/>
        <path class="cls-1" d="M71.87,203.34c1.44,0,2.62-1.17,2.62-2.62s-1.17-2.62-2.62-2.62-2.62,1.17-2.62,2.62,1.17,2.62,2.62,2.62Z"/>
        <circle class="cls-1" cx="67.08" cy="210.3" r="2.62" transform="translate(-153.64 213.82) rotate(-73.22)"/>
        <path class="cls-1" d="M81.45,203.34c1.44,0,2.62-1.17,2.62-2.62s-1.17-2.62-2.62-2.62-2.62,1.17-2.62,2.62,1.17,2.62,2.62,2.62Z"/>
        <circle class="cls-1" cx="76.66" cy="210.3" r="2.62" transform="translate(-45.98 23.05) rotate(-13.19)"/>
        <path class="cls-1" d="M91.03,203.34c1.44,0,2.62-1.17,2.62-2.62s-1.17-2.62-2.62-2.62-2.62,1.17-2.62,2.62,1.17,2.62,2.62,2.62Z"/>
        <path class="cls-1" d="M86.24,212.92c1.44,0,2.62-1.17,2.62-2.62s-1.17-2.62-2.62-2.62-2.62,1.17-2.62,2.62,1.17,2.62,2.62,2.62Z"/>
        <path class="cls-1" d="M100.61,203.34c1.44,0,2.62-1.17,2.62-2.62s-1.17-2.62-2.62-2.62-2.62,1.17-2.62,2.62,1.17,2.62,2.62,2.62Z"/>
        <path class="cls-1" d="M95.82,212.92c1.44,0,2.62-1.17,2.62-2.62s-1.17-2.62-2.62-2.62-2.62,1.17-2.62,2.62,1.17,2.62,2.62,2.62Z"/>
        <path class="cls-1" d="M110.19,203.34c1.44,0,2.62-1.17,2.62-2.62s-1.17-2.62-2.62-2.62-2.62,1.17-2.62,2.62,1.17,2.62,2.62,2.62Z"/>
        <path class="cls-1" d="M105.4,212.92c1.44,0,2.62-1.17,2.62-2.62s-1.17-2.62-2.62-2.62-2.62,1.17-2.62,2.62,1.17,2.62,2.62,2.62Z"/>
        <path class="cls-1" d="M119.77,203.34c1.44,0,2.62-1.17,2.62-2.62s-1.17-2.62-2.62-2.62-2.62,1.17-2.62,2.62,1.17,2.62,2.62,2.62Z"/>
        <circle class="cls-1" cx="114.98" cy="210.3" r="2.62" transform="translate(-44.97 31.79) rotate(-13.19)"/>
        <path class="cls-1" d="M129.35,203.34c1.44,0,2.62-1.17,2.62-2.62s-1.17-2.62-2.62-2.62-2.62,1.17-2.62,2.62,1.17,2.62,2.62,2.62Z"/>
        <path class="cls-1" d="M124.56,212.92c1.44,0,2.62-1.17,2.62-2.62s-1.17-2.62-2.62-2.62-2.62,1.17-2.62,2.62,1.17,2.62,2.62,2.62Z"/>
        <path class="cls-1" d="M138.93,203.34c1.44,0,2.62-1.17,2.62-2.62s-1.17-2.62-2.62-2.62-2.62,1.17-2.62,2.62,1.17,2.62,2.62,2.62Z"/>
        <path class="cls-1" d="M134.14,212.92c1.44,0,2.62-1.17,2.62-2.62s-1.17-2.62-2.62-2.62-2.62,1.17-2.62,2.62,1.17,2.62,2.62,2.62Z"/>
        <path class="cls-1" d="M148.51,203.34c1.44,0,2.62-1.17,2.62-2.62s-1.17-2.62-2.62-2.62-2.62,1.17-2.62,2.62,1.17,2.62,2.62,2.62Z"/>
        <circle class="cls-1" cx="143.72" cy="210.3" r="2.62" transform="translate(-44.21 38.35) rotate(-13.19)"/>
        <path class="cls-1" d="M158.09,203.34c1.44,0,2.62-1.17,2.62-2.62s-1.17-2.62-2.62-2.62-2.62,1.17-2.62,2.62,1.17,2.62,2.62,2.62Z"/>
        <path class="cls-1" d="M153.3,212.92c1.44,0,2.62-1.17,2.62-2.62s-1.17-2.62-2.62-2.62-2.62,1.17-2.62,2.62,1.17,2.62,2.62,2.62Z"/>
        <path class="cls-1" d="M167.67,198.11c-1.44,0-2.62,1.17-2.62,2.62s1.17,2.62,2.62,2.62,2.62-1.17,2.62-2.62-1.17-2.62-2.62-2.62Z"/>
        <path class="cls-1" d="M162.88,212.92c1.44,0,2.62-1.17,2.62-2.62s-1.17-2.62-2.62-2.62-2.62,1.17-2.62,2.62,1.17,2.62,2.62,2.62Z"/>
        <path class="cls-1" d="M177.24,203.34c1.44,0,2.62-1.17,2.62-2.62s-1.17-2.62-2.62-2.62-2.62,1.17-2.62,2.62,1.17,2.62,2.62,2.62Z"/>
        <circle class="cls-1" cx="172.45" cy="210.3" r="2.62" transform="translate(-43.45 44.91) rotate(-13.19)"/>
        <path class="cls-1" d="M186.82,198.11c-1.44,0-2.62,1.17-2.62,2.62s1.17,2.62,2.62,2.62,2.62-1.17,2.62-2.62-1.17-2.62-2.62-2.62Z"/>
        <path class="cls-1" d="M182.03,207.69c-1.44,0-2.62,1.17-2.62,2.62s1.17,2.62,2.62,2.62,2.62-1.17,2.62-2.62-1.17-2.62-2.62-2.62Z"/>
        <path class="cls-1" d="M193.79,200.72c0,.71.28,1.35.74,1.82.22-1.34.4-2.69.54-4.06-.76.46-1.28,1.28-1.28,2.24Z"/>
        <path class="cls-1" d="M189,210.3c0,1.44,1.17,2.62,2.62,2.62.15,0,.29-.02.43-.04.48-1.49.91-3,1.29-4.52-.46-.41-1.06-.66-1.72-.66-1.44,0-2.62,1.17-2.62,2.62Z"/>
        <path class="cls-1" d="M64.9,219.88c0-1.44-1.17-2.62-2.62-2.62s-2.54,1.11-2.6,2.49c.32.73.65,1.46,1,2.17.44.35,1,.56,1.6.56,1.44,0,2.62-1.17,2.62-2.62Z"/>
        <path class="cls-1" d="M71.87,217.27c-1.44,0-2.62,1.17-2.62,2.62s1.17,2.62,2.62,2.62,2.62-1.17,2.62-2.62-1.17-2.62-2.62-2.62Z"/>
        <path class="cls-1" d="M69.69,229.46c0-1.44-1.17-2.62-2.62-2.62-1.24,0-2.27.87-2.54,2.03.68,1.07,1.38,2.13,2.11,3.16.14.02.29.04.43.04,1.44,0,2.62-1.17,2.62-2.62Z"/>
        <path class="cls-1" d="M81.45,222.5c1.44,0,2.62-1.17,2.62-2.62s-1.17-2.62-2.62-2.62-2.62,1.17-2.62,2.62,1.17,2.62,2.62,2.62Z"/>
        <path class="cls-1" d="M76.66,226.85c-1.44,0-2.62,1.17-2.62,2.62s1.17,2.62,2.62,2.62,2.62-1.17,2.62-2.62-1.17-2.62-2.62-2.62Z"/>
        <path class="cls-1" d="M91.03,222.5c1.44,0,2.62-1.17,2.62-2.62s-1.17-2.62-2.62-2.62-2.62,1.17-2.62,2.62,1.17,2.62,2.62,2.62Z"/>
        <path class="cls-1" d="M86.24,226.85c-1.44,0-2.62,1.17-2.62,2.62s1.17,2.62,2.62,2.62,2.62-1.17,2.62-2.62-1.17-2.62-2.62-2.62Z"/>
        <path class="cls-1" d="M100.61,222.5c1.44,0,2.62-1.17,2.62-2.62s-1.17-2.62-2.62-2.62-2.62,1.17-2.62,2.62,1.17,2.62,2.62,2.62Z"/>
        <path class="cls-1" d="M95.82,232.08c1.44,0,2.62-1.17,2.62-2.62s-1.17-2.62-2.62-2.62-2.62,1.17-2.62,2.62,1.17,2.62,2.62,2.62Z"/>
        <path class="cls-1" d="M110.19,222.5c1.44,0,2.62-1.17,2.62-2.62s-1.17-2.62-2.62-2.62-2.62,1.17-2.62,2.62,1.17,2.62,2.62,2.62Z"/>
        <path class="cls-1" d="M105.4,232.08c1.44,0,2.62-1.17,2.62-2.62s-1.17-2.62-2.62-2.62-2.62,1.17-2.62,2.62,1.17,2.62,2.62,2.62Z"/>
        <path class="cls-1" d="M119.77,222.5c1.44,0,2.62-1.17,2.62-2.62s-1.17-2.62-2.62-2.62-2.62,1.17-2.62,2.62,1.17,2.62,2.62,2.62Z"/>
        <path class="cls-1" d="M114.98,232.08c1.44,0,2.62-1.17,2.62-2.62s-1.17-2.62-2.62-2.62-2.62,1.17-2.62,2.62,1.17,2.62,2.62,2.62Z"/>
        <path class="cls-1" d="M129.35,222.5c1.44,0,2.62-1.17,2.62-2.62s-1.17-2.62-2.62-2.62-2.62,1.17-2.62,2.62,1.17,2.62,2.62,2.62Z"/>
        <path class="cls-1" d="M124.56,232.08c1.44,0,2.62-1.17,2.62-2.62s-1.17-2.62-2.62-2.62-2.62,1.17-2.62,2.62,1.17,2.62,2.62,2.62Z"/>
        <path class="cls-1" d="M138.93,222.5c1.44,0,2.62-1.17,2.62-2.62s-1.17-2.62-2.62-2.62-2.62,1.17-2.62,2.62,1.17,2.62,2.62,2.62Z"/>
        <path class="cls-1" d="M134.14,232.08c1.44,0,2.62-1.17,2.62-2.62s-1.17-2.62-2.62-2.62-2.62,1.17-2.62,2.62,1.17,2.62,2.62,2.62Z"/>
        <path class="cls-1" d="M148.51,222.5c1.44,0,2.62-1.17,2.62-2.62s-1.17-2.62-2.62-2.62-2.62,1.17-2.62,2.62,1.17,2.62,2.62,2.62Z"/>
        <path class="cls-1" d="M143.72,232.08c1.44,0,2.62-1.17,2.62-2.62s-1.17-2.62-2.62-2.62-2.62,1.17-2.62,2.62,1.17,2.62,2.62,2.62Z"/>
        <path class="cls-1" d="M158.09,222.5c1.44,0,2.62-1.17,2.62-2.62s-1.17-2.62-2.62-2.62-2.62,1.17-2.62,2.62,1.17,2.62,2.62,2.62Z"/>
        <path class="cls-1" d="M153.3,232.08c1.44,0,2.62-1.17,2.62-2.62s-1.17-2.62-2.62-2.62-2.62,1.17-2.62,2.62,1.17,2.62,2.62,2.62Z"/>
        <path class="cls-1" d="M167.67,222.5c1.44,0,2.62-1.17,2.62-2.62s-1.17-2.62-2.62-2.62-2.62,1.17-2.62,2.62,1.17,2.62,2.62,2.62Z"/>
        <path class="cls-1" d="M162.88,226.85c-1.44,0-2.62,1.17-2.62,2.62s1.17,2.62,2.62,2.62,2.62-1.17,2.62-2.62-1.17-2.62-2.62-2.62Z"/>
        <path class="cls-1" d="M177.24,217.27c-1.44,0-2.62,1.17-2.62,2.62s1.17,2.62,2.62,2.62,2.62-1.17,2.62-2.62-1.17-2.62-2.62-2.62Z"/>
        <path class="cls-1" d="M172.45,226.85c-1.44,0-2.62,1.17-2.62,2.62s1.17,2.62,2.62,2.62,2.62-1.17,2.62-2.62-1.17-2.62-2.62-2.62Z"/>
        <path class="cls-1" d="M186.82,217.27c-1.44,0-2.62,1.17-2.62,2.62s1.17,2.62,2.62,2.62c.61,0,1.16-.22,1.6-.56.35-.72.68-1.44,1-2.17-.06-1.39-1.2-2.49-2.6-2.49Z"/>
        <path class="cls-1" d="M182.03,226.85c-1.44,0-2.62,1.17-2.62,2.62s1.17,2.62,2.62,2.62c.15,0,.29-.02.43-.04.73-1.03,1.43-2.09,2.11-3.16-.27-1.16-1.3-2.03-2.54-2.03Z"/>
        <path class="cls-1" d="M71.87,236.43c-.55,0-1.05.17-1.47.45,1.11,1.32,2.27,2.59,3.48,3.82.37-.45.61-1.03.61-1.66,0-1.44-1.17-2.62-2.62-2.62Z"/>
        <path class="cls-1" d="M81.45,236.43c-1.44,0-2.62,1.17-2.62,2.62s1.17,2.62,2.62,2.62,2.62-1.17,2.62-2.62-1.17-2.62-2.62-2.62Z"/>
        <circle class="cls-1" cx="91.03" cy="239.04" r="2.62"/>
        <path class="cls-1" d="M88.85,248.62c0-1.44-1.17-2.62-2.62-2.62s-2.62,1.17-2.62,2.62c0,.15.02.29.04.43,1.03.73,2.09,1.43,3.16,2.11,1.16-.27,2.03-1.3,2.03-2.54Z"/>
        <circle class="cls-1" cx="100.61" cy="239.04" r="2.62"/>
        <path class="cls-1" d="M95.82,246.01c-1.44,0-2.62,1.17-2.62,2.62s1.17,2.62,2.62,2.62,2.62-1.17,2.62-2.62-1.17-2.62-2.62-2.62Z"/>
        <path class="cls-1" d="M110.19,236.43c-1.44,0-2.62,1.17-2.62,2.62s1.17,2.62,2.62,2.62,2.62-1.17,2.62-2.62-1.17-2.62-2.62-2.62Z"/>
        <path class="cls-1" d="M105.4,246.01c-1.44,0-2.62,1.17-2.62,2.62s1.17,2.62,2.62,2.62,2.62-1.17,2.62-2.62-1.17-2.62-2.62-2.62Z"/>
        <path class="cls-1" d="M119.77,241.66c1.44,0,2.62-1.17,2.62-2.62s-1.17-2.62-2.62-2.62-2.62,1.17-2.62,2.62,1.17,2.62,2.62,2.62Z"/>
        <circle class="cls-1" cx="114.98" cy="248.62" r="2.62" transform="translate(-23.94 12.54) rotate(-5.65)"/>
        <circle class="cls-1" cx="129.35" cy="239.04" r="2.62"/>
        <path class="cls-1" d="M124.56,246.01c-1.44,0-2.62,1.17-2.62,2.62s1.17,2.62,2.62,2.62,2.62-1.17,2.62-2.62-1.17-2.62-2.62-2.62Z"/>
        <path class="cls-1" d="M138.93,236.43c-1.44,0-2.62,1.17-2.62,2.62s1.17,2.62,2.62,2.62,2.62-1.17,2.62-2.62-1.17-2.62-2.62-2.62Z"/>
        <path class="cls-1" d="M134.14,246.01c-1.44,0-2.62,1.17-2.62,2.62s1.17,2.62,2.62,2.62,2.62-1.17,2.62-2.62-1.17-2.62-2.62-2.62Z"/>
        <path class="cls-1" d="M148.51,236.43c-1.44,0-2.62,1.17-2.62,2.62s1.17,2.62,2.62,2.62,2.62-1.17,2.62-2.62-1.17-2.62-2.62-2.62Z"/>
        <circle class="cls-1" cx="143.72" cy="248.62" r="2.62" transform="translate(-23.8 15.37) rotate(-5.65)"/>
        <circle class="cls-1" cx="158.09" cy="239.04" r="2.62"/>
        <path class="cls-1" d="M153.3,246.01c-1.44,0-2.62,1.17-2.62,2.62s1.17,2.62,2.62,2.62,2.62-1.17,2.62-2.62-1.17-2.62-2.62-2.62Z"/>
        <circle class="cls-1" cx="167.67" cy="239.04" r="2.62"/>
        <path class="cls-1" d="M162.88,246.01c-1.44,0-2.62,1.17-2.62,2.62,0,1.24.87,2.27,2.03,2.54,1.07-.68,2.13-1.38,3.16-2.11.02-.14.04-.29.04-.43,0-1.44-1.17-2.62-2.62-2.62Z"/>
        <path class="cls-1" d="M174.63,239.04c0,.63.23,1.21.61,1.66,1.2-1.23,2.36-2.51,3.48-3.82-.42-.29-.92-.45-1.47-.45-1.44,0-2.62,1.17-2.62,2.62Z"/>
        <path class="cls-1" d="M100.61,255.59c-1.01,0-1.88.58-2.31,1.42,1.6.64,3.22,1.22,4.87,1.74.04-.18.06-.36.06-.54,0-1.44-1.17-2.62-2.62-2.62Z"/>
        <path class="cls-1" d="M112.8,258.2c0-1.44-1.17-2.62-2.62-2.62s-2.62,1.17-2.62,2.62c0,.82.38,1.53.97,2.01.78.18,1.56.34,2.35.49,1.1-.31,1.92-1.31,1.92-2.51Z"/>
        <path class="cls-1" d="M119.77,255.59c-1.44,0-2.62,1.17-2.62,2.62s1.17,2.62,2.62,2.62,2.62-1.17,2.62-2.62-1.17-2.62-2.62-2.62Z"/>
        <path class="cls-1" d="M129.35,255.59c-1.44,0-2.62,1.17-2.62,2.62s1.17,2.62,2.62,2.62,2.62-1.17,2.62-2.62-1.17-2.62-2.62-2.62Z"/>
        <path class="cls-1" d="M141.54,258.2c0-1.44-1.17-2.62-2.62-2.62s-2.62,1.17-2.62,2.62c0,1.2.81,2.2,1.92,2.51.79-.15,1.57-.32,2.35-.49.59-.48.97-1.2.97-2.01Z"/>
        <path class="cls-1" d="M148.51,255.59c-1.44,0-2.62,1.17-2.62,2.62,0,.19.02.37.06.54,1.65-.52,3.27-1.1,4.87-1.74-.44-.84-1.3-1.42-2.31-1.42Z"/>
      </g>
    </g>
  </g>
</svg>