<?xml version="1.0" encoding="UTF-8"?>
<svg id="_レイヤー_2" data-name="レイヤー 2" xmlns="http://www.w3.org/2000/svg" viewBox="0 0 426.31 376.26">
  <defs>
    <style>
      .cls-1 {
        fill: #8fc31f;
      }

      .cls-2 {
        fill: #00913a;
      }

      .cls-3 {
        fill: #22ac38;
      }
    </style>
  </defs>
  <g id="_レイヤー_1-2" data-name="レイヤー 1">
    <g>
      <circle class="cls-2" cx="21.75" cy="68.53" r="21.75" transform="translate(-49.93 74.18) rotate(-76.9)"/>
      <path class="cls-1" d="M54.69,349.1c-6.19,6.19-6.19,16.33,0,22.52h0c6.19,6.19,16.33,6.19,22.52,0L421.67,27.16c6.19-6.19,6.19-16.33,0-22.52h0c-6.19-6.19-16.33-6.19-22.52,0L54.69,349.1Z"/>
      <path class="cls-3" d="M109.42,188.88c-3.1,3.1-3.1,8.16,0,11.26h0c3.1,3.1,8.16,3.1,11.26,0L292.91,27.91c3.1-3.1,3.1-8.16,0-11.26h0c-3.1-3.1-8.16-3.1-11.26,0L109.42,188.88Z"/>
    </g>
  </g>
</svg>