<?xml version="1.0" encoding="UTF-8"?>
<svg id="_レイヤー_2" data-name="レイヤー 2" xmlns="http://www.w3.org/2000/svg" viewBox="0 0 312.09 312.09">
  <defs>
    <style>
      .cls-1 {
        fill: #006934;
      }

      .cls-2 {
        fill: #22ac38;
      }
    </style>
  </defs>
  <g id="_レイヤー_1-2" data-name="レイヤー 1">
    <path class="cls-2" d="M18.84,216.55c-3.58,3.58-9.43,3.58-13.01,0h0c-3.58-3.58-3.58-9.43,0-13.01L204.85,4.52c3.58-3.58,9.43-3.58,13.01,0h0c3.58,3.58,3.58,9.43,0,13.01L18.84,216.55Z"/>
    <path class="cls-1" d="M22.53,308.24c-5.14,5.14-13.54,5.14-18.68,0h0c-5.14-5.14-5.14-13.54,0-18.68L289.56,3.85c5.14-5.14,13.54-5.14,18.68,0h0c5.14,5.14,5.14,13.54,0,18.68L22.53,308.24Z"/>
  </g>
</svg>