<?xml version="1.0" encoding="UTF-8"?>
<svg id="_レイヤー_2" data-name="レイヤー 2" xmlns="http://www.w3.org/2000/svg" viewBox="0 0 634.52 29.82">
  <defs>
    <style>
      .cls-1 {
        fill: #00913a;
      }
    </style>
  </defs>
  <g id="_レイヤー_1-2" data-name="レイヤー 1">
    <g>
      <path class="cls-1" d="M0,0h9.89l4.08,16.9L18.05,0h9.92v27.68h-7.02v-15.71l-3.8,15.71h-6.4l-3.8-15.81v15.81H0V0Z"/>
      <path class="cls-1" d="M40.31,27.68c-2.29,0-4.05-.51-4.79-1.44-.71-.8-1.11-2.53-1.11-4.54,0-4.7,1.27-6.66,4.24-6.66h8.44v-.16c-.03-1.09-.22-1.28-1.36-1.28h-10.7v-6.08h12.83c4.33.03,5.97,1.54,6.03,5.44v14.72h-13.57ZM42.19,19.39c-.96,0-1.11.19-1.11,1.25,0,1.15.12,1.28,1.08,1.28h4.85v-2.53h-4.82Z"/>
      <path class="cls-1" d="M60.71.77h6.92v16.38l5.87-9.63h7.39l-6.28,9.86,6.49,10.3h-7.82l-5.66-9.95v9.95h-6.92V.77Z"/>
      <path class="cls-1" d="M86.98.77h6.92v16.38l5.87-9.63h7.39l-6.28,9.86,6.49,10.3h-7.82l-5.66-9.95v9.95h-6.92V.77Z"/>
      <path class="cls-1" d="M132.82,27.49c-3.83.13-6.62.19-9.27.19h-.93c-5.29,0-6.99-.35-8.16-1.7-1.05-1.22-1.33-2.75-1.33-7.58,0-5.95.31-8,1.45-9.25,1.14-1.28,2.91-1.63,8.1-1.63h1.42c4.48,0,6.03.32,7.23,1.47,1.11,1.09,1.55,2.59,1.55,5.5,0,.19,0,.83-.03,1.54l-.03,3.33h-12.77v.74c.03.99.15,1.12,1.17,1.12h11.59v6.27ZM126.08,15.29c.03-.16.03-.29.03-.48,0-1.12-.4-1.34-2.53-1.34h-1.64c-1.64,0-1.85.16-1.89,1.22v.61h6.03Z"/>
      <path class="cls-1" d="M139.87.77h7.05v5.06h-7.05V.77ZM139.87,7.52h7.05v20.16h-7.05V7.52Z"/>
      <path class="cls-1" d="M164.69,0h17.13c3.03,0,4.76.48,6,1.73,1.02,1.02,1.39,2.5,1.39,5.41,0,4.54-.87,5.76-4.51,6.5,3.86.54,4.67,1.6,4.67,6.21,0,3.26-.37,4.8-1.45,5.95-1.17,1.25-3.21,1.89-6.09,1.89h-17.13V0ZM179.99,10.78c1.39,0,1.76-.38,1.76-1.89s-.37-1.92-1.79-1.92h-7.79v3.81h7.82ZM179.99,20.7c1.55,0,1.76-.26,1.76-1.92,0-1.57-.31-1.89-1.76-1.89h-7.82v3.81h7.82Z"/>
      <path class="cls-1" d="M202.27,27.68c-2.29,0-4.05-.51-4.79-1.44-.71-.8-1.11-2.53-1.11-4.54,0-4.7,1.27-6.66,4.24-6.66h8.44v-.16c-.03-1.09-.22-1.28-1.36-1.28h-10.7v-6.08h12.83c4.33.03,5.97,1.54,6.03,5.44v14.72h-13.57ZM204.16,19.39c-.96,0-1.11.19-1.11,1.25,0,1.15.12,1.28,1.08,1.28h4.85v-2.53h-4.82Z"/>
      <path class="cls-1" d="M222.7,21.63h11.16c1.05,0,1.3-.16,1.3-.8,0-.7-.25-.86-1.42-.86h-5.26c-2.1,0-3.77-.54-4.58-1.47-.74-.86-1.17-2.66-1.17-4.7,0-5.09,1.27-6.27,6.74-6.27h11.96v5.76h-10.97c-.74,0-1.02.22-1.02.86,0,.58.22.7,1.3.7h6.24c3.77,0,5.16,1.76,5.16,6.46,0,2.98-.62,4.67-2.01,5.5-.96.58-2.5.86-4.82.86h-12.61v-6.05Z"/>
      <path class="cls-1" d="M268.51,27.49c-3.83.13-6.62.19-9.27.19h-.93c-5.29,0-6.99-.35-8.16-1.7-1.05-1.22-1.33-2.75-1.33-7.58,0-5.95.31-8,1.45-9.25,1.14-1.28,2.91-1.63,8.1-1.63h1.42c4.48,0,6.03.32,7.23,1.47,1.11,1.09,1.55,2.59,1.55,5.5,0,.19,0,.83-.03,1.54l-.03,3.33h-12.77v.74c.03.99.15,1.12,1.17,1.12h11.59v6.27ZM261.78,15.29c.03-.16.03-.29.03-.48,0-1.12-.4-1.34-2.53-1.34h-1.64c-1.64,0-1.85.16-1.89,1.22v.61h6.03Z"/>
      <path class="cls-1" d="M275.59.77h6.99v6.78c3.12-.06,3.96-.06,4.51-.06,3,0,4.64.19,5.75.64,1.11.42,1.89,1.15,2.38,2.27.4.93.62,2.98.62,6.24v2.18c-.03,4.83-.37,6.27-1.85,7.58-1.3.99-2.75,1.25-8.1,1.28h-2.38c-1.61,0-2.78,0-4.98-.06-1.82-.03-1.85-.03-2.94-.03V.77ZM282.58,20.89h3.56c2.91,0,2.97-.06,2.97-3.36v-1.15c0-2.08-.22-2.27-2.54-2.27h-.74c-.19,0-.22,0-1.48.03h-.8l-.46.03h-.49v6.72Z"/>
      <path class="cls-1" d="M308.6,27.68c-2.29,0-4.05-.51-4.79-1.44-.71-.8-1.11-2.53-1.11-4.54,0-4.7,1.27-6.66,4.24-6.66h8.44v-.16c-.03-1.09-.22-1.28-1.36-1.28h-10.7v-6.08h12.83c4.33.03,5.97,1.54,6.03,5.44v14.72h-13.57ZM310.49,19.39c-.96,0-1.11.19-1.11,1.25,0,1.15.12,1.28,1.08,1.28h4.85v-2.53h-4.82Z"/>
      <path class="cls-1" d="M329.09.77h6.96v26.91h-6.96V.77Z"/>
      <path class="cls-1" d="M343.31.77h6.96v26.91h-6.96V.77Z"/>
      <path class="cls-1" d="M376.08,0h9.27l8.9,27.68h-8.01l-1.61-5.95h-7.91l-1.58,5.95h-8.01l8.93-27.68ZM383.03,15.55l-2.32-8.83-2.32,8.83h4.64Z"/>
      <path class="cls-1" d="M418.89,27.58c-2.5.06-5.19.1-7.91.1h-2.29c-4.39,0-6.06-.32-7.2-1.41-1.24-1.18-1.61-2.94-1.61-8,0-5.47.25-7.46,1.14-8.67,1.11-1.54,3.09-2.11,7.08-2.11h2.97l2.41.03h5.41v6.5l-3.22-.03h-2.26c-4.05.03-5.32.06-5.94.22-.56.13-.74.93-.74,3.23,0,2.18.12,3.14.49,3.46.25.22,1.11.32,3.43.32h1.14c4.45,0,4.98,0,7.08-.06v6.43Z"/>
      <path class="cls-1" d="M431.47,27.68c-2.29,0-4.05-.51-4.79-1.44-.71-.8-1.11-2.53-1.11-4.54,0-4.7,1.27-6.66,4.24-6.66h8.44v-.16c-.03-1.09-.22-1.28-1.36-1.28h-10.7v-6.08h12.83c4.33.03,5.97,1.54,6.03,5.44v14.72h-13.57ZM433.35,19.39c-.96,0-1.11.19-1.11,1.25,0,1.15.12,1.28,1.08,1.28h4.85v-2.53h-4.82Z"/>
      <path class="cls-1" d="M472.05,27.61c-2.97.03-5.5.06-8.62.06h-2.13c-3.93,0-5.75-.26-7.14-1.02-1.76-.96-2.32-3.04-2.32-8.7s.4-7.78,1.79-9.06c1.08-.99,2.69-1.38,5.75-1.38h1.42c.9.03,2.35.03,4.17.03V.77h7.08v26.85ZM464.97,14.27c-1.98-.06-2.63-.06-3.83-.06-2.57,0-2.69.19-2.69,4.19,0,2.24.28,2.56,2.41,2.56h.19c.09,0,.43,0,.96-.03l1.64-.03,1.33-.03v-6.59Z"/>
      <path class="cls-1" d="M498.64,27.49c-3.83.13-6.62.19-9.27.19h-.93c-5.29,0-6.99-.35-8.16-1.7-1.05-1.22-1.33-2.75-1.33-7.58,0-5.95.31-8,1.45-9.25,1.14-1.28,2.91-1.63,8.1-1.63h1.42c4.48,0,6.03.32,7.23,1.47,1.11,1.09,1.54,2.59,1.54,5.5,0,.19,0,.83-.03,1.54l-.03,3.33h-12.77v.74c.03.99.15,1.12,1.17,1.12h11.59v6.27ZM491.9,15.29c.03-.16.03-.29.03-.48,0-1.12-.4-1.34-2.54-1.34h-1.64c-1.64,0-1.85.16-1.89,1.22v.61h6.03Z"/>
      <path class="cls-1" d="M505.31,7.52h21.42c4.67.03,6.28,1.57,6.37,5.98v14.17h-6.77v-12.03c-.03-1.31-.5-1.7-2.1-1.7h-1.67v13.73h-6.77v-13.73h-3.71v13.73h-6.77V7.52Z"/>
      <path class="cls-1" d="M538.35,7.52h7.23l3.28,8.19,3.37-8.19h7.42l-7.73,17.76c-1.02,2.3-1.95,3.58-3.03,4.06-.74.32-2.13.48-4.54.48h-2.1l-2.47-.03v-5.89h2.84c2.29-.03,2.81-.16,3.06-.67l-7.33-15.71Z"/>
      <path class="cls-1" d="M586.54,29.76c-4.7.03-6.34-.22-8.22-1.18-3.12-1.63-4.79-4.51-4.79-8.26s1.48-6.59,4.11-8.29c1.67-1.09,3.21-1.66,5.69-2.14l-.28-8.77h7.33l.09,7.81,8.72-.22v6.72l-6.43.19c-4.67.1-7.14.35-9.06.83s-3,1.63-3,3.2c0,1.31.56,2.3,1.61,2.78.83.42,3.28.7,6.18.7.99,0,1.11,0,2.04-.03l8.84-.19v6.82l-12.83.03Z"/>
      <path class="cls-1" d="M607.65,29.5c-.43-4.48-.53-6.72-.53-13.09,0-5.28.25-9.54.83-15.01h6.89c-.8,6.46-.96,9.47-.96,18.17,0,3.26.15,5.7.65,9.92h-6.89ZM634.42,26.59c-2.78-1.57-3.52-1.95-4.39-2.27-.19,1.86-.68,2.85-1.92,3.81-1.21.9-2.88,1.34-5.16,1.34-2.07,0-3.52-.32-4.64-.99-2.04-1.28-3.12-3.2-3.12-5.6s1.02-4.35,3-5.5c1.08-.64,2.26-.96,3.49-.96.56,0,1.02.06,1.92.22.03-.58.03-.9.03-1.12l-.03-2.27v-.7l-7.91.1v-6.53l7.82-.1V1.15h6.83v4.8h4.17v6.43l-4.2.1v.83l-.03,3.14v1.38c2.44.86,2.78.99,4.14,1.63v7.14ZM620.79,23.04c0,.77.53,1.22,1.48,1.22.9,0,1.42-.45,1.42-1.18s-.65-1.25-1.48-1.25-1.42.48-1.42,1.22Z"/>
    </g>
  </g>
</svg>