<?xml version="1.0" encoding="UTF-8"?>
<svg id="_レイヤー_2" data-name="レイヤー 2" xmlns="http://www.w3.org/2000/svg" viewBox="0 0 152.43 150.61">
  <defs>
    <style>
      .cls-1 {
        fill: #dae000;
      }
    </style>
  </defs>
  <g id="_レイヤー_1-2" data-name="レイヤー 1">
    <g>
      <path class="cls-1" d="M34.8,16.01c1.56,0,2.83-1.27,2.83-2.83,0-1.34-.94-2.46-2.19-2.75-1.16.73-2.3,1.49-3.42,2.28-.03.15-.05.31-.05.47,0,1.56,1.27,2.83,2.83,2.83Z"/>
      <path class="cls-1" d="M50.33,5.65c1.56,0,2.83-1.27,2.83-2.83,0-.2-.02-.4-.06-.59-1.78.56-3.54,1.19-5.26,1.88.47.91,1.41,1.53,2.5,1.53Z"/>
      <path class="cls-1" d="M45.15,16.01c1.56,0,2.83-1.27,2.83-2.83s-1.27-2.83-2.83-2.83-2.83,1.27-2.83,2.83,1.27,2.83,2.83,2.83Z"/>
      <path class="cls-1" d="M57.85,2.83c0,1.56,1.27,2.83,2.83,2.83s2.83-1.27,2.83-2.83c0-1.3-.88-2.38-2.07-2.71-.85.17-1.7.34-2.54.54-.63.52-1.04,1.3-1.04,2.18Z"/>
      <path class="cls-1" d="M55.5,16.01c1.56,0,2.83-1.27,2.83-2.83s-1.27-2.83-2.83-2.83-2.83,1.27-2.83,2.83,1.27,2.83,2.83,2.83Z"/>
      <path class="cls-1" d="M71.04,5.65c1.56,0,2.83-1.27,2.83-2.83s-1.27-2.83-2.83-2.83-2.83,1.27-2.83,2.83,1.27,2.83,2.83,2.83Z"/>
      <path class="cls-1" d="M65.86,16.01c1.56,0,2.83-1.27,2.83-2.83s-1.27-2.83-2.83-2.83-2.83,1.27-2.83,2.83,1.27,2.83,2.83,2.83Z"/>
      <path class="cls-1" d="M81.39,5.65c1.56,0,2.83-1.27,2.83-2.83s-1.27-2.83-2.83-2.83-2.83,1.27-2.83,2.83,1.27,2.83,2.83,2.83Z"/>
      <path class="cls-1" d="M76.21,16.01c1.56,0,2.83-1.27,2.83-2.83s-1.27-2.83-2.83-2.83-2.83,1.27-2.83,2.83,1.27,2.83,2.83,2.83Z"/>
      <path class="cls-1" d="M88.92,2.83c0,1.56,1.27,2.83,2.83,2.83s2.83-1.27,2.83-2.83c0-.88-.41-1.66-1.04-2.18-.84-.19-1.69-.37-2.54-.54-1.19.33-2.07,1.41-2.07,2.71Z"/>
      <path class="cls-1" d="M86.57,16.01c1.56,0,2.83-1.27,2.83-2.83s-1.27-2.83-2.83-2.83-2.83,1.27-2.83,2.83,1.27,2.83,2.83,2.83Z"/>
      <path class="cls-1" d="M102.1,5.65c1.09,0,2.03-.63,2.5-1.53-1.72-.69-3.48-1.32-5.26-1.88-.04.19-.06.39-.06.59,0,1.56,1.27,2.83,2.83,2.83Z"/>
      <path class="cls-1" d="M96.92,16.01c1.56,0,2.83-1.27,2.83-2.83s-1.27-2.83-2.83-2.83-2.83,1.27-2.83,2.83,1.27,2.83,2.83,2.83Z"/>
      <path class="cls-1" d="M107.27,16.01c1.56,0,2.83-1.27,2.83-2.83s-1.27-2.83-2.83-2.83-2.83,1.27-2.83,2.83,1.27,2.83,2.83,2.83Z"/>
      <path class="cls-1" d="M114.8,13.18c0,1.56,1.27,2.83,2.83,2.83s2.83-1.27,2.83-2.83c0-.16-.02-.32-.05-.47-1.12-.79-2.26-1.55-3.42-2.28-1.25.29-2.19,1.41-2.19,2.75Z"/>
      <path class="cls-1" d="M22.09,23.53c0-.68-.25-1.3-.66-1.79-1.3,1.33-2.55,2.71-3.76,4.13.45.31,1,.49,1.59.49,1.56,0,2.83-1.27,2.83-2.83Z"/>
      <path class="cls-1" d="M14.09,36.72c1.56,0,2.83-1.27,2.83-2.83s-1.27-2.83-2.83-2.83c-.16,0-.32.02-.47.05-.79,1.12-1.55,2.26-2.28,3.42.29,1.25,1.41,2.19,2.75,2.19Z"/>
      <path class="cls-1" d="M29.62,26.36c1.56,0,2.83-1.27,2.83-2.83s-1.27-2.83-2.83-2.83-2.83,1.27-2.83,2.83,1.27,2.83,2.83,2.83Z"/>
      <circle class="cls-1" cx="24.44" cy="33.89" r="2.83"/>
      <circle class="cls-1" cx="39.97" cy="23.53" r="2.83"/>
      <path class="cls-1" d="M34.8,36.72c1.56,0,2.83-1.27,2.83-2.83s-1.27-2.83-2.83-2.83-2.83,1.27-2.83,2.83,1.27,2.83,2.83,2.83Z"/>
      <circle class="cls-1" cx="50.33" cy="23.53" r="2.83"/>
      <circle class="cls-1" cx="45.15" cy="33.89" r="2.83"/>
      <path class="cls-1" d="M60.68,26.36c1.56,0,2.83-1.27,2.83-2.83s-1.27-2.83-2.83-2.83-2.83,1.27-2.83,2.83,1.27,2.83,2.83,2.83Z"/>
      <circle class="cls-1" cx="55.5" cy="33.89" r="2.83"/>
      <path class="cls-1" d="M71.04,20.71c-1.56,0-2.83,1.27-2.83,2.83s1.27,2.83,2.83,2.83,2.83-1.27,2.83-2.83-1.27-2.83-2.83-2.83Z"/>
      <path class="cls-1" d="M65.86,31.06c-1.56,0-2.83,1.27-2.83,2.83s1.27,2.83,2.83,2.83,2.83-1.27,2.83-2.83-1.27-2.83-2.83-2.83Z"/>
      <path class="cls-1" d="M81.39,20.71c-1.56,0-2.83,1.27-2.83,2.83s1.27,2.83,2.83,2.83,2.83-1.27,2.83-2.83-1.27-2.83-2.83-2.83Z"/>
      <circle class="cls-1" cx="76.21" cy="33.89" r="2.83"/>
      <path class="cls-1" d="M91.74,26.36c1.56,0,2.83-1.27,2.83-2.83s-1.27-2.83-2.83-2.83-2.83,1.27-2.83,2.83,1.27,2.83,2.83,2.83Z"/>
      <path class="cls-1" d="M86.57,31.06c-1.56,0-2.83,1.27-2.83,2.83s1.27,2.83,2.83,2.83,2.83-1.27,2.83-2.83-1.27-2.83-2.83-2.83Z"/>
      <path class="cls-1" d="M102.1,26.36c1.56,0,2.83-1.27,2.83-2.83s-1.27-2.83-2.83-2.83-2.83,1.27-2.83,2.83,1.27,2.83,2.83,2.83Z"/>
      <circle class="cls-1" cx="96.92" cy="33.89" r="2.83"/>
      <circle class="cls-1" cx="112.45" cy="23.53" r="2.83"/>
      <path class="cls-1" d="M107.27,31.06c-1.56,0-2.83,1.27-2.83,2.83s1.27,2.83,2.83,2.83,2.83-1.27,2.83-2.83-1.27-2.83-2.83-2.83Z"/>
      <path class="cls-1" d="M122.81,26.36c1.56,0,2.83-1.27,2.83-2.83s-1.27-2.83-2.83-2.83-2.83,1.27-2.83,2.83,1.27,2.83,2.83,2.83Z"/>
      <circle class="cls-1" cx="117.63" cy="33.89" r="2.83" transform="translate(-2.11 8.42) rotate(-4.07)"/>
      <path class="cls-1" d="M133.16,26.36c.59,0,1.14-.18,1.59-.49-1.2-1.42-2.46-2.8-3.76-4.13-.41.49-.66,1.11-.66,1.79,0,1.56,1.27,2.83,2.83,2.83Z"/>
      <circle class="cls-1" cx="127.98" cy="33.89" r="2.83"/>
      <path class="cls-1" d="M135.51,33.89c0,1.56,1.27,2.83,2.83,2.83,1.34,0,2.46-.94,2.75-2.19-.73-1.16-1.49-2.3-2.28-3.42-.15-.03-.31-.05-.47-.05-1.56,0-2.83,1.27-2.83,2.83Z"/>
      <path class="cls-1" d="M8.91,47.07c1.56,0,2.83-1.27,2.83-2.83s-1.27-2.83-2.83-2.83c-.66,0-1.25.23-1.73.61-.37.78-.73,1.56-1.08,2.35.07,1.5,1.3,2.7,2.81,2.7Z"/>
      <path class="cls-1" d="M6.56,54.6c0-1.56-1.27-2.83-2.83-2.83-.16,0-.32.02-.47.05-.52,1.61-.98,3.24-1.4,4.89.5.44,1.15.72,1.86.72,1.56,0,2.83-1.27,2.83-2.83Z"/>
      <path class="cls-1" d="M19.27,47.07c1.56,0,2.83-1.27,2.83-2.83s-1.27-2.83-2.83-2.83-2.83,1.27-2.83,2.83,1.27,2.83,2.83,2.83Z"/>
      <path class="cls-1" d="M14.09,57.42c1.56,0,2.83-1.27,2.83-2.83s-1.27-2.83-2.83-2.83-2.83,1.27-2.83,2.83,1.27,2.83,2.83,2.83Z"/>
      <path class="cls-1" d="M29.62,41.42c-1.56,0-2.83,1.27-2.83,2.83s1.27,2.83,2.83,2.83,2.83-1.27,2.83-2.83-1.27-2.83-2.83-2.83Z"/>
      <circle class="cls-1" cx="24.44" cy="54.6" r="2.83"/>
      <path class="cls-1" d="M39.97,41.42c-1.56,0-2.83,1.27-2.83,2.83s1.27,2.83,2.83,2.83,2.83-1.27,2.83-2.83-1.27-2.83-2.83-2.83Z"/>
      <path class="cls-1" d="M34.8,51.77c-1.56,0-2.83,1.27-2.83,2.83s1.27,2.83,2.83,2.83,2.83-1.27,2.83-2.83-1.27-2.83-2.83-2.83Z"/>
      <path class="cls-1" d="M50.33,41.42c-1.56,0-2.83,1.27-2.83,2.83s1.27,2.83,2.83,2.83,2.83-1.27,2.83-2.83-1.27-2.83-2.83-2.83Z"/>
      <circle class="cls-1" cx="45.15" cy="54.6" r="2.83"/>
      <path class="cls-1" d="M60.68,41.42c-1.56,0-2.83,1.27-2.83,2.83s1.27,2.83,2.83,2.83,2.83-1.27,2.83-2.83-1.27-2.83-2.83-2.83Z"/>
      <circle class="cls-1" cx="55.5" cy="54.6" r="2.83"/>
      <path class="cls-1" d="M71.04,41.42c-1.56,0-2.83,1.27-2.83,2.83s1.27,2.83,2.83,2.83,2.83-1.27,2.83-2.83-1.27-2.83-2.83-2.83Z"/>
      <path class="cls-1" d="M65.86,51.77c-1.56,0-2.83,1.27-2.83,2.83s1.27,2.83,2.83,2.83,2.83-1.27,2.83-2.83-1.27-2.83-2.83-2.83Z"/>
      <path class="cls-1" d="M81.39,41.42c-1.56,0-2.83,1.27-2.83,2.83s1.27,2.83,2.83,2.83,2.83-1.27,2.83-2.83-1.27-2.83-2.83-2.83Z"/>
      <circle class="cls-1" cx="76.21" cy="54.6" r="2.83"/>
      <path class="cls-1" d="M91.74,41.42c-1.56,0-2.83,1.27-2.83,2.83s1.27,2.83,2.83,2.83,2.83-1.27,2.83-2.83-1.27-2.83-2.83-2.83Z"/>
      <path class="cls-1" d="M86.57,51.77c-1.56,0-2.83,1.27-2.83,2.83s1.27,2.83,2.83,2.83,2.83-1.27,2.83-2.83-1.27-2.83-2.83-2.83Z"/>
      <path class="cls-1" d="M102.1,41.42c-1.56,0-2.83,1.27-2.83,2.83s1.27,2.83,2.83,2.83,2.83-1.27,2.83-2.83-1.27-2.83-2.83-2.83Z"/>
      <circle class="cls-1" cx="96.92" cy="54.6" r="2.83"/>
      <path class="cls-1" d="M112.45,41.42c-1.56,0-2.83,1.27-2.83,2.83s1.27,2.83,2.83,2.83,2.83-1.27,2.83-2.83-1.27-2.83-2.83-2.83Z"/>
      <path class="cls-1" d="M107.27,51.77c-1.56,0-2.83,1.27-2.83,2.83s1.27,2.83,2.83,2.83,2.83-1.27,2.83-2.83-1.27-2.83-2.83-2.83Z"/>
      <path class="cls-1" d="M122.81,41.42c-1.56,0-2.83,1.27-2.83,2.83s1.27,2.83,2.83,2.83,2.83-1.27,2.83-2.83-1.27-2.83-2.83-2.83Z"/>
      <circle class="cls-1" cx="117.63" cy="54.6" r="2.83" transform="translate(51.71 166.27) rotate(-84.35)"/>
      <path class="cls-1" d="M133.16,47.07c1.56,0,2.83-1.27,2.83-2.83s-1.27-2.83-2.83-2.83-2.83,1.27-2.83,2.83,1.27,2.83,2.83,2.83Z"/>
      <circle class="cls-1" cx="127.98" cy="54.6" r="2.83"/>
      <path class="cls-1" d="M140.69,44.24c0,1.56,1.27,2.83,2.83,2.83s2.74-1.2,2.81-2.69c-.35-.79-.71-1.58-1.08-2.35-.48-.37-1.08-.61-1.73-.61-1.56,0-2.83,1.27-2.83,2.83Z"/>
      <path class="cls-1" d="M138.34,57.42c1.56,0,2.83-1.27,2.83-2.83s-1.27-2.83-2.83-2.83-2.83,1.27-2.83,2.83,1.27,2.83,2.83,2.83Z"/>
      <path class="cls-1" d="M145.86,54.6c0,1.56,1.27,2.83,2.83,2.83.72,0,1.37-.28,1.86-.72-.41-1.65-.88-3.28-1.4-4.89-.15-.03-.31-.05-.47-.05-1.56,0-2.83,1.27-2.83,2.83Z"/>
      <path class="cls-1" d="M1.38,64.95c0-.77-.31-1.46-.8-1.97-.23,1.45-.43,2.91-.58,4.38.83-.49,1.38-1.39,1.38-2.42Z"/>
      <path class="cls-1" d="M8.91,67.78c1.56,0,2.83-1.27,2.83-2.83s-1.27-2.83-2.83-2.83-2.83,1.27-2.83,2.83,1.27,2.83,2.83,2.83Z"/>
      <path class="cls-1" d="M3.73,72.48c-1.56,0-2.83,1.27-2.83,2.83s1.27,2.83,2.83,2.83,2.83-1.27,2.83-2.83-1.27-2.83-2.83-2.83Z"/>
      <path class="cls-1" d="M19.27,62.12c-1.56,0-2.83,1.27-2.83,2.83s1.27,2.83,2.83,2.83,2.83-1.27,2.83-2.83-1.27-2.83-2.83-2.83Z"/>
      <path class="cls-1" d="M14.09,72.48c-1.56,0-2.83,1.27-2.83,2.83s1.27,2.83,2.83,2.83,2.83-1.27,2.83-2.83-1.27-2.83-2.83-2.83Z"/>
      <path class="cls-1" d="M29.62,67.78c1.56,0,2.83-1.27,2.83-2.83s-1.27-2.83-2.83-2.83-2.83,1.27-2.83,2.83,1.27,2.83,2.83,2.83Z"/>
      <circle class="cls-1" cx="24.44" cy="75.3" r="2.83"/>
      <path class="cls-1" d="M39.97,62.12c-1.56,0-2.83,1.27-2.83,2.83s1.27,2.83,2.83,2.83,2.83-1.27,2.83-2.83-1.27-2.83-2.83-2.83Z"/>
      <path class="cls-1" d="M34.8,78.13c1.56,0,2.83-1.27,2.83-2.83s-1.27-2.83-2.83-2.83-2.83,1.27-2.83,2.83,1.27,2.83,2.83,2.83Z"/>
      <path class="cls-1" d="M50.33,62.12c-1.56,0-2.83,1.27-2.83,2.83s1.27,2.83,2.83,2.83,2.83-1.27,2.83-2.83-1.27-2.83-2.83-2.83Z"/>
      <circle class="cls-1" cx="45.15" cy="75.3" r="2.83"/>
      <path class="cls-1" d="M60.68,62.12c-1.56,0-2.83,1.27-2.83,2.83s1.27,2.83,2.83,2.83,2.83-1.27,2.83-2.83-1.27-2.83-2.83-2.83Z"/>
      <circle class="cls-1" cx="55.5" cy="75.3" r="2.83"/>
      <path class="cls-1" d="M71.04,67.78c1.56,0,2.83-1.27,2.83-2.83s-1.27-2.83-2.83-2.83-2.83,1.27-2.83,2.83,1.27,2.83,2.83,2.83Z"/>
      <path class="cls-1" d="M65.86,72.48c-1.56,0-2.83,1.27-2.83,2.83s1.27,2.83,2.83,2.83,2.83-1.27,2.83-2.83-1.27-2.83-2.83-2.83Z"/>
      <path class="cls-1" d="M81.39,67.78c1.56,0,2.83-1.27,2.83-2.83s-1.27-2.83-2.83-2.83-2.83,1.27-2.83,2.83,1.27,2.83,2.83,2.83Z"/>
      <circle class="cls-1" cx="76.21" cy="75.3" r="2.83"/>
      <path class="cls-1" d="M91.74,62.12c-1.56,0-2.83,1.27-2.83,2.83s1.27,2.83,2.83,2.83,2.83-1.27,2.83-2.83-1.27-2.83-2.83-2.83Z"/>
      <path class="cls-1" d="M86.57,78.13c1.56,0,2.83-1.27,2.83-2.83s-1.27-2.83-2.83-2.83-2.83,1.27-2.83,2.83,1.27,2.83,2.83,2.83Z"/>
      <path class="cls-1" d="M102.1,62.12c-1.56,0-2.83,1.27-2.83,2.83s1.27,2.83,2.83,2.83,2.83-1.27,2.83-2.83-1.27-2.83-2.83-2.83Z"/>
      <circle class="cls-1" cx="96.92" cy="75.3" r="2.83"/>
      <path class="cls-1" d="M112.45,62.12c-1.56,0-2.83,1.27-2.83,2.83s1.27,2.83,2.83,2.83,2.83-1.27,2.83-2.83-1.27-2.83-2.83-2.83Z"/>
      <path class="cls-1" d="M107.27,78.13c1.56,0,2.83-1.27,2.83-2.83s-1.27-2.83-2.83-2.83-2.83,1.27-2.83,2.83,1.27,2.83,2.83,2.83Z"/>
      <path class="cls-1" d="M122.81,62.12c-1.56,0-2.83,1.27-2.83,2.83s1.27,2.83,2.83,2.83,2.83-1.27,2.83-2.83-1.27-2.83-2.83-2.83Z"/>
      <circle class="cls-1" cx="117.63" cy="75.3" r="2.83" transform="translate(31.1 184.94) rotate(-84.35)"/>
      <path class="cls-1" d="M133.16,62.12c-1.56,0-2.83,1.27-2.83,2.83s1.27,2.83,2.83,2.83,2.83-1.27,2.83-2.83-1.27-2.83-2.83-2.83Z"/>
      <circle class="cls-1" cx="127.98" cy="75.3" r="2.83"/>
      <path class="cls-1" d="M143.51,67.78c1.56,0,2.83-1.27,2.83-2.83s-1.27-2.83-2.83-2.83-2.83,1.27-2.83,2.83,1.27,2.83,2.83,2.83Z"/>
      <path class="cls-1" d="M138.34,78.13c1.56,0,2.83-1.27,2.83-2.83s-1.27-2.83-2.83-2.83-2.83,1.27-2.83,2.83,1.27,2.83,2.83,2.83Z"/>
      <path class="cls-1" d="M152.43,67.37c-.15-1.47-.35-2.94-.58-4.38-.49.51-.8,1.2-.8,1.97,0,1.03.56,1.93,1.38,2.42Z"/>
      <circle class="cls-1" cx="148.69" cy="75.3" r="2.83"/>
      <path class="cls-1" d="M0,83.24c.15,1.47.35,2.94.58,4.38.49-.51.8-1.2.8-1.97,0-1.03-.56-1.93-1.38-2.42Z"/>
      <path class="cls-1" d="M8.91,82.83c-1.56,0-2.83,1.27-2.83,2.83s1.27,2.83,2.83,2.83,2.83-1.27,2.83-2.83-1.27-2.83-2.83-2.83Z"/>
      <path class="cls-1" d="M6.56,96.01c0-1.56-1.27-2.83-2.83-2.83-.72,0-1.37.28-1.86.72.41,1.65.88,3.28,1.4,4.89.15.03.31.05.47.05,1.56,0,2.83-1.27,2.83-2.83Z"/>
      <circle class="cls-1" cx="19.27" cy="85.66" r="2.83"/>
      <path class="cls-1" d="M14.09,93.19c-1.56,0-2.83,1.27-2.83,2.83s1.27,2.83,2.83,2.83,2.83-1.27,2.83-2.83-1.27-2.83-2.83-2.83Z"/>
      <path class="cls-1" d="M29.62,88.49c1.56,0,2.83-1.27,2.83-2.83s-1.27-2.83-2.83-2.83-2.83,1.27-2.83,2.83,1.27,2.83,2.83,2.83Z"/>
      <path class="cls-1" d="M24.44,98.84c1.56,0,2.83-1.27,2.83-2.83s-1.27-2.83-2.83-2.83-2.83,1.27-2.83,2.83,1.27,2.83,2.83,2.83Z"/>
      <circle class="cls-1" cx="39.97" cy="85.66" r="2.83"/>
      <path class="cls-1" d="M34.8,98.84c1.56,0,2.83-1.27,2.83-2.83s-1.27-2.83-2.83-2.83-2.83,1.27-2.83,2.83,1.27,2.83,2.83,2.83Z"/>
      <circle class="cls-1" cx="50.33" cy="85.66" r="2.83"/>
      <path class="cls-1" d="M45.15,98.84c1.56,0,2.83-1.27,2.83-2.83s-1.27-2.83-2.83-2.83-2.83,1.27-2.83,2.83,1.27,2.83,2.83,2.83Z"/>
      <path class="cls-1" d="M60.68,88.49c1.56,0,2.83-1.27,2.83-2.83s-1.27-2.83-2.83-2.83-2.83,1.27-2.83,2.83,1.27,2.83,2.83,2.83Z"/>
      <path class="cls-1" d="M55.5,98.84c1.56,0,2.83-1.27,2.83-2.83s-1.27-2.83-2.83-2.83-2.83,1.27-2.83,2.83,1.27,2.83,2.83,2.83Z"/>
      <path class="cls-1" d="M71.04,88.49c1.56,0,2.83-1.27,2.83-2.83s-1.27-2.83-2.83-2.83-2.83,1.27-2.83,2.83,1.27,2.83,2.83,2.83Z"/>
      <path class="cls-1" d="M65.86,98.84c1.56,0,2.83-1.27,2.83-2.83s-1.27-2.83-2.83-2.83-2.83,1.27-2.83,2.83,1.27,2.83,2.83,2.83Z"/>
      <path class="cls-1" d="M81.39,88.49c1.56,0,2.83-1.27,2.83-2.83s-1.27-2.83-2.83-2.83-2.83,1.27-2.83,2.83,1.27,2.83,2.83,2.83Z"/>
      <path class="cls-1" d="M76.21,98.84c1.56,0,2.83-1.27,2.83-2.83s-1.27-2.83-2.83-2.83-2.83,1.27-2.83,2.83,1.27,2.83,2.83,2.83Z"/>
      <path class="cls-1" d="M91.74,88.49c1.56,0,2.83-1.27,2.83-2.83s-1.27-2.83-2.83-2.83-2.83,1.27-2.83,2.83,1.27,2.83,2.83,2.83Z"/>
      <path class="cls-1" d="M86.57,98.84c1.56,0,2.83-1.27,2.83-2.83s-1.27-2.83-2.83-2.83-2.83,1.27-2.83,2.83,1.27,2.83,2.83,2.83Z"/>
      <path class="cls-1" d="M102.1,88.49c1.56,0,2.83-1.27,2.83-2.83s-1.27-2.83-2.83-2.83-2.83,1.27-2.83,2.83,1.27,2.83,2.83,2.83Z"/>
      <path class="cls-1" d="M96.92,98.84c1.56,0,2.83-1.27,2.83-2.83s-1.27-2.83-2.83-2.83-2.83,1.27-2.83,2.83,1.27,2.83,2.83,2.83Z"/>
      <circle class="cls-1" cx="112.45" cy="85.66" r="2.83"/>
      <path class="cls-1" d="M107.27,98.84c1.56,0,2.83-1.27,2.83-2.83s-1.27-2.83-2.83-2.83-2.83,1.27-2.83,2.83,1.27,2.83,2.83,2.83Z"/>
      <path class="cls-1" d="M122.81,82.83c-1.56,0-2.83,1.27-2.83,2.83s1.27,2.83,2.83,2.83,2.83-1.27,2.83-2.83-1.27-2.83-2.83-2.83Z"/>
      <path class="cls-1" d="M117.63,98.84c1.56,0,2.83-1.27,2.83-2.83s-1.27-2.83-2.83-2.83-2.83,1.27-2.83,2.83,1.27,2.83,2.83,2.83Z"/>
      <circle class="cls-1" cx="133.16" cy="85.66" r="2.83"/>
      <path class="cls-1" d="M127.98,98.84c1.56,0,2.83-1.27,2.83-2.83s-1.27-2.83-2.83-2.83-2.83,1.27-2.83,2.83,1.27,2.83,2.83,2.83Z"/>
      <path class="cls-1" d="M143.51,82.83c-1.56,0-2.83,1.27-2.83,2.83s1.27,2.83,2.83,2.83,2.83-1.27,2.83-2.83-1.27-2.83-2.83-2.83Z"/>
      <path class="cls-1" d="M138.34,93.19c-1.56,0-2.83,1.27-2.83,2.83s1.27,2.83,2.83,2.83,2.83-1.27,2.83-2.83-1.27-2.83-2.83-2.83Z"/>
      <path class="cls-1" d="M151.04,85.66c0,.77.31,1.46.8,1.97.23-1.45.43-2.91.58-4.38-.83.49-1.38,1.39-1.38,2.42Z"/>
      <path class="cls-1" d="M145.86,96.01c0,1.56,1.27,2.83,2.83,2.83.16,0,.32-.02.47-.05.52-1.61.98-3.24,1.4-4.89-.5-.44-1.15-.72-1.86-.72-1.56,0-2.83,1.27-2.83,2.83Z"/>
      <path class="cls-1" d="M11.74,106.37c0-1.56-1.27-2.83-2.83-2.83s-2.74,1.2-2.81,2.69c.35.79.71,1.58,1.08,2.35.48.37,1.08.61,1.73.61,1.56,0,2.83-1.27,2.83-2.83Z"/>
      <circle class="cls-1" cx="19.27" cy="106.37" r="2.83" transform="translate(-86.45 83.79) rotate(-67.68)"/>
      <path class="cls-1" d="M16.92,116.72c0-1.56-1.27-2.83-2.83-2.83-1.34,0-2.46.94-2.75,2.19.73,1.16,1.49,2.3,2.28,3.42.15.03.31.05.47.05,1.56,0,2.83-1.27,2.83-2.83Z"/>
      <path class="cls-1" d="M29.62,109.19c1.56,0,2.83-1.27,2.83-2.83s-1.27-2.83-2.83-2.83-2.83,1.27-2.83,2.83,1.27,2.83,2.83,2.83Z"/>
      <circle class="cls-1" cx="24.44" cy="116.72" r="2.83"/>
      <circle class="cls-1" cx="39.97" cy="106.37" r="2.83"/>
      <path class="cls-1" d="M34.8,113.89c-1.56,0-2.83,1.27-2.83,2.83s1.27,2.83,2.83,2.83,2.83-1.27,2.83-2.83-1.27-2.83-2.83-2.83Z"/>
      <circle class="cls-1" cx="50.33" cy="106.37" r="2.83"/>
      <circle class="cls-1" cx="45.15" cy="116.72" r="2.83"/>
      <path class="cls-1" d="M60.68,109.19c1.56,0,2.83-1.27,2.83-2.83s-1.27-2.83-2.83-2.83-2.83,1.27-2.83,2.83,1.27,2.83,2.83,2.83Z"/>
      <circle class="cls-1" cx="55.5" cy="116.72" r="2.83"/>
      <path class="cls-1" d="M71.04,109.19c1.56,0,2.83-1.27,2.83-2.83s-1.27-2.83-2.83-2.83-2.83,1.27-2.83,2.83,1.27,2.83,2.83,2.83Z"/>
      <path class="cls-1" d="M65.86,119.55c1.56,0,2.83-1.27,2.83-2.83s-1.27-2.83-2.83-2.83-2.83,1.27-2.83,2.83,1.27,2.83,2.83,2.83Z"/>
      <path class="cls-1" d="M81.39,109.19c1.56,0,2.83-1.27,2.83-2.83s-1.27-2.83-2.83-2.83-2.83,1.27-2.83,2.83,1.27,2.83,2.83,2.83Z"/>
      <circle class="cls-1" cx="76.21" cy="116.72" r="2.83"/>
      <path class="cls-1" d="M91.74,109.19c1.56,0,2.83-1.27,2.83-2.83s-1.27-2.83-2.83-2.83-2.83,1.27-2.83,2.83,1.27,2.83,2.83,2.83Z"/>
      <path class="cls-1" d="M86.57,119.55c1.56,0,2.83-1.27,2.83-2.83s-1.27-2.83-2.83-2.83-2.83,1.27-2.83,2.83,1.27,2.83,2.83,2.83Z"/>
      <path class="cls-1" d="M102.1,109.19c1.56,0,2.83-1.27,2.83-2.83s-1.27-2.83-2.83-2.83-2.83,1.27-2.83,2.83,1.27,2.83,2.83,2.83Z"/>
      <circle class="cls-1" cx="96.92" cy="116.72" r="2.83"/>
      <circle class="cls-1" cx="112.45" cy="106.37" r="2.83"/>
      <path class="cls-1" d="M107.27,119.55c1.56,0,2.83-1.27,2.83-2.83s-1.27-2.83-2.83-2.83-2.83,1.27-2.83,2.83,1.27,2.83,2.83,2.83Z"/>
      <path class="cls-1" d="M122.81,109.19c1.56,0,2.83-1.27,2.83-2.83s-1.27-2.83-2.83-2.83-2.83,1.27-2.83,2.83,1.27,2.83,2.83,2.83Z"/>
      <circle class="cls-1" cx="117.63" cy="116.72" r="2.83"/>
      <circle class="cls-1" cx="133.16" cy="106.37" r="2.83" transform="translate(-15.81 189.15) rotate(-67.68)"/>
      <circle class="cls-1" cx="127.98" cy="116.72" r="2.83"/>
      <path class="cls-1" d="M143.51,103.54c-1.56,0-2.83,1.27-2.83,2.83s1.27,2.83,2.83,2.83c.66,0,1.25-.23,1.73-.61.37-.78.73-1.56,1.08-2.35-.07-1.5-1.3-2.69-2.81-2.69Z"/>
      <path class="cls-1" d="M138.34,113.89c-1.56,0-2.83,1.27-2.83,2.83s1.27,2.83,2.83,2.83c.16,0,.32-.02.47-.05.79-1.12,1.55-2.26,2.28-3.42-.29-1.25-1.41-2.19-2.75-2.19Z"/>
      <path class="cls-1" d="M19.27,124.25c-.59,0-1.14.18-1.59.49,1.2,1.42,2.46,2.8,3.76,4.13.41-.49.66-1.11.66-1.79,0-1.56-1.27-2.83-2.83-2.83Z"/>
      <path class="cls-1" d="M29.62,124.25c-1.56,0-2.83,1.27-2.83,2.83s1.27,2.83,2.83,2.83,2.83-1.27,2.83-2.83-1.27-2.83-2.83-2.83Z"/>
      <circle class="cls-1" cx="39.97" cy="127.08" r="2.83"/>
      <path class="cls-1" d="M37.62,137.43c0-1.56-1.27-2.83-2.83-2.83s-2.83,1.27-2.83,2.83c0,.16.02.32.05.47,1.12.79,2.26,1.55,3.42,2.28,1.25-.29,2.19-1.41,2.19-2.75Z"/>
      <circle class="cls-1" cx="50.33" cy="127.08" r="2.83"/>
      <path class="cls-1" d="M45.15,134.6c-1.56,0-2.83,1.27-2.83,2.83s1.27,2.83,2.83,2.83,2.83-1.27,2.83-2.83-1.27-2.83-2.83-2.83Z"/>
      <path class="cls-1" d="M60.68,124.25c-1.56,0-2.83,1.27-2.83,2.83s1.27,2.83,2.83,2.83,2.83-1.27,2.83-2.83-1.27-2.83-2.83-2.83Z"/>
      <path class="cls-1" d="M55.5,134.6c-1.56,0-2.83,1.27-2.83,2.83s1.27,2.83,2.83,2.83,2.83-1.27,2.83-2.83-1.27-2.83-2.83-2.83Z"/>
      <path class="cls-1" d="M71.04,129.9c1.56,0,2.83-1.27,2.83-2.83s-1.27-2.83-2.83-2.83-2.83,1.27-2.83,2.83,1.27,2.83,2.83,2.83Z"/>
      <path class="cls-1" d="M65.86,134.6c-1.56,0-2.83,1.27-2.83,2.83s1.27,2.83,2.83,2.83,2.83-1.27,2.83-2.83-1.27-2.83-2.83-2.83Z"/>
      <path class="cls-1" d="M81.39,129.9c1.56,0,2.83-1.27,2.83-2.83s-1.27-2.83-2.83-2.83-2.83,1.27-2.83,2.83,1.27,2.83,2.83,2.83Z"/>
      <path class="cls-1" d="M76.21,134.6c-1.56,0-2.83,1.27-2.83,2.83s1.27,2.83,2.83,2.83,2.83-1.27,2.83-2.83-1.27-2.83-2.83-2.83Z"/>
      <path class="cls-1" d="M91.74,124.25c-1.56,0-2.83,1.27-2.83,2.83s1.27,2.83,2.83,2.83,2.83-1.27,2.83-2.83-1.27-2.83-2.83-2.83Z"/>
      <path class="cls-1" d="M86.57,134.6c-1.56,0-2.83,1.27-2.83,2.83s1.27,2.83,2.83,2.83,2.83-1.27,2.83-2.83-1.27-2.83-2.83-2.83Z"/>
      <path class="cls-1" d="M102.1,124.25c-1.56,0-2.83,1.27-2.83,2.83s1.27,2.83,2.83,2.83,2.83-1.27,2.83-2.83-1.27-2.83-2.83-2.83Z"/>
      <path class="cls-1" d="M96.92,134.6c-1.56,0-2.83,1.27-2.83,2.83s1.27,2.83,2.83,2.83,2.83-1.27,2.83-2.83-1.27-2.83-2.83-2.83Z"/>
      <circle class="cls-1" cx="112.45" cy="127.08" r="2.83"/>
      <path class="cls-1" d="M107.27,134.6c-1.56,0-2.83,1.27-2.83,2.83s1.27,2.83,2.83,2.83,2.83-1.27,2.83-2.83-1.27-2.83-2.83-2.83Z"/>
      <path class="cls-1" d="M122.81,124.25c-1.56,0-2.83,1.27-2.83,2.83s1.27,2.83,2.83,2.83,2.83-1.27,2.83-2.83-1.27-2.83-2.83-2.83Z"/>
      <path class="cls-1" d="M117.63,134.6c-1.56,0-2.83,1.27-2.83,2.83,0,1.34.94,2.46,2.19,2.75,1.16-.73,2.3-1.49,3.42-2.28.03-.15.05-.31.05-.47,0-1.56-1.27-2.83-2.83-2.83Z"/>
      <path class="cls-1" d="M130.33,127.08c0,.68.25,1.3.66,1.79,1.3-1.33,2.55-2.71,3.76-4.13-.45-.31-1-.49-1.59-.49-1.56,0-2.83,1.27-2.83,2.83Z"/>
      <path class="cls-1" d="M50.33,144.96c-1.09,0-2.03.63-2.5,1.53,1.72.69,3.48,1.32,5.26,1.88.04-.19.06-.39.06-.59,0-1.56-1.27-2.83-2.83-2.83Z"/>
      <path class="cls-1" d="M63.51,147.78c0-1.56-1.27-2.83-2.83-2.83s-2.83,1.27-2.83,2.83c0,.88.41,1.66,1.04,2.18.84.19,1.69.37,2.54.53,1.19-.33,2.07-1.41,2.07-2.71Z"/>
      <path class="cls-1" d="M71.04,144.96c-1.56,0-2.83,1.27-2.83,2.83s1.27,2.83,2.83,2.83,2.83-1.27,2.83-2.83-1.27-2.83-2.83-2.83Z"/>
      <path class="cls-1" d="M81.39,144.96c-1.56,0-2.83,1.27-2.83,2.83s1.27,2.83,2.83,2.83,2.83-1.27,2.83-2.83-1.27-2.83-2.83-2.83Z"/>
      <path class="cls-1" d="M94.57,147.78c0-1.56-1.27-2.83-2.83-2.83s-2.83,1.27-2.83,2.83c0,1.3.88,2.38,2.07,2.71.85-.17,1.7-.34,2.54-.53.63-.52,1.04-1.3,1.04-2.18Z"/>
      <path class="cls-1" d="M102.1,144.96c-1.56,0-2.83,1.27-2.83,2.83,0,.2.02.4.06.59,1.78-.56,3.54-1.19,5.26-1.88-.47-.91-1.41-1.53-2.5-1.53Z"/>
    </g>
  </g>
</svg>