<?xml version="1.0" encoding="UTF-8"?>
<svg id="_レイヤー_2" data-name="レイヤー 2" xmlns="http://www.w3.org/2000/svg" viewBox="0 0 380.52 40.76">
  <defs>
    <style>
      .cls-1 {
        fill: #00913a;
      }
    </style>
  </defs>
  <g id="_レイヤー_1-2" data-name="レイヤー 1">
    <g>
      <path class="cls-1" d="M0,30.41c8.13,0,10.53-.69,13.33-3.77,3.6-4.09,5.73-8.33,7.78-15.46H2.04V.78h33.86c-1.87,7.78-3.24,12.1-6.27,19.92,4.09,5.8,8.09,12.79,10.93,19.09h-12.4c-1.2-2.95-1.42-3.36-4.31-8.51-2.84,3.59-3.64,4.46-4.98,5.52-3.64,2.81-8.22,3.82-17.02,3.82H0v-10.21Z"/>
      <path class="cls-1" d="M87.22,27c-.04,7.64-5.29,12.1-14.31,12.1h-23.42V1.01h37.72v25.99ZM60.25,11.41v17.21h10.71c3.6-.18,5.29-1.93,5.15-5.47v-11.73h-15.86Z"/>
      <path class="cls-1" d="M97.35,15.04h39.41v10.4h-39.41v-10.4Z"/>
      <path class="cls-1" d="M146.67,14.95h11.73v-4.6h-9.64V.46h34.57v9.89h-14.26v4.6h16.71v10.12h-16.71v3.04c-.04,2.35.36,2.71,2.8,2.67h11.77v9.98h-15.64c-6.58-.09-9.6-3.13-9.6-9.57v-6.12h-11.73v-10.12Z"/>
      <path class="cls-1" d="M195.1,15.04h39.41v10.4h-39.41v-10.4Z"/>
      <path class="cls-1" d="M261.49,28.89c7.73-.28,10.09-2.62,9.86-9.98V4.69h11.02v15.96c-.04,6.85-1.16,10.4-4.31,13.76-3.91,3.91-8.31,5.43-16.35,5.47h-16.97v-11h16.75ZM264.24,13.43c-10.17-2.25-13.73-2.9-19.37-3.73V0c5.73.6,12.17,1.7,19.37,3.31v10.12ZM264.24,26.22c-5.02-1.24-13.02-2.71-19.37-3.54v-10.35c3.82.6,10,1.79,19.37,3.91v9.98Z"/>
      <path class="cls-1" d="M296.28,30.69h20.62c1.6,0,2.35-.74,2.35-2.3v-.55h-21.42v-9.29h21.42v-2.62h-22.97V6.62h32.92v24.8c-.13,5.89-3.6,8.65-10.89,8.6h-22.04v-9.34Z"/>
      <path class="cls-1" d="M342.44,29.21h15.73c4.35-.05,7.55-1.1,9.42-3.08,1.64-1.93,1.91-3.17,1.91-8.74V5.24h11.02v15.23c0,6.76-1.24,10.4-4.62,13.98-3.51,3.59-8.75,5.57-14.89,5.57h-18.57v-10.81ZM362.75,16.84c-4.98-1.66-12.71-3.77-19.95-5.47V.64c9.73,2.16,12.09,2.81,19.95,5.06v11.13Z"/>
    </g>
  </g>
</svg>