<?xml version="1.0" encoding="UTF-8"?>
<svg id="_レイヤー_2" data-name="レイヤー 2" xmlns="http://www.w3.org/2000/svg" viewBox="0 0 285.79 43.25">
  <defs>
    <style>
      .cls-1 {
        fill: #00913a;
      }
    </style>
  </defs>
  <g id="_レイヤー_1-2" data-name="レイヤー 1">
    <g>
      <path class="cls-1" d="M0,30.82c3.6-.78,4.75-2.39,5.38-7.54L7.55,3.17h10.89l-2.75,22.13c-1.42,11.18-5.51,15.73-15.69,17.39v-11.87ZM29.9,41.86c-1.11-12.56-3.2-23.83-7.15-38.69h6.49v5.2h6.18c3.15,10.81,5.6,23.69,6.35,33.49h-11.86ZM30.53,0h4.98v7.27h-4.98V0ZM36.84,0h5.07v7.27h-5.07V0Z"/>
      <path class="cls-1" d="M53.72,24.71c-1.2-6.95-1.78-9.89-3.24-16.06h9.86c.98,3.63,1.56,6.3,3.38,16.06h-10ZM52.7,32.66h12.71c8-.05,10.66-1.79,10.62-6.99V8.33h10.26v14.4c.04,8.74-1.24,12.97-4.75,16.01-3.29,2.71-7.51,3.54-17.82,3.59h-11.02v-9.66ZM72.03,8.65c1.42,5.61,2.27,9.85,3.29,16.06h-9.69c-.8-5.01-1.96-10.67-3.33-16.06h9.73Z"/>
      <path class="cls-1" d="M98.77,15h38.97v9.66h-12.62c-.13,6.44-.8,9.71-2.62,12.61-2.31,3.73-7.2,5.93-12.93,5.93h-8.4v-10.63h6.44c5.29-.05,6.4-1.47,6.31-7.91h-15.15v-9.66ZM101.17,2.76h33.59v9.8h-33.59V2.76Z"/>
      <path class="cls-1" d="M150,21.62l20.08-7.54c4.4-1.84,5.11-2.71,5.11-6.12h10.44c-.09,9.39-1.78,11.5-12.17,15.09v19.64h-10.18v-15.69l-13.29,4.83v-10.21Z"/>
      <path class="cls-1" d="M196.88,31.38h15.73c4.36-.05,7.55-1.1,9.42-3.08,1.64-1.93,1.91-3.17,1.91-8.74V7.41h11.02v15.23c0,6.76-1.24,10.4-4.62,13.99-3.51,3.59-8.75,5.57-14.89,5.57h-18.57v-10.81ZM217.19,19c-4.98-1.66-12.71-3.77-19.95-5.47V2.81c9.73,2.16,12.09,2.81,19.95,5.06v11.13Z"/>
      <path class="cls-1" d="M260.42,13.48c-.93,5.38-2.04,7.96-4.27,9.98-2.36,2.12-6.22,3.82-10.58,4.65v-11c4.4-.87,5.07-2.58,5.42-13.76h22.22v6.03h10.26v12.24c-.04,10.54-1.38,14.35-6.35,17.99-4.53,2.94-8.22,3.63-19.77,3.63h-8.84v-9.98h12.44c9.38-.09,11.46-1.98,11.51-10.26v-9.52h-12.04ZM274.46.97h5.02v7.27h-5.02V.97ZM280.81.97h4.98v7.27h-4.98V.97Z"/>
    </g>
  </g>
</svg>