<?xml version="1.0" encoding="UTF-8"?>
<svg id="_レイヤー_2" data-name="レイヤー 2" xmlns="http://www.w3.org/2000/svg" viewBox="0 0 233.94 42.33">
  <defs>
    <style>
      .cls-1 {
        fill: #00913a;
      }
    </style>
  </defs>
  <g id="_レイヤー_1-2" data-name="レイヤー 1">
    <g>
      <path class="cls-1" d="M10.49,40.9c-4.4-.04-6.67-.83-8.4-2.76-1.73-2.16-2.09-3.59-2.09-8.74V2.71h10.58v9.02c9.15-1.47,10.13-1.66,14.8-2.58,1.33,2.62,3.55,4.05,6.22,4.05.84,0,1.51-.14,2.62-.46v5.84c-2.93.51-3.07.55-6.27,1.01-12.31,1.93-14.57,2.25-17.37,2.62v4.51c-.04,3.36.58,4.05,3.78,4.14h21.11v10.03H10.49ZM37.5,6.03c0,3.36-2.58,6.03-5.82,6.03s-5.82-2.71-5.82-6.07S28.48,0,31.77,0c3.11,0,5.73,2.71,5.73,6.03ZM29.37,6.03c0,1.33,1.02,2.39,2.31,2.39s2.31-1.06,2.31-2.39-1.02-2.39-2.35-2.39c-1.24,0-2.27,1.1-2.27,2.39Z"/>
      <path class="cls-1" d="M50.74,23.79c-1.2-6.95-1.78-9.89-3.24-16.06h9.86c.98,3.63,1.56,6.3,3.38,16.06h-10ZM49.72,31.74h12.71c8-.05,10.66-1.79,10.62-6.99V7.41h10.26v14.4c.04,8.74-1.24,12.97-4.75,16.01-3.29,2.71-7.51,3.54-17.82,3.59h-11.02v-9.66ZM69.05,7.73c1.42,5.61,2.27,9.85,3.29,16.06h-9.69c-.8-5.01-1.96-10.67-3.33-16.06h9.73Z"/>
      <path class="cls-1" d="M96.02,17.85h15.06v-3.17h-13.02V5.57h17.73c4.93-.04,5.6-.51,5.87-3.86h12.22c-.67,8.79-3.82,12.19-12,12.88v3.27h12.57v9.84h-12.57c-.09,10.3-4.44,14.22-15.77,14.31h-7.95v-10.26h8.53c3.33,0,4.31-.88,4.4-4.05h-15.06v-9.84Z"/>
      <path class="cls-1" d="M145.03,30.46h15.73c4.35-.05,7.55-1.1,9.42-3.08,1.64-1.93,1.91-3.17,1.91-8.74V6.49h11.02v15.23c0,6.76-1.24,10.4-4.62,13.99-3.51,3.59-8.75,5.57-14.89,5.57h-18.57v-10.81ZM165.33,18.08c-4.98-1.66-12.71-3.77-19.95-5.47V1.89c9.73,2.16,12.09,2.81,19.95,5.06v11.13Z"/>
      <path class="cls-1" d="M208.57,12.56c-.93,5.38-2.04,7.96-4.27,9.98-2.35,2.12-6.22,3.82-10.57,4.65v-11c4.4-.87,5.06-2.58,5.42-13.76h22.22v6.03h10.26v12.24c-.04,10.54-1.38,14.35-6.35,17.99-4.53,2.94-8.22,3.63-19.77,3.63h-8.84v-9.98h12.44c9.38-.09,11.46-1.98,11.51-10.26v-9.52h-12.04ZM222.61.05h5.02v7.27h-5.02V.05ZM228.96.05h4.98v7.27h-4.98V.05Z"/>
    </g>
  </g>
</svg>