<?xml version="1.0" encoding="UTF-8"?>
<svg id="_レイヤー_2" data-name="レイヤー 2" xmlns="http://www.w3.org/2000/svg" viewBox="0 0 237.36 121.59">
  <defs>
    <style>
      .cls-1 {
        fill: none;
      }

      .cls-2 {
        fill: #fff;
        stroke: #00913a;
        stroke-miterlimit: 10;
        stroke-width: 3.38px;
      }
    </style>
  </defs>
  <g id="_レイヤー_1-2" data-name="レイヤー 1">
    <g>
      <g>
        <path class="cls-2" d="M107.41,85.3c-.47,19.7-8.46,27.48-29.01,28.09h-37.58c-20.55-.61-28.19-8.03-28.66-28.09v-48.52c.35-18.97,9.63-28.09,28.66-28.58h37.58c19.61.37,28.89,9.48,29.01,28.58v48.52ZM40.93,76.54c.23,8.75,1.53,9.97,9.87,10.09h17.38c8.46-.12,9.87-1.58,10.1-10.09v-31.86c-.12-7.17-2.11-8.88-10.1-9h-17.38c-8.34,0-9.87,1.46-9.87,9v31.86Z"/>
        <path class="cls-2" d="M135.01,113.39c.12-39.28,2.23-50.46,10.92-57.76,6.58-5.23,14.09-6.93,32.42-7.3,14.56-.24,15.15-.49,15.74-5.47v-3.65c0-3.41-1.76-4.86-5.75-4.86h-52.15V8.2h63.3c15.15.37,23.61,7.3,23.84,19.58v23.1c0,8.51-3.99,15.44-10.69,18.73-6.11,2.8-10.92,3.53-25.96,3.53h-6.11c-12.92-.24-15.62,2.07-15.74,14.23h60.37v26.02h-90.2Z"/>
      </g>
      <rect class="cls-1" width="237.36" height="121.59"/>
    </g>
  </g>
</svg>