<?xml version="1.0" encoding="UTF-8"?>
<svg id="_レイヤー_2" data-name="レイヤー 2" xmlns="http://www.w3.org/2000/svg" viewBox="0 0 237.36 121.59">
  <defs>
    <style>
      .cls-1 {
        fill: none;
      }

      .cls-2 {
        fill: #fff;
        stroke: #00913a;
        stroke-miterlimit: 10;
        stroke-width: 3.38px;
      }
    </style>
  </defs>
  <g id="_レイヤー_1-2" data-name="レイヤー 1">
    <g>
      <g>
        <path class="cls-2" d="M126.26,85.3c-.47,19.7-8.46,27.48-29.01,28.09h-37.58c-20.55-.61-28.19-8.03-28.66-28.09v-48.52c.35-18.97,9.63-28.09,28.66-28.58h37.58c19.61.36,28.89,9.48,29.01,28.58v48.52ZM59.78,76.54c.23,8.75,1.53,9.97,9.87,10.09h17.38c8.46-.12,9.87-1.58,10.1-10.09v-31.86c-.12-7.17-2.11-8.88-10.1-9h-17.38c-8.34,0-9.87,1.46-9.87,9v31.86Z"/>
        <path class="cls-2" d="M158.44,8.2h23.96c17.26.49,23.49,6.32,23.96,22.5v82.69h-29.6V43.83c0-7.17-1.17-8.51-7.63-8.63h-10.69V8.2Z"/>
      </g>
      <rect class="cls-1" width="237.36" height="121.59"/>
    </g>
  </g>
</svg>