<?xml version="1.0" encoding="UTF-8"?>
<svg id="_レイヤー_2" data-name="レイヤー 2" xmlns="http://www.w3.org/2000/svg" viewBox="0 0 237.36 121.59">
  <defs>
    <style>
      .cls-1 {
        fill: none;
      }

      .cls-2 {
        fill: #fff;
        stroke: #00913a;
        stroke-miterlimit: 10;
        stroke-width: 3.38px;
      }
    </style>
  </defs>
  <g id="_レイヤー_1-2" data-name="レイヤー 1">
    <g>
      <g>
        <path class="cls-2" d="M107.99,85.3c-.47,19.7-8.46,27.48-29.01,28.09h-37.58c-20.55-.61-28.19-8.03-28.66-28.09v-48.52c.35-18.97,9.63-28.09,28.66-28.58h37.58c19.61.36,28.89,9.48,29.01,28.58v48.52ZM41.52,76.54c.23,8.75,1.53,9.97,9.87,10.09h17.38c8.46-.12,9.87-1.58,10.1-10.09v-31.86c-.12-7.17-2.11-8.88-10.1-9h-17.38c-8.34,0-9.87,1.46-9.87,9v31.86Z"/>
        <path class="cls-2" d="M136.89,87.12h51.56c6.22,0,7.05-.97,7.05-7.54,0-5.96-.82-6.81-7.05-6.81h-44.04v-25.54h44.04c6.93,0,7.28-.36,7.28-6.44s-.59-6.57-7.28-6.57h-51.56V8.2h58.49c9.04,0,15.62,1.34,20.08,3.89,2.7,1.7,4.82,3.77,5.99,6.2,1.88,3.89,3.05,10.21,3.05,16.66,0,9.48-1.41,15.32-4.7,18.97-2.58,3.04-5.52,4.38-12.45,5.96,7.63,1.46,10.69,3.04,13.39,6.69,2.7,3.53,3.88,9.36,3.88,18.73,0,21.77-6.46,28.09-28.77,28.09h-58.96v-26.26Z"/>
      </g>
      <rect class="cls-1" width="237.36" height="121.59"/>
    </g>
  </g>
</svg>