<?xml version="1.0" encoding="UTF-8"?>
<svg id="_レイヤー_2" data-name="レイヤー 2" xmlns="http://www.w3.org/2000/svg" viewBox="0 0 334.52 485.26">
  <defs>
    <style>
      .cls-1 {
        fill: #8fc31f;
      }

      .cls-2 {
        fill: #006934;
      }
    </style>
  </defs>
  <g id="_レイヤー_1-2" data-name="レイヤー 1">
    <g>
      <path class="cls-1" d="M22.41,481.43c-5.11,5.11-13.47,5.11-18.58,0h0c-5.11-5.11-5.11-13.47,0-18.58L288.04,178.64c5.11-5.11,13.47-5.11,18.58,0h0c5.11,5.11,5.11,13.47,0,18.58L22.41,481.43Z"/>
      <path class="cls-2" d="M44.96,308.24c-5.14,5.14-13.54,5.14-18.68,0h0c-5.14-5.14-5.14-13.54,0-18.68L311.99,3.85c5.14-5.14,13.54-5.14,18.68,0h0c5.14,5.14,5.14,13.54,0,18.68L44.96,308.24Z"/>
    </g>
  </g>
</svg>