<?xml version="1.0" encoding="UTF-8"?>
<svg id="_レイヤー_2" data-name="レイヤー 2" xmlns="http://www.w3.org/2000/svg" viewBox="0 0 99.39 99.39">
  <defs>
    <style>
      .cls-1 {
        fill: #dae000;
      }
    </style>
  </defs>
  <g id="_レイヤー_1-2" data-name="レイヤー 1">
    <g>
      <path class="cls-1" d="M14.54,14.53h0c-3.86,3.86-7.09,8.36-9.52,13.32L27.86,5.01c-4.96,2.43-9.46,5.66-13.32,9.52Z"/>
      <path class="cls-1" d="M34.25,2.42L2.42,34.25c-.55,1.69-1.02,3.42-1.39,5.19L39.44,1.03c-1.77.37-3.5.84-5.19,1.39Z"/>
      <path class="cls-1" d="M43.97.3L.3,43.97c-.15,1.35-.26,2.72-.3,4.1L48.08,0c-1.38.04-2.75.15-4.1.3Z"/>
      <path class="cls-1" d="M51.86.02L.02,51.86c.05,1.19.14,2.36.28,3.53L55.38.3c-1.16-.13-2.34-.23-3.53-.28Z"/>
      <path class="cls-1" d="M58.69.79L.79,58.69c.19,1.05.42,2.1.68,3.12L61.82,1.46c-1.03-.26-2.07-.48-3.12-.68Z"/>
      <path class="cls-1" d="M64.78,2.3L2.3,64.78c.3.95.63,1.89.99,2.81L67.59,3.29c-.92-.36-1.86-.69-2.81-.99Z"/>
      <path class="cls-1" d="M70.27,4.41L4.41,70.27c.39.86.81,1.71,1.25,2.55L72.82,5.67c-.84-.44-1.69-.86-2.55-1.25Z"/>
      <path class="cls-1" d="M75.25,7.03L7.03,75.25c.47.79.97,1.56,1.48,2.32L77.57,8.52c-.76-.51-1.53-1.01-2.32-1.48Z"/>
      <path class="cls-1" d="M79.78,10.11L10.11,79.78c.55.72,1.11,1.42,1.7,2.11L81.89,11.8c-.69-.58-1.39-1.15-2.11-1.7Z"/>
      <path class="cls-1" d="M83.89,13.6L13.6,83.89c.62.65,1.25,1.28,1.9,1.9L85.79,15.5c-.62-.65-1.25-1.28-1.9-1.9Z"/>
      <path class="cls-1" d="M87.59,17.5L17.5,87.59c.69.58,1.39,1.15,2.11,1.7L89.29,19.61c-.55-.72-1.11-1.42-1.7-2.11Z"/>
      <path class="cls-1" d="M90.88,21.82L21.82,90.88c.76.51,1.53,1.01,2.32,1.48L92.36,24.14c-.47-.79-.97-1.56-1.48-2.32Z"/>
      <path class="cls-1" d="M93.73,26.57L26.57,93.73c.84.44,1.69.86,2.55,1.25L94.98,29.12c-.39-.86-.81-1.71-1.25-2.55Z"/>
      <path class="cls-1" d="M96.1,31.8L31.8,96.1c.92.36,1.86.69,2.81.99l62.48-62.48c-.3-.95-.63-1.89-.99-2.81Z"/>
      <path class="cls-1" d="M97.93,37.57l-60.36,60.36c1.03.26,2.07.48,3.12.68l57.91-57.91c-.19-1.05-.42-2.1-.68-3.12Z"/>
      <path class="cls-1" d="M99.1,44.01l-55.09,55.09c1.16.13,2.34.23,3.53.28l51.84-51.84c-.05-1.19-.14-2.36-.28-3.53Z"/>
      <path class="cls-1" d="M99.09,55.42c.15-1.35.26-2.72.3-4.1l-48.08,48.08c1.38-.04,2.75-.15,4.1-.3l43.67-43.67Z"/>
      <path class="cls-1" d="M65.14,96.97l31.83-31.83c.55-1.69,1.02-3.42,1.39-5.19l-38.41,38.41c1.77-.37,3.5-.84,5.19-1.39Z"/>
      <path class="cls-1" d="M94.38,71.53l-22.84,22.84c9.92-4.86,17.99-12.92,22.84-22.84Z"/>
    </g>
  </g>
</svg>