<?xml version="1.0" encoding="UTF-8"?>
<svg id="_レイヤー_2" data-name="レイヤー 2" xmlns="http://www.w3.org/2000/svg" viewBox="0 0 333.09 30.14">
  <defs>
    <style>
      .cls-1 {
        fill: #00913a;
      }
    </style>
  </defs>
  <g id="_レイヤー_1-2" data-name="レイヤー 1">
    <g>
      <path class="cls-1" d="M8.07,15.01c-2.26,2.3-4.51,3.33-8.07,3.74v-7.42c3-.99,3.8-2.75,4.2-9.41h21.98v10.5c-.12,7.01-.87,10.3-2.97,12.83-2.29,2.66-5.9,3.87-11.5,3.84H2.01v-7.14h8.29c6.03.06,7.23-.45,7.94-3.36h-10.17v-3.58ZM10.76,8.86c-.22,1.09-.28,1.31-.93,3.23h8.75v-3.23h-7.82Z"/>
      <path class="cls-1" d="M60.62,23.58c-3.56-1.89-4.85-2.53-7.3-3.62-1.89,4.06-3.43,6.02-5.87,7.39-2.88,1.57-5.01,1.89-13.02,1.86v-7.07h1.27c6.68.13,8.66-.83,10.51-5.09-3.37-1.34-5.44-2.02-10.42-3.46v-7.55c4.2,1.09,6.34,1.76,12.83,3.94l2.81-8.86h8.16l-3.86,11.65c2.32,1.02,2.66,1.18,4.88,2.21v8.61Z"/>
      <path class="cls-1" d="M69.11,29.53c-.46-4.86-.62-7.55-.62-10.94,0-4.35.28-9.09.99-17.06h6.86l-.09.96c0,.32-.15,1.95-.4,4.86-.28,2.94-.43,7.01-.43,10.33,0,4.29.19,8,.56,11.84h-6.86ZM95.39,28.61c-1.55.1-2.26.13-4.14.13-6.58,0-8.38-.22-10.08-1.22-2.29-1.34-3.52-3.52-3.52-6.21,0-2.08.49-3.9,1.7-6.14h6.62c-1.27,2.69-1.39,3.07-1.39,4.16,0,2.05,1.14,2.66,4.92,2.66,1.51,0,4.08-.06,5.9-.13v6.75ZM78.85,3.17l15.74-.1v6.66h-15.74V3.17Z"/>
      <path class="cls-1" d="M111.71,10.88c-.87,4.86-1.85,9.44-3.25,15.1h-7.14c2.04-6.66,2.84-9.92,3.65-15.01l-3.52.06v-6.24l4.45-.19c.25-1.98.25-2.27.4-4.06h6.8l-.19,1.82c-.03.26-.09.83-.25,2.18l3.62-.06v6.37l-4.58.03ZM129.39,26.24c-1.11-.58-1.61-.8-3.86-1.82-.37,1.5-.68,2.14-1.52,3.07-1.39,1.54-3.15,2.21-5.69,2.21-2.94,0-5.32-.83-6.49-2.3-.99-1.22-1.55-2.98-1.55-4.74,0-1.89.68-3.84,1.79-4.99,1.11-1.18,3-1.82,5.32-1.82.34,0,.93,0,1.45.03l.03-11.49,10.36-.1v6.43l-3.77.1.19,6.85c1.33.48,1.82.7,3.74,1.66v6.91ZM116.25,22.85c0,.8.56,1.38,1.39,1.38s1.45-.54,1.45-1.38-.56-1.31-1.42-1.31-1.42.54-1.42,1.31Z"/>
      <path class="cls-1" d="M136.22,12.54l11.84-5.34-9.4.13V1.15l21.21-.06v6.21l-7.17,3.9c.74-.06,1.7-.13,2.04-.13,2.41,0,4.2.64,5.78,2.05,1.73,1.6,2.5,3.65,2.5,6.69,0,3.74-1.67,6.69-4.73,8.32-2.41,1.31-5.72,2.02-9.31,2.02-3.77,0-6.58-.64-8.41-1.95-1.61-1.15-2.57-2.98-2.57-4.83,0-3.62,3.4-6.3,8.01-6.3,2.81,0,4.95.96,6.31,2.82.68.93.96,1.82,1.14,3.42,1.92-.9,2.54-1.7,2.54-3.23,0-1.34-.74-2.66-1.89-3.3-1.21-.67-2.78-.99-5.04-.99-4.27,0-7.26.99-12.86,4.26v-7.49ZM147.04,24.06c0-1.28-.62-2.02-1.67-2.02-.59,0-.99.32-.99.83,0,.74.71,1.22,1.79,1.22l.87-.03Z"/>
      <path class="cls-1" d="M170.13,1.86h18.95v4.03h6.96c-.15,9.89-.62,13.63-1.98,16.32-2.41,4.77-6.83,6.56-16.17,6.56h-6.18v-7.36h5.75c5.87,0,7.14-.22,8.59-1.54,1.05-.9,1.55-1.95,1.85-3.87.19-1.18.31-3.23.31-5.09,0-.42,0-.96-.03-1.73h-18.05V1.86ZM189.97,0h3.46v5.06h-3.46V0ZM194.36,0h3.49v5.06h-3.49V0Z"/>
      <path class="cls-1" d="M230.53,19.84c-.03,5.31-3.68,8.42-9.95,8.42h-16.29V1.76h26.25v18.08ZM211.76,8.99v11.97h7.45c2.5-.13,3.68-1.34,3.59-3.81v-8.16h-11.04Z"/>
      <path class="cls-1" d="M248.27,8.93c-.65,3.74-1.42,5.54-2.97,6.94-1.64,1.47-4.33,2.66-7.36,3.23v-7.65c3.06-.61,3.52-1.79,3.77-9.57h15.46v4.19h7.14v8.51c-.03,7.33-.96,9.98-4.42,12.51-3.15,2.05-5.72,2.53-13.76,2.53h-6.15v-6.94h8.66c6.52-.06,7.98-1.38,8.01-7.14v-6.62h-8.38ZM258.04.22h3.49v5.06h-3.49V.22ZM262.46.22h3.46v5.06h-3.46V.22Z"/>
      <path class="cls-1" d="M285.11,29.37c-4.7.03-6.34-.22-8.22-1.18-3.12-1.63-4.79-4.51-4.79-8.25s1.48-6.59,4.11-8.29c1.67-1.09,3.22-1.66,5.69-2.14l-.28-8.77h7.33l.09,7.81,8.72-.22v6.72l-6.43.19c-4.67.1-7.14.35-9.06.83-1.92.48-3,1.63-3,3.2,0,1.31.56,2.3,1.61,2.78.83.42,3.28.7,6.18.7.99,0,1.11,0,2.04-.03l8.84-.19v6.82l-12.83.03Z"/>
      <path class="cls-1" d="M306.22,29.12c-.43-4.48-.53-6.72-.53-13.09,0-5.28.25-9.54.83-15.01h6.89c-.8,6.46-.96,9.47-.96,18.17,0,3.26.15,5.7.65,9.92h-6.89ZM332.99,26.21c-2.78-1.57-3.52-1.95-4.39-2.27-.19,1.86-.68,2.85-1.92,3.81-1.21.9-2.88,1.34-5.16,1.34-2.07,0-3.52-.32-4.64-.99-2.04-1.28-3.12-3.2-3.12-5.6s1.02-4.35,3-5.5c1.08-.64,2.26-.96,3.49-.96.56,0,1.02.06,1.92.22.03-.58.03-.9.03-1.12l-.03-2.27v-.7l-7.91.1v-6.53l7.82-.1V.77h6.83v4.8h4.17v6.43l-4.2.1v.83l-.03,3.14v1.38c2.44.86,2.78.99,4.14,1.63v7.14ZM319.36,22.65c0,.77.53,1.22,1.48,1.22.9,0,1.42-.45,1.42-1.18s-.65-1.25-1.48-1.25-1.42.48-1.42,1.22Z"/>
    </g>
  </g>
</svg>