<?xml version="1.0" encoding="UTF-8"?>
<svg id="_レイヤー_2" data-name="レイヤー 2" xmlns="http://www.w3.org/2000/svg" viewBox="0 0 141.03 139.35">
  <defs>
    <style>
      .cls-1 {
        fill: #dae000;
      }
    </style>
  </defs>
  <g id="_レイヤー_1-2" data-name="レイヤー 1">
    <g>
      <path class="cls-1" d="M32.19,14.81c1.44,0,2.62-1.17,2.62-2.62,0-1.24-.87-2.27-2.03-2.54-1.07.68-2.13,1.38-3.16,2.11-.02.14-.04.29-.04.43,0,1.44,1.17,2.62,2.62,2.62Z"/>
      <path class="cls-1" d="M46.56,5.23c1.44,0,2.62-1.17,2.62-2.62,0-.19-.02-.37-.06-.54-1.65.52-3.27,1.1-4.87,1.74.44.84,1.3,1.42,2.31,1.42Z"/>
      <path class="cls-1" d="M41.77,14.81c1.44,0,2.62-1.17,2.62-2.62s-1.17-2.62-2.62-2.62-2.62,1.17-2.62,2.62,1.17,2.62,2.62,2.62Z"/>
      <path class="cls-1" d="M53.53,2.62c0,1.44,1.17,2.62,2.62,2.62s2.62-1.17,2.62-2.62c0-1.2-.81-2.2-1.92-2.51-.79.15-1.57.32-2.35.49-.59.48-.97,1.2-.97,2.01Z"/>
      <path class="cls-1" d="M51.35,14.81c1.44,0,2.62-1.17,2.62-2.62s-1.17-2.62-2.62-2.62-2.62,1.17-2.62,2.62,1.17,2.62,2.62,2.62Z"/>
      <path class="cls-1" d="M65.72,5.23c1.44,0,2.62-1.17,2.62-2.62s-1.17-2.62-2.62-2.62-2.62,1.17-2.62,2.62,1.17,2.62,2.62,2.62Z"/>
      <circle class="cls-1" cx="60.93" cy="12.19" r="2.62"/>
      <circle class="cls-1" cx="75.3" cy="2.62" r="2.62" transform="translate(-.03 4.18) rotate(-3.18)"/>
      <path class="cls-1" d="M70.51,14.81c1.44,0,2.62-1.17,2.62-2.62s-1.17-2.62-2.62-2.62-2.62,1.17-2.62,2.62,1.17,2.62,2.62,2.62Z"/>
      <path class="cls-1" d="M82.27,2.62c0,1.44,1.17,2.62,2.62,2.62s2.62-1.17,2.62-2.62c0-.82-.38-1.53-.97-2.01-.78-.18-1.56-.34-2.35-.49-1.1.31-1.92,1.31-1.92,2.51Z"/>
      <path class="cls-1" d="M80.09,14.81c1.44,0,2.62-1.17,2.62-2.62s-1.17-2.62-2.62-2.62-2.62,1.17-2.62,2.62,1.17,2.62,2.62,2.62Z"/>
      <path class="cls-1" d="M94.46,5.23c1.01,0,1.88-.58,2.31-1.42-1.6-.64-3.22-1.22-4.87-1.74-.04.18-.06.36-.06.54,0,1.44,1.17,2.62,2.62,2.62Z"/>
      <circle class="cls-1" cx="89.67" cy="12.19" r="2.62"/>
      <path class="cls-1" d="M99.25,14.81c1.44,0,2.62-1.17,2.62-2.62s-1.17-2.62-2.62-2.62-2.62,1.17-2.62,2.62,1.17,2.62,2.62,2.62Z"/>
      <path class="cls-1" d="M106.22,12.19c0,1.44,1.17,2.62,2.62,2.62s2.62-1.17,2.62-2.62c0-.15-.02-.29-.04-.43-1.03-.73-2.09-1.43-3.16-2.11-1.16.27-2.03,1.3-2.03,2.54Z"/>
      <path class="cls-1" d="M20.44,21.77c0-.63-.23-1.21-.61-1.66-1.2,1.23-2.36,2.51-3.48,3.82.42.29.92.45,1.47.45,1.44,0,2.62-1.17,2.62-2.62Z"/>
      <path class="cls-1" d="M13.03,33.97c1.44,0,2.62-1.17,2.62-2.62s-1.17-2.62-2.62-2.62c-.15,0-.29.02-.43.04-.73,1.03-1.43,2.09-2.11,3.16.27,1.16,1.3,2.03,2.54,2.03Z"/>
      <path class="cls-1" d="M27.4,24.39c1.44,0,2.62-1.17,2.62-2.62s-1.17-2.62-2.62-2.62-2.62,1.17-2.62,2.62,1.17,2.62,2.62,2.62Z"/>
      <circle class="cls-1" cx="22.61" cy="31.35" r="2.62" transform="translate(-6.56 5.99) rotate(-13.19)"/>
      <circle class="cls-1" cx="36.98" cy="21.77" r="2.62"/>
      <path class="cls-1" d="M32.19,33.97c1.44,0,2.62-1.17,2.62-2.62s-1.17-2.62-2.62-2.62-2.62,1.17-2.62,2.62,1.17,2.62,2.62,2.62Z"/>
      <circle class="cls-1" cx="46.56" cy="21.77" r="2.62"/>
      <path class="cls-1" d="M41.77,28.74c-1.44,0-2.62,1.17-2.62,2.62s1.17,2.62,2.62,2.62,2.62-1.17,2.62-2.62-1.17-2.62-2.62-2.62Z"/>
      <path class="cls-1" d="M56.14,24.39c1.44,0,2.62-1.17,2.62-2.62s-1.17-2.62-2.62-2.62-2.62,1.17-2.62,2.62,1.17,2.62,2.62,2.62Z"/>
      <path class="cls-1" d="M51.35,28.74c-1.44,0-2.62,1.17-2.62,2.62s1.17,2.62,2.62,2.62,2.62-1.17,2.62-2.62-1.17-2.62-2.62-2.62Z"/>
      <path class="cls-1" d="M65.72,19.16c-1.44,0-2.62,1.17-2.62,2.62s1.17,2.62,2.62,2.62,2.62-1.17,2.62-2.62-1.17-2.62-2.62-2.62Z"/>
      <circle class="cls-1" cx="60.93" cy="31.35" r="2.62" transform="translate(-5.6 14.94) rotate(-13.37)"/>
      <circle class="cls-1" cx="75.3" cy="21.77" r="2.62" transform="translate(-2.51 12.28) rotate(-9.17)"/>
      <path class="cls-1" d="M70.51,28.74c-1.44,0-2.62,1.17-2.62,2.62s1.17,2.62,2.62,2.62,2.62-1.17,2.62-2.62-1.17-2.62-2.62-2.62Z"/>
      <path class="cls-1" d="M84.88,24.39c1.44,0,2.62-1.17,2.62-2.62s-1.17-2.62-2.62-2.62-2.62,1.17-2.62,2.62,1.17,2.62,2.62,2.62Z"/>
      <path class="cls-1" d="M80.09,28.74c-1.44,0-2.62,1.17-2.62,2.62s1.17,2.62,2.62,2.62,2.62-1.17,2.62-2.62-1.17-2.62-2.62-2.62Z"/>
      <path class="cls-1" d="M94.46,24.39c1.44,0,2.62-1.17,2.62-2.62s-1.17-2.62-2.62-2.62-2.62,1.17-2.62,2.62,1.17,2.62,2.62,2.62Z"/>
      <circle class="cls-1" cx="89.67" cy="31.35" r="2.62" transform="translate(-4.82 21.59) rotate(-13.37)"/>
      <circle class="cls-1" cx="104.04" cy="21.77" r="2.62"/>
      <path class="cls-1" d="M99.25,28.74c-1.44,0-2.62,1.17-2.62,2.62s1.17,2.62,2.62,2.62,2.62-1.17,2.62-2.62-1.17-2.62-2.62-2.62Z"/>
      <circle class="cls-1" cx="113.62" cy="21.77" r="2.62"/>
      <path class="cls-1" d="M108.83,33.97c1.44,0,2.62-1.17,2.62-2.62s-1.17-2.62-2.62-2.62-2.62,1.17-2.62,2.62,1.17,2.62,2.62,2.62Z"/>
      <path class="cls-1" d="M123.2,24.39c.55,0,1.05-.17,1.47-.45-1.11-1.32-2.27-2.59-3.48-3.82-.37.45-.61,1.03-.61,1.66,0,1.44,1.17,2.62,2.62,2.62Z"/>
      <circle class="cls-1" cx="118.41" cy="31.35" r="2.62" transform="translate(-4.03 27.85) rotate(-13.19)"/>
      <path class="cls-1" d="M125.38,31.35c0,1.44,1.17,2.62,2.62,2.62,1.24,0,2.27-.87,2.54-2.03-.68-1.07-1.38-2.13-2.11-3.16-.14-.02-.29-.04-.43-.04-1.44,0-2.62,1.17-2.62,2.62Z"/>
      <path class="cls-1" d="M8.24,43.55c1.44,0,2.62-1.17,2.62-2.62s-1.17-2.62-2.62-2.62c-.61,0-1.16.22-1.6.56-.35.72-.68,1.44-1,2.17.06,1.39,1.2,2.49,2.6,2.49Z"/>
      <path class="cls-1" d="M6.07,50.51c0-1.44-1.17-2.62-2.62-2.62-.15,0-.29.02-.43.04-.48,1.49-.91,3-1.29,4.52.46.41,1.06.66,1.72.66,1.44,0,2.62-1.17,2.62-2.62Z"/>
      <path class="cls-1" d="M17.82,43.55c1.44,0,2.62-1.17,2.62-2.62s-1.17-2.62-2.62-2.62-2.62,1.17-2.62,2.62,1.17,2.62,2.62,2.62Z"/>
      <path class="cls-1" d="M13.03,53.13c1.44,0,2.62-1.17,2.62-2.62s-1.17-2.62-2.62-2.62-2.62,1.17-2.62,2.62,1.17,2.62,2.62,2.62Z"/>
      <path class="cls-1" d="M27.4,38.32c-1.44,0-2.62,1.17-2.62,2.62s1.17,2.62,2.62,2.62,2.62-1.17,2.62-2.62-1.17-2.62-2.62-2.62Z"/>
      <path class="cls-1" d="M22.61,47.9c-1.44,0-2.62,1.17-2.62,2.62s1.17,2.62,2.62,2.62,2.62-1.17,2.62-2.62-1.17-2.62-2.62-2.62Z"/>
      <circle class="cls-1" cx="36.98" cy="40.93" r="2.62" transform="translate(-6.47 74.92) rotate(-85.93)"/>
      <path class="cls-1" d="M32.19,47.9c-1.44,0-2.62,1.17-2.62,2.62s1.17,2.62,2.62,2.62,2.62-1.17,2.62-2.62-1.17-2.62-2.62-2.62Z"/>
      <circle class="cls-1" cx="46.56" cy="40.93" r="2.62" transform="translate(2.42 84.47) rotate(-85.93)"/>
      <path class="cls-1" d="M41.77,47.9c-1.44,0-2.62,1.17-2.62,2.62s1.17,2.62,2.62,2.62,2.62-1.17,2.62-2.62-1.17-2.62-2.62-2.62Z"/>
      <path class="cls-1" d="M56.14,38.32c-1.44,0-2.62,1.17-2.62,2.62s1.17,2.62,2.62,2.62,2.62-1.17,2.62-2.62-1.17-2.62-2.62-2.62Z"/>
      <path class="cls-1" d="M51.35,47.9c-1.44,0-2.62,1.17-2.62,2.62s1.17,2.62,2.62,2.62,2.62-1.17,2.62-2.62-1.17-2.62-2.62-2.62Z"/>
      <path class="cls-1" d="M65.72,38.32c-1.44,0-2.62,1.17-2.62,2.62s1.17,2.62,2.62,2.62,2.62-1.17,2.62-2.62-1.17-2.62-2.62-2.62Z"/>
      <path class="cls-1" d="M60.93,47.9c-1.44,0-2.62,1.17-2.62,2.62s1.17,2.62,2.62,2.62,2.62-1.17,2.62-2.62-1.17-2.62-2.62-2.62Z"/>
      <circle class="cls-1" cx="75.3" cy="40.93" r="2.62" transform="translate(29.12 113.14) rotate(-85.93)"/>
      <path class="cls-1" d="M70.51,47.9c-1.44,0-2.62,1.17-2.62,2.62s1.17,2.62,2.62,2.62,2.62-1.17,2.62-2.62-1.17-2.62-2.62-2.62Z"/>
      <path class="cls-1" d="M84.88,38.32c-1.44,0-2.62,1.17-2.62,2.62s1.17,2.62,2.62,2.62,2.62-1.17,2.62-2.62-1.17-2.62-2.62-2.62Z"/>
      <path class="cls-1" d="M80.09,47.9c-1.44,0-2.62,1.17-2.62,2.62s1.17,2.62,2.62,2.62,2.62-1.17,2.62-2.62-1.17-2.62-2.62-2.62Z"/>
      <path class="cls-1" d="M94.46,38.32c-1.44,0-2.62,1.17-2.62,2.62s1.17,2.62,2.62,2.62,2.62-1.17,2.62-2.62-1.17-2.62-2.62-2.62Z"/>
      <path class="cls-1" d="M89.67,47.9c-1.44,0-2.62,1.17-2.62,2.62s1.17,2.62,2.62,2.62,2.62-1.17,2.62-2.62-1.17-2.62-2.62-2.62Z"/>
      <circle class="cls-1" cx="104.04" cy="40.93" r="2.62" transform="translate(55.82 141.8) rotate(-85.93)"/>
      <path class="cls-1" d="M99.25,47.9c-1.44,0-2.62,1.17-2.62,2.62s1.17,2.62,2.62,2.62,2.62-1.17,2.62-2.62-1.17-2.62-2.62-2.62Z"/>
      <circle class="cls-1" cx="113.62" cy="40.93" r="2.62"/>
      <path class="cls-1" d="M108.83,47.9c-1.44,0-2.62,1.17-2.62,2.62s1.17,2.62,2.62,2.62,2.62-1.17,2.62-2.62-1.17-2.62-2.62-2.62Z"/>
      <path class="cls-1" d="M123.2,43.55c1.44,0,2.62-1.17,2.62-2.62s-1.17-2.62-2.62-2.62-2.62,1.17-2.62,2.62,1.17,2.62,2.62,2.62Z"/>
      <path class="cls-1" d="M118.41,47.9c-1.44,0-2.62,1.17-2.62,2.62s1.17,2.62,2.62,2.62,2.62-1.17,2.62-2.62-1.17-2.62-2.62-2.62Z"/>
      <path class="cls-1" d="M130.17,40.93c0,1.44,1.17,2.62,2.62,2.62s2.54-1.11,2.6-2.49c-.32-.73-.65-1.46-1-2.18-.44-.35-1-.56-1.6-.56-1.44,0-2.62,1.17-2.62,2.62Z"/>
      <path class="cls-1" d="M127.99,53.13c1.44,0,2.62-1.17,2.62-2.62s-1.17-2.62-2.62-2.62-2.62,1.17-2.62,2.62,1.17,2.62,2.62,2.62Z"/>
      <path class="cls-1" d="M134.96,50.51c0,1.44,1.17,2.62,2.62,2.62.66,0,1.26-.26,1.72-.66-.38-1.53-.81-3.04-1.29-4.52-.14-.02-.29-.04-.43-.04-1.44,0-2.62,1.17-2.62,2.62Z"/>
      <path class="cls-1" d="M1.28,60.09c0-.71-.28-1.35-.74-1.82-.22,1.34-.4,2.69-.54,4.06.76-.46,1.28-1.28,1.28-2.24Z"/>
      <circle class="cls-1" cx="8.24" cy="60.09" r="2.62"/>
      <path class="cls-1" d="M3.46,67.06c-1.44,0-2.62,1.17-2.62,2.62s1.17,2.62,2.62,2.62,2.62-1.17,2.62-2.62-1.17-2.62-2.62-2.62Z"/>
      <path class="cls-1" d="M17.82,57.48c-1.44,0-2.62,1.17-2.62,2.62s1.17,2.62,2.62,2.62,2.62-1.17,2.62-2.62-1.17-2.62-2.62-2.62Z"/>
      <path class="cls-1" d="M13.03,67.06c-1.44,0-2.62,1.17-2.62,2.62s1.17,2.62,2.62,2.62,2.62-1.17,2.62-2.62-1.17-2.62-2.62-2.62Z"/>
      <path class="cls-1" d="M27.4,62.71c1.44,0,2.62-1.17,2.62-2.62s-1.17-2.62-2.62-2.62-2.62,1.17-2.62,2.62,1.17,2.62,2.62,2.62Z"/>
      <path class="cls-1" d="M22.61,67.06c-1.44,0-2.62,1.17-2.62,2.62s1.17,2.62,2.62,2.62,2.62-1.17,2.62-2.62-1.17-2.62-2.62-2.62Z"/>
      <circle class="cls-1" cx="36.98" cy="60.09" r="2.62"/>
      <path class="cls-1" d="M32.19,72.29c1.44,0,2.62-1.17,2.62-2.62s-1.17-2.62-2.62-2.62-2.62,1.17-2.62,2.62,1.17,2.62,2.62,2.62Z"/>
      <circle class="cls-1" cx="46.56" cy="60.09" r="2.62"/>
      <path class="cls-1" d="M41.77,67.06c-1.44,0-2.62,1.17-2.62,2.62s1.17,2.62,2.62,2.62,2.62-1.17,2.62-2.62-1.17-2.62-2.62-2.62Z"/>
      <path class="cls-1" d="M56.14,57.48c-1.44,0-2.62,1.17-2.62,2.62s1.17,2.62,2.62,2.62,2.62-1.17,2.62-2.62-1.17-2.62-2.62-2.62Z"/>
      <path class="cls-1" d="M51.35,67.06c-1.44,0-2.62,1.17-2.62,2.62s1.17,2.62,2.62,2.62,2.62-1.17,2.62-2.62-1.17-2.62-2.62-2.62Z"/>
      <path class="cls-1" d="M65.72,62.71c1.44,0,2.62-1.17,2.62-2.62s-1.17-2.62-2.62-2.62-2.62,1.17-2.62,2.62,1.17,2.62,2.62,2.62Z"/>
      <path class="cls-1" d="M60.93,67.06c-1.44,0-2.62,1.17-2.62,2.62s1.17,2.62,2.62,2.62,2.62-1.17,2.62-2.62-1.17-2.62-2.62-2.62Z"/>
      <circle class="cls-1" cx="75.3" cy="60.09" r="2.62"/>
      <path class="cls-1" d="M70.51,72.29c1.44,0,2.62-1.17,2.62-2.62s-1.17-2.62-2.62-2.62-2.62,1.17-2.62,2.62,1.17,2.62,2.62,2.62Z"/>
      <path class="cls-1" d="M84.88,57.48c-1.44,0-2.62,1.17-2.62,2.62s1.17,2.62,2.62,2.62,2.62-1.17,2.62-2.62-1.17-2.62-2.62-2.62Z"/>
      <path class="cls-1" d="M80.09,72.29c1.44,0,2.62-1.17,2.62-2.62s-1.17-2.62-2.62-2.62-2.62,1.17-2.62,2.62,1.17,2.62,2.62,2.62Z"/>
      <path class="cls-1" d="M94.46,57.48c-1.44,0-2.62,1.17-2.62,2.62s1.17,2.62,2.62,2.62,2.62-1.17,2.62-2.62-1.17-2.62-2.62-2.62Z"/>
      <path class="cls-1" d="M89.67,67.06c-1.44,0-2.62,1.17-2.62,2.62s1.17,2.62,2.62,2.62,2.62-1.17,2.62-2.62-1.17-2.62-2.62-2.62Z"/>
      <circle class="cls-1" cx="104.04" cy="60.09" r="2.62"/>
      <path class="cls-1" d="M99.25,72.29c1.44,0,2.62-1.17,2.62-2.62s-1.17-2.62-2.62-2.62-2.62,1.17-2.62,2.62,1.17,2.62,2.62,2.62Z"/>
      <circle class="cls-1" cx="113.62" cy="60.09" r="2.62"/>
      <path class="cls-1" d="M108.83,67.06c-1.44,0-2.62,1.17-2.62,2.62s1.17,2.62,2.62,2.62,2.62-1.17,2.62-2.62-1.17-2.62-2.62-2.62Z"/>
      <path class="cls-1" d="M123.2,57.48c-1.44,0-2.62,1.17-2.62,2.62s1.17,2.62,2.62,2.62,2.62-1.17,2.62-2.62-1.17-2.62-2.62-2.62Z"/>
      <path class="cls-1" d="M118.41,72.29c1.44,0,2.62-1.17,2.62-2.62s-1.17-2.62-2.62-2.62-2.62,1.17-2.62,2.62,1.17,2.62,2.62,2.62Z"/>
      <path class="cls-1" d="M132.78,62.71c1.44,0,2.62-1.17,2.62-2.62s-1.17-2.62-2.62-2.62-2.62,1.17-2.62,2.62,1.17,2.62,2.62,2.62Z"/>
      <path class="cls-1" d="M127.99,72.29c1.44,0,2.62-1.17,2.62-2.62s-1.17-2.62-2.62-2.62-2.62,1.17-2.62,2.62,1.17,2.62,2.62,2.62Z"/>
      <path class="cls-1" d="M141.03,62.33c-.14-1.36-.32-2.72-.54-4.06-.46.47-.74,1.11-.74,1.82,0,.95.52,1.78,1.28,2.24Z"/>
      <path class="cls-1" d="M137.57,72.29c1.44,0,2.62-1.17,2.62-2.62s-1.17-2.62-2.62-2.62-2.62,1.17-2.62,2.62,1.17,2.62,2.62,2.62Z"/>
      <path class="cls-1" d="M0,77.01c.14,1.36.32,2.72.54,4.06.46-.47.74-1.11.74-1.82,0-.95-.52-1.78-1.28-2.24Z"/>
      <path class="cls-1" d="M8.24,76.64c-1.44,0-2.62,1.17-2.62,2.62s1.17,2.62,2.62,2.62,2.62-1.17,2.62-2.62-1.17-2.62-2.62-2.62Z"/>
      <path class="cls-1" d="M6.07,88.83c0-1.44-1.17-2.62-2.62-2.62-.66,0-1.26.26-1.72.66.38,1.53.81,3.04,1.29,4.52.14.02.29.04.43.04,1.44,0,2.62-1.17,2.62-2.62Z"/>
      <path class="cls-1" d="M17.82,81.87c1.44,0,2.62-1.17,2.62-2.62s-1.17-2.62-2.62-2.62-2.62,1.17-2.62,2.62,1.17,2.62,2.62,2.62Z"/>
      <circle class="cls-1" cx="13.03" cy="88.83" r="2.62" transform="translate(-75.78 75.67) rotate(-73.22)"/>
      <path class="cls-1" d="M27.4,81.87c1.44,0,2.62-1.17,2.62-2.62s-1.17-2.62-2.62-2.62-2.62,1.17-2.62,2.62,1.17,2.62,2.62,2.62Z"/>
      <circle class="cls-1" cx="22.61" cy="88.83" r="2.62" transform="translate(-19.68 7.51) rotate(-13.19)"/>
      <path class="cls-1" d="M36.98,81.87c1.44,0,2.62-1.17,2.62-2.62s-1.17-2.62-2.62-2.62-2.62,1.17-2.62,2.62,1.17,2.62,2.62,2.62Z"/>
      <path class="cls-1" d="M32.19,91.45c1.44,0,2.62-1.17,2.62-2.62s-1.17-2.62-2.62-2.62-2.62,1.17-2.62,2.62,1.17,2.62,2.62,2.62Z"/>
      <path class="cls-1" d="M46.56,81.87c1.44,0,2.62-1.17,2.62-2.62s-1.17-2.62-2.62-2.62-2.62,1.17-2.62,2.62,1.17,2.62,2.62,2.62Z"/>
      <path class="cls-1" d="M41.77,91.45c1.44,0,2.62-1.17,2.62-2.62s-1.17-2.62-2.62-2.62-2.62,1.17-2.62,2.62,1.17,2.62,2.62,2.62Z"/>
      <path class="cls-1" d="M56.14,81.87c1.44,0,2.62-1.17,2.62-2.62s-1.17-2.62-2.62-2.62-2.62,1.17-2.62,2.62,1.17,2.62,2.62,2.62Z"/>
      <path class="cls-1" d="M51.35,91.45c1.44,0,2.62-1.17,2.62-2.62s-1.17-2.62-2.62-2.62-2.62,1.17-2.62,2.62,1.17,2.62,2.62,2.62Z"/>
      <path class="cls-1" d="M65.72,81.87c1.44,0,2.62-1.17,2.62-2.62s-1.17-2.62-2.62-2.62-2.62,1.17-2.62,2.62,1.17,2.62,2.62,2.62Z"/>
      <circle class="cls-1" cx="60.93" cy="88.83" r="2.62" transform="translate(-18.67 16.25) rotate(-13.19)"/>
      <path class="cls-1" d="M75.3,81.87c1.44,0,2.62-1.17,2.62-2.62s-1.17-2.62-2.62-2.62-2.62,1.17-2.62,2.62,1.17,2.62,2.62,2.62Z"/>
      <path class="cls-1" d="M70.51,91.45c1.44,0,2.62-1.17,2.62-2.62s-1.17-2.62-2.62-2.62-2.62,1.17-2.62,2.62,1.17,2.62,2.62,2.62Z"/>
      <path class="cls-1" d="M84.88,81.87c1.44,0,2.62-1.17,2.62-2.62s-1.17-2.62-2.62-2.62-2.62,1.17-2.62,2.62,1.17,2.62,2.62,2.62Z"/>
      <path class="cls-1" d="M80.09,91.45c1.44,0,2.62-1.17,2.62-2.62s-1.17-2.62-2.62-2.62-2.62,1.17-2.62,2.62,1.17,2.62,2.62,2.62Z"/>
      <path class="cls-1" d="M94.46,81.87c1.44,0,2.62-1.17,2.62-2.62s-1.17-2.62-2.62-2.62-2.62,1.17-2.62,2.62,1.17,2.62,2.62,2.62Z"/>
      <circle class="cls-1" cx="89.67" cy="88.83" r="2.62" transform="translate(-17.91 22.81) rotate(-13.19)"/>
      <path class="cls-1" d="M104.04,81.87c1.44,0,2.62-1.17,2.62-2.62s-1.17-2.62-2.62-2.62-2.62,1.17-2.62,2.62,1.17,2.62,2.62,2.62Z"/>
      <path class="cls-1" d="M99.25,91.45c1.44,0,2.62-1.17,2.62-2.62s-1.17-2.62-2.62-2.62-2.62,1.17-2.62,2.62,1.17,2.62,2.62,2.62Z"/>
      <path class="cls-1" d="M113.62,76.64c-1.44,0-2.62,1.17-2.62,2.62s1.17,2.62,2.62,2.62,2.62-1.17,2.62-2.62-1.17-2.62-2.62-2.62Z"/>
      <path class="cls-1" d="M108.83,91.45c1.44,0,2.62-1.17,2.62-2.62s-1.17-2.62-2.62-2.62-2.62,1.17-2.62,2.62,1.17,2.62,2.62,2.62Z"/>
      <path class="cls-1" d="M123.2,81.87c1.44,0,2.62-1.17,2.62-2.62s-1.17-2.62-2.62-2.62-2.62,1.17-2.62,2.62,1.17,2.62,2.62,2.62Z"/>
      <circle class="cls-1" cx="118.41" cy="88.83" r="2.62" transform="translate(-17.15 29.37) rotate(-13.19)"/>
      <path class="cls-1" d="M132.78,76.64c-1.44,0-2.62,1.17-2.62,2.62s1.17,2.62,2.62,2.62,2.62-1.17,2.62-2.62-1.17-2.62-2.62-2.62Z"/>
      <path class="cls-1" d="M127.99,86.22c-1.44,0-2.62,1.17-2.62,2.62s1.17,2.62,2.62,2.62,2.62-1.17,2.62-2.62-1.17-2.62-2.62-2.62Z"/>
      <path class="cls-1" d="M139.75,79.25c0,.71.28,1.35.74,1.82.22-1.34.4-2.69.54-4.06-.76.46-1.28,1.28-1.28,2.24Z"/>
      <path class="cls-1" d="M134.96,88.83c0,1.44,1.17,2.62,2.62,2.62.15,0,.29-.02.43-.04.48-1.49.91-3,1.29-4.52-.46-.41-1.06-.66-1.72-.66-1.44,0-2.62,1.17-2.62,2.62Z"/>
      <path class="cls-1" d="M10.86,98.41c0-1.44-1.17-2.62-2.62-2.62s-2.54,1.11-2.6,2.49c.32.73.65,1.46,1,2.17.44.35,1,.56,1.6.56,1.44,0,2.62-1.17,2.62-2.62Z"/>
      <path class="cls-1" d="M17.82,95.8c-1.44,0-2.62,1.17-2.62,2.62s1.17,2.62,2.62,2.62,2.62-1.17,2.62-2.62-1.17-2.62-2.62-2.62Z"/>
      <path class="cls-1" d="M15.65,107.99c0-1.44-1.17-2.62-2.62-2.62-1.24,0-2.27.87-2.54,2.03.68,1.07,1.38,2.13,2.11,3.16.14.02.29.04.43.04,1.44,0,2.62-1.17,2.62-2.62Z"/>
      <path class="cls-1" d="M27.4,101.03c1.44,0,2.62-1.17,2.62-2.62s-1.17-2.62-2.62-2.62-2.62,1.17-2.62,2.62,1.17,2.62,2.62,2.62Z"/>
      <path class="cls-1" d="M22.61,105.38c-1.44,0-2.62,1.17-2.62,2.62s1.17,2.62,2.62,2.62,2.62-1.17,2.62-2.62-1.17-2.62-2.62-2.62Z"/>
      <path class="cls-1" d="M36.98,101.03c1.44,0,2.62-1.17,2.62-2.62s-1.17-2.62-2.62-2.62-2.62,1.17-2.62,2.62,1.17,2.62,2.62,2.62Z"/>
      <path class="cls-1" d="M32.19,105.38c-1.44,0-2.62,1.17-2.62,2.62s1.17,2.62,2.62,2.62,2.62-1.17,2.62-2.62-1.17-2.62-2.62-2.62Z"/>
      <path class="cls-1" d="M46.56,101.03c1.44,0,2.62-1.17,2.62-2.62s-1.17-2.62-2.62-2.62-2.62,1.17-2.62,2.62,1.17,2.62,2.62,2.62Z"/>
      <path class="cls-1" d="M41.77,110.61c1.44,0,2.62-1.17,2.62-2.62s-1.17-2.62-2.62-2.62-2.62,1.17-2.62,2.62,1.17,2.62,2.62,2.62Z"/>
      <path class="cls-1" d="M56.14,101.03c1.44,0,2.62-1.17,2.62-2.62s-1.17-2.62-2.62-2.62-2.62,1.17-2.62,2.62,1.17,2.62,2.62,2.62Z"/>
      <path class="cls-1" d="M51.35,110.61c1.44,0,2.62-1.17,2.62-2.62s-1.17-2.62-2.62-2.62-2.62,1.17-2.62,2.62,1.17,2.62,2.62,2.62Z"/>
      <path class="cls-1" d="M65.72,101.03c1.44,0,2.62-1.17,2.62-2.62s-1.17-2.62-2.62-2.62-2.62,1.17-2.62,2.62,1.17,2.62,2.62,2.62Z"/>
      <path class="cls-1" d="M60.93,110.61c1.44,0,2.62-1.17,2.62-2.62s-1.17-2.62-2.62-2.62-2.62,1.17-2.62,2.62,1.17,2.62,2.62,2.62Z"/>
      <path class="cls-1" d="M75.3,101.03c1.44,0,2.62-1.17,2.62-2.62s-1.17-2.62-2.62-2.62-2.62,1.17-2.62,2.62,1.17,2.62,2.62,2.62Z"/>
      <path class="cls-1" d="M70.51,110.61c1.44,0,2.62-1.17,2.62-2.62s-1.17-2.62-2.62-2.62-2.62,1.17-2.62,2.62,1.17,2.62,2.62,2.62Z"/>
      <path class="cls-1" d="M84.88,101.03c1.44,0,2.62-1.17,2.62-2.62s-1.17-2.62-2.62-2.62-2.62,1.17-2.62,2.62,1.17,2.62,2.62,2.62Z"/>
      <path class="cls-1" d="M80.09,110.61c1.44,0,2.62-1.17,2.62-2.62s-1.17-2.62-2.62-2.62-2.62,1.17-2.62,2.62,1.17,2.62,2.62,2.62Z"/>
      <path class="cls-1" d="M94.46,101.03c1.44,0,2.62-1.17,2.62-2.62s-1.17-2.62-2.62-2.62-2.62,1.17-2.62,2.62,1.17,2.62,2.62,2.62Z"/>
      <path class="cls-1" d="M89.67,110.61c1.44,0,2.62-1.17,2.62-2.62s-1.17-2.62-2.62-2.62-2.62,1.17-2.62,2.62,1.17,2.62,2.62,2.62Z"/>
      <path class="cls-1" d="M104.04,101.03c1.44,0,2.62-1.17,2.62-2.62s-1.17-2.62-2.62-2.62-2.62,1.17-2.62,2.62,1.17,2.62,2.62,2.62Z"/>
      <path class="cls-1" d="M99.25,110.61c1.44,0,2.62-1.17,2.62-2.62s-1.17-2.62-2.62-2.62-2.62,1.17-2.62,2.62,1.17,2.62,2.62,2.62Z"/>
      <path class="cls-1" d="M113.62,101.03c1.44,0,2.62-1.17,2.62-2.62s-1.17-2.62-2.62-2.62-2.62,1.17-2.62,2.62,1.17,2.62,2.62,2.62Z"/>
      <path class="cls-1" d="M108.83,105.38c-1.44,0-2.62,1.17-2.62,2.62s1.17,2.62,2.62,2.62,2.62-1.17,2.62-2.62-1.17-2.62-2.62-2.62Z"/>
      <path class="cls-1" d="M123.2,95.8c-1.44,0-2.62,1.17-2.62,2.62s1.17,2.62,2.62,2.62,2.62-1.17,2.62-2.62-1.17-2.62-2.62-2.62Z"/>
      <path class="cls-1" d="M118.41,105.38c-1.44,0-2.62,1.17-2.62,2.62s1.17,2.62,2.62,2.62,2.62-1.17,2.62-2.62-1.17-2.62-2.62-2.62Z"/>
      <path class="cls-1" d="M132.78,95.8c-1.44,0-2.62,1.17-2.62,2.62s1.17,2.62,2.62,2.62c.61,0,1.16-.22,1.6-.56.35-.72.68-1.44,1-2.17-.06-1.39-1.2-2.49-2.6-2.49Z"/>
      <path class="cls-1" d="M127.99,105.38c-1.44,0-2.62,1.17-2.62,2.62s1.17,2.62,2.62,2.62c.15,0,.29-.02.43-.04.73-1.03,1.43-2.09,2.11-3.16-.27-1.16-1.3-2.03-2.54-2.03Z"/>
      <path class="cls-1" d="M17.82,114.96c-.55,0-1.05.17-1.47.45,1.11,1.32,2.27,2.59,3.48,3.82.37-.45.61-1.03.61-1.66,0-1.44-1.17-2.62-2.62-2.62Z"/>
      <path class="cls-1" d="M27.4,114.96c-1.44,0-2.62,1.17-2.62,2.62s1.17,2.62,2.62,2.62,2.62-1.17,2.62-2.62-1.17-2.62-2.62-2.62Z"/>
      <circle class="cls-1" cx="36.98" cy="117.57" r="2.62"/>
      <path class="cls-1" d="M34.81,127.15c0-1.44-1.17-2.62-2.62-2.62s-2.62,1.17-2.62,2.62c0,.15.02.29.04.43,1.03.73,2.09,1.43,3.16,2.11,1.16-.27,2.03-1.3,2.03-2.54Z"/>
      <circle class="cls-1" cx="46.56" cy="117.57" r="2.62"/>
      <path class="cls-1" d="M41.77,124.54c-1.44,0-2.62,1.17-2.62,2.62s1.17,2.62,2.62,2.62,2.62-1.17,2.62-2.62-1.17-2.62-2.62-2.62Z"/>
      <path class="cls-1" d="M56.14,114.96c-1.44,0-2.62,1.17-2.62,2.62s1.17,2.62,2.62,2.62,2.62-1.17,2.62-2.62-1.17-2.62-2.62-2.62Z"/>
      <path class="cls-1" d="M51.35,124.54c-1.44,0-2.62,1.17-2.62,2.62s1.17,2.62,2.62,2.62,2.62-1.17,2.62-2.62-1.17-2.62-2.62-2.62Z"/>
      <path class="cls-1" d="M65.72,120.19c1.44,0,2.62-1.17,2.62-2.62s-1.17-2.62-2.62-2.62-2.62,1.17-2.62,2.62,1.17,2.62,2.62,2.62Z"/>
      <circle class="cls-1" cx="60.93" cy="127.15" r="2.62" transform="translate(-12.23 6.62) rotate(-5.65)"/>
      <circle class="cls-1" cx="75.3" cy="117.57" r="2.62"/>
      <path class="cls-1" d="M70.51,124.54c-1.44,0-2.62,1.17-2.62,2.62s1.17,2.62,2.62,2.62,2.62-1.17,2.62-2.62-1.17-2.62-2.62-2.62Z"/>
      <path class="cls-1" d="M84.88,114.96c-1.44,0-2.62,1.17-2.62,2.62s1.17,2.62,2.62,2.62,2.62-1.17,2.62-2.62-1.17-2.62-2.62-2.62Z"/>
      <path class="cls-1" d="M80.09,124.54c-1.44,0-2.62,1.17-2.62,2.62s1.17,2.62,2.62,2.62,2.62-1.17,2.62-2.62-1.17-2.62-2.62-2.62Z"/>
      <path class="cls-1" d="M94.46,114.96c-1.44,0-2.62,1.17-2.62,2.62s1.17,2.62,2.62,2.62,2.62-1.17,2.62-2.62-1.17-2.62-2.62-2.62Z"/>
      <circle class="cls-1" cx="89.67" cy="127.15" r="2.62" transform="translate(-12.09 9.45) rotate(-5.65)"/>
      <circle class="cls-1" cx="104.04" cy="117.57" r="2.62"/>
      <path class="cls-1" d="M99.25,124.54c-1.44,0-2.62,1.17-2.62,2.62s1.17,2.62,2.62,2.62,2.62-1.17,2.62-2.62-1.17-2.62-2.62-2.62Z"/>
      <circle class="cls-1" cx="113.62" cy="117.57" r="2.62"/>
      <path class="cls-1" d="M108.83,124.54c-1.44,0-2.62,1.17-2.62,2.62,0,1.24.87,2.27,2.03,2.54,1.07-.68,2.13-1.38,3.16-2.11.02-.14.04-.29.04-.43,0-1.44-1.17-2.62-2.62-2.62Z"/>
      <path class="cls-1" d="M120.59,117.57c0,.63.23,1.21.61,1.66,1.2-1.23,2.36-2.51,3.48-3.82-.42-.29-.92-.45-1.47-.45-1.44,0-2.62,1.17-2.62,2.62Z"/>
      <path class="cls-1" d="M46.56,134.12c-1.01,0-1.88.58-2.31,1.42,1.6.64,3.22,1.22,4.87,1.74.04-.18.06-.36.06-.54,0-1.44-1.17-2.62-2.62-2.62Z"/>
      <path class="cls-1" d="M58.76,136.73c0-1.44-1.17-2.62-2.62-2.62s-2.62,1.17-2.62,2.62c0,.82.38,1.53.97,2.01.78.18,1.56.34,2.35.49,1.1-.31,1.92-1.31,1.92-2.51Z"/>
      <path class="cls-1" d="M65.72,134.12c-1.44,0-2.62,1.17-2.62,2.62s1.17,2.62,2.62,2.62,2.62-1.17,2.62-2.62-1.17-2.62-2.62-2.62Z"/>
      <path class="cls-1" d="M75.3,134.12c-1.44,0-2.62,1.17-2.62,2.62s1.17,2.62,2.62,2.62,2.62-1.17,2.62-2.62-1.17-2.62-2.62-2.62Z"/>
      <path class="cls-1" d="M87.5,136.73c0-1.44-1.17-2.62-2.62-2.62s-2.62,1.17-2.62,2.62c0,1.2.81,2.2,1.92,2.51.79-.15,1.57-.32,2.35-.49.59-.48.97-1.2.97-2.01Z"/>
      <path class="cls-1" d="M94.46,134.12c-1.44,0-2.62,1.17-2.62,2.62,0,.19.02.37.06.54,1.65-.52,3.27-1.1,4.87-1.74-.44-.84-1.3-1.42-2.31-1.42Z"/>
    </g>
  </g>
</svg>