<?xml version="1.0" encoding="UTF-8"?>
<svg id="_レイヤー_2" data-name="レイヤー 2" xmlns="http://www.w3.org/2000/svg" viewBox="0 0 211.43 208.92">
  <defs>
    <style>
      .cls-1 {
        fill: #dae000;
      }
    </style>
  </defs>
  <g id="_レイヤー_1-2" data-name="レイヤー 1">
    <g>
      <path class="cls-1" d="M48.27,22.2c2.17,0,3.92-1.76,3.92-3.92,0-1.86-1.3-3.41-3.04-3.81-1.61,1.01-3.19,2.07-4.74,3.16-.04.21-.07.43-.07.65,0,2.17,1.76,3.92,3.92,3.92Z"/>
      <path class="cls-1" d="M69.81,7.84c2.17,0,3.92-1.76,3.92-3.92,0-.28-.03-.55-.09-.81-2.47.78-4.91,1.65-7.3,2.61.65,1.26,1.95,2.13,3.47,2.13Z"/>
      <path class="cls-1" d="M62.63,22.2c2.17,0,3.92-1.76,3.92-3.92s-1.76-3.92-3.92-3.92-3.92,1.76-3.92,3.92,1.76,3.92,3.92,3.92Z"/>
      <path class="cls-1" d="M80.25,3.92c0,2.17,1.76,3.92,3.92,3.92s3.92-1.76,3.92-3.92c0-1.8-1.22-3.3-2.88-3.76-1.18.23-2.35.47-3.52.74-.88.72-1.45,1.8-1.45,3.02Z"/>
      <path class="cls-1" d="M76.99,22.2c2.17,0,3.92-1.76,3.92-3.92s-1.76-3.92-3.92-3.92-3.92,1.76-3.92,3.92,1.76,3.92,3.92,3.92Z"/>
      <path class="cls-1" d="M98.54,7.84c2.17,0,3.92-1.76,3.92-3.92s-1.76-3.92-3.92-3.92-3.92,1.76-3.92,3.92,1.76,3.92,3.92,3.92Z"/>
      <path class="cls-1" d="M91.35,22.2c2.17,0,3.92-1.76,3.92-3.92s-1.76-3.92-3.92-3.92-3.92,1.76-3.92,3.92,1.76,3.92,3.92,3.92Z"/>
      <path class="cls-1" d="M112.9,7.84c2.17,0,3.92-1.76,3.92-3.92s-1.76-3.92-3.92-3.92-3.92,1.76-3.92,3.92,1.76,3.92,3.92,3.92Z"/>
      <path class="cls-1" d="M105.72,22.2c2.17,0,3.92-1.76,3.92-3.92s-1.76-3.92-3.92-3.92-3.92,1.76-3.92,3.92,1.76,3.92,3.92,3.92Z"/>
      <path class="cls-1" d="M123.34,3.92c0,2.17,1.76,3.92,3.92,3.92s3.92-1.76,3.92-3.92c0-1.22-.57-2.3-1.45-3.02-1.16-.27-2.34-.51-3.52-.74-1.65.46-2.88,1.96-2.88,3.76Z"/>
      <path class="cls-1" d="M120.08,22.2c2.17,0,3.92-1.76,3.92-3.92s-1.76-3.92-3.92-3.92-3.92,1.76-3.92,3.92,1.76,3.92,3.92,3.92Z"/>
      <path class="cls-1" d="M141.62,7.84c1.52,0,2.82-.87,3.47-2.13-2.39-.95-4.83-1.82-7.3-2.61-.06.26-.09.54-.09.81,0,2.17,1.76,3.92,3.92,3.92Z"/>
      <path class="cls-1" d="M134.44,22.2c2.17,0,3.92-1.76,3.92-3.92s-1.76-3.92-3.92-3.92-3.92,1.76-3.92,3.92,1.76,3.92,3.92,3.92Z"/>
      <path class="cls-1" d="M148.8,22.2c2.17,0,3.92-1.76,3.92-3.92s-1.76-3.92-3.92-3.92-3.92,1.76-3.92,3.92,1.76,3.92,3.92,3.92Z"/>
      <path class="cls-1" d="M159.25,18.28c0,2.17,1.76,3.92,3.92,3.92s3.92-1.76,3.92-3.92c0-.22-.03-.44-.07-.65-1.55-1.1-3.13-2.15-4.74-3.16-1.74.4-3.04,1.95-3.04,3.81Z"/>
      <path class="cls-1" d="M30.64,32.65c0-.95-.35-1.81-.91-2.49-1.81,1.85-3.54,3.76-5.21,5.73.63.43,1.39.68,2.2.68,2.17,0,3.92-1.76,3.92-3.92Z"/>
      <path class="cls-1" d="M19.54,50.93c2.17,0,3.92-1.76,3.92-3.92s-1.76-3.92-3.92-3.92c-.22,0-.44.03-.65.07-1.1,1.55-2.15,3.13-3.16,4.74.4,1.74,1.95,3.04,3.81,3.04Z"/>
      <path class="cls-1" d="M41.09,36.57c2.17,0,3.92-1.76,3.92-3.92s-1.76-3.92-3.92-3.92-3.92,1.76-3.92,3.92,1.76,3.92,3.92,3.92Z"/>
      <circle class="cls-1" cx="33.9" cy="47.01" r="3.92"/>
      <circle class="cls-1" cx="55.45" cy="32.65" r="3.92"/>
      <path class="cls-1" d="M48.27,50.93c2.17,0,3.92-1.76,3.92-3.92s-1.76-3.92-3.92-3.92-3.92,1.76-3.92,3.92,1.76,3.92,3.92,3.92Z"/>
      <circle class="cls-1" cx="69.81" cy="32.65" r="3.92"/>
      <circle class="cls-1" cx="62.63" cy="47.01" r="3.92"/>
      <path class="cls-1" d="M84.17,36.57c2.17,0,3.92-1.76,3.92-3.92s-1.76-3.92-3.92-3.92-3.92,1.76-3.92,3.92,1.76,3.92,3.92,3.92Z"/>
      <circle class="cls-1" cx="76.99" cy="47.01" r="3.92"/>
      <path class="cls-1" d="M98.54,28.72c-2.17,0-3.92,1.76-3.92,3.92s1.76,3.92,3.92,3.92,3.92-1.76,3.92-3.92-1.76-3.92-3.92-3.92Z"/>
      <path class="cls-1" d="M91.35,43.09c-2.17,0-3.92,1.76-3.92,3.92s1.76,3.92,3.92,3.92,3.92-1.76,3.92-3.92-1.76-3.92-3.92-3.92Z"/>
      <path class="cls-1" d="M112.9,28.72c-2.17,0-3.92,1.76-3.92,3.92s1.76,3.92,3.92,3.92,3.92-1.76,3.92-3.92-1.76-3.92-3.92-3.92Z"/>
      <circle class="cls-1" cx="105.72" cy="47.01" r="3.92"/>
      <path class="cls-1" d="M127.26,36.57c2.17,0,3.92-1.76,3.92-3.92s-1.76-3.92-3.92-3.92-3.92,1.76-3.92,3.92,1.76,3.92,3.92,3.92Z"/>
      <path class="cls-1" d="M120.08,43.09c-2.17,0-3.92,1.76-3.92,3.92s1.76,3.92,3.92,3.92,3.92-1.76,3.92-3.92-1.76-3.92-3.92-3.92Z"/>
      <path class="cls-1" d="M141.62,36.57c2.17,0,3.92-1.76,3.92-3.92s-1.76-3.92-3.92-3.92-3.92,1.76-3.92,3.92,1.76,3.92,3.92,3.92Z"/>
      <circle class="cls-1" cx="134.44" cy="47.01" r="3.92"/>
      <circle class="cls-1" cx="155.99" cy="32.65" r="3.92"/>
      <path class="cls-1" d="M148.8,43.09c-2.17,0-3.92,1.76-3.92,3.92s1.76,3.92,3.92,3.92,3.92-1.76,3.92-3.92-1.76-3.92-3.92-3.92Z"/>
      <path class="cls-1" d="M170.35,36.57c2.17,0,3.92-1.76,3.92-3.92s-1.76-3.92-3.92-3.92-3.92,1.76-3.92,3.92,1.76,3.92,3.92,3.92Z"/>
      <circle class="cls-1" cx="163.17" cy="47.01" r="3.92" transform="translate(-2.92 11.68) rotate(-4.07)"/>
      <path class="cls-1" d="M184.71,36.57c.82,0,1.58-.25,2.2-.68-1.67-1.97-3.41-3.88-5.21-5.73-.56.68-.91,1.54-.91,2.49,0,2.17,1.76,3.92,3.92,3.92Z"/>
      <circle class="cls-1" cx="177.53" cy="47.01" r="3.92"/>
      <path class="cls-1" d="M187.97,47.01c0,2.17,1.76,3.92,3.92,3.92,1.86,0,3.41-1.3,3.81-3.04-1.01-1.61-2.07-3.19-3.16-4.74-.21-.04-.43-.07-.65-.07-2.17,0-3.92,1.76-3.92,3.92Z"/>
      <path class="cls-1" d="M12.36,65.29c2.17,0,3.92-1.76,3.92-3.92s-1.76-3.92-3.92-3.92c-.91,0-1.74.32-2.4.84-.52,1.08-1.02,2.17-1.5,3.26.1,2.08,1.8,3.74,3.9,3.74Z"/>
      <path class="cls-1" d="M9.1,75.73c0-2.17-1.76-3.92-3.92-3.92-.22,0-.44.03-.65.07-.72,2.23-1.36,4.49-1.94,6.78.69.61,1.59.99,2.59.99,2.17,0,3.92-1.76,3.92-3.92Z"/>
      <path class="cls-1" d="M26.72,65.29c2.17,0,3.92-1.76,3.92-3.92s-1.76-3.92-3.92-3.92-3.92,1.76-3.92,3.92,1.76,3.92,3.92,3.92Z"/>
      <path class="cls-1" d="M19.54,79.65c2.17,0,3.92-1.76,3.92-3.92s-1.76-3.92-3.92-3.92-3.92,1.76-3.92,3.92,1.76,3.92,3.92,3.92Z"/>
      <path class="cls-1" d="M41.09,57.45c-2.17,0-3.92,1.76-3.92,3.92s1.76,3.92,3.92,3.92,3.92-1.76,3.92-3.92-1.76-3.92-3.92-3.92Z"/>
      <circle class="cls-1" cx="33.9" cy="75.73" r="3.92"/>
      <path class="cls-1" d="M55.45,57.45c-2.17,0-3.92,1.76-3.92,3.92s1.76,3.92,3.92,3.92,3.92-1.76,3.92-3.92-1.76-3.92-3.92-3.92Z"/>
      <path class="cls-1" d="M48.27,71.81c-2.17,0-3.92,1.76-3.92,3.92s1.76,3.92,3.92,3.92,3.92-1.76,3.92-3.92-1.76-3.92-3.92-3.92Z"/>
      <path class="cls-1" d="M69.81,57.45c-2.17,0-3.92,1.76-3.92,3.92s1.76,3.92,3.92,3.92,3.92-1.76,3.92-3.92-1.76-3.92-3.92-3.92Z"/>
      <circle class="cls-1" cx="62.63" cy="75.73" r="3.92"/>
      <path class="cls-1" d="M84.17,57.45c-2.17,0-3.92,1.76-3.92,3.92s1.76,3.92,3.92,3.92,3.92-1.76,3.92-3.92-1.76-3.92-3.92-3.92Z"/>
      <circle class="cls-1" cx="76.99" cy="75.73" r="3.92"/>
      <path class="cls-1" d="M98.54,57.45c-2.17,0-3.92,1.76-3.92,3.92s1.76,3.92,3.92,3.92,3.92-1.76,3.92-3.92-1.76-3.92-3.92-3.92Z"/>
      <path class="cls-1" d="M91.35,71.81c-2.17,0-3.92,1.76-3.92,3.92s1.76,3.92,3.92,3.92,3.92-1.76,3.92-3.92-1.76-3.92-3.92-3.92Z"/>
      <path class="cls-1" d="M112.9,57.45c-2.17,0-3.92,1.76-3.92,3.92s1.76,3.92,3.92,3.92,3.92-1.76,3.92-3.92-1.76-3.92-3.92-3.92Z"/>
      <circle class="cls-1" cx="105.72" cy="75.73" r="3.92"/>
      <path class="cls-1" d="M127.26,57.45c-2.17,0-3.92,1.76-3.92,3.92s1.76,3.92,3.92,3.92,3.92-1.76,3.92-3.92-1.76-3.92-3.92-3.92Z"/>
      <path class="cls-1" d="M120.08,71.81c-2.17,0-3.92,1.76-3.92,3.92s1.76,3.92,3.92,3.92,3.92-1.76,3.92-3.92-1.76-3.92-3.92-3.92Z"/>
      <path class="cls-1" d="M141.62,57.45c-2.17,0-3.92,1.76-3.92,3.92s1.76,3.92,3.92,3.92,3.92-1.76,3.92-3.92-1.76-3.92-3.92-3.92Z"/>
      <circle class="cls-1" cx="134.44" cy="75.73" r="3.92"/>
      <path class="cls-1" d="M155.99,57.45c-2.17,0-3.92,1.76-3.92,3.92s1.76,3.92,3.92,3.92,3.92-1.76,3.92-3.92-1.76-3.92-3.92-3.92Z"/>
      <path class="cls-1" d="M148.8,71.81c-2.17,0-3.92,1.76-3.92,3.92s1.76,3.92,3.92,3.92,3.92-1.76,3.92-3.92-1.76-3.92-3.92-3.92Z"/>
      <path class="cls-1" d="M170.35,57.45c-2.17,0-3.92,1.76-3.92,3.92s1.76,3.92,3.92,3.92,3.92-1.76,3.92-3.92-1.76-3.92-3.92-3.92Z"/>
      <circle class="cls-1" cx="163.17" cy="75.73" r="3.92" transform="translate(71.72 230.64) rotate(-84.35)"/>
      <path class="cls-1" d="M184.71,65.29c2.17,0,3.92-1.76,3.92-3.92s-1.76-3.92-3.92-3.92-3.92,1.76-3.92,3.92,1.76,3.92,3.92,3.92Z"/>
      <circle class="cls-1" cx="177.53" cy="75.73" r="3.92"/>
      <path class="cls-1" d="M195.15,61.37c0,2.17,1.76,3.92,3.92,3.92s3.81-1.66,3.9-3.74c-.48-1.1-.98-2.18-1.5-3.26-.67-.52-1.49-.84-2.4-.84-2.17,0-3.92,1.76-3.92,3.92Z"/>
      <path class="cls-1" d="M191.89,79.65c2.17,0,3.92-1.76,3.92-3.92s-1.76-3.92-3.92-3.92-3.92,1.76-3.92,3.92,1.76,3.92,3.92,3.92Z"/>
      <path class="cls-1" d="M202.33,75.73c0,2.17,1.76,3.92,3.92,3.92,1,0,1.89-.38,2.59-.99-.57-2.29-1.22-4.55-1.94-6.78-.21-.04-.43-.07-.65-.07-2.17,0-3.92,1.76-3.92,3.92Z"/>
      <path class="cls-1" d="M1.92,90.1c0-1.06-.43-2.02-1.11-2.73-.32,2.01-.6,4.04-.81,6.08,1.15-.68,1.92-1.92,1.92-3.35Z"/>
      <path class="cls-1" d="M12.36,94.02c2.17,0,3.92-1.76,3.92-3.92s-1.76-3.92-3.92-3.92-3.92,1.76-3.92,3.92,1.76,3.92,3.92,3.92Z"/>
      <path class="cls-1" d="M5.18,100.54c-2.17,0-3.92,1.76-3.92,3.92s1.76,3.92,3.92,3.92,3.92-1.76,3.92-3.92-1.76-3.92-3.92-3.92Z"/>
      <path class="cls-1" d="M26.72,86.17c-2.17,0-3.92,1.76-3.92,3.92s1.76,3.92,3.92,3.92,3.92-1.76,3.92-3.92-1.76-3.92-3.92-3.92Z"/>
      <path class="cls-1" d="M19.54,100.54c-2.17,0-3.92,1.76-3.92,3.92s1.76,3.92,3.92,3.92,3.92-1.76,3.92-3.92-1.76-3.92-3.92-3.92Z"/>
      <path class="cls-1" d="M41.09,94.02c2.17,0,3.92-1.76,3.92-3.92s-1.76-3.92-3.92-3.92-3.92,1.76-3.92,3.92,1.76,3.92,3.92,3.92Z"/>
      <circle class="cls-1" cx="33.9" cy="104.46" r="3.92"/>
      <path class="cls-1" d="M55.45,86.17c-2.17,0-3.92,1.76-3.92,3.92s1.76,3.92,3.92,3.92,3.92-1.76,3.92-3.92-1.76-3.92-3.92-3.92Z"/>
      <path class="cls-1" d="M48.27,108.38c2.17,0,3.92-1.76,3.92-3.92s-1.76-3.92-3.92-3.92-3.92,1.76-3.92,3.92,1.76,3.92,3.92,3.92Z"/>
      <path class="cls-1" d="M69.81,86.17c-2.17,0-3.92,1.76-3.92,3.92s1.76,3.92,3.92,3.92,3.92-1.76,3.92-3.92-1.76-3.92-3.92-3.92Z"/>
      <circle class="cls-1" cx="62.63" cy="104.46" r="3.92"/>
      <path class="cls-1" d="M84.17,86.17c-2.17,0-3.92,1.76-3.92,3.92s1.76,3.92,3.92,3.92,3.92-1.76,3.92-3.92-1.76-3.92-3.92-3.92Z"/>
      <circle class="cls-1" cx="76.99" cy="104.46" r="3.92"/>
      <path class="cls-1" d="M98.54,94.02c2.17,0,3.92-1.76,3.92-3.92s-1.76-3.92-3.92-3.92-3.92,1.76-3.92,3.92,1.76,3.92,3.92,3.92Z"/>
      <path class="cls-1" d="M91.35,100.54c-2.17,0-3.92,1.76-3.92,3.92s1.76,3.92,3.92,3.92,3.92-1.76,3.92-3.92-1.76-3.92-3.92-3.92Z"/>
      <path class="cls-1" d="M112.9,94.02c2.17,0,3.92-1.76,3.92-3.92s-1.76-3.92-3.92-3.92-3.92,1.76-3.92,3.92,1.76,3.92,3.92,3.92Z"/>
      <circle class="cls-1" cx="105.72" cy="104.46" r="3.92"/>
      <path class="cls-1" d="M127.26,86.17c-2.17,0-3.92,1.76-3.92,3.92s1.76,3.92,3.92,3.92,3.92-1.76,3.92-3.92-1.76-3.92-3.92-3.92Z"/>
      <path class="cls-1" d="M120.08,108.38c2.17,0,3.92-1.76,3.92-3.92s-1.76-3.92-3.92-3.92-3.92,1.76-3.92,3.92,1.76,3.92,3.92,3.92Z"/>
      <path class="cls-1" d="M141.62,86.17c-2.17,0-3.92,1.76-3.92,3.92s1.76,3.92,3.92,3.92,3.92-1.76,3.92-3.92-1.76-3.92-3.92-3.92Z"/>
      <circle class="cls-1" cx="134.44" cy="104.46" r="3.92"/>
      <path class="cls-1" d="M155.99,86.17c-2.17,0-3.92,1.76-3.92,3.92s1.76,3.92,3.92,3.92,3.92-1.76,3.92-3.92-1.76-3.92-3.92-3.92Z"/>
      <path class="cls-1" d="M148.8,108.38c2.17,0,3.92-1.76,3.92-3.92s-1.76-3.92-3.92-3.92-3.92,1.76-3.92,3.92,1.76,3.92,3.92,3.92Z"/>
      <path class="cls-1" d="M170.35,86.17c-2.17,0-3.92,1.76-3.92,3.92s1.76,3.92,3.92,3.92,3.92-1.76,3.92-3.92-1.76-3.92-3.92-3.92Z"/>
      <circle class="cls-1" cx="163.17" cy="104.46" r="3.92" transform="translate(43.14 256.54) rotate(-84.35)"/>
      <path class="cls-1" d="M184.71,86.17c-2.17,0-3.92,1.76-3.92,3.92s1.76,3.92,3.92,3.92,3.92-1.76,3.92-3.92-1.76-3.92-3.92-3.92Z"/>
      <circle class="cls-1" cx="177.53" cy="104.46" r="3.92"/>
      <path class="cls-1" d="M199.07,94.02c2.17,0,3.92-1.76,3.92-3.92s-1.76-3.92-3.92-3.92-3.92,1.76-3.92,3.92,1.76,3.92,3.92,3.92Z"/>
      <path class="cls-1" d="M191.89,108.38c2.17,0,3.92-1.76,3.92-3.92s-1.76-3.92-3.92-3.92-3.92,1.76-3.92,3.92,1.76,3.92,3.92,3.92Z"/>
      <path class="cls-1" d="M211.43,93.45c-.21-2.05-.48-4.07-.81-6.08-.68.71-1.11,1.67-1.11,2.73,0,1.43.77,2.67,1.92,3.35Z"/>
      <circle class="cls-1" cx="206.25" cy="104.46" r="3.92"/>
      <path class="cls-1" d="M0,115.46c.21,2.05.48,4.07.81,6.08.68-.71,1.11-1.67,1.11-2.73,0-1.43-.77-2.67-1.92-3.36Z"/>
      <path class="cls-1" d="M12.36,114.9c-2.17,0-3.92,1.76-3.92,3.92s1.76,3.92,3.92,3.92,3.92-1.76,3.92-3.92-1.76-3.92-3.92-3.92Z"/>
      <path class="cls-1" d="M9.1,133.18c0-2.17-1.76-3.92-3.92-3.92-1,0-1.89.38-2.59.99.57,2.29,1.22,4.55,1.94,6.78.21.04.43.07.65.07,2.17,0,3.92-1.76,3.92-3.92Z"/>
      <circle class="cls-1" cx="26.72" cy="118.82" r="3.92" transform="translate(-91.43 89.28) rotate(-63.29)"/>
      <path class="cls-1" d="M19.54,129.26c-2.17,0-3.92,1.76-3.92,3.92s1.76,3.92,3.92,3.92,3.92-1.76,3.92-3.92-1.76-3.92-3.92-3.92Z"/>
      <path class="cls-1" d="M41.09,122.74c2.17,0,3.92-1.76,3.92-3.92s-1.76-3.92-3.92-3.92-3.92,1.76-3.92,3.92,1.76,3.92,3.92,3.92Z"/>
      <path class="cls-1" d="M33.9,137.1c2.17,0,3.92-1.76,3.92-3.92s-1.76-3.92-3.92-3.92-3.92,1.76-3.92,3.92,1.76,3.92,3.92,3.92Z"/>
      <circle class="cls-1" cx="55.45" cy="118.82" r="3.92"/>
      <path class="cls-1" d="M48.27,137.1c2.17,0,3.92-1.76,3.92-3.92s-1.76-3.92-3.92-3.92-3.92,1.76-3.92,3.92,1.76,3.92,3.92,3.92Z"/>
      <circle class="cls-1" cx="69.81" cy="118.82" r="3.92"/>
      <path class="cls-1" d="M62.63,137.1c2.17,0,3.92-1.76,3.92-3.92s-1.76-3.92-3.92-3.92-3.92,1.76-3.92,3.92,1.76,3.92,3.92,3.92Z"/>
      <path class="cls-1" d="M84.17,122.74c2.17,0,3.92-1.76,3.92-3.92s-1.76-3.92-3.92-3.92-3.92,1.76-3.92,3.92,1.76,3.92,3.92,3.92Z"/>
      <path class="cls-1" d="M76.99,137.1c2.17,0,3.92-1.76,3.92-3.92s-1.76-3.92-3.92-3.92-3.92,1.76-3.92,3.92,1.76,3.92,3.92,3.92Z"/>
      <path class="cls-1" d="M98.54,122.74c2.17,0,3.92-1.76,3.92-3.92s-1.76-3.92-3.92-3.92-3.92,1.76-3.92,3.92,1.76,3.92,3.92,3.92Z"/>
      <path class="cls-1" d="M91.35,137.1c2.17,0,3.92-1.76,3.92-3.92s-1.76-3.92-3.92-3.92-3.92,1.76-3.92,3.92,1.76,3.92,3.92,3.92Z"/>
      <path class="cls-1" d="M112.9,122.74c2.17,0,3.92-1.76,3.92-3.92s-1.76-3.92-3.92-3.92-3.92,1.76-3.92,3.92,1.76,3.92,3.92,3.92Z"/>
      <path class="cls-1" d="M105.72,137.1c2.17,0,3.92-1.76,3.92-3.92s-1.76-3.92-3.92-3.92-3.92,1.76-3.92,3.92,1.76,3.92,3.92,3.92Z"/>
      <path class="cls-1" d="M127.26,122.74c2.17,0,3.92-1.76,3.92-3.92s-1.76-3.92-3.92-3.92-3.92,1.76-3.92,3.92,1.76,3.92,3.92,3.92Z"/>
      <path class="cls-1" d="M120.08,137.1c2.17,0,3.92-1.76,3.92-3.92s-1.76-3.92-3.92-3.92-3.92,1.76-3.92,3.92,1.76,3.92,3.92,3.92Z"/>
      <path class="cls-1" d="M141.62,122.74c2.17,0,3.92-1.76,3.92-3.92s-1.76-3.92-3.92-3.92-3.92,1.76-3.92,3.92,1.76,3.92,3.92,3.92Z"/>
      <path class="cls-1" d="M134.44,137.1c2.17,0,3.92-1.76,3.92-3.92s-1.76-3.92-3.92-3.92-3.92,1.76-3.92,3.92,1.76,3.92,3.92,3.92Z"/>
      <circle class="cls-1" cx="155.99" cy="118.82" r="3.92"/>
      <path class="cls-1" d="M148.8,137.1c2.17,0,3.92-1.76,3.92-3.92s-1.76-3.92-3.92-3.92-3.92,1.76-3.92,3.92,1.76,3.92,3.92,3.92Z"/>
      <path class="cls-1" d="M170.35,114.9c-2.17,0-3.92,1.76-3.92,3.92s1.76,3.92,3.92,3.92,3.92-1.76,3.92-3.92-1.76-3.92-3.92-3.92Z"/>
      <path class="cls-1" d="M163.17,137.1c2.17,0,3.92-1.76,3.92-3.92s-1.76-3.92-3.92-3.92-3.92,1.76-3.92,3.92,1.76,3.92,3.92,3.92Z"/>
      <circle class="cls-1" cx="184.71" cy="118.82" r="3.92" transform="translate(-4.46 230.4) rotate(-63.29)"/>
      <path class="cls-1" d="M177.53,137.1c2.17,0,3.92-1.76,3.92-3.92s-1.76-3.92-3.92-3.92-3.92,1.76-3.92,3.92,1.76,3.92,3.92,3.92Z"/>
      <path class="cls-1" d="M199.07,114.9c-2.17,0-3.92,1.76-3.92,3.92s1.76,3.92,3.92,3.92,3.92-1.76,3.92-3.92-1.76-3.92-3.92-3.92Z"/>
      <path class="cls-1" d="M191.89,129.26c-2.17,0-3.92,1.76-3.92,3.92s1.76,3.92,3.92,3.92,3.92-1.76,3.92-3.92-1.76-3.92-3.92-3.92Z"/>
      <path class="cls-1" d="M209.51,118.82c0,1.06.43,2.02,1.11,2.73.32-2.01.6-4.04.81-6.08-1.14.68-1.92,1.92-1.92,3.36Z"/>
      <path class="cls-1" d="M202.33,133.18c0,2.17,1.76,3.92,3.92,3.92.22,0,.44-.03.65-.07.72-2.23,1.36-4.49,1.94-6.78-.69-.61-1.59-.99-2.59-.99-2.17,0-3.92,1.76-3.92,3.92Z"/>
      <path class="cls-1" d="M16.28,147.54c0-2.17-1.76-3.92-3.92-3.92s-3.81,1.66-3.9,3.74c.48,1.1.98,2.18,1.5,3.26.67.52,1.49.84,2.4.84,2.17,0,3.92-1.76,3.92-3.92Z"/>
      <circle class="cls-1" cx="26.72" cy="147.54" r="3.92" transform="translate(-119.91 116.22) rotate(-67.68)"/>
      <path class="cls-1" d="M23.46,161.91c0-2.17-1.76-3.92-3.92-3.92-1.86,0-3.41,1.3-3.81,3.04,1.01,1.61,2.07,3.19,3.16,4.74.21.04.43.07.65.07,2.17,0,3.92-1.76,3.92-3.92Z"/>
      <path class="cls-1" d="M41.09,151.47c2.17,0,3.92-1.76,3.92-3.92s-1.76-3.92-3.92-3.92-3.92,1.76-3.92,3.92,1.76,3.92,3.92,3.92Z"/>
      <circle class="cls-1" cx="33.9" cy="161.91" r="3.92"/>
      <circle class="cls-1" cx="55.45" cy="147.54" r="3.92"/>
      <path class="cls-1" d="M48.27,157.99c-2.17,0-3.92,1.76-3.92,3.92s1.76,3.92,3.92,3.92,3.92-1.76,3.92-3.92-1.76-3.92-3.92-3.92Z"/>
      <circle class="cls-1" cx="69.81" cy="147.54" r="3.92"/>
      <circle class="cls-1" cx="62.63" cy="161.91" r="3.92"/>
      <path class="cls-1" d="M84.17,151.47c2.17,0,3.92-1.76,3.92-3.92s-1.76-3.92-3.92-3.92-3.92,1.76-3.92,3.92,1.76,3.92,3.92,3.92Z"/>
      <circle class="cls-1" cx="76.99" cy="161.91" r="3.92"/>
      <path class="cls-1" d="M98.54,151.47c2.17,0,3.92-1.76,3.92-3.92s-1.76-3.92-3.92-3.92-3.92,1.76-3.92,3.92,1.76,3.92,3.92,3.92Z"/>
      <path class="cls-1" d="M91.35,165.83c2.17,0,3.92-1.76,3.92-3.92s-1.76-3.92-3.92-3.92-3.92,1.76-3.92,3.92,1.76,3.92,3.92,3.92Z"/>
      <path class="cls-1" d="M112.9,151.47c2.17,0,3.92-1.76,3.92-3.92s-1.76-3.92-3.92-3.92-3.92,1.76-3.92,3.92,1.76,3.92,3.92,3.92Z"/>
      <circle class="cls-1" cx="105.72" cy="161.91" r="3.92"/>
      <path class="cls-1" d="M127.26,151.47c2.17,0,3.92-1.76,3.92-3.92s-1.76-3.92-3.92-3.92-3.92,1.76-3.92,3.92,1.76,3.92,3.92,3.92Z"/>
      <path class="cls-1" d="M120.08,165.83c2.17,0,3.92-1.76,3.92-3.92s-1.76-3.92-3.92-3.92-3.92,1.76-3.92,3.92,1.76,3.92,3.92,3.92Z"/>
      <path class="cls-1" d="M141.62,151.47c2.17,0,3.92-1.76,3.92-3.92s-1.76-3.92-3.92-3.92-3.92,1.76-3.92,3.92,1.76,3.92,3.92,3.92Z"/>
      <circle class="cls-1" cx="134.44" cy="161.91" r="3.92"/>
      <circle class="cls-1" cx="155.99" cy="147.54" r="3.92"/>
      <path class="cls-1" d="M148.8,165.83c2.17,0,3.92-1.76,3.92-3.92s-1.76-3.92-3.92-3.92-3.92,1.76-3.92,3.92,1.76,3.92,3.92,3.92Z"/>
      <path class="cls-1" d="M170.35,151.47c2.17,0,3.92-1.76,3.92-3.92s-1.76-3.92-3.92-3.92-3.92,1.76-3.92,3.92,1.76,3.92,3.92,3.92Z"/>
      <circle class="cls-1" cx="163.17" cy="161.91" r="3.92" transform="translate(-66.7 162.8) rotate(-45)"/>
      <circle class="cls-1" cx="184.71" cy="147.54" r="3.92" transform="translate(-21.93 262.37) rotate(-67.68)"/>
      <circle class="cls-1" cx="177.53" cy="161.91" r="3.92"/>
      <path class="cls-1" d="M199.07,143.62c-2.17,0-3.92,1.76-3.92,3.92s1.76,3.92,3.92,3.92c.91,0,1.74-.32,2.4-.84.52-1.08,1.02-2.17,1.5-3.26-.1-2.08-1.8-3.74-3.9-3.74Z"/>
      <path class="cls-1" d="M191.89,157.99c-2.17,0-3.92,1.76-3.92,3.92s1.76,3.92,3.92,3.92c.22,0,.44-.03.65-.07,1.1-1.55,2.15-3.13,3.16-4.74-.4-1.74-1.95-3.04-3.81-3.04Z"/>
      <path class="cls-1" d="M26.72,172.35c-.82,0-1.58.25-2.2.68,1.67,1.97,3.41,3.88,5.21,5.73.56-.68.91-1.54.91-2.49,0-2.17-1.76-3.92-3.92-3.92Z"/>
      <path class="cls-1" d="M41.09,172.35c-2.17,0-3.92,1.76-3.92,3.92s1.76,3.92,3.92,3.92,3.92-1.76,3.92-3.92-1.76-3.92-3.92-3.92Z"/>
      <circle class="cls-1" cx="55.45" cy="176.27" r="3.92"/>
      <path class="cls-1" d="M52.19,190.63c0-2.17-1.76-3.92-3.92-3.92s-3.92,1.76-3.92,3.92c0,.22.03.44.07.65,1.55,1.1,3.13,2.15,4.74,3.16,1.74-.4,3.04-1.95,3.04-3.81Z"/>
      <circle class="cls-1" cx="69.81" cy="176.27" r="3.92"/>
      <path class="cls-1" d="M62.63,186.71c-2.17,0-3.92,1.76-3.92,3.92s1.76,3.92,3.92,3.92,3.92-1.76,3.92-3.92-1.76-3.92-3.92-3.92Z"/>
      <path class="cls-1" d="M84.17,172.35c-2.17,0-3.92,1.76-3.92,3.92s1.76,3.92,3.92,3.92,3.92-1.76,3.92-3.92-1.76-3.92-3.92-3.92Z"/>
      <path class="cls-1" d="M76.99,186.71c-2.17,0-3.92,1.76-3.92,3.92s1.76,3.92,3.92,3.92,3.92-1.76,3.92-3.92-1.76-3.92-3.92-3.92Z"/>
      <path class="cls-1" d="M98.54,180.19c2.17,0,3.92-1.76,3.92-3.92s-1.76-3.92-3.92-3.92-3.92,1.76-3.92,3.92,1.76,3.92,3.92,3.92Z"/>
      <path class="cls-1" d="M91.35,186.71c-2.17,0-3.92,1.76-3.92,3.92s1.76,3.92,3.92,3.92,3.92-1.76,3.92-3.92-1.76-3.92-3.92-3.92Z"/>
      <path class="cls-1" d="M112.9,180.19c2.17,0,3.92-1.76,3.92-3.92s-1.76-3.92-3.92-3.92-3.92,1.76-3.92,3.92,1.76,3.92,3.92,3.92Z"/>
      <path class="cls-1" d="M105.72,186.71c-2.17,0-3.92,1.76-3.92,3.92s1.76,3.92,3.92,3.92,3.92-1.76,3.92-3.92-1.76-3.92-3.92-3.92Z"/>
      <path class="cls-1" d="M127.26,172.35c-2.17,0-3.92,1.76-3.92,3.92s1.76,3.92,3.92,3.92,3.92-1.76,3.92-3.92-1.76-3.92-3.92-3.92Z"/>
      <path class="cls-1" d="M120.08,186.71c-2.17,0-3.92,1.76-3.92,3.92s1.76,3.92,3.92,3.92,3.92-1.76,3.92-3.92-1.76-3.92-3.92-3.92Z"/>
      <path class="cls-1" d="M141.62,172.35c-2.17,0-3.92,1.76-3.92,3.92s1.76,3.92,3.92,3.92,3.92-1.76,3.92-3.92-1.76-3.92-3.92-3.92Z"/>
      <path class="cls-1" d="M134.44,186.71c-2.17,0-3.92,1.76-3.92,3.92s1.76,3.92,3.92,3.92,3.92-1.76,3.92-3.92-1.76-3.92-3.92-3.92Z"/>
      <circle class="cls-1" cx="155.99" cy="176.27" r="3.92"/>
      <path class="cls-1" d="M148.8,186.71c-2.17,0-3.92,1.76-3.92,3.92s1.76,3.92,3.92,3.92,3.92-1.76,3.92-3.92-1.76-3.92-3.92-3.92Z"/>
      <path class="cls-1" d="M170.35,172.35c-2.17,0-3.92,1.76-3.92,3.92s1.76,3.92,3.92,3.92,3.92-1.76,3.92-3.92-1.76-3.92-3.92-3.92Z"/>
      <path class="cls-1" d="M163.17,186.71c-2.17,0-3.92,1.76-3.92,3.92,0,1.86,1.3,3.41,3.04,3.81,1.61-1.01,3.19-2.07,4.74-3.16.04-.21.07-.43.07-.65,0-2.17-1.76-3.92-3.92-3.92Z"/>
      <path class="cls-1" d="M180.79,176.27c0,.95.35,1.81.91,2.49,1.81-1.85,3.54-3.76,5.21-5.73-.63-.43-1.39-.68-2.2-.68-2.17,0-3.92,1.76-3.92,3.92Z"/>
      <path class="cls-1" d="M69.81,201.07c-1.52,0-2.82.87-3.47,2.13,2.39.95,4.83,1.82,7.3,2.61.06-.26.09-.54.09-.82,0-2.17-1.76-3.92-3.92-3.92Z"/>
      <path class="cls-1" d="M88.09,204.99c0-2.17-1.76-3.92-3.92-3.92s-3.92,1.76-3.92,3.92c0,1.22.57,2.3,1.45,3.02,1.16.27,2.34.51,3.52.74,1.65-.46,2.88-1.96,2.88-3.76Z"/>
      <path class="cls-1" d="M98.54,201.07c-2.17,0-3.92,1.76-3.92,3.92s1.76,3.92,3.92,3.92,3.92-1.76,3.92-3.92-1.76-3.92-3.92-3.92Z"/>
      <path class="cls-1" d="M112.9,201.07c-2.17,0-3.92,1.76-3.92,3.92s1.76,3.92,3.92,3.92,3.92-1.76,3.92-3.92-1.76-3.92-3.92-3.92Z"/>
      <path class="cls-1" d="M131.18,204.99c0-2.17-1.76-3.92-3.92-3.92s-3.92,1.76-3.92,3.92c0,1.8,1.22,3.3,2.88,3.76,1.18-.23,2.35-.47,3.52-.74.88-.72,1.45-1.8,1.45-3.02Z"/>
      <path class="cls-1" d="M141.62,201.07c-2.17,0-3.92,1.76-3.92,3.92,0,.28.03.55.09.82,2.47-.78,4.91-1.65,7.3-2.61-.65-1.26-1.95-2.13-3.47-2.13Z"/>
    </g>
  </g>
</svg>