<?xml version="1.0" encoding="UTF-8"?>
<svg id="_レイヤー_2" data-name="レイヤー 2" xmlns="http://www.w3.org/2000/svg" viewBox="0 0 380.39 43.02">
  <defs>
    <style>
      .cls-1 {
        fill: #00913a;
      }
    </style>
  </defs>
  <g id="_レイヤー_1-2" data-name="レイヤー 1">
    <g>
      <path class="cls-1" d="M14.84,13.25c-.93,5.38-2.04,7.96-4.27,9.98-2.36,2.12-6.22,3.82-10.58,4.65v-11c4.4-.87,5.07-2.58,5.42-13.76h22.22v6.03h10.26v12.24c-.04,10.54-1.38,14.35-6.35,17.99-4.53,2.94-8.22,3.63-19.77,3.63H2.93v-9.98h12.44c9.38-.09,11.46-1.98,11.51-10.26v-9.52h-12.04ZM28.88.74h5.02v7.27h-5.02V.74ZM35.24.74h4.98v7.27h-4.98V.74Z"/>
      <path class="cls-1" d="M62.16,23.65c0,8.1-.49,10.72-2.58,13.76-2.4,3.27-5.91,4.92-11.82,5.47v-10.9c3.16-.51,3.78-1.47,3.82-5.7V2.39h10.58v21.25ZM64.74,2.39h10.66v28.71c2.27.09,3.47-1.33,3.42-4.14v-14.54h10v15.27c.31,8.83-4.67,13.89-13.64,14.03h-10.44V2.39Z"/>
      <path class="cls-1" d="M97.22,16.98h39.41v10.4h-39.41v-10.4Z"/>
      <path class="cls-1" d="M147.29,3.17h28.04c-.4,1.47-.49,2.21-.49,3.17,0,4,3.02,7.08,6.93,7.08.71,0,1.38-.09,2.67-.41-.4,13.48-.8,15.69-3.82,20.75-4.31,6.16-9.24,8-21.51,7.87h-9.02v-10.44h8.53c4.49,0,6.13-.18,7.95-.87,2.53-.92,4.67-2.9,5.47-5.06.49-1.33.93-5.94.93-10.03,0-.28,0-.74-.04-1.47h-25.64V3.17ZM187.77,6.07c0,3.4-2.62,6.12-5.87,6.12s-5.91-2.71-5.91-6.16,2.67-6.03,6-6.03c3.15,0,5.78,2.76,5.78,6.07ZM179.64,6.07c0,1.29,1.02,2.35,2.27,2.35s2.27-1.06,2.27-2.35-1.02-2.35-2.31-2.35c-1.2,0-2.22,1.06-2.22,2.35Z"/>
      <path class="cls-1" d="M196.57,2.39h11.11v28.75c1.29.05,2.62.05,3.11.05,4.53,0,6.75-.41,8.62-1.61,2.18-1.33,3.29-4,3.51-8.14.09-2.25.13-4.05.27-9.06h10.93v1.47c0,9.25-.58,14.58-1.96,17.9-1.82,4.23-4.62,6.85-9.11,8.42-3.02,1.06-6.84,1.7-10.35,1.7h-16.13V2.39Z"/>
      <path class="cls-1" d="M248.02,24.48c-1.2-6.95-1.78-9.89-3.24-16.06h9.86c.98,3.63,1.55,6.3,3.38,16.06h-10ZM247,32.43h12.71c8-.05,10.66-1.79,10.62-6.99V8.1h10.26v14.4c.04,8.74-1.24,12.97-4.75,16.01-3.29,2.71-7.51,3.54-17.82,3.59h-11.02v-9.66ZM266.33,8.42c1.42,5.61,2.27,9.85,3.29,16.06h-9.69c-.8-5.01-1.96-10.67-3.33-16.06h9.73Z"/>
      <path class="cls-1" d="M293.12,32.34c8.13,0,10.53-.69,13.33-3.77,3.6-4.09,5.73-8.33,7.78-15.46h-19.06V2.71h33.86c-1.87,7.77-3.24,12.1-6.27,19.92,4.09,5.8,8.09,12.79,10.93,19.09h-12.4c-1.2-2.94-1.42-3.36-4.31-8.51-2.84,3.59-3.64,4.46-4.98,5.52-3.64,2.81-8.22,3.82-17.02,3.82h-1.87v-10.21Z"/>
      <path class="cls-1" d="M342.31,31.15h15.73c4.35-.05,7.55-1.1,9.42-3.08,1.64-1.93,1.91-3.17,1.91-8.74V7.18h11.02v15.23c0,6.76-1.24,10.4-4.62,13.99-3.51,3.59-8.75,5.57-14.88,5.57h-18.57v-10.81ZM362.61,18.77c-4.98-1.66-12.71-3.77-19.95-5.47V2.58c9.73,2.16,12.09,2.81,19.95,5.06v11.13Z"/>
    </g>
  </g>
</svg>