<?xml version="1.0" encoding="UTF-8"?>
<svg id="_レイヤー_2" data-name="レイヤー 2" xmlns="http://www.w3.org/2000/svg" viewBox="0 0 197.9 28.99">
  <defs>
    <style>
      .cls-1 {
        fill: #00913a;
      }
    </style>
  </defs>
  <g id="_レイヤー_1-2" data-name="レイヤー 1">
    <g>
      <path class="cls-1" d="M0,21.66c5.66,0,7.33-.48,9.27-2.62,2.5-2.85,3.99-5.79,5.41-10.75H1.42V1.06h23.56c-1.3,5.41-2.26,8.42-4.36,13.85,2.84,4.03,5.63,8.9,7.6,13.28h-8.62c-.83-2.05-.99-2.34-3-5.92-1.98,2.5-2.53,3.1-3.46,3.84-2.54,1.95-5.72,2.66-11.84,2.66H0v-7.1Z"/>
      <path class="cls-1" d="M43.03,12.86c-1.64,3.29-3.96,4.64-9.3,5.54v-7.65c1.89-.45,3.03-1.44,3.62-3.14.31-.9.74-3.87.93-6.66h7.42c-.15,2.05-.25,3.01-.53,4.93h15.52v6.98h-5.72v4.74c.06,7.26-3.93,11.1-11.59,11.17h-7.3v-7.23h6.06c4.08-.13,5.35-1.44,5.32-5.44v-3.23h-4.42Z"/>
      <path class="cls-1" d="M80.4,20.96c5.1,0,6.68-1.7,6.65-7.01v-7.78h7.7v9.21c.06,8.48-4.79,12.9-14.19,12.99h-11.9v-7.42h11.75ZM82.47,9.79c-4.73-1.09-8.41-1.73-13.54-2.37V.64c5.07.54,7.76.99,13.54,2.18v6.97ZM82.47,18.59c-7.27-1.31-9-1.54-13.54-1.98v-7.17c7.11.96,7.17.99,13.54,2.27v6.88ZM90.94,0v4.86h-3.34V0h3.34ZM95.11,0v4.86h-3.28V0h3.28Z"/>
      <path class="cls-1" d="M102.74,21.21h13.17v-6.91c.03-1.6-.46-2.05-2.26-2.05h-8.66v-6.85h12.06c3.77-.13,5.63,1.47,5.84,5.05v10.75h5.47v6.43h-25.63v-6.43Z"/>
      <path class="cls-1" d="M135.72,10.97h27.42v7.23h-27.42v-7.23Z"/>
      <path class="cls-1" d="M179.34,15.62c0,5.63-.34,7.46-1.79,9.57-1.67,2.27-4.11,3.42-8.22,3.81v-7.58c2.2-.35,2.63-1.02,2.66-3.97V.83h7.36v14.78ZM181.13.83h7.42v19.97c1.58.06,2.41-.93,2.38-2.88V7.81h6.96v10.62c.22,6.14-3.25,9.66-9.49,9.76h-7.26V.83Z"/>
    </g>
  </g>
</svg>