<?xml version="1.0" encoding="UTF-8"?>
<svg id="_レイヤー_2" data-name="レイヤー 2" xmlns="http://www.w3.org/2000/svg" viewBox="0 0 771.2 103.63">
  <defs>
    <style>
      .cls-1 {
        fill: #fff;
      }

      .cls-2 {
        opacity: .2;
      }

      .cls-3 {
        fill: none;
        stroke: #00913a;
        stroke-linecap: round;
        stroke-linejoin: round;
        stroke-width: 3.67px;
      }
    </style>
  </defs>
  <g id="_レイヤー_1-2" data-name="レイヤー 1">
    <g class="cls-2">
      <g>
        <path class="cls-3" d="M0,68.77l28.52-1.85c.62,4.79,1.87,8.43,3.77,10.94,3.09,4.06,7.5,6.08,13.23,6.08,4.28,0,7.58-1.04,9.89-3.11,2.32-2.07,3.47-4.48,3.47-7.21s-1.1-4.92-3.31-6.97c-2.21-2.05-7.32-3.99-15.35-5.81-13.15-3.05-22.52-7.11-28.12-12.17-5.65-5.06-8.47-11.51-8.47-19.35,0-5.15,1.44-10.01,4.33-14.59,2.89-4.58,7.23-8.18,13.03-10.8,5.8-2.62,13.75-3.93,23.85-3.93,12.39,0,21.85,2.38,28.35,7.14,6.51,4.76,10.38,12.34,11.61,22.73l-28.25,1.71c-.75-4.51-2.33-7.79-4.73-9.84-2.4-2.05-5.72-3.08-9.96-3.08-3.48,0-6.11.76-7.87,2.29-1.76,1.53-2.65,3.38-2.65,5.57,0,1.6.73,3.03,2.18,4.31,1.41,1.32,4.76,2.55,10.06,3.69,13.1,2.92,22.49,5.87,28.15,8.85,5.67,2.98,9.79,6.69,12.37,11.11,2.58,4.42,3.87,9.37,3.87,14.83,0,6.43-1.72,12.35-5.16,17.77-3.44,5.42-8.25,9.54-14.42,12.34-6.18,2.8-13.96,4.2-23.36,4.2-16.5,0-27.92-3.28-34.27-9.84-6.35-6.56-9.95-14.9-10.79-25.02Z"/>
        <path class="cls-3" d="M167.25,73.49l25.61,3.01c-1.41,5.52-3.73,10.29-6.95,14.32-3.22,4.03-7.33,7.17-12.34,9.4-5.01,2.23-11.37,3.35-19.09,3.35s-13.66-.72-18.63-2.15-9.23-3.76-12.8-6.97c-3.57-3.21-6.37-6.98-8.4-11.3-2.03-4.33-3.04-10.06-3.04-17.21s1.23-13.68,3.71-18.65c1.81-3.64,4.28-6.91,7.41-9.8,3.13-2.89,6.35-5.04,9.66-6.45,5.25-2.23,11.98-3.35,20.18-3.35,11.47,0,20.21,2.12,26.23,6.36s10.24,10.44,12.67,18.59l-25.34,3.49c-.79-3.1-2.24-5.43-4.33-7.01-2.1-1.57-4.91-2.36-8.44-2.36-4.46,0-8.06,1.65-10.82,4.95-2.76,3.3-4.14,8.29-4.14,14.98,0,5.96,1.37,10.49,4.1,13.58,2.73,3.09,6.22,4.64,10.45,4.64,3.53,0,6.49-.93,8.9-2.8,2.4-1.87,4.2-4.74,5.39-8.61Z"/>
        <path class="cls-3" d="M218.78,1.71h26.93v36.91c3.66-3.92,7.3-6.72,10.92-8.41,3.62-1.69,7.9-2.53,12.84-2.53,7.32,0,13.09,2.3,17.3,6.9,4.21,4.6,6.32,11.67,6.32,21.19v46.14h-27.06v-39.92c0-4.56-.82-7.78-2.45-9.67-1.63-1.89-3.93-2.84-6.88-2.84-3.26,0-5.91,1.28-7.94,3.83-2.03,2.55-3.04,7.13-3.04,13.74v34.86h-26.93V1.71Z"/>
        <path class="cls-3" d="M400.73,72.53h-53.99c.48,4.47,1.65,7.79,3.51,9.98,2.6,3.14,6,4.72,10.19,4.72,2.65,0,5.16-.68,7.54-2.05,1.46-.87,3.02-2.39,4.7-4.58l26.53,2.53c-4.06,7.29-8.96,12.52-14.69,15.69-5.73,3.17-13.96,4.75-24.68,4.75-9.31,0-16.63-1.36-21.97-4.07-5.34-2.71-9.76-7.02-13.27-12.92s-5.26-12.84-5.26-20.82c0-11.35,3.52-20.53,10.55-27.55,7.04-7.02,16.75-10.53,29.15-10.53,10.06,0,18,1.57,23.82,4.72,5.82,3.14,10.26,7.7,13.3,13.67,3.04,5.97,4.57,13.74,4.57,23.31v3.14ZM373.33,59.2c-.53-5.38-1.93-9.23-4.2-11.55-2.27-2.32-5.26-3.49-8.97-3.49-4.28,0-7.7,1.76-10.26,5.26-1.63,2.19-2.67,5.45-3.11,9.78h26.53Z"/>
        <path class="cls-3" d="M500.62,1.71v100.21h-25.21v-10.73c-3.53,4.56-6.75,7.63-9.66,9.23-3.88,2.1-8.2,3.14-12.97,3.14-9.57,0-16.88-3.76-21.93-11.28-5.05-7.52-7.58-16.66-7.58-27.41,0-12.03,2.79-21.24,8.37-27.62,5.58-6.38,12.67-9.57,21.27-9.57,4.19,0,7.99.73,11.41,2.19,3.42,1.46,6.45,3.65,9.1,6.56V1.71h27.19ZM473.63,65.42c0-5.7-1.17-9.95-3.51-12.75-2.34-2.8-5.29-4.21-8.87-4.21-3.13,0-5.76,1.35-7.87,4.03-2.12,2.69-3.18,7.2-3.18,13.54,0,5.93,1.09,10.27,3.28,13.02,2.18,2.76,4.88,4.13,8.1,4.13,3.44,0,6.31-1.39,8.6-4.17,2.29-2.78,3.44-7.31,3.44-13.6Z"/>
        <path class="cls-3" d="M604.62,101.92h-25.14v-11.76c-3.75,4.83-7.53,8.27-11.35,10.32-3.82,2.05-8.5,3.08-14.06,3.08-7.41,0-13.22-2.29-17.44-6.87-4.21-4.58-6.32-11.63-6.32-21.16V29.33h27.06v39.92c0,4.56.82,7.79,2.45,9.71,1.63,1.91,3.93,2.87,6.88,2.87,3.22,0,5.86-1.28,7.91-3.83,2.05-2.55,3.08-7.13,3.08-13.74V29.33h26.93v72.6Z"/>
        <path class="cls-3" d="M635.44,1.71h27v100.21h-27V1.71Z"/>
        <path class="cls-3" d="M771.2,72.53h-53.99c.48,4.47,1.65,7.79,3.51,9.98,2.6,3.14,6,4.72,10.19,4.72,2.65,0,5.16-.68,7.54-2.05,1.46-.87,3.02-2.39,4.7-4.58l26.53,2.53c-4.06,7.29-8.96,12.52-14.69,15.69-5.73,3.17-13.96,4.75-24.68,4.75-9.31,0-16.63-1.36-21.97-4.07-5.34-2.71-9.76-7.02-13.27-12.92s-5.26-12.84-5.26-20.82c0-11.35,3.52-20.53,10.55-27.55,7.04-7.02,16.75-10.53,29.15-10.53,10.06,0,18,1.57,23.82,4.72,5.82,3.14,10.26,7.7,13.3,13.67,3.04,5.97,4.57,13.74,4.57,23.31v3.14ZM743.81,59.2c-.53-5.38-1.93-9.23-4.2-11.55-2.27-2.32-5.26-3.49-8.97-3.49-4.28,0-7.7,1.76-10.26,5.26-1.63,2.19-2.67,5.45-3.11,9.78h26.53Z"/>
      </g>
      <g>
        <path class="cls-1" d="M0,68.77l28.52-1.85c.62,4.79,1.87,8.43,3.77,10.94,3.09,4.06,7.5,6.08,13.23,6.08,4.28,0,7.58-1.04,9.89-3.11,2.32-2.07,3.47-4.48,3.47-7.21s-1.1-4.92-3.31-6.97c-2.21-2.05-7.32-3.99-15.35-5.81-13.15-3.05-22.52-7.11-28.12-12.17-5.65-5.06-8.47-11.51-8.47-19.35,0-5.15,1.44-10.01,4.33-14.59,2.89-4.58,7.23-8.18,13.03-10.8,5.8-2.62,13.75-3.93,23.85-3.93,12.39,0,21.85,2.38,28.35,7.14,6.51,4.76,10.38,12.34,11.61,22.73l-28.25,1.71c-.75-4.51-2.33-7.79-4.73-9.84-2.4-2.05-5.72-3.08-9.96-3.08-3.48,0-6.11.76-7.87,2.29-1.76,1.53-2.65,3.38-2.65,5.57,0,1.6.73,3.03,2.18,4.31,1.41,1.32,4.76,2.55,10.06,3.69,13.1,2.92,22.49,5.87,28.15,8.85,5.67,2.98,9.79,6.69,12.37,11.11,2.58,4.42,3.87,9.37,3.87,14.83,0,6.43-1.72,12.35-5.16,17.77-3.44,5.42-8.25,9.54-14.42,12.34-6.18,2.8-13.96,4.2-23.36,4.2-16.5,0-27.92-3.28-34.27-9.84-6.35-6.56-9.95-14.9-10.79-25.02Z"/>
        <path class="cls-1" d="M167.25,73.49l25.61,3.01c-1.41,5.52-3.73,10.29-6.95,14.32-3.22,4.03-7.33,7.17-12.34,9.4-5.01,2.23-11.37,3.35-19.09,3.35s-13.66-.72-18.63-2.15-9.23-3.76-12.8-6.97c-3.57-3.21-6.37-6.98-8.4-11.3-2.03-4.33-3.04-10.06-3.04-17.21s1.23-13.68,3.71-18.65c1.81-3.64,4.28-6.91,7.41-9.8,3.13-2.89,6.35-5.04,9.66-6.45,5.25-2.23,11.98-3.35,20.18-3.35,11.47,0,20.21,2.12,26.23,6.36s10.24,10.44,12.67,18.59l-25.34,3.49c-.79-3.1-2.24-5.43-4.33-7.01-2.1-1.57-4.91-2.36-8.44-2.36-4.46,0-8.06,1.65-10.82,4.95-2.76,3.3-4.14,8.29-4.14,14.98,0,5.96,1.37,10.49,4.1,13.58,2.73,3.09,6.22,4.64,10.45,4.64,3.53,0,6.49-.93,8.9-2.8,2.4-1.87,4.2-4.74,5.39-8.61Z"/>
        <path class="cls-1" d="M218.78,1.71h26.93v36.91c3.66-3.92,7.3-6.72,10.92-8.41,3.62-1.69,7.9-2.53,12.84-2.53,7.32,0,13.09,2.3,17.3,6.9,4.21,4.6,6.32,11.67,6.32,21.19v46.14h-27.06v-39.92c0-4.56-.82-7.78-2.45-9.67-1.63-1.89-3.93-2.84-6.88-2.84-3.26,0-5.91,1.28-7.94,3.83-2.03,2.55-3.04,7.13-3.04,13.74v34.86h-26.93V1.71Z"/>
        <path class="cls-1" d="M400.73,72.53h-53.99c.48,4.47,1.65,7.79,3.51,9.98,2.6,3.14,6,4.72,10.19,4.72,2.65,0,5.16-.68,7.54-2.05,1.46-.87,3.02-2.39,4.7-4.58l26.53,2.53c-4.06,7.29-8.96,12.52-14.69,15.69-5.73,3.17-13.96,4.75-24.68,4.75-9.31,0-16.63-1.36-21.97-4.07-5.34-2.71-9.76-7.02-13.27-12.92s-5.26-12.84-5.26-20.82c0-11.35,3.52-20.53,10.55-27.55,7.04-7.02,16.75-10.53,29.15-10.53,10.06,0,18,1.57,23.82,4.72,5.82,3.14,10.26,7.7,13.3,13.67,3.04,5.97,4.57,13.74,4.57,23.31v3.14ZM373.33,59.2c-.53-5.38-1.93-9.23-4.2-11.55-2.27-2.32-5.26-3.49-8.97-3.49-4.28,0-7.7,1.76-10.26,5.26-1.63,2.19-2.67,5.45-3.11,9.78h26.53Z"/>
        <path class="cls-1" d="M500.62,1.71v100.21h-25.21v-10.73c-3.53,4.56-6.75,7.63-9.66,9.23-3.88,2.1-8.2,3.14-12.97,3.14-9.57,0-16.88-3.76-21.93-11.28-5.05-7.52-7.58-16.66-7.58-27.41,0-12.03,2.79-21.24,8.37-27.62,5.58-6.38,12.67-9.57,21.27-9.57,4.19,0,7.99.73,11.41,2.19,3.42,1.46,6.45,3.65,9.1,6.56V1.71h27.19ZM473.63,65.42c0-5.7-1.17-9.95-3.51-12.75-2.34-2.8-5.29-4.21-8.87-4.21-3.13,0-5.76,1.35-7.87,4.03-2.12,2.69-3.18,7.2-3.18,13.54,0,5.93,1.09,10.27,3.28,13.02,2.18,2.76,4.88,4.13,8.1,4.13,3.44,0,6.31-1.39,8.6-4.17,2.29-2.78,3.44-7.31,3.44-13.6Z"/>
        <path class="cls-1" d="M604.62,101.92h-25.14v-11.76c-3.75,4.83-7.53,8.27-11.35,10.32-3.82,2.05-8.5,3.08-14.06,3.08-7.41,0-13.22-2.29-17.44-6.87-4.21-4.58-6.32-11.63-6.32-21.16V29.33h27.06v39.92c0,4.56.82,7.79,2.45,9.71,1.63,1.91,3.93,2.87,6.88,2.87,3.22,0,5.86-1.28,7.91-3.83,2.05-2.55,3.08-7.13,3.08-13.74V29.33h26.93v72.6Z"/>
        <path class="cls-1" d="M635.44,1.71h27v100.21h-27V1.71Z"/>
        <path class="cls-1" d="M771.2,72.53h-53.99c.48,4.47,1.65,7.79,3.51,9.98,2.6,3.14,6,4.72,10.19,4.72,2.65,0,5.16-.68,7.54-2.05,1.46-.87,3.02-2.39,4.7-4.58l26.53,2.53c-4.06,7.29-8.96,12.52-14.69,15.69-5.73,3.17-13.96,4.75-24.68,4.75-9.31,0-16.63-1.36-21.97-4.07-5.34-2.71-9.76-7.02-13.27-12.92s-5.26-12.84-5.26-20.82c0-11.35,3.52-20.53,10.55-27.55,7.04-7.02,16.75-10.53,29.15-10.53,10.06,0,18,1.57,23.82,4.72,5.82,3.14,10.26,7.7,13.3,13.67,3.04,5.97,4.57,13.74,4.57,23.31v3.14ZM743.81,59.2c-.53-5.38-1.93-9.23-4.2-11.55-2.27-2.32-5.26-3.49-8.97-3.49-4.28,0-7.7,1.76-10.26,5.26-1.63,2.19-2.67,5.45-3.11,9.78h26.53Z"/>
      </g>
    </g>
  </g>
</svg>