<?xml version="1.0" encoding="UTF-8"?>
<svg id="_レイヤー_2" data-name="レイヤー 2" xmlns="http://www.w3.org/2000/svg" viewBox="0 0 299.67 30.01">
  <defs>
    <style>
      .cls-1 {
        fill: #00913a;
      }
    </style>
  </defs>
  <g id="_レイヤー_1-2" data-name="レイヤー 1">
    <g>
      <path class="cls-1" d="M.09,20.25c1.85-1.54,2.41-2.14,3.62-4.06H.34v-6.3h4.24v-.64H1.21c-.25-2.02-.71-4.74-1.21-7.01h3.65c.09.51.15.86.15,1.02l.28,1.76c.06.45.22,1.28.43,2.5V.74h6.03v6.34c.37-2.02.4-2.34.74-4.9h3.25v-.67c1.7.48,1.95.54,6.09,1.82v6.85c-2.35-.8-3.43-1.15-6.09-1.89V2.5c-.22,1.57-.59,3.84-1.08,6.75h-2.91v.64h3.28v6.3h-3.28v.45l3.21,1.95v7.2c-1.64-1.02-1.82-1.15-3.21-2.05v6.27h-5.97v-5.38c-1.55,2.11-2.5,3.04-4.48,4.35v-8.74ZM21.24,18.37V.74h6.24v17.15l1.67-.1v6.53l-1.67.16v5.54h-6.24v-5.02l-6.96.64v-6.72l6.96-.54ZM14.53,9.44l3.18.96c1.27.35,1.36.38,2.91.9v6.82c-.71-.22-1.27-.38-1.61-.51-1.7-.54-2.84-.9-3.22-.99-.15-.06-.68-.19-1.27-.32v-6.85Z"/>
      <path class="cls-1" d="M52.24.8c2.1,2.5,6.77,5.41,10.51,6.56v6.91c-2.13-.67-2.94-.96-4.7-1.76v1.22h-6.03v.96h9.4v5.66h-9.4v3.52h1.11l1.33-2.72h6.71l-1.67,2.72h2.88v5.95h-27.76v-5.95h2.88l-1.7-2.72h6.65l1.39,2.72h1.11v-3.52h-9.37v-5.66h9.37v-.96h-5.94v-1.34c-2.04,1.06-2.94,1.41-4.7,1.82v-6.85c4.42-1.63,8.47-4.13,10.51-6.56h7.42ZM51.1,8.35c-1.21-.8-1.76-1.28-2.6-2.18-.9.93-1.36,1.34-2.47,2.18h5.07Z"/>
      <path class="cls-1" d="M69.64,2.21h19.51c-.28,1.02-.34,1.54-.34,2.21,0,2.78,2.1,4.93,4.82,4.93.49,0,.96-.06,1.85-.29-.28,9.38-.56,10.91-2.66,14.43-3,4.29-6.43,5.57-14.96,5.47h-6.28v-7.26h5.94c3.12,0,4.27-.13,5.53-.61,1.76-.64,3.25-2.02,3.8-3.52.34-.93.65-4.13.65-6.98,0-.19,0-.51-.03-1.02h-17.84V2.21ZM97.8,4.22c0,2.37-1.82,4.26-4.08,4.26s-4.11-1.89-4.11-4.29,1.85-4.19,4.17-4.19c2.19,0,4.02,1.92,4.02,4.22ZM92.15,4.22c0,.9.71,1.63,1.58,1.63s1.58-.74,1.58-1.63-.71-1.63-1.61-1.63c-.83,0-1.55.74-1.55,1.63Z"/>
      <path class="cls-1" d="M104.14,9.5h25.47c.03,8.64-.25,11.23-1.48,13.95-1.64,3.65-6.65,6.08-12.37,6.05h-10.6v-6.98h8.62c6.28-.13,8.35-1.66,8.25-6.21h-17.9v-6.82ZM105.16,1.41h23.12v6.62h-23.12V1.41Z"/>
      <path class="cls-1" d="M137.3,21.66h10.94c3.03-.03,5.26-.77,6.55-2.14,1.14-1.34,1.33-2.21,1.33-6.08V4.99h7.67v10.59c0,4.7-.87,7.23-3.21,9.73-2.44,2.5-6.09,3.87-10.36,3.87h-12.92v-7.52ZM151.43,13.06c-3.46-1.15-8.84-2.62-13.88-3.81V1.79c6.77,1.5,8.41,1.95,13.88,3.52v7.74Z"/>
      <path class="cls-1" d="M172.35,29.82c-.46-4.86-.62-7.55-.62-10.94,0-4.35.28-9.09.99-17.06h6.86l-.09.96c0,.32-.15,1.95-.4,4.86-.28,2.94-.43,7.01-.43,10.34,0,4.29.19,8,.56,11.84h-6.86ZM198.63,28.89c-1.55.1-2.26.13-4.14.13-6.58,0-8.38-.22-10.08-1.22-2.29-1.34-3.52-3.52-3.52-6.21,0-2.08.49-3.9,1.7-6.14h6.62c-1.27,2.69-1.39,3.07-1.39,4.16,0,2.05,1.14,2.66,4.92,2.66,1.51,0,4.08-.06,5.9-.13v6.75ZM182.09,3.46l15.74-.1v6.66h-15.74V3.46Z"/>
      <path class="cls-1" d="M204.84,3.39l11.9-.26,3.18-.06c4.27,0,7.02.67,8.75,2.18,2.38,2.05,3.71,5.63,3.71,10.02s-1.3,7.49-4.02,10.02c-2.72,2.5-5.69,3.36-11.9,3.46l-9.68.16v-7.17l8.59-.06c3.71,0,5.63-.29,6.92-.99,1.58-.83,2.63-3.04,2.63-5.57s-1.08-4.16-3.06-4.7c-.9-.22-2.38-.32-5.6-.32-.09,0-.53,0-1.05.03l-10.39.22V3.39Z"/>
      <path class="cls-1" d="M246.14,17.05c0,4.06.03,4.29.62,4.29.77,0,1.79-.54,5.22-2.75v7.74c-4.05,2.24-5.87,2.98-7.54,2.98-2.13,0-3.93-1.22-4.64-3.2-.49-1.34-.74-3.14-.74-5.54V2.53h7.08v14.53ZM259,16.19c.06-4.8-.22-5.06-5.22-5.09v-6.78c1.14-.1,1.73-.13,2.63-.13,3.86,0,5.78.58,7.27,2.14,1.73,1.86,2.35,4.03,2.38,8.29l.06,12.67h-7.08l-.03-11.1Z"/>
      <path class="cls-1" d="M273.37,2.34l26.31-.45v6.88c-4.02.67-6,1.34-8.62,3.01-3.09,1.92-4.33,3.84-4.33,6.72,0,3.2,1.67,4.38,6.28,4.38l5.69.03v6.94h-4.67c-4.51,0-8.38-.77-10.36-2.08-2.94-1.89-4.42-4.77-4.42-8.54,0-2.78.74-5.02,2.41-7.17,1.17-1.57,2.07-2.3,4.11-3.39l-12.4.45V2.34Z"/>
    </g>
  </g>
</svg>